<?xml version="1.0" encoding="utf-8"?>
<!-- Generator: Adobe Illustrator 17.0.0, SVG Export Plug-In . SVG Version: 6.00 Build 0)  -->
<!DOCTYPE svg PUBLIC "-//W3C//DTD SVG 1.1//EN" "http://www.w3.org/Graphics/SVG/1.1/DTD/svg11.dtd">
<svg version="1.1" id="Layer_1" xmlns="http://www.w3.org/2000/svg" xmlns:xlink="http://www.w3.org/1999/xlink" x="0px" y="0px"
	 width="60px" height="45px" viewBox="0 0 60 45" enable-background="new 0 0 60 45" xml:space="preserve">
<g>
	<linearGradient id="SVGID_1_" gradientUnits="userSpaceOnUse" x1="-6.1748" y1="-6.5022" x2="61.1508" y2="47.4744">
		<stop  offset="0" style="stop-color:#C8BE65"/>
		<stop  offset="0.1267" style="stop-color:#D0C76B"/>
		<stop  offset="0.3366" style="stop-color:#E6E17B"/>
		<stop  offset="0.4553" style="stop-color:#F5F286"/>
		<stop  offset="0.9944" style="stop-color:#C8BE65"/>
	</linearGradient>
	<rect x="0" y="0" fill="url(#SVGID_1_)" width="60" height="45"/>
	<path fill="#281E02" d="M43.332,11.904H60v-0.882H42.961l-3.202,3.149h-9.31v-3.562L41.236,0h-1.268l-9.975,9.81L19.601,0h-1.294
		l11.245,10.615v3.556h-9.31l-3.202-3.149H0v0.882h16.668l2.939,2.891v7.664H0v0.882h19.608v7.001l-2.939,2.891H0v0.882h17.039
		l3.202-3.149h9.31v3.556L18.45,45h1.294l10.249-9.675L39.831,45h1.268L30.448,34.526v-3.562h9.31l3.202,3.149H60v-0.882H43.332
		l-2.939-2.891V23.34H60v-0.882H40.392v-7.664L43.332,11.904z M39.496,30.082H20.504v-15.03h18.991V30.082z"/>
</g>
</svg>
