<?xml version="1.0" encoding="utf-8"?>
<!-- Generator: Adobe Illustrator 17.0.0, SVG Export Plug-In . SVG Version: 6.00 Build 0)  -->
<!DOCTYPE svg PUBLIC "-//W3C//DTD SVG 1.1//EN" "http://www.w3.org/Graphics/SVG/1.1/DTD/svg11.dtd">
<svg version="1.1"
	 id="Layer_1" xmlns:dc="http://purl.org/dc/elements/1.1/" xmlns:cc="http://creativecommons.org/ns#" xmlns:rdf="http://www.w3.org/1999/02/22-rdf-syntax-ns#" xmlns:svg="http://www.w3.org/2000/svg" xmlns:sodipodi="http://sodipodi.sourceforge.net/DTD/sodipodi-0.dtd" xmlns:inkscape="http://www.inkscape.org/namespaces/inkscape" sodipodi:docname="Visa_2006.svg" inkscape:version="0.91 r13725"
	 xmlns="http://www.w3.org/2000/svg" xmlns:xlink="http://www.w3.org/1999/xlink" x="0px" y="0px" width="906.806px"
	 height="405.553px" viewBox="3975.449 0 906.806 405.553" enable-background="new 3975.449 0 906.806 405.553"
	 xml:space="preserve">
<sodipodi:namedview  inkscape:cy="131.15483" inkscape:cx="34.690897" inkscape:zoom="0.35355339" showgrid="false" guidetolerance="10" gridtolerance="10" objecttolerance="10" borderopacity="1" pagecolor="#ffffff" bordercolor="#666666" id="namedview19" inkscape:current-layer="Layer_1" inkscape:window-maximized="1" inkscape:window-y="-8" inkscape:window-x="-8" inkscape:window-height="705" inkscape:window-width="1366" inkscape:pageopacity="0" inkscape:pageshadow="2">
	</sodipodi:namedview>
<g>
	<path fill="#606060" d="M4832.61,127.14c0-9.696,7.757-17.841,17.066-17.841c9.696,0,17.065,8.145,17.065,17.841
		s-7.369,17.841-17.065,17.841C4840.367,145.37,4832.61,137.225,4832.61,127.14z M4849.676,141.103
		c7.369,0,12.799-6.206,12.799-13.575c0-7.369-5.818-13.575-12.799-13.575c-7.369,0-12.799,6.206-12.799,13.575
		C4836.876,134.897,4842.694,141.103,4849.676,141.103L4849.676,141.103z M4847.349,135.285h-3.491v-15.902h6.594
		c1.164,0,2.715,0,3.878,0.776c1.164,0.776,1.939,2.327,1.939,3.879c0,1.939-1.164,3.491-2.715,3.879l2.715,6.981h-3.879
		l-2.327-6.206h-2.715C4847.349,128.692,4847.349,135.285,4847.349,135.285z M4847.349,126.365h1.939c0.775,0,1.551,0,1.939-0.388
		c0.388-0.388,0.776-1.164,0.776-1.939c0-0.388-0.388-1.164-0.776-1.551c-0.388-0.388-1.551-0.388-1.939-0.388h-1.939
		C4847.736,122.486,4847.349,126.365,4847.349,126.365z M4588.649,8.069l-4.654,30.641c-10.084-5.43-17.454-7.369-25.599-7.369
		c-21.332,0-36.07,21.72-36.07,52.361c0,21.332,10.084,34.131,26.762,34.131c6.981,0,14.739-2.327,24.435-7.369l-5.042,32.192
		c-10.472,3.103-17.454,4.266-25.211,4.266c-30.64,0-50.033-23.271-50.033-60.505c0-50.033,26.375-85.328,64.384-85.328
		c5.042,0,9.309,0.388,12.799,1.551l12.023,3.103C4585.158,6.905,4585.934,6.905,4588.649,8.069z M4493.625,29.013
		c-0.776-0.388-1.939-0.388-2.715-0.388c-9.309,0-14.738,5.042-23.659,18.617l2.715-17.454h-25.986l-17.454,114.03h28.701
		c10.472-69.814,12.799-81.838,26.762-81.838h1.939c2.715-13.575,5.818-23.659,10.86-32.968
		C4494.788,29.013,4493.625,29.013,4493.625,29.013z M4322.968,142.267c-7.757,2.715-13.963,3.879-20.556,3.879
		c-14.351,0-22.496-8.921-22.496-25.211c0-3.103,0.388-6.594,0.775-10.472l1.939-11.248l1.164-8.921l12.411-77.959h28.313
		l-3.491,16.678h14.739l-4.267,27.538h-13.962l-7.757,48.482c-0.388,1.939-0.388,3.491-0.388,4.654c0,5.818,3.103,8.533,9.696,8.533
		c3.491,0,5.818-0.388,7.757-1.164L4322.968,142.267L4322.968,142.267z M4210.102,65.859c0,14.351,6.593,24.435,21.72,31.804
		c11.248,5.818,13.575,7.369,13.575,12.799c0,6.981-5.042,10.472-16.29,10.472c-8.533,0-16.29-1.164-25.599-4.654l-3.878,26.374
		l1.164,0.388l5.042,1.164c1.939,0.388,4.267,0.776,7.369,1.164c6.594,0.388,12.024,1.164,15.902,1.164
		c29.865,0,43.828-12.024,43.828-38.01c0-15.514-5.818-24.823-20.168-31.804c-12.023-5.818-13.187-6.981-13.187-12.411
		c0-6.206,4.654-9.309,13.963-9.309c5.817,0,13.187,0.776,20.556,1.939l4.267-26.374c-8.145-1.551-16.678-2.327-25.211-2.327
		C4220.962,27.461,4210.102,44.527,4210.102,65.859z M4816.32,143.818h-27.15l1.164-11.248
		c-7.757,8.921-15.902,12.799-26.375,12.799c-20.944,0-34.519-19.005-34.519-47.318c0-38.01,21.332-70.202,46.543-70.202
		c11.248,0,19.393,5.042,27.538,15.514l6.206-39.949h28.313L4816.32,143.818L4816.32,143.818z M4774.044,117.056
		c13.575,0,22.883-15.902,22.883-38.398c0-14.351-5.43-22.496-15.126-22.496c-12.799,0-22.108,15.902-22.108,38.398
		C4759.305,109.299,4764.348,117.056,4774.044,117.056z M4413.338,141.491c-9.697,3.103-19.393,4.654-29.477,4.654
		c-31.804,0-48.482-17.453-48.482-51.197c0-39.173,21.332-67.875,50.033-67.875c23.659,0,38.397,16.29,38.397,41.501
		c0,8.145-1.164,16.678-3.491,28.313h-57.015c-0.388,1.939-0.388,2.715-0.388,3.491c0,13.575,8.533,20.168,25.21,20.168
		c10.084,0,19.393-2.327,29.865-7.369C4417.604,113.178,4413.338,141.491,4413.338,141.491z M4397.436,73.228
		c0.388-2.327,0.388-4.266,0.388-5.818c0-9.309-5.042-14.739-13.575-14.739c-8.92,0-15.514,7.369-18.229,20.556H4397.436z
		 M4095.297,143.818h-28.313l16.29-107.824l-36.846,107.824h-19.393l-2.327-107.048l-17.453,107.048h-26.762l22.884-140.404h41.113
		l1.164,86.88l27.538-86.88h44.604L4095.297,143.818z M4168.989,93.009c-3.103-0.388-4.267-0.388-6.594-0.388
		c-16.29,0-24.435,5.818-24.435,17.453c0,6.981,4.266,11.636,10.472,11.636C4160.068,121.323,4168.602,109.687,4168.989,93.009z
		 M4189.934,143.818h-23.659l0.388-12.024c-7.369,9.696-16.678,13.575-29.865,13.575c-15.515,0-25.986-12.799-25.986-31.028
		c0-27.926,18.617-43.828,50.033-43.828c3.491,0,7.369,0.388,11.636,0.776c0.775-3.879,1.164-5.43,1.164-7.369
		c0-7.369-5.042-10.472-18.229-10.472c-8.145,0-17.453,1.164-23.659,3.491l-4.266,1.164l-2.715,0.776l3.879-25.598
		c14.351-4.266,23.659-6.206,34.131-6.206c24.435,0,37.622,11.636,37.622,33.356c0,5.818-0.388,9.696-2.327,22.883l-5.818,40.725
		l-1.164,7.369l-0.776,5.818l-0.388,4.266C4190.321,140.715,4189.934,143.818,4189.934,143.818z M4637.907,93.009
		c-2.715-0.388-4.267-0.388-6.594-0.388c-16.29,0-24.435,5.818-24.435,17.453c0,6.981,4.266,11.636,10.472,11.636
		C4628.986,121.323,4637.519,109.687,4637.907,93.009z M4658.463,143.818h-23.659l0.388-12.024
		c-7.369,9.696-16.678,13.575-29.865,13.575c-15.514,0-25.986-12.799-25.986-31.028c0-27.926,18.617-43.828,50.033-43.828
		c3.103,0,7.37,0.388,11.636,0.776c0.776-3.879,1.164-5.43,1.164-7.369c0-7.369-5.042-10.472-18.229-10.472
		c-8.145,0-17.454,1.164-23.659,3.491l-4.267,1.164l-2.715,0.776l3.878-25.598c14.351-4.266,23.659-6.206,34.131-6.206
		c24.435,0,37.622,11.636,37.622,33.356c0,5.818-0.388,9.696-2.327,22.883l-5.818,40.337l-0.776,7.369l-0.775,5.818l-0.388,3.879
		L4658.463,143.818L4658.463,143.818z M4738.361,29.013c-0.776-0.388-1.939-0.388-2.715-0.388c-9.308,0-14.738,5.042-23.659,18.617
		l2.715-17.454h-25.986l-17.454,114.03h28.701c10.472-69.814,12.799-81.838,26.762-81.838h1.939
		c1.939-11.636,5.818-22.496,10.86-32.968L4738.361,29.013L4738.361,29.013z"/>
	<path fill="#B2B2B2" d="M4618.514,254.357c0,25.986-8.145,41.113-20.556,41.113c-9.309,0.388-14.739-10.084-14.739-25.211
		c0-18.229,8.145-38.786,21.332-38.786C4615.023,231.473,4618.514,242.721,4618.514,254.357z M4646.827,254.745
		c0-28.701-14.351-51.197-40.725-51.197c-30.641,0-50.809,27.15-50.809,67.099c0,28.701,12.023,52.361,40.725,52.361
		C4625.107,323.007,4646.827,302.451,4646.827,254.745z M4564.214,183.767l-4.266,30.641c-9.696-5.43-16.29-7.369-23.659-7.369
		c-19.781,0-33.744,21.72-33.744,52.36c0,21.332,9.309,34.131,24.823,34.131c6.594,0,13.963-2.327,22.883-7.369l-4.654,32.192
		c-9.697,3.103-16.29,4.266-23.66,4.266c-28.701,0-46.93-23.271-46.93-60.505c0-50.033,24.823-85.328,60.118-85.328
		c4.654,0,8.533,0.388,12.023,1.551l10.86,3.103C4561.111,182.216,4561.887,182.604,4564.214,183.767L4564.214,183.767z
		 M4387.74,204.324c-0.776-0.388-1.939-0.388-2.715-0.388c-8.921,0-13.575,5.042-22.108,18.617l2.715-17.454h-24.047l-16.29,114.03
		h26.762c9.696-69.814,12.023-81.838,24.823-81.838c0.775,0,0.775,0,1.939,0.388c2.327-13.575,5.818-23.659,10.084-32.968
		L4387.74,204.324L4387.74,204.324z M4736.034,318.353h-25.211l1.164-11.248c-7.369,8.921-15.126,12.799-24.823,12.799
		c-19.393,0-32.192-19.005-32.192-47.318c0-38.01,19.781-70.202,43.44-70.202c10.472,0,18.229,5.042,25.599,15.902l5.818-39.949
		h26.374L4736.034,318.353L4736.034,318.353z M4696.473,291.591c12.799,0,21.332-15.902,21.332-38.398
		c0-14.351-5.042-22.108-14.351-22.108c-12.023,0-20.556,15.902-20.556,38.398C4682.898,283.834,4687.552,291.591,4696.473,291.591z
		 M4137.573,317.965c-8.92,3.103-18.229,4.654-27.538,4.654c-29.865,0-45.379-17.453-45.379-51.197
		c0-39.173,19.781-67.875,46.543-67.875c22.108,0,36.071,15.902,36.071,41.501c0,8.145-1.164,16.678-3.491,28.313h-52.749
		c-0.388,1.939-0.388,2.715-0.388,3.491c0,13.187,8.145,19.781,23.659,19.781c9.696,0,18.229-2.327,27.538-7.369L4137.573,317.965z
		 M4122.446,250.091c0-2.327,0.388-4.266,0.388-5.818c0-9.309-4.654-14.739-12.799-14.739c-8.533,0-14.351,7.369-17.066,20.556
		H4122.446L4122.446,250.091z M4454.839,317.965c-8.921,3.103-18.229,4.654-27.538,4.654c-29.865,0-45.379-17.453-45.379-51.197
		c0-39.173,19.781-67.875,46.542-67.875c22.108,0,36.071,15.902,36.071,41.501c0,8.145-1.164,16.678-3.491,28.313h-53.136
		c-0.388,1.939-0.388,2.715-0.388,3.491c0,13.187,8.145,19.781,23.659,19.781c9.696,0,18.229-2.327,27.538-7.369L4454.839,317.965
		L4454.839,317.965z M4440.1,250.091c0.388-2.327,0.388-4.266,0.388-5.818c0-9.309-4.654-14.739-12.799-14.739
		c-8.533,0-14.351,7.369-17.066,20.556H4440.1L4440.1,250.091z M4827.18,317.965c-8.921,3.103-18.229,4.654-27.538,4.654
		c-29.865,0-45.379-17.453-45.379-51.197c0-39.173,19.781-67.875,46.931-67.875c22.108,0,36.07,15.902,36.07,41.501
		c0,8.145-1.164,16.678-3.491,28.313h-53.136c-0.388,1.939-0.388,2.715-0.388,3.491c0,13.187,8.145,19.781,23.659,19.781
		c9.696,0,18.229-2.327,27.538-7.369L4827.18,317.965L4827.18,317.965z M4812.054,250.091c0-2.327,0.388-4.266,0.388-5.818
		c0-9.309-4.654-14.739-12.799-14.739c-8.533,0-14.351,7.369-17.066,20.556H4812.054L4812.054,250.091z M4058.45,209.754
		c-5.042-3.491-12.411-6.594-22.108-6.594c-10.86,0-19.393,2.327-19.393,13.575c0,20.169,39.174,12.799,39.174,56.239
		c0,39.561-25.986,50.033-49.258,50.033c-10.472,0-22.496-3.491-31.416-7.369l6.594-29.089c5.43,5.042,15.902,8.145,25.211,8.145
		c8.533,0,21.332-2.327,21.332-17.066c0-22.883-39.173-14.351-39.173-54.688c0-36.846,22.883-47.706,45.379-47.706
		c12.411,0,24.435,1.939,31.028,6.594L4058.45,209.754L4058.45,209.754z M4215.532,317.965c-5.43,2.715-12.799,4.266-23.659,4.266
		c-23.271,0-37.622-23.271-37.622-51.585c0-37.234,20.944-66.711,51.585-66.711c6.594,0,17.066,2.715,25.21,7.369l-5.818,27.15
		c-5.817-3.879-11.635-6.206-17.841-6.206c-14.351,0-24.435,13.187-24.435,36.458c0,13.575,7.369,24.435,19.005,24.435
		c6.981,0,12.023-1.551,17.841-5.042L4215.532,317.965L4215.532,317.965z M4315.599,289.264c-1.551,9.696-2.327,19.781-3.491,29.477
		h-25.599l1.939-18.229h-0.388c-8.145,12.411-16.29,20.944-31.029,20.944c-15.902,0-24.823-17.066-24.823-39.173
		c0-7.757,0.388-12.024,1.939-23.659l7.369-52.748h28.701l-7.757,53.136c-0.776,5.818-1.939,11.248-1.939,17.454
		c0,6.594,3.103,13.575,10.86,12.799c11.636,0,18.617-14.351,20.557-31.028l8.145-52.361h27.538L4315.599,289.264L4315.599,289.264z
		 M4853.554,317.19h-4.266v-18.617h-6.206v-4.266h16.678v4.266h-6.206V317.19L4853.554,317.19z M4882.256,317.19h-4.267v-19.005
		l-3.878,19.005h-4.267l-3.878-19.005v19.005h-4.267v-22.883h6.594l3.491,18.229h0.388l3.491-18.229h6.206
		C4882.256,294.306,4882.256,317.19,4882.256,317.19z"/>
</g>
</svg>
