<?xml version="1.0" encoding="utf-8"?>
<!-- Generator: Adobe Illustrator 17.0.0, SVG Export Plug-In . SVG Version: 6.00 Build 0)  -->
<!DOCTYPE svg PUBLIC "-//W3C//DTD SVG 1.1//EN" "http://www.w3.org/Graphics/SVG/1.1/DTD/svg11.dtd">
<svg version="1.1"
	 id="Layer_1" xmlns:dc="http://purl.org/dc/elements/1.1/" xmlns:cc="http://creativecommons.org/ns#" xmlns:rdf="http://www.w3.org/1999/02/22-rdf-syntax-ns#" xmlns:svg="http://www.w3.org/2000/svg" xmlns:sodipodi="http://sodipodi.sourceforge.net/DTD/sodipodi-0.dtd" xmlns:inkscape="http://www.inkscape.org/namespaces/inkscape" sodipodi:docname="Visa_2006.svg" inkscape:version="0.91 r13725"
	 xmlns="http://www.w3.org/2000/svg" xmlns:xlink="http://www.w3.org/1999/xlink" x="0px" y="0px" width="522.222px"
	 height="405.553px" viewBox="2351.615 0 522.222 405.553" enable-background="new 2351.615 0 522.222 405.553"
	 xml:space="preserve">
<sodipodi:namedview  inkscape:cy="131.15483" inkscape:cx="34.690897" inkscape:zoom="0.35355339" showgrid="false" guidetolerance="10" gridtolerance="10" objecttolerance="10" borderopacity="1" pagecolor="#ffffff" bordercolor="#666666" id="namedview19" inkscape:current-layer="Layer_1" inkscape:window-maximized="1" inkscape:window-y="-8" inkscape:window-x="-8" inkscape:window-height="705" inkscape:window-width="1366" inkscape:pageopacity="0" inkscape:pageshadow="2">
	</sodipodi:namedview>
<g>
	<rect id="rect19" x="2541.856" y="34.546" fill="#828282" width="141.322" height="253.898"/>
	<path id="XMLID_330_" inkscape:connector-curvature="0" fill="#494949" d="M2551.264,161.496c0-51.585,24.25-97.368,61.462-126.949
		C2585.34,13.014,2550.793,0,2513.111,0c-89.267,0-161.496,72.229-161.496,161.496s72.229,161.496,161.496,161.496
		c37.682,0,72.229-13.014,99.615-34.546C2575.462,259.281,2551.264,213.08,2551.264,161.496z"/>
	<path id="path22" inkscape:connector-curvature="0" fill="#AAAAAA" d="M2873.837,161.496c0,89.267-72.229,161.496-161.496,161.496
		c-37.682,0-72.229-13.014-99.615-34.546c37.682-29.634,61.462-75.365,61.462-126.949s-24.25-97.368-61.462-126.949
		C2640.06,13.014,2674.607,0,2712.289,0C2801.608,0,2873.837,72.699,2873.837,161.496z"/>
</g>
</svg>
