<?xml version="1.0" encoding="utf-8"?>
<!-- Generator: Adobe Illustrator 17.0.0, SVG Export Plug-In . SVG Version: 6.00 Build 0)  -->
<!DOCTYPE svg PUBLIC "-//W3C//DTD SVG 1.1//EN" "http://www.w3.org/Graphics/SVG/1.1/DTD/svg11.dtd">
<svg version="1.1" id="Layer_1" xmlns="http://www.w3.org/2000/svg" xmlns:xlink="http://www.w3.org/1999/xlink" x="0px" y="0px"
	 width="200px" height="58.349px" viewBox="0 0 200 58.349" enable-background="new 0 0 200 58.349" xml:space="preserve">
<g>
	<path d="M9.776,28.537v16.15H0V0.911h13.904c2.509,0,4.786,0.182,6.831,0.546c2.043,0.364,3.784,1.053,5.222,2.064
		c1.436,1.012,2.54,2.409,3.309,4.189c0.769,1.782,1.154,4.068,1.154,6.861c0,2.591-0.416,4.777-1.245,6.557
		c-0.83,1.782-1.973,3.218-3.431,4.311s-3.198,1.882-5.222,2.368c-2.024,0.485-4.23,0.729-6.618,0.729H9.776z M13.661,21.251
		c2.186,0,3.804-0.577,4.857-1.73c1.052-1.154,1.579-2.803,1.579-4.949c0-2.266-0.456-3.946-1.366-5.039
		c-0.911-1.093-2.601-1.639-5.07-1.639H9.776v13.358H13.661z"/>
	<path d="M42.927,45.78c-2.996,0-5.323-0.871-6.983-2.611c-1.66-1.74-2.489-4.168-2.489-7.286c0-3.724,1.123-6.364,3.37-7.923
		c2.247-1.558,5.636-2.337,10.17-2.337h3.886v-1.154c0-1.659-0.345-2.945-1.032-3.855c-0.689-0.911-1.903-1.366-3.643-1.366
		c-1.821,0-3.451,0.162-4.888,0.486c-1.437,0.325-2.803,0.769-4.098,1.336l-2.368-5.889c1.7-0.809,3.693-1.447,5.981-1.912
		c2.286-0.465,4.442-0.698,6.466-0.698c2.307,0,4.24,0.233,5.799,0.698c1.558,0.466,2.813,1.225,3.764,2.277
		c0.951,1.053,1.629,2.409,2.034,4.068c0.404,1.66,0.607,3.704,0.607,6.132V38.07l2.004,4.25l-7.104,3.461l-2.732-4.007
		c-1.539,1.336-2.985,2.337-4.341,3.005C45.972,45.446,44.505,45.78,42.927,45.78z M46.023,39.101c0.809,0,1.679-0.222,2.611-0.668
		c0.931-0.445,1.679-0.951,2.247-1.518v-6.072h-3.886c-1.539,0-2.732,0.264-3.583,0.789c-0.85,0.526-1.275,1.66-1.275,3.4
		c0,1.539,0.334,2.602,1.002,3.188C43.807,38.808,44.768,39.101,46.023,39.101z"/>
	<path d="M86.825,47.541c-0.364,1.417-0.82,2.773-1.366,4.068c-0.547,1.295-1.286,2.449-2.216,3.461
		c-0.932,1.012-2.146,1.812-3.643,2.399c-1.498,0.586-3.36,0.88-5.586,0.88c-1.821,0-3.512-0.142-5.07-0.425
		c-1.559-0.283-3.228-0.87-5.009-1.76l2.793-6.254c2.469,1.173,4.654,1.76,6.557,1.76c1.74,0,3.046-0.466,3.917-1.396
		c0.87-0.932,1.527-2.368,1.973-4.311l0.365-1.639h-1.458c-1.376,0-2.53-0.141-3.461-0.425c-0.932-0.283-1.71-0.707-2.338-1.275
		c-0.628-0.566-1.134-1.245-1.518-2.034c-0.385-0.789-0.719-1.71-1.002-2.763L63.449,14.39l9.654-1.639l5.039,22.526
		c0.162,0.688,0.354,1.244,0.577,1.669c0.222,0.425,0.657,0.638,1.306,0.638h1.032l5.282-24.833l8.925,1.761L86.825,47.541z"/>
	<path d="M99.817,0h9.29v16.333c1.497-1.215,2.874-2.145,4.129-2.793c1.254-0.647,2.793-0.971,4.615-0.971
		c2.144,0,3.885,0.314,5.221,0.941c1.336,0.628,2.388,1.518,3.158,2.672c0.768,1.153,1.284,2.52,1.548,4.098
		c0.263,1.579,0.395,3.3,0.395,5.161v19.247h-9.29V26.776c0-2.388-0.284-4.108-0.85-5.161c-0.568-1.052-1.761-1.579-3.582-1.579
		c-2.106,0-3.886,0.972-5.343,2.915v21.736h-9.29V0z"/>
	<path d="M163.145,38.009l2.004,4.311l-7.468,3.643l-2.793-3.825c-1.498,1.335-2.975,2.277-4.432,2.823
		c-1.457,0.546-2.914,0.82-4.372,0.82c-3.846,0-6.578-0.992-8.196-2.975c-1.62-1.984-2.429-4.919-2.429-8.804v-20.34h9.29v18.64
		c0,2.308,0.303,3.907,0.91,4.797c0.607,0.891,1.74,1.336,3.4,1.336c0.971,0,1.892-0.182,2.763-0.547
		c0.87-0.364,1.548-0.829,2.034-1.396V13.661h9.289V38.009z"/>
	<path d="M171.22,0h9.289v14.451c1.053-0.566,2.126-1.022,3.218-1.366c1.093-0.344,2.327-0.516,3.704-0.516
		c3.885,0,6.952,1.396,9.198,4.189S200,23.721,200,29.265c0,2.064-0.294,4.078-0.88,6.042c-0.588,1.963-1.529,3.725-2.824,5.282
		c-1.295,1.559-3.005,2.814-5.13,3.765c-2.125,0.95-4.727,1.427-7.802,1.427c-2.146,0-4.281-0.132-6.406-0.395
		c-2.125-0.264-4.038-0.638-5.737-1.123V0z M183.667,39.223c1.336,0,2.459-0.243,3.37-0.729c0.91-0.485,1.629-1.173,2.155-2.064
		c0.526-0.889,0.9-1.962,1.124-3.217c0.221-1.255,0.333-2.651,0.333-4.19c0-2.064-0.142-3.733-0.424-5.008
		c-0.284-1.275-0.668-2.266-1.154-2.975c-0.486-0.707-1.063-1.184-1.731-1.427c-0.668-0.243-1.386-0.364-2.155-0.364
		c-0.81,0-1.558,0.071-2.246,0.213c-0.689,0.142-1.498,0.516-2.429,1.123v18.154c0.446,0.203,1.002,0.333,1.67,0.394
		C182.847,39.192,183.343,39.223,183.667,39.223z"/>
</g>
</svg>
