<?xml version="1.0" encoding="utf-8"?>
<!-- Generator: Adobe Illustrator 17.0.0, SVG Export Plug-In . SVG Version: 6.00 Build 0)  -->
<!DOCTYPE svg PUBLIC "-//W3C//DTD SVG 1.1//EN" "http://www.w3.org/Graphics/SVG/1.1/DTD/svg11.dtd">
<svg version="1.1"
	 id="Layer_1" xmlns:dc="http://purl.org/dc/elements/1.1/" xmlns:cc="http://creativecommons.org/ns#" xmlns:rdf="http://www.w3.org/1999/02/22-rdf-syntax-ns#" xmlns:svg="http://www.w3.org/2000/svg" xmlns:sodipodi="http://sodipodi.sourceforge.net/DTD/sodipodi-0.dtd" xmlns:inkscape="http://www.inkscape.org/namespaces/inkscape" sodipodi:docname="Visa_2006.svg" inkscape:version="0.91 r13725"
	 xmlns="http://www.w3.org/2000/svg" xmlns:xlink="http://www.w3.org/1999/xlink" x="0px" y="0px" width="745.372px"
	 height="405.553px" viewBox="1298.912 0 745.372 405.553" enable-background="new 1298.912 0 745.372 405.553"
	 xml:space="preserve">
<sodipodi:namedview  inkscape:cy="131.15483" inkscape:cx="34.690897" inkscape:zoom="0.35355339" showgrid="false" guidetolerance="10" gridtolerance="10" objecttolerance="10" borderopacity="1" pagecolor="#ffffff" bordercolor="#666666" id="namedview19" inkscape:current-layer="Layer_1" inkscape:window-maximized="1" inkscape:window-y="-8" inkscape:window-x="-8" inkscape:window-height="705" inkscape:window-width="1366" inkscape:pageopacity="0" inkscape:pageshadow="2">
	</sodipodi:namedview>
<g>
	<path fill="#484848" d="M1600.337,172.978l-37.269,100.646l-3.993-20.477c-9.317-25.085-29.487-51.398-52.934-62.148
		l34.197,129.314h40.443l60.101-147.539h-40.545V172.978z"/>
	<polygon fill="#484848" points="1632.384,320.619 1656.24,172.774 1694.43,172.774 1670.574,320.619 	"/>
	<path fill="#484848" d="M1809,176.459c-7.577-2.969-19.453-6.246-34.197-6.246c-37.781,0-64.299,20.068-64.503,48.736
		c-0.205,21.296,18.941,33.071,33.378,40.135c14.948,7.269,19.863,11.877,19.863,18.327c-0.102,9.931-11.877,14.436-22.832,14.436
		c-15.255,0-23.344-2.253-35.938-7.679l-4.915-2.355l-5.324,33.071c8.908,4.095,25.392,7.679,42.593,7.884
		c40.033,0,66.141-19.863,66.449-50.476c0.205-16.894-10.034-29.59-32.047-40.135c-13.31-6.86-21.501-11.365-21.399-18.327
		c0-6.143,6.86-12.696,21.911-12.696c12.491-0.205,21.501,2.662,28.566,5.734l3.379,1.741L1809,176.459L1809,176.459z"/>
	<path fill="#484848" d="M1906.882,172.978h-29.487c-9.112,0-15.972,2.56-20.068,12.286l-56.62,135.457h40.033
		c0,0,6.553-18.225,8.089-22.218c4.403,0,43.309,0.102,48.838,0.102c1.229,5.119,4.607,22.115,4.607,22.115h35.528L1906.882,172.978
		L1906.882,172.978z M1859.784,268.198c3.174-8.498,15.153-41.364,15.153-41.364c-0.205,0.41,3.174-8.498,5.119-14.129l2.56,12.696
		c0,0,7.372,35.323,8.908,42.695C1885.585,268.198,1867.258,268.198,1859.784,268.198L1859.784,268.198z"/>
	<path fill="#AFAFAF" d="M1528.36,172.876h-61.534l-0.41,2.56c47.814,12.286,79.452,42.286,92.557,77.814l-13.31-67.984
		C1543.411,175.948,1536.653,173.183,1528.36,172.876L1528.36,172.876z"/>
	<polygon fill="#484848" points="1351.334,137.143 1327.068,137.143 1298.912,10.594 1325.84,6.089 1345.088,105.096 1394.029,7.42 
		1419.83,7.42 	"/>
	<path fill="#484848" d="M1477.986,95.779h-58.053c-1.638,17.61,6.553,25.289,20.477,25.289c11.57,0,21.808-4.3,32.764-11.262
		l-0.102,17.61c-10.751,6.757-23.242,11.058-37.883,11.058c-25.289,0-41.978-14.436-36.961-46.995
		c4.505-29.385,24.88-47.2,48.429-47.2c27.132,0,36.142,20.375,32.252,46.074C1478.702,92.196,1478.088,94.448,1477.986,95.779
		L1477.986,95.779z M1443.789,59.842c-9.01,0-17.406,7.065-21.296,21.911h35.938C1459.044,67.725,1454.642,59.842,1443.789,59.842
		L1443.789,59.842z"/>
	<path fill="#484848" d="M1515.766,84.721l-7.986,51.807h-22.422l13.924-90.407h19.146v18.122
		c7.577-10.443,17.918-19.249,32.149-20.068l0.102,22.32C1536.346,67.521,1523.65,74.995,1515.766,84.721L1515.766,84.721z"/>
	<path fill="#484848" d="M1550.27,136.529l13.925-90.407h22.423l-13.822,90.407H1550.27L1550.27,136.529z M1577.915,30.969
		c-7.474,0-12.696-5.222-11.467-12.696c1.229-7.679,7.986-13.105,15.46-13.105c7.269,0,12.491,5.426,11.262,13.105
		C1592.044,25.747,1585.286,30.969,1577.915,30.969L1577.915,30.969z"/>
	<path fill="#484848" d="M1648.868,21.447c-7.679,0-12.286,3.379-13.515,11.467l-2.048,13.31h17.201v18.327h-20.068l-11.058,71.978
		h-22.32l11.058-72.08h-13.105l2.867-18.327h13.105l2.355-15.563c3.072-20.068,16.996-27.542,35.528-27.542
		c3.891,0,6.86,0.41,9.112,0.717l0.205,18.327C1655.933,21.856,1652.657,21.447,1648.868,21.447L1648.868,21.447z"/>
	<path fill="#484848" d="M1649.073,136.529l13.925-90.407h22.423l-13.822,90.407H1649.073L1649.073,136.529z M1676.82,30.969
		c-7.474,0-12.696-5.222-11.57-12.696c1.229-7.679,7.986-13.105,15.46-13.105c7.27,0,12.491,5.426,11.263,13.105
		C1690.847,25.747,1684.089,30.969,1676.82,30.969L1676.82,30.969z"/>
	<path fill="#484848" d="M1772.653,95.779H1714.6c-1.536,17.61,6.553,25.289,20.477,25.289c11.57,0,21.808-4.3,32.764-11.262
		l-0.102,17.61c-10.75,6.757-23.242,11.058-37.883,11.058c-25.289,0-41.978-14.436-36.961-46.995
		c4.505-29.385,24.88-47.2,48.429-47.2c27.132,0,36.142,20.375,32.252,46.074C1773.37,92.196,1772.756,94.448,1772.653,95.779
		L1772.653,95.779z M1738.456,59.842c-9.01,0-17.406,7.065-21.296,21.911h35.938C1753.712,67.725,1749.309,59.842,1738.456,59.842
		L1738.456,59.842z"/>
	<path fill="#484848" d="M1839.102,136.529l0.102-12.593c-7.577,7.679-17.406,14.436-29.897,14.436
		c-18.942,0-31.945-14.027-27.235-44.538c5.222-33.685,26.006-48.633,46.995-48.633c8.6,0,15.358,1.536,20.477,3.379l6.758-43.617
		l23.037-3.584l-20.784,135.15H1839.102L1839.102,136.529z M1846.679,67.111c-5.222-2.662-9.317-3.891-16.996-3.891
		c-11.774,0-21.911,9.522-24.88,29.385c-2.662,17.61,3.481,25.801,13.413,25.801c8.191,0,15.358-4.915,22.525-12.389
		L1846.679,67.111L1846.679,67.111z"/>
	<path fill="#484848" d="M1927.257,137.45c-10.648,0-19.351-1.741-27.337-4.505l14.744-96.038l17.406-2.662l-6.348,41.569
		c5.119-4.505,12.184-9.112,20.784-9.112c14.436,0,24.163,10.751,20.58,33.787C1963.194,125.676,1947.631,137.45,1927.257,137.45
		L1927.257,137.45z M1939.85,81.65c-5.631,0-11.365,3.788-16.382,8.908l-4.812,31.023c3.379,1.229,5.631,1.843,10.443,1.843
		c10.751,0,18.327-6.553,20.682-22.115C1951.829,88.203,1947.427,81.65,1939.85,81.65L1939.85,81.65z"/>
	<path fill="#484848" d="M2007.22,140.317c-8.703,16.894-17.303,22.115-30.511,22.115c-2.969,0-4.607-0.307-6.143-0.717
		l-0.102-14.027c2.15,0.614,4.505,1.024,7.781,1.024c4.914,0,9.317-2.253,12.184-7.269l2.252-4.505l-14.436-67.473l18.122-2.253
		l8.396,48.736l22.627-47.814h16.894L2007.22,140.317L2007.22,140.317z"/>
</g>
</svg>
