<svg width="81" height="80" viewBox="0 0 81 80" fill="none" xmlns="http://www.w3.org/2000/svg">
<g clip-path="url(#clip0_108_136)">
<path d="M21.92 20.8633C21.92 20.8633 18.0534 25.716 17.4151 26.3168C16.9895 26.7207 16.7262 27.21 16.625 27.7846C16.4785 28.6465 23.8192 50.194 25.7499 56.5773C27.6806 62.9606 31.5786 74.4839 32.1489 76.3592C32.7192 78.2345 33.2686 79.9896 33.661 80.0001C34.901 80.0366 45.92 77.1219 50.4353 75.7585C54.9455 74.3951 61.6008 71.9818 62.3542 71.752C63.1077 71.5273 64.5674 68.2155 64.4523 67.8394C64.4523 67.8394 62.6839 68.7797 62.3124 68.8946C61.9357 69.0095 38.3856 76.1189 37.8833 76.0615C37.381 76.004 36.5648 74.6459 36.2771 73.6951C35.9841 72.7392 29.5118 51.3432 29.5118 51.3432L29.8519 46.083L22.8251 24.8071L21.9147 20.8633H21.92Z" fill="#1E1C1C"/>
<path d="M21.92 20.8633C21.92 20.8633 18.0534 25.716 17.4151 26.3168C16.9895 26.7207 16.7262 27.21 16.625 27.7846C16.4785 28.6465 23.8192 50.194 25.7499 56.5773C27.6806 62.9606 31.5786 74.4839 32.1489 76.3592C32.7192 78.2345 33.2686 79.9896 33.661 80.0001C34.901 80.0366 45.92 77.1219 50.4353 75.7585C54.9455 74.3951 61.6008 71.9818 62.3542 71.752C63.1077 71.5273 64.5674 68.2155 64.4523 67.8394C64.4523 67.8394 62.6839 68.7797 62.3124 68.8946C61.9357 69.0095 38.3856 76.1189 37.8833 76.0615C37.381 76.004 36.5648 74.6459 36.2771 73.6951C35.9841 72.7392 29.5118 51.3432 29.5118 51.3432L29.8519 46.083L22.8251 24.8071L21.9147 20.8633H21.92Z" fill="url(#paint0_linear_108_136)"/>
<path d="M27.848 30.9553C27.9056 31.1224 27.9631 31.2948 28.0207 31.4672C28.9102 34.0685 29.7264 36.1214 30.6106 38.728C30.9507 39.7362 31.3693 41.2928 31.6884 42.301C31.8611 42.839 31.9605 43.586 32.5413 43.8472C32.8709 43.9987 33.2633 44.0614 33.6191 44.0143C34.451 43.9099 35.2725 43.7114 36.0835 43.5285C37.402 43.2308 38.6315 42.7816 39.9448 42.4577C42.8801 41.7316 45.899 41.11 48.8081 40.2847C49.7813 40.0078 50.7597 39.7362 51.712 39.4071C51.9684 39.3183 52.2404 39.2347 52.4759 39.0989C53.2241 38.6758 53.2241 37.6781 53.041 36.9572C52.8003 36.0117 52.3974 35.0976 52.0468 34.1835C51.4818 32.7104 50.9167 31.2426 50.3464 29.7695C49.8964 28.6046 49.4412 27.4397 49.0122 26.2696C48.9651 26.1443 48.918 26.0137 48.8761 25.8883C48.7401 25.4913 48.5151 25.1622 48.1436 24.9585C47.7041 24.713 47.228 24.7026 46.7571 24.8279C44.8212 25.3398 42.8748 25.8256 40.9337 26.3219C38.0455 27.0584 35.1574 27.8002 32.2744 28.5367C31.3065 28.7874 30.3333 29.033 29.3654 29.2837C29.1456 29.3411 28.9206 29.3986 28.7009 29.4561C28.4602 29.524 28.2143 29.618 28.0259 29.7904C27.6754 30.109 27.712 30.5321 27.8376 30.9448L27.848 30.9553ZM28.5387 30.4068V30.4277C28.5387 30.4172 28.5387 30.412 28.5387 30.4068ZM32.8395 43.1211C32.7715 43.0898 32.8134 43.1107 32.8395 43.1211V43.1211ZM28.6015 30.7254C28.5805 30.6523 28.5544 30.5739 28.5387 30.4956C28.5387 30.4851 28.5387 30.4381 28.5387 30.4277C28.5439 30.4277 28.5701 30.3754 28.5439 30.4015C28.5805 30.3598 28.5753 30.3702 28.6276 30.3336C28.7009 30.2866 28.7846 30.2605 28.8683 30.2344C28.9154 30.2187 28.9677 30.2083 29.02 30.1926C30.9141 29.6859 34.6028 28.8292 36.502 28.3434C39.3274 27.6226 40.3634 27.283 43.1888 26.5622C44.1829 26.3062 45.177 26.0555 46.1711 25.7995C46.4379 25.7316 46.7048 25.6637 46.9716 25.5906C47.024 25.5749 47.0763 25.5645 47.1338 25.5488C47.3117 25.5018 47.6204 25.5383 47.8402 25.6846C48.1332 25.8779 48.2169 26.3271 48.332 26.6457C48.5151 27.142 48.7035 27.6382 48.8971 28.1345C49.4412 29.5605 49.9906 30.9814 50.54 32.4074C51.0056 33.6141 51.4713 34.8155 51.9213 36.0274C52.0521 36.3826 52.1829 36.7326 52.2823 37.0982C52.3974 37.5161 52.4863 37.9915 52.1829 38.3519C52.1306 38.4094 51.9788 38.5034 52.1463 38.4042L52.1358 38.4146C52.1253 38.4146 52.1096 38.4303 52.1044 38.4355C52.073 38.4512 52.0364 38.4668 52.0102 38.4825C52.1306 38.4094 52.0207 38.4825 51.9527 38.5034C51.9003 38.5243 51.8428 38.5452 51.7905 38.5661C51.6387 38.6236 51.4818 38.6758 51.3248 38.728C50.901 38.8691 50.472 38.9997 50.0429 39.125C48.8186 39.4907 47.5838 39.8302 46.349 40.1645C43.4765 40.9376 40.5936 41.6742 37.7002 42.3637C36.6381 42.6144 35.5759 42.8651 34.5033 43.0793C34.3202 43.1159 34.1371 43.1524 33.9592 43.1838C33.9173 43.189 33.8807 43.1995 33.8389 43.2047C33.8284 43.2047 33.8179 43.2047 33.8022 43.2099C33.7499 43.2151 33.7028 43.2256 33.6505 43.2308C33.5668 43.2412 33.4778 43.2412 33.3941 43.2517C33.3784 43.2517 33.368 43.2517 33.3523 43.2517C33.572 43.2517 33.279 43.236 33.2215 43.2204C33.1482 43.2047 33.075 43.1942 33.0017 43.1733C32.9756 43.1681 32.9494 43.1577 32.918 43.1472C32.9075 43.142 32.8761 43.1263 32.8657 43.1263C32.8657 43.1263 32.8552 43.1263 32.85 43.1211C32.8447 43.1211 32.8343 43.1054 32.8238 43.095C32.7977 43.0584 32.7715 43.0166 32.7506 42.9801C32.7453 42.9644 32.7192 42.9069 32.7192 42.9069C32.7035 42.8599 32.6826 42.8129 32.6669 42.7659C32.6355 42.6666 32.6041 42.5674 32.5727 42.4681C32.5204 42.2958 32.468 42.1286 32.4157 41.9562C32.2797 41.5383 32.1384 41.1204 32.0024 40.7078C31.5524 39.3653 31.0972 38.0228 30.642 36.6804C29.9671 34.6954 29.2921 32.7104 28.6119 30.7306L28.6015 30.7254Z" fill="#1E1C1C"/>
<path d="M27.848 30.9553C27.9056 31.1224 27.9631 31.2948 28.0207 31.4672C28.9102 34.0685 29.7264 36.1214 30.6106 38.728C30.9507 39.7362 31.3693 41.2928 31.6884 42.301C31.8611 42.839 31.9605 43.586 32.5413 43.8472C32.8709 43.9987 33.2633 44.0614 33.6191 44.0143C34.451 43.9099 35.2725 43.7114 36.0835 43.5285C37.402 43.2308 38.6315 42.7816 39.9448 42.4577C42.8801 41.7316 45.899 41.11 48.8081 40.2847C49.7813 40.0078 50.7597 39.7362 51.712 39.4071C51.9684 39.3183 52.2404 39.2347 52.4759 39.0989C53.2241 38.6758 53.2241 37.6781 53.041 36.9572C52.8003 36.0117 52.3974 35.0976 52.0468 34.1835C51.4818 32.7104 50.9167 31.2426 50.3464 29.7695C49.8964 28.6046 49.4412 27.4397 49.0122 26.2696C48.9651 26.1443 48.918 26.0137 48.8761 25.8883C48.7401 25.4913 48.5151 25.1622 48.1436 24.9585C47.7041 24.713 47.228 24.7026 46.7571 24.8279C44.8212 25.3398 42.8748 25.8256 40.9337 26.3219C38.0455 27.0584 35.1574 27.8002 32.2744 28.5367C31.3065 28.7874 30.3333 29.033 29.3654 29.2837C29.1456 29.3411 28.9206 29.3986 28.7009 29.4561C28.4602 29.524 28.2143 29.618 28.0259 29.7904C27.6754 30.109 27.712 30.5321 27.8376 30.9448L27.848 30.9553ZM28.5387 30.4068V30.4277C28.5387 30.4172 28.5387 30.412 28.5387 30.4068ZM32.8395 43.1211C32.7715 43.0898 32.8134 43.1107 32.8395 43.1211V43.1211ZM28.6015 30.7254C28.5805 30.6523 28.5544 30.5739 28.5387 30.4956C28.5387 30.4851 28.5387 30.4381 28.5387 30.4277C28.5439 30.4277 28.5701 30.3754 28.5439 30.4015C28.5805 30.3598 28.5753 30.3702 28.6276 30.3336C28.7009 30.2866 28.7846 30.2605 28.8683 30.2344C28.9154 30.2187 28.9677 30.2083 29.02 30.1926C30.9141 29.6859 34.6028 28.8292 36.502 28.3434C39.3274 27.6226 40.3634 27.283 43.1888 26.5622C44.1829 26.3062 45.177 26.0555 46.1711 25.7995C46.4379 25.7316 46.7048 25.6637 46.9716 25.5906C47.024 25.5749 47.0763 25.5645 47.1338 25.5488C47.3117 25.5018 47.6204 25.5383 47.8402 25.6846C48.1332 25.8779 48.2169 26.3271 48.332 26.6457C48.5151 27.142 48.7035 27.6382 48.8971 28.1345C49.4412 29.5605 49.9906 30.9814 50.54 32.4074C51.0056 33.6141 51.4713 34.8155 51.9213 36.0274C52.0521 36.3826 52.1829 36.7326 52.2823 37.0982C52.3974 37.5161 52.4863 37.9915 52.1829 38.3519C52.1306 38.4094 51.9788 38.5034 52.1463 38.4042L52.1358 38.4146C52.1253 38.4146 52.1096 38.4303 52.1044 38.4355C52.073 38.4512 52.0364 38.4668 52.0102 38.4825C52.1306 38.4094 52.0207 38.4825 51.9527 38.5034C51.9003 38.5243 51.8428 38.5452 51.7905 38.5661C51.6387 38.6236 51.4818 38.6758 51.3248 38.728C50.901 38.8691 50.472 38.9997 50.0429 39.125C48.8186 39.4907 47.5838 39.8302 46.349 40.1645C43.4765 40.9376 40.5936 41.6742 37.7002 42.3637C36.6381 42.6144 35.5759 42.8651 34.5033 43.0793C34.3202 43.1159 34.1371 43.1524 33.9592 43.1838C33.9173 43.189 33.8807 43.1995 33.8389 43.2047C33.8284 43.2047 33.8179 43.2047 33.8022 43.2099C33.7499 43.2151 33.7028 43.2256 33.6505 43.2308C33.5668 43.2412 33.4778 43.2412 33.3941 43.2517C33.3784 43.2517 33.368 43.2517 33.3523 43.2517C33.572 43.2517 33.279 43.236 33.2215 43.2204C33.1482 43.2047 33.075 43.1942 33.0017 43.1733C32.9756 43.1681 32.9494 43.1577 32.918 43.1472C32.9075 43.142 32.8761 43.1263 32.8657 43.1263C32.8657 43.1263 32.8552 43.1263 32.85 43.1211C32.8447 43.1211 32.8343 43.1054 32.8238 43.095C32.7977 43.0584 32.7715 43.0166 32.7506 42.9801C32.7453 42.9644 32.7192 42.9069 32.7192 42.9069C32.7035 42.8599 32.6826 42.8129 32.6669 42.7659C32.6355 42.6666 32.6041 42.5674 32.5727 42.4681C32.5204 42.2958 32.468 42.1286 32.4157 41.9562C32.2797 41.5383 32.1384 41.1204 32.0024 40.7078C31.5524 39.3653 31.0972 38.0228 30.642 36.6804C29.9671 34.6954 29.2921 32.7104 28.6119 30.7306L28.6015 30.7254Z" fill="url(#paint1_linear_108_136)"/>
<path d="M39.1024 71.611C39.4844 71.7415 39.9187 71.5639 40.2954 71.4699C41.7447 71.1095 43.1992 70.7543 44.6485 70.3886C45.9723 70.0543 47.3013 69.7357 48.6093 69.3387C50.1371 68.879 51.6597 68.4193 53.1875 67.9596C54.485 67.5679 55.7774 67.1761 57.075 66.7843C57.8964 66.5388 58.7231 66.2881 59.5184 65.9642C60.0102 65.7657 60.8474 65.4784 60.659 64.7993C60.1567 63.0076 59.5812 61.2368 59.0423 59.4556C58.3412 57.1415 57.6453 54.8326 56.8814 52.5395C56.264 50.6903 55.6204 48.8516 54.9716 47.0129C54.8042 46.5375 54.6315 46.0622 54.4693 45.5816C54.4013 45.3883 54.3647 45.1637 54.2077 45.0226C53.9095 44.7406 53.4595 44.9338 53.1247 45.0331C51.1521 45.6129 49.1534 46.1248 47.1705 46.6681C44.3922 47.4307 41.6086 48.1829 38.8356 48.956C37.9618 49.2016 37.088 49.4523 36.2247 49.7239C35.3928 49.9851 34.5557 50.2515 33.7447 50.5754C33.3575 50.7321 32.5517 50.9724 32.4733 51.4738C32.4733 51.4947 32.468 51.5209 32.468 51.5417C32.468 51.5835 32.468 51.6253 32.4785 51.6671C32.5308 51.8343 32.5779 52.0014 32.6302 52.1686C33.4674 54.9319 34.2993 57.69 35.1364 60.4533C36.073 63.5457 37.0096 66.6328 37.9409 69.7252C38.1502 70.42 38.3281 71.3289 39.1024 71.6005V71.611ZM38.8304 69.9655C38.7466 69.6939 38.6682 69.4275 38.5844 69.1558C38.3228 68.2992 38.0665 67.4425 37.8049 66.5858C36.8997 63.5979 35.9998 60.6152 35.0946 57.6273C34.4929 55.6371 33.8912 53.6521 33.2895 51.6619C33.368 51.6149 33.4465 51.5679 33.5302 51.5261C33.6243 51.4791 33.7342 51.432 33.8755 51.3746C34.0534 51.3015 34.2313 51.2335 34.4144 51.1656C36.5439 50.3821 38.7414 49.8023 40.9285 49.2016C43.8009 48.4076 46.6786 47.624 49.5511 46.8405C50.5818 46.5584 51.6178 46.2763 52.6485 45.989C52.8735 45.9263 53.1037 45.8637 53.3287 45.7957C53.4438 45.7644 53.5589 45.7278 53.674 45.6965C53.7002 45.7801 53.7264 45.8637 53.7578 45.942C54.9141 49.2695 56.1122 52.5865 57.1534 55.9505C57.8964 58.3429 58.608 60.7458 59.3353 63.1487C59.5132 63.7442 59.6963 64.3397 59.8742 64.9352C59.8376 64.9613 59.7957 64.9874 59.7591 65.0083C59.4504 65.1807 59.1051 65.3008 58.7597 65.4262C57.5406 65.865 56.2849 66.2097 55.0449 66.5858C53.4124 67.0768 51.7748 67.5731 50.1423 68.0641C48.986 68.4141 47.8349 68.7641 46.6682 69.0723C45.1037 69.4797 43.5289 69.8715 41.9592 70.258C41.3418 70.4095 40.7244 70.561 40.1018 70.7177C39.9291 70.7595 39.7565 70.8013 39.589 70.8483C39.5472 70.8588 39.5053 70.8744 39.4582 70.8849C39.4164 70.8953 39.3536 70.9005 39.2542 70.8222C38.9978 70.6185 38.9245 70.2685 38.8304 69.9707V69.9655ZM33.1796 51.7402C33.1796 51.7402 33.1796 51.7298 33.1848 51.7246C33.1848 51.7246 33.1848 51.7246 33.1848 51.7194C33.1848 51.7194 33.1848 51.7194 33.1901 51.7194C33.1848 51.7298 33.1796 51.7402 33.1744 51.7455L33.1796 51.7402Z" fill="#1E1C1C"/>
<path d="M39.1024 71.611C39.4844 71.7415 39.9187 71.5639 40.2954 71.4699C41.7447 71.1095 43.1992 70.7543 44.6485 70.3886C45.9723 70.0543 47.3013 69.7357 48.6093 69.3387C50.1371 68.879 51.6597 68.4193 53.1875 67.9596C54.485 67.5679 55.7774 67.1761 57.075 66.7843C57.8964 66.5388 58.7231 66.2881 59.5184 65.9642C60.0102 65.7657 60.8474 65.4784 60.659 64.7993C60.1567 63.0076 59.5812 61.2368 59.0423 59.4556C58.3412 57.1415 57.6453 54.8326 56.8814 52.5395C56.264 50.6903 55.6204 48.8516 54.9716 47.0129C54.8042 46.5375 54.6315 46.0622 54.4693 45.5816C54.4013 45.3883 54.3647 45.1637 54.2077 45.0226C53.9095 44.7406 53.4595 44.9338 53.1247 45.0331C51.1521 45.6129 49.1534 46.1248 47.1705 46.6681C44.3922 47.4307 41.6086 48.1829 38.8356 48.956C37.9618 49.2016 37.088 49.4523 36.2247 49.7239C35.3928 49.9851 34.5557 50.2515 33.7447 50.5754C33.3575 50.7321 32.5517 50.9724 32.4733 51.4738C32.4733 51.4947 32.468 51.5209 32.468 51.5417C32.468 51.5835 32.468 51.6253 32.4785 51.6671C32.5308 51.8343 32.5779 52.0014 32.6302 52.1686C33.4674 54.9319 34.2993 57.69 35.1364 60.4533C36.073 63.5457 37.0096 66.6328 37.9409 69.7252C38.1502 70.42 38.3281 71.3289 39.1024 71.6005V71.611ZM38.8304 69.9655C38.7466 69.6939 38.6682 69.4275 38.5844 69.1558C38.3228 68.2992 38.0665 67.4425 37.8049 66.5858C36.8997 63.5979 35.9998 60.6152 35.0946 57.6273C34.4929 55.6371 33.8912 53.6521 33.2895 51.6619C33.368 51.6149 33.4465 51.5679 33.5302 51.5261C33.6243 51.4791 33.7342 51.432 33.8755 51.3746C34.0534 51.3015 34.2313 51.2335 34.4144 51.1656C36.5439 50.3821 38.7414 49.8023 40.9285 49.2016C43.8009 48.4076 46.6786 47.624 49.5511 46.8405C50.5818 46.5584 51.6178 46.2763 52.6485 45.989C52.8735 45.9263 53.1037 45.8637 53.3287 45.7957C53.4438 45.7644 53.5589 45.7278 53.674 45.6965C53.7002 45.7801 53.7264 45.8637 53.7578 45.942C54.9141 49.2695 56.1122 52.5865 57.1534 55.9505C57.8964 58.3429 58.608 60.7458 59.3353 63.1487C59.5132 63.7442 59.6963 64.3397 59.8742 64.9352C59.8376 64.9613 59.7957 64.9874 59.7591 65.0083C59.4504 65.1807 59.1051 65.3008 58.7597 65.4262C57.5406 65.865 56.2849 66.2097 55.0449 66.5858C53.4124 67.0768 51.7748 67.5731 50.1423 68.0641C48.986 68.4141 47.8349 68.7641 46.6682 69.0723C45.1037 69.4797 43.5289 69.8715 41.9592 70.258C41.3418 70.4095 40.7244 70.561 40.1018 70.7177C39.9291 70.7595 39.7565 70.8013 39.589 70.8483C39.5472 70.8588 39.5053 70.8744 39.4582 70.8849C39.4164 70.8953 39.3536 70.9005 39.2542 70.8222C38.9978 70.6185 38.9245 70.2685 38.8304 69.9707V69.9655ZM33.1796 51.7402C33.1796 51.7402 33.1796 51.7298 33.1848 51.7246C33.1848 51.7246 33.1848 51.7246 33.1848 51.7194C33.1848 51.7194 33.1848 51.7194 33.1901 51.7194C33.1848 51.7298 33.1796 51.7402 33.1744 51.7455L33.1796 51.7402Z" fill="url(#paint2_linear_108_136)"/>
<path d="M26.519 25.2094C29.2869 24.734 32.5936 23.7833 35.2829 22.9737C38.6525 21.9655 41.4831 21.2446 44.8892 20.3671C45.7368 20.1477 46.5792 19.9335 47.4268 19.7193C47.9134 19.5992 48.1436 20.3462 47.6518 20.4715C45.381 21.0409 43.1155 21.6312 40.8552 22.2371C39.0763 22.7125 37.2973 23.2035 35.5289 23.7206C33.5511 24.3005 31.5733 24.8803 29.5642 25.3556C28.6276 25.5803 27.6911 25.7944 26.744 25.9564C26.5347 25.9929 26.3202 25.9146 26.2522 25.6952C26.1946 25.5123 26.3045 25.2407 26.5138 25.2041L26.519 25.2094Z" fill="#1E1C1C"/>
<path d="M26.519 25.2094C29.2869 24.734 32.5936 23.7833 35.2829 22.9737C38.6525 21.9655 41.4831 21.2446 44.8892 20.3671C45.7368 20.1477 46.5792 19.9335 47.4268 19.7193C47.9134 19.5992 48.1436 20.3462 47.6518 20.4715C45.381 21.0409 43.1155 21.6312 40.8552 22.2371C39.0763 22.7125 37.2973 23.2035 35.5289 23.7206C33.5511 24.3005 31.5733 24.8803 29.5642 25.3556C28.6276 25.5803 27.6911 25.7944 26.744 25.9564C26.5347 25.9929 26.3202 25.9146 26.2522 25.6952C26.1946 25.5123 26.3045 25.2407 26.5138 25.2041L26.519 25.2094Z" fill="url(#paint3_linear_108_136)"/>
<path d="M26.4144 11.3143C26.5138 11.6173 26.8591 11.6538 27.1365 11.6434C27.8271 11.6173 28.5282 11.424 29.1927 11.2568C30.6472 10.886 32.0861 10.4367 33.504 9.95092C34.9899 9.44423 36.4811 8.90619 37.9043 8.24279C38.0979 8.15399 38.1293 7.86147 38.0246 7.69953C37.9043 7.50626 37.6793 7.49059 37.4857 7.57417C37.5119 7.56372 37.5328 7.55327 37.4857 7.57417C37.3968 7.61596 37.3026 7.65252 37.2136 7.69431C36.884 7.83535 36.5544 7.97116 36.2247 8.10698C33.8546 9.05768 31.4111 9.87779 28.9363 10.5099C28.5282 10.6143 28.1201 10.7083 27.7068 10.7867C27.6649 10.7919 27.623 10.8024 27.5864 10.8076C27.5812 10.8076 27.5864 10.8076 27.576 10.8076C27.576 10.8076 27.576 10.8076 27.5603 10.8076C27.5027 10.818 26.2941 10.9434 26.4144 11.3091V11.3143ZM27.0684 10.9225C27.0684 10.9225 26.9952 10.8703 26.9952 10.8755C27.0109 10.886 27.0737 10.9277 27.0684 10.9225ZM26.9429 10.8494C26.9219 10.8389 26.9324 10.8442 26.9429 10.8494V10.8494Z" fill="#1E1C1C"/>
<path d="M26.4144 11.3143C26.5138 11.6173 26.8591 11.6538 27.1365 11.6434C27.8271 11.6173 28.5282 11.424 29.1927 11.2568C30.6472 10.886 32.0861 10.4367 33.504 9.95092C34.9899 9.44423 36.4811 8.90619 37.9043 8.24279C38.0979 8.15399 38.1293 7.86147 38.0246 7.69953C37.9043 7.50626 37.6793 7.49059 37.4857 7.57417C37.5119 7.56372 37.5328 7.55327 37.4857 7.57417C37.3968 7.61596 37.3026 7.65252 37.2136 7.69431C36.884 7.83535 36.5544 7.97116 36.2247 8.10698C33.8546 9.05768 31.4111 9.87779 28.9363 10.5099C28.5282 10.6143 28.1201 10.7083 27.7068 10.7867C27.6649 10.7919 27.623 10.8024 27.5864 10.8076C27.5812 10.8076 27.5864 10.8076 27.576 10.8076C27.576 10.8076 27.576 10.8076 27.5603 10.8076C27.5027 10.818 26.2941 10.9434 26.4144 11.3091V11.3143ZM27.0684 10.9225C27.0684 10.9225 26.9952 10.8703 26.9952 10.8755C27.0109 10.886 27.0737 10.9277 27.0684 10.9225ZM26.9429 10.8494C26.9219 10.8389 26.9324 10.8442 26.9429 10.8494V10.8494Z" fill="url(#paint4_linear_108_136)"/>
<path d="M28.1515 15.7074C31.296 14.7567 34.4353 13.8112 37.5799 12.8605L39.0553 12.4165C39.5367 12.2702 39.7669 13.0224 39.2803 13.1687C35.9841 14.1612 32.6878 15.1589 29.3915 16.1514C29.0514 16.2558 28.7113 16.3551 28.3765 16.4596C27.8951 16.6058 27.6649 15.8536 28.1515 15.7074Z" fill="#1E1C1C"/>
<path d="M28.1515 15.7074C31.296 14.7567 34.4353 13.8112 37.5799 12.8605L39.0553 12.4165C39.5367 12.2702 39.7669 13.0224 39.2803 13.1687C35.9841 14.1612 32.6878 15.1589 29.3915 16.1514C29.0514 16.2558 28.7113 16.3551 28.3765 16.4596C27.8951 16.6058 27.6649 15.8536 28.1515 15.7074Z" fill="url(#paint5_linear_108_136)"/>
<path d="M29.47 21.0566C29.5014 21.0566 29.5276 21.0461 29.5589 21.0409C29.4124 21.0618 29.5799 21.0409 29.606 21.0305C29.6636 21.02 29.7264 21.0096 29.7839 20.9991C30.1188 20.9417 30.4536 20.879 30.7885 20.8163C31.8349 20.6126 32.8761 20.3775 33.9069 20.0954C35.7748 19.5887 37.6165 18.988 39.4687 18.4291C39.8977 18.2985 40.332 18.1679 40.761 18.0373C41.2424 17.8911 41.4726 18.6433 40.986 18.7895C37.7682 19.7611 34.5609 20.8529 31.2594 21.5163C30.6734 21.6364 30.0822 21.7461 29.4909 21.8349C29.2816 21.8662 29.0933 21.6469 29.088 21.4536C29.0828 21.2185 29.2607 21.0827 29.47 21.0514V21.0566Z" fill="#1E1C1C"/>
<path d="M29.47 21.0566C29.5014 21.0566 29.5276 21.0461 29.5589 21.0409C29.4124 21.0618 29.5799 21.0409 29.606 21.0305C29.6636 21.02 29.7264 21.0096 29.7839 20.9991C30.1188 20.9417 30.4536 20.879 30.7885 20.8163C31.8349 20.6126 32.8761 20.3775 33.9069 20.0954C35.7748 19.5887 37.6165 18.988 39.4687 18.4291C39.8977 18.2985 40.332 18.1679 40.761 18.0373C41.2424 17.8911 41.4726 18.6433 40.986 18.7895C37.7682 19.7611 34.5609 20.8529 31.2594 21.5163C30.6734 21.6364 30.0822 21.7461 29.4909 21.8349C29.2816 21.8662 29.0933 21.6469 29.088 21.4536C29.0828 21.2185 29.2607 21.0827 29.47 21.0514V21.0566Z" fill="url(#paint6_linear_108_136)"/>
<path d="M19.9997 5.38554C20.1463 5.79299 20.3869 6.17431 20.6119 6.54519C20.8945 7.0101 21.1875 7.46455 21.4752 7.91901C22.5164 9.5749 22.9873 10.3219 23.7878 12.1084C24.243 13.1165 25.0907 15.1485 25.436 16.2037C25.8389 17.4469 26.158 18.7215 26.4876 19.9856C26.9585 21.7825 27.4085 23.5795 27.848 25.3868C27.9684 25.8779 28.7166 25.648 28.6014 25.1622C28.1096 23.1407 27.6021 21.1191 27.0684 19.1028C26.765 17.9536 26.472 16.7992 26.09 15.6761C25.729 14.6262 25.2895 13.6023 24.829 12.5942C24.0547 10.8965 23.2175 9.21447 22.2234 7.63171C21.9357 7.17203 21.6374 6.71235 21.3549 6.24744C21.2241 6.0385 21.0985 5.82433 20.9782 5.61016C20.952 5.55792 20.9258 5.50569 20.8945 5.45867C21.0096 5.49524 21.1194 5.53703 21.2293 5.57882C22.2705 5.96014 23.3483 6.4355 24.3843 6.90562C24.6721 7.03621 24.9337 6.84816 24.9651 6.55042C25.0645 5.443 25.1901 4.34082 25.368 3.24385C26.7022 3.70353 27.916 4.38783 29.1613 5.05646C29.3706 5.17138 29.6845 5.05645 29.7264 4.8005C29.8258 4.2259 29.9409 3.65652 30.0665 3.09237C30.1502 2.70059 30.2444 2.31405 30.3542 1.9275C30.4013 1.75512 30.4536 1.58274 30.5112 1.41036C30.5269 1.36857 30.5374 1.332 30.5531 1.29021C30.5583 1.27454 30.5635 1.25887 30.574 1.2432C30.5897 1.20663 30.6054 1.17529 30.6211 1.13873C30.8251 1.26932 31.0239 1.39991 31.2228 1.53572C32.3372 2.29315 33.4412 3.06625 34.54 3.84457C34.8068 4.03262 35.0998 3.74532 35.1207 3.48936C35.1207 3.43713 35.126 3.38489 35.1312 3.33265C35.1888 2.60135 35.2515 1.89615 35.4242 1.15962C35.4451 1.07604 35.4661 0.987241 35.4922 0.903663C35.4922 0.903663 35.4922 0.89844 35.4922 0.893216C35.5079 0.89844 35.5289 0.908887 35.5393 0.914111C35.6021 0.950676 35.6649 0.987242 35.7224 1.02381C35.7486 1.03948 35.7957 1.07604 35.8009 1.07604C35.8271 1.09694 35.8532 1.11261 35.8794 1.1335C36.0678 1.27977 36.2404 1.4417 36.4026 1.61408C36.6538 1.88048 36.795 2.06331 37.0253 2.37673C37.313 2.77373 37.5799 3.19162 37.8258 3.61473C39.16 5.87657 39.9291 7.80409 40.8709 10.2435C41.7499 12.521 42.7807 15.3575 43.5655 17.6663C43.9265 18.7319 44.2823 19.8028 44.6224 20.8736C44.7741 21.3542 45.5275 21.1296 45.3758 20.649C45.3706 20.6281 45.3601 20.6072 45.3549 20.5863C44.952 19.1864 44.4445 17.8021 43.9684 16.4283C43.1207 13.9575 42.2313 11.4972 41.2581 9.07343C40.7453 7.79364 40.2012 6.52952 39.5995 5.28629C39.0606 4.17366 38.4746 3.06625 37.7525 2.05286C37.1927 1.26409 36.5334 0.49622 35.6387 0.0835522C34.8068 -0.308221 34.6237 1.03425 34.54 1.55662C34.472 1.96406 34.4301 2.37673 34.3882 2.7894C34.0272 2.53866 33.6714 2.2827 33.3104 2.03197C32.6041 1.54095 31.903 1.0447 31.1809 0.56935C30.9926 0.443983 30.7571 0.240261 30.5164 0.245485C30.2077 0.250709 30.0246 0.532785 29.9095 0.78352C29.5799 1.50438 29.4177 2.31927 29.2555 3.08714C29.1822 3.42668 29.1194 3.76622 29.0566 4.10575C28.4393 3.76622 27.8219 3.42146 27.1835 3.12371C26.5243 2.81551 25.8336 2.55433 25.1377 2.34539C24.9442 2.28793 24.6982 2.43419 24.6616 2.63269C24.468 3.7401 24.332 4.85796 24.2273 5.97581C23.1548 5.49002 22.0612 4.99899 20.9363 4.65423C20.7323 4.59155 20.4916 4.5132 20.2771 4.57066C19.8951 4.67513 19.8846 5.09302 19.9997 5.39599V5.38554Z" fill="#1E1C1C"/>
<path d="M19.9997 5.38554C20.1463 5.79299 20.3869 6.17431 20.6119 6.54519C20.8945 7.0101 21.1875 7.46455 21.4752 7.91901C22.5164 9.5749 22.9873 10.3219 23.7878 12.1084C24.243 13.1165 25.0907 15.1485 25.436 16.2037C25.8389 17.4469 26.158 18.7215 26.4876 19.9856C26.9585 21.7825 27.4085 23.5795 27.848 25.3868C27.9684 25.8779 28.7166 25.648 28.6014 25.1622C28.1096 23.1407 27.6021 21.1191 27.0684 19.1028C26.765 17.9536 26.472 16.7992 26.09 15.6761C25.729 14.6262 25.2895 13.6023 24.829 12.5942C24.0547 10.8965 23.2175 9.21447 22.2234 7.63171C21.9357 7.17203 21.6374 6.71235 21.3549 6.24744C21.2241 6.0385 21.0985 5.82433 20.9782 5.61016C20.952 5.55792 20.9258 5.50569 20.8945 5.45867C21.0096 5.49524 21.1194 5.53703 21.2293 5.57882C22.2705 5.96014 23.3483 6.4355 24.3843 6.90562C24.6721 7.03621 24.9337 6.84816 24.9651 6.55042C25.0645 5.443 25.1901 4.34082 25.368 3.24385C26.7022 3.70353 27.916 4.38783 29.1613 5.05646C29.3706 5.17138 29.6845 5.05645 29.7264 4.8005C29.8258 4.2259 29.9409 3.65652 30.0665 3.09237C30.1502 2.70059 30.2444 2.31405 30.3542 1.9275C30.4013 1.75512 30.4536 1.58274 30.5112 1.41036C30.5269 1.36857 30.5374 1.332 30.5531 1.29021C30.5583 1.27454 30.5635 1.25887 30.574 1.2432C30.5897 1.20663 30.6054 1.17529 30.6211 1.13873C30.8251 1.26932 31.0239 1.39991 31.2228 1.53572C32.3372 2.29315 33.4412 3.06625 34.54 3.84457C34.8068 4.03262 35.0998 3.74532 35.1207 3.48936C35.1207 3.43713 35.126 3.38489 35.1312 3.33265C35.1888 2.60135 35.2515 1.89615 35.4242 1.15962C35.4451 1.07604 35.4661 0.987241 35.4922 0.903663C35.4922 0.903663 35.4922 0.89844 35.4922 0.893216C35.5079 0.89844 35.5289 0.908887 35.5393 0.914111C35.6021 0.950676 35.6649 0.987242 35.7224 1.02381C35.7486 1.03948 35.7957 1.07604 35.8009 1.07604C35.8271 1.09694 35.8532 1.11261 35.8794 1.1335C36.0678 1.27977 36.2404 1.4417 36.4026 1.61408C36.6538 1.88048 36.795 2.06331 37.0253 2.37673C37.313 2.77373 37.5799 3.19162 37.8258 3.61473C39.16 5.87657 39.9291 7.80409 40.8709 10.2435C41.7499 12.521 42.7807 15.3575 43.5655 17.6663C43.9265 18.7319 44.2823 19.8028 44.6224 20.8736C44.7741 21.3542 45.5275 21.1296 45.3758 20.649C45.3706 20.6281 45.3601 20.6072 45.3549 20.5863C44.952 19.1864 44.4445 17.8021 43.9684 16.4283C43.1207 13.9575 42.2313 11.4972 41.2581 9.07343C40.7453 7.79364 40.2012 6.52952 39.5995 5.28629C39.0606 4.17366 38.4746 3.06625 37.7525 2.05286C37.1927 1.26409 36.5334 0.49622 35.6387 0.0835522C34.8068 -0.308221 34.6237 1.03425 34.54 1.55662C34.472 1.96406 34.4301 2.37673 34.3882 2.7894C34.0272 2.53866 33.6714 2.2827 33.3104 2.03197C32.6041 1.54095 31.903 1.0447 31.1809 0.56935C30.9926 0.443983 30.7571 0.240261 30.5164 0.245485C30.2077 0.250709 30.0246 0.532785 29.9095 0.78352C29.5799 1.50438 29.4177 2.31927 29.2555 3.08714C29.1822 3.42668 29.1194 3.76622 29.0566 4.10575C28.4393 3.76622 27.8219 3.42146 27.1835 3.12371C26.5243 2.81551 25.8336 2.55433 25.1377 2.34539C24.9442 2.28793 24.6982 2.43419 24.6616 2.63269C24.468 3.7401 24.332 4.85796 24.2273 5.97581C23.1548 5.49002 22.0612 4.99899 20.9363 4.65423C20.7323 4.59155 20.4916 4.5132 20.2771 4.57066C19.8951 4.67513 19.8846 5.09302 19.9997 5.39599V5.38554Z" fill="url(#paint7_linear_108_136)"/>
<path d="M43.2045 15.2634C44.2823 14.9396 45.3915 14.6366 46.506 14.5008C47.0553 14.4329 47.5733 14.4799 48.0076 14.8664C48.5256 15.3261 48.8134 16.0418 49.1011 16.6529C49.6714 17.8491 50.226 19.0297 50.7126 20.2625C51.2725 21.6885 51.7957 23.125 52.3137 24.5667C53.3235 27.3875 54.2967 30.2187 55.1652 33.0865C55.5524 34.3611 55.9396 35.6408 56.3268 36.9154C56.6198 37.8922 56.6459 38.9735 56.7296 39.9817C56.8186 41.016 56.9494 42.0711 56.9703 43.1106C56.9128 43.0218 56.9703 43.2621 56.9703 43.1106C57.0226 43.1838 57.0488 43.2987 57.0854 43.3823C57.2633 43.8002 57.436 44.2181 57.6087 44.6412C59.1731 48.4649 60.5805 52.3565 61.7787 56.3056C62.3804 58.2905 62.9873 60.2807 63.5681 62.2709C63.8925 63.3784 64.2221 64.4858 64.4628 65.6141C64.5988 66.2514 64.7087 66.8677 64.5413 67.505C64.2326 68.7065 63.1024 69.0721 62.0298 69.396C60.0102 70.0072 57.9854 70.6183 55.9657 71.2243C53.1822 72.0653 50.3935 72.9063 47.61 73.7473C45.3026 74.442 43.0004 75.1577 40.6826 75.8263C39.9239 76.0457 39.16 76.2703 38.3804 76.4009C37.9043 76.4792 37.3601 76.5628 36.9782 76.1972C36.6956 75.9308 36.5334 75.5442 36.3817 75.1942C36.1881 74.745 36.0416 74.2801 35.8951 73.81C35.6073 72.8906 35.3353 71.9608 35.0527 71.0362C34.6656 69.7564 34.2784 68.4766 33.8912 67.2021C33.1116 64.632 32.3372 62.062 31.5576 59.492C31.0083 57.6794 30.4589 55.8668 29.9095 54.0542C29.6897 53.3229 29.47 52.5915 29.245 51.8655C29.1456 51.5364 29.0828 51.2647 29.1037 50.92C29.1665 49.6297 29.3392 48.3447 29.4177 47.0545C29.4334 46.7672 29.4491 46.4747 29.4491 46.1874C29.4491 46.0777 29.4491 45.9627 29.4438 45.8531C29.4438 45.8113 29.4386 45.7695 29.4334 45.7277C29.4229 45.618 29.4491 45.759 29.4334 45.6911C29.3758 45.4822 29.3026 45.2785 29.2345 45.0695C28.9049 44.077 28.5701 43.0897 28.2352 42.0973C27.3196 39.381 26.3987 36.6647 25.504 33.9432C24.6982 31.4828 23.9134 29.0225 23.0449 26.5831C22.6211 25.3868 22.1868 24.1906 21.763 22.9944C21.6113 22.5661 21.5276 22.19 21.6165 21.7199C21.695 21.3176 21.8886 20.8945 22.2967 20.7483C22.5845 20.6438 22.8879 20.5706 23.1862 20.4818C24.2692 20.1528 25.3523 19.8289 26.4353 19.4998C26.9167 19.3535 27.1469 20.1057 26.6603 20.252C25.5563 20.5863 24.4523 20.9154 23.3536 21.2497C23.2018 21.2967 23.0501 21.3385 22.8984 21.3855C22.7937 21.4169 22.6054 21.443 22.5269 21.5005C22.3333 21.6467 22.3281 22.1639 22.3752 22.3676C22.4432 22.6392 22.5635 22.9108 22.6629 23.1772C23.6309 25.8726 24.6302 28.568 25.4883 31.3C26.2051 33.5932 26.969 35.8707 27.7329 38.1482C28.4968 40.4205 29.2764 42.6928 30.0298 44.9703C30.1031 45.1949 30.1868 45.4143 30.2182 45.6493C30.281 46.1404 30.2339 46.6575 30.2025 47.1485C30.124 48.4074 29.9566 49.6559 29.899 50.9148C29.899 50.9931 29.8938 51.0767 29.8938 51.155C29.8938 51.2282 29.9304 51.3588 29.8886 51.223C29.9409 51.3849 29.988 51.5468 30.0351 51.7088C30.2653 52.4662 30.4903 53.2184 30.7205 53.9758C30.9245 54.6601 31.1338 55.3392 31.3379 56.0235C32.0495 58.3793 32.761 60.7352 33.4778 63.0858C34.1371 65.2589 34.7964 67.4371 35.4556 69.6102C35.5707 69.9915 35.6858 70.3728 35.8009 70.7541C36.0364 71.5325 36.2718 72.3108 36.5073 73.0839C36.6485 73.5592 36.795 74.0346 36.9677 74.4995C37.0985 74.8547 37.2345 75.2569 37.4752 75.5599C37.4962 75.586 37.5485 75.6435 37.5537 75.6487C37.5746 75.68 37.6217 75.6852 37.5537 75.6591C37.5903 75.6748 37.627 75.6748 37.6636 75.6852C37.5694 75.6696 37.7002 75.6852 37.7316 75.6852C37.9671 75.6852 38.1763 75.6539 38.3961 75.6121C39.2123 75.4554 40.0181 75.2151 40.8186 74.9801C41.9435 74.651 43.0632 74.3062 44.1829 73.9667C46.6472 73.2249 49.1116 72.4779 51.5759 71.7362C54.1711 70.9526 56.7663 70.1691 59.3614 69.3855C60.1567 69.1453 60.952 68.905 61.7473 68.6647C62.0822 68.5654 62.417 68.4714 62.7414 68.346C63.0449 68.2259 63.364 68.0692 63.5733 67.808C63.7303 67.6095 63.7931 67.364 63.8402 67.1133C63.8506 67.0662 63.8559 67.0192 63.8663 66.9774C63.882 66.8991 63.8663 67.0558 63.8663 67.0036C63.8663 66.9566 63.8663 66.9095 63.8663 66.8625C63.8663 66.7476 63.8559 66.6379 63.8454 66.5282C63.8402 66.4603 63.8297 66.3872 63.8192 66.3193C63.8035 66.22 63.8297 66.3924 63.8192 66.2879C63.814 66.2461 63.8036 66.1991 63.7983 66.1573C63.7617 65.9693 63.7251 65.7812 63.6832 65.5932C63.4164 64.4126 62.778 62.2501 62.438 61.0852C61.1875 56.8227 60.1933 53.5736 58.6551 49.4051C58.0795 47.8485 57.4778 46.2971 56.85 44.7613C56.6878 44.3643 56.5204 43.9673 56.3529 43.5703C56.2901 43.4241 56.2274 43.2987 56.2169 43.142C56.1227 42.139 56.0704 41.1257 55.9867 40.1227C55.9344 39.4907 55.8768 38.8534 55.8035 38.2213C55.7879 38.1012 55.7774 37.981 55.7565 37.8609C55.7512 37.8087 55.7408 37.7564 55.7355 37.7042C55.7355 37.6833 55.7094 37.5266 55.7251 37.6154C55.6989 37.4691 55.6623 37.3281 55.6204 37.1818C54.8565 34.664 54.1136 31.9373 53.2764 29.4404C52.2823 26.4786 51.2516 23.7257 50.1214 20.8109C49.9121 20.2677 49.6976 19.7244 49.4674 19.1916C49.4255 19.0924 49.3784 18.9879 49.3366 18.8886C49.3156 18.8364 49.2895 18.7842 49.2686 18.7319C49.3052 18.8103 49.2424 18.6745 49.2319 18.6536C49.0488 18.267 48.8604 17.8857 48.6773 17.4992C48.3739 16.8619 48.0861 16.0783 47.6309 15.5612C47.4687 15.3784 47.3536 15.3 47.1548 15.2582C47.1181 15.2478 47.024 15.2478 46.9088 15.253C46.7676 15.253 46.6211 15.2739 46.4798 15.2896C45.4595 15.4254 44.4497 15.7127 43.4661 16.0052C42.9847 16.1515 42.7545 15.3992 43.2411 15.253L43.2045 15.2634Z" fill="#1E1C1C"/>
<path d="M43.2045 15.2634C44.2823 14.9396 45.3915 14.6366 46.506 14.5008C47.0553 14.4329 47.5733 14.4799 48.0076 14.8664C48.5256 15.3261 48.8134 16.0418 49.1011 16.6529C49.6714 17.8491 50.226 19.0297 50.7126 20.2625C51.2725 21.6885 51.7957 23.125 52.3137 24.5667C53.3235 27.3875 54.2967 30.2187 55.1652 33.0865C55.5524 34.3611 55.9396 35.6408 56.3268 36.9154C56.6198 37.8922 56.6459 38.9735 56.7296 39.9817C56.8186 41.016 56.9494 42.0711 56.9703 43.1106C56.9128 43.0218 56.9703 43.2621 56.9703 43.1106C57.0226 43.1838 57.0488 43.2987 57.0854 43.3823C57.2633 43.8002 57.436 44.2181 57.6087 44.6412C59.1731 48.4649 60.5805 52.3565 61.7787 56.3056C62.3804 58.2905 62.9873 60.2807 63.5681 62.2709C63.8925 63.3784 64.2221 64.4858 64.4628 65.6141C64.5988 66.2514 64.7087 66.8677 64.5413 67.505C64.2326 68.7065 63.1024 69.0721 62.0298 69.396C60.0102 70.0072 57.9854 70.6183 55.9657 71.2243C53.1822 72.0653 50.3935 72.9063 47.61 73.7473C45.3026 74.442 43.0004 75.1577 40.6826 75.8263C39.9239 76.0457 39.16 76.2703 38.3804 76.4009C37.9043 76.4792 37.3601 76.5628 36.9782 76.1972C36.6956 75.9308 36.5334 75.5442 36.3817 75.1942C36.1881 74.745 36.0416 74.2801 35.8951 73.81C35.6073 72.8906 35.3353 71.9608 35.0527 71.0362C34.6656 69.7564 34.2784 68.4766 33.8912 67.2021C33.1116 64.632 32.3372 62.062 31.5576 59.492C31.0083 57.6794 30.4589 55.8668 29.9095 54.0542C29.6897 53.3229 29.47 52.5915 29.245 51.8655C29.1456 51.5364 29.0828 51.2647 29.1037 50.92C29.1665 49.6297 29.3392 48.3447 29.4177 47.0545C29.4334 46.7672 29.4491 46.4747 29.4491 46.1874C29.4491 46.0777 29.4491 45.9627 29.4438 45.8531C29.4438 45.8113 29.4386 45.7695 29.4334 45.7277C29.4229 45.618 29.4491 45.759 29.4334 45.6911C29.3758 45.4822 29.3026 45.2785 29.2345 45.0695C28.9049 44.077 28.5701 43.0897 28.2352 42.0973C27.3196 39.381 26.3987 36.6647 25.504 33.9432C24.6982 31.4828 23.9134 29.0225 23.0449 26.5831C22.6211 25.3868 22.1868 24.1906 21.763 22.9944C21.6113 22.5661 21.5276 22.19 21.6165 21.7199C21.695 21.3176 21.8886 20.8945 22.2967 20.7483C22.5845 20.6438 22.8879 20.5706 23.1862 20.4818C24.2692 20.1528 25.3523 19.8289 26.4353 19.4998C26.9167 19.3535 27.1469 20.1057 26.6603 20.252C25.5563 20.5863 24.4523 20.9154 23.3536 21.2497C23.2018 21.2967 23.0501 21.3385 22.8984 21.3855C22.7937 21.4169 22.6054 21.443 22.5269 21.5005C22.3333 21.6467 22.3281 22.1639 22.3752 22.3676C22.4432 22.6392 22.5635 22.9108 22.6629 23.1772C23.6309 25.8726 24.6302 28.568 25.4883 31.3C26.2051 33.5932 26.969 35.8707 27.7329 38.1482C28.4968 40.4205 29.2764 42.6928 30.0298 44.9703C30.1031 45.1949 30.1868 45.4143 30.2182 45.6493C30.281 46.1404 30.2339 46.6575 30.2025 47.1485C30.124 48.4074 29.9566 49.6559 29.899 50.9148C29.899 50.9931 29.8938 51.0767 29.8938 51.155C29.8938 51.2282 29.9304 51.3588 29.8886 51.223C29.9409 51.3849 29.988 51.5468 30.0351 51.7088C30.2653 52.4662 30.4903 53.2184 30.7205 53.9758C30.9245 54.6601 31.1338 55.3392 31.3379 56.0235C32.0495 58.3793 32.761 60.7352 33.4778 63.0858C34.1371 65.2589 34.7964 67.4371 35.4556 69.6102C35.5707 69.9915 35.6858 70.3728 35.8009 70.7541C36.0364 71.5325 36.2718 72.3108 36.5073 73.0839C36.6485 73.5592 36.795 74.0346 36.9677 74.4995C37.0985 74.8547 37.2345 75.2569 37.4752 75.5599C37.4962 75.586 37.5485 75.6435 37.5537 75.6487C37.5746 75.68 37.6217 75.6852 37.5537 75.6591C37.5903 75.6748 37.627 75.6748 37.6636 75.6852C37.5694 75.6696 37.7002 75.6852 37.7316 75.6852C37.9671 75.6852 38.1763 75.6539 38.3961 75.6121C39.2123 75.4554 40.0181 75.2151 40.8186 74.9801C41.9435 74.651 43.0632 74.3062 44.1829 73.9667C46.6472 73.2249 49.1116 72.4779 51.5759 71.7362C54.1711 70.9526 56.7663 70.1691 59.3614 69.3855C60.1567 69.1453 60.952 68.905 61.7473 68.6647C62.0822 68.5654 62.417 68.4714 62.7414 68.346C63.0449 68.2259 63.364 68.0692 63.5733 67.808C63.7303 67.6095 63.7931 67.364 63.8402 67.1133C63.8506 67.0662 63.8559 67.0192 63.8663 66.9774C63.882 66.8991 63.8663 67.0558 63.8663 67.0036C63.8663 66.9566 63.8663 66.9095 63.8663 66.8625C63.8663 66.7476 63.8559 66.6379 63.8454 66.5282C63.8402 66.4603 63.8297 66.3872 63.8192 66.3193C63.8035 66.22 63.8297 66.3924 63.8192 66.2879C63.814 66.2461 63.8036 66.1991 63.7983 66.1573C63.7617 65.9693 63.7251 65.7812 63.6832 65.5932C63.4164 64.4126 62.778 62.2501 62.438 61.0852C61.1875 56.8227 60.1933 53.5736 58.6551 49.4051C58.0795 47.8485 57.4778 46.2971 56.85 44.7613C56.6878 44.3643 56.5204 43.9673 56.3529 43.5703C56.2901 43.4241 56.2274 43.2987 56.2169 43.142C56.1227 42.139 56.0704 41.1257 55.9867 40.1227C55.9344 39.4907 55.8768 38.8534 55.8035 38.2213C55.7879 38.1012 55.7774 37.981 55.7565 37.8609C55.7512 37.8087 55.7408 37.7564 55.7355 37.7042C55.7355 37.6833 55.7094 37.5266 55.7251 37.6154C55.6989 37.4691 55.6623 37.3281 55.6204 37.1818C54.8565 34.664 54.1136 31.9373 53.2764 29.4404C52.2823 26.4786 51.2516 23.7257 50.1214 20.8109C49.9121 20.2677 49.6976 19.7244 49.4674 19.1916C49.4255 19.0924 49.3784 18.9879 49.3366 18.8886C49.3156 18.8364 49.2895 18.7842 49.2686 18.7319C49.3052 18.8103 49.2424 18.6745 49.2319 18.6536C49.0488 18.267 48.8604 17.8857 48.6773 17.4992C48.3739 16.8619 48.0861 16.0783 47.6309 15.5612C47.4687 15.3784 47.3536 15.3 47.1548 15.2582C47.1181 15.2478 47.024 15.2478 46.9088 15.253C46.7676 15.253 46.6211 15.2739 46.4798 15.2896C45.4595 15.4254 44.4497 15.7127 43.4661 16.0052C42.9847 16.1515 42.7545 15.3992 43.2411 15.253L43.2045 15.2634Z" fill="url(#paint8_linear_108_136)"/>
<path d="M37.3235 49.8125C38.1973 52.278 39.0501 54.7541 39.8663 57.2405C40.9494 60.5523 41.9173 63.9059 42.9167 67.249C43.2097 68.231 43.5027 69.2079 43.7957 70.1899C43.9422 70.6757 43.1888 70.9003 43.0423 70.4145C42.3045 67.9385 41.5616 65.4625 40.8186 62.9865C39.8088 59.6329 38.7466 56.3003 37.6008 52.9832C37.2607 52.0012 36.9206 51.0192 36.5701 50.0371C36.4026 49.5618 37.1508 49.3371 37.3235 49.8125Z" fill="#1E1C1C"/>
<path d="M37.3235 49.8125C38.1973 52.278 39.0501 54.7541 39.8663 57.2405C40.9494 60.5523 41.9173 63.9059 42.9167 67.249C43.2097 68.231 43.5027 69.2079 43.7957 70.1899C43.9422 70.6757 43.1888 70.9003 43.0423 70.4145C42.3045 67.9385 41.5616 65.4625 40.8186 62.9865C39.8088 59.6329 38.7466 56.3003 37.6008 52.9832C37.2607 52.0012 36.9206 51.0192 36.5701 50.0371C36.4026 49.5618 37.1508 49.3371 37.3235 49.8125Z" fill="url(#paint9_linear_108_136)"/>
<path d="M42.8278 48.2664C43.8533 51.364 44.816 54.4773 45.7578 57.601C46.6577 60.5785 47.5524 63.5612 48.4419 66.5387C48.6669 67.2857 48.8918 68.0379 49.1168 68.7849C49.2633 69.2707 48.5099 69.4953 48.3634 69.0095C47.7669 67.014 47.1652 65.0134 46.5635 63.018C45.5903 59.7845 44.6381 56.5459 43.6283 53.3229C43.1208 51.7088 42.608 50.0947 42.0743 48.491C41.9174 48.0105 42.6656 47.7858 42.8278 48.2664Z" fill="#1E1C1C"/>
<path d="M42.8278 48.2664C43.8533 51.364 44.816 54.4773 45.7578 57.601C46.6577 60.5785 47.5524 63.5612 48.4419 66.5387C48.6669 67.2857 48.8918 68.0379 49.1168 68.7849C49.2633 69.2707 48.5099 69.4953 48.3634 69.0095C47.7669 67.014 47.1652 65.0134 46.5635 63.018C45.5903 59.7845 44.6381 56.5459 43.6283 53.3229C43.1208 51.7088 42.608 50.0947 42.0743 48.491C41.9174 48.0105 42.6656 47.7858 42.8278 48.2664Z" fill="url(#paint10_linear_108_136)"/>
<path d="M49.3575 46.4746C50.1737 49.1648 50.9952 51.8602 51.8114 54.5503C52.7689 57.7002 53.6741 60.8657 54.574 64.0365C54.8461 64.9872 55.1129 65.9379 55.3797 66.8886C55.5158 67.3744 54.7624 67.6042 54.6263 67.1132C53.9514 64.7051 53.2659 62.297 52.5753 59.8941C51.6283 56.6032 50.6237 53.328 49.6244 50.0528C49.2843 48.9349 48.9442 47.8171 48.6041 46.694C48.4576 46.2134 49.211 45.9836 49.3575 46.4694V46.4746Z" fill="#1E1C1C"/>
<path d="M49.3575 46.4746C50.1737 49.1648 50.9952 51.8602 51.8114 54.5503C52.7689 57.7002 53.6741 60.8657 54.574 64.0365C54.8461 64.9872 55.1129 65.9379 55.3797 66.8886C55.5158 67.3744 54.7624 67.6042 54.6263 67.1132C53.9514 64.7051 53.2659 62.297 52.5753 59.8941C51.6283 56.6032 50.6237 53.328 49.6244 50.0528C49.2843 48.9349 48.9442 47.8171 48.6041 46.694C48.4576 46.2134 49.211 45.9836 49.3575 46.4694V46.4746Z" fill="url(#paint11_linear_108_136)"/>
<path d="M34.4667 56.8958C37.2555 56.2167 40.039 55.522 42.7911 54.7123C45.9618 53.7825 49.1168 52.8057 52.2823 51.8497C53.4805 51.4893 54.6839 51.1341 55.8925 50.8155C56.3791 50.6849 56.6093 51.4371 56.1175 51.5677C53.4962 52.2572 50.9115 53.0825 48.3163 53.8661C44.9991 54.869 41.4098 55.6891 38.0508 56.551C36.8421 56.8644 35.9003 57.345 34.6865 57.6427C34.1999 57.7629 33.9644 57.0107 34.4615 56.8905L34.4667 56.8958Z" fill="#1E1C1C"/>
<path d="M34.4667 56.8958C37.2555 56.2167 40.039 55.522 42.7911 54.7123C45.9618 53.7825 49.1168 52.8057 52.2823 51.8497C53.4805 51.4893 54.6839 51.1341 55.8925 50.8155C56.3791 50.6849 56.6093 51.4371 56.1175 51.5677C53.4962 52.2572 50.9115 53.0825 48.3163 53.8661C44.9991 54.869 41.4098 55.6891 38.0508 56.551C36.8421 56.8644 35.9003 57.345 34.6865 57.6427C34.1999 57.7629 33.9644 57.0107 34.4615 56.8905L34.4667 56.8958Z" fill="url(#paint12_linear_108_136)"/>
<path d="M36.5962 63.9426C39.5995 63.0493 43.3771 61.9158 46.3752 61.0069C49.3627 60.1084 51.5655 59.4398 54.5531 58.5413C55.7094 58.1913 56.9128 57.9615 58.0952 57.6899C58.5871 57.575 58.8173 58.3272 58.3202 58.4421C57.1744 58.7085 56.0076 58.9331 54.8775 59.2622C53.8362 59.5652 52.8055 59.889 51.7695 60.2025C48.3268 61.242 45.538 62.0882 42.0952 63.1225C40.557 63.5821 38.3647 64.2351 36.8264 64.6948C36.3398 64.841 36.1149 64.0888 36.6015 63.9426H36.5962Z" fill="#1E1C1C"/>
<path d="M36.5962 63.9426C39.5995 63.0493 43.3771 61.9158 46.3752 61.0069C49.3627 60.1084 51.5655 59.4398 54.5531 58.5413C55.7094 58.1913 56.9128 57.9615 58.0952 57.6899C58.5871 57.575 58.8173 58.3272 58.3202 58.4421C57.1744 58.7085 56.0076 58.9331 54.8775 59.2622C53.8362 59.5652 52.8055 59.889 51.7695 60.2025C48.3268 61.242 45.538 62.0882 42.0952 63.1225C40.557 63.5821 38.3647 64.2351 36.8264 64.6948C36.3398 64.841 36.1149 64.0888 36.6015 63.9426H36.5962Z" fill="url(#paint13_linear_108_136)"/>
</g>
<defs>
<linearGradient id="paint0_linear_108_136" x1="78.1749" y1="1.31793" x2="93.6213" y2="78.5339" gradientUnits="userSpaceOnUse">
<stop stop-color="#92CE1D"/>
<stop offset="1" stop-color="#147AD8"/>
</linearGradient>
<linearGradient id="paint1_linear_108_136" x1="60.4233" y1="18.3766" x2="63.5922" y2="44.1696" gradientUnits="userSpaceOnUse">
<stop stop-color="#92CE1D"/>
<stop offset="1" stop-color="#147AD8"/>
</linearGradient>
<linearGradient id="paint2_linear_108_136" x1="68.7772" y1="36.0242" x2="74.2337" y2="71.5544" gradientUnits="userSpaceOnUse">
<stop stop-color="#92CE1D"/>
<stop offset="1" stop-color="#147AD8"/>
</linearGradient>
<linearGradient id="paint3_linear_108_136" x1="54.1442" y1="17.6378" x2="54.5402" y2="26.1183" gradientUnits="userSpaceOnUse">
<stop stop-color="#92CE1D"/>
<stop offset="1" stop-color="#147AD8"/>
</linearGradient>
<linearGradient id="paint4_linear_108_136" x1="41.4319" y1="6.16483" x2="41.7501" y2="11.7398" gradientUnits="userSpaceOnUse">
<stop stop-color="#92CE1D"/>
<stop offset="1" stop-color="#147AD8"/>
</linearGradient>
<linearGradient id="paint5_linear_108_136" x1="42.896" y1="11.049" x2="43.2085" y2="16.5727" gradientUnits="userSpaceOnUse">
<stop stop-color="#92CE1D"/>
<stop offset="1" stop-color="#147AD8"/>
</linearGradient>
<linearGradient id="paint6_linear_108_136" x1="44.7448" y1="16.7562" x2="45.0076" y2="21.9294" gradientUnits="userSpaceOnUse">
<stop stop-color="#92CE1D"/>
<stop offset="1" stop-color="#147AD8"/>
</linearGradient>
<linearGradient id="paint7_linear_108_136" x1="52.6962" y1="-8.46364" x2="58.2262" y2="25.4627" gradientUnits="userSpaceOnUse">
<stop stop-color="#92CE1D"/>
<stop offset="1" stop-color="#147AD8"/>
</linearGradient>
<linearGradient id="paint8_linear_108_136" x1="76.9687" y1="-6.01467" x2="95.5766" y2="73.8342" gradientUnits="userSpaceOnUse">
<stop stop-color="#92CE1D"/>
<stop offset="1" stop-color="#147AD8"/>
</linearGradient>
<linearGradient id="paint9_linear_108_136" x1="45.8987" y1="42.5633" x2="56.9559" y2="66.0629" gradientUnits="userSpaceOnUse">
<stop stop-color="#92CE1D"/>
<stop offset="1" stop-color="#147AD8"/>
</linearGradient>
<linearGradient id="paint10_linear_108_136" x1="51.1665" y1="40.9657" x2="62.5305" y2="64.3396" gradientUnits="userSpaceOnUse">
<stop stop-color="#92CE1D"/>
<stop offset="1" stop-color="#147AD8"/>
</linearGradient>
<linearGradient id="paint11_linear_108_136" x1="57.349" y1="39.1977" x2="68.9031" y2="62.1522" gradientUnits="userSpaceOnUse">
<stop stop-color="#92CE1D"/>
<stop offset="1" stop-color="#147AD8"/>
</linearGradient>
<linearGradient id="paint12_linear_108_136" x1="62.7581" y1="48.5345" x2="63.222" y2="57.8207" gradientUnits="userSpaceOnUse">
<stop stop-color="#92CE1D"/>
<stop offset="1" stop-color="#147AD8"/>
</linearGradient>
<linearGradient id="paint13_linear_108_136" x1="64.9824" y1="55.3527" x2="65.4696" y2="64.8818" gradientUnits="userSpaceOnUse">
<stop stop-color="#92CE1D"/>
<stop offset="1" stop-color="#147AD8"/>
</linearGradient>
<clipPath id="clip0_108_136">
<rect width="48" height="80" fill="white" transform="translate(16.625)"/>
</clipPath>
</defs>
</svg>
