<svg width="82" height="80" viewBox="0 0 82 80" fill="none" xmlns="http://www.w3.org/2000/svg">
<g clip-path="url(#clip0_108_187)">
<path d="M56.0971 6.59336C52.0984 6.59336 50.9945 6.19922 46.9958 6.19922H34.594C30.8825 6.19922 26.6021 6.59336 22.8906 6.59336H12.5896C10.8719 6.59336 9.14282 6.53706 7.42505 6.59336C7.39689 6.59336 7.37436 6.59336 7.3462 6.59336C7.16034 6.59336 7.03644 6.71724 6.97449 6.88053C6.81116 7.29719 6.73794 7.77016 6.67036 8.21498C6.42818 9.72962 6.36059 11.2668 6.35496 12.7927C6.34933 14.1553 6.23669 15.5179 6.11842 16.8749C5.71291 21.7003 5.1835 26.5145 4.68225 31.3287C4.13594 36.5652 3.57837 41.8017 3.11654 47.0494C2.75046 51.233 2.29426 57.0382 2.02955 61.2274C1.686 66.5708 1.57899 70.3039 1.16222 75.6418C1.09464 76.4807 1.03268 77.3197 0.965099 78.1643C0.931307 78.5753 0.874986 78.9976 0.869354 79.4087C0.869354 79.876 1.27486 79.9098 1.63531 79.938C2.27173 79.9886 2.91378 79.9886 3.55584 79.9943C8.39939 80.0506 13.2429 79.9436 18.0865 79.8929C21.3024 79.8591 24.5183 79.8704 27.7342 79.8704H52.7404C52.9601 79.8704 53.5627 79.6564 53.5796 79.4481C53.7429 77.1958 53.8162 76.2724 53.9682 74.0258C54.2667 69.5044 54.5145 65.3771 54.7454 60.8501C54.875 58.2825 54.6441 54.0258 54.7286 51.4526C54.7454 50.9515 53.9682 50.9571 53.9513 51.4526C53.7936 56.0753 53.5684 60.6925 53.2924 65.3096C53.0558 69.251 52.7968 73.1868 52.5208 77.1226C52.4757 77.7814 52.4307 78.4402 52.38 79.0934H31.1585C27.7905 79.0934 24.4225 79.0877 21.0546 79.0934C16.3575 79.1046 11.6603 79.206 6.96322 79.2229C5.22855 79.2285 3.48262 79.2792 1.75358 79.1666C1.72542 79.1666 1.7029 79.1666 1.67474 79.1609C1.70853 78.7274 1.74232 78.2938 1.77611 77.8659C2.15346 73.0235 2.53081 68.1812 2.86873 63.3332C3.05459 60.6699 3.22918 58.001 3.36998 55.3321C3.46572 53.519 3.53331 51.706 3.66848 49.8929C4.04019 44.9943 4.63719 40.5404 5.13844 35.653C5.66785 30.5066 6.15221 24.9323 6.63656 19.7803C6.79989 18.0292 6.96885 16.278 7.07586 14.5213C7.2054 12.4323 7.09276 10.3265 7.45321 8.2544C7.5039 7.96724 7.54895 7.66318 7.63343 7.37602H55.686C55.5959 9.03706 55.5001 10.6981 55.41 12.3648C55.3087 14.2229 55.1847 16.0866 55.1003 17.9447C55.0271 19.5157 54.9933 21.0922 54.9369 22.6688C54.92 23.1699 55.6973 23.1643 55.7142 22.6688C55.7874 20.6024 56.1816 18.3445 56.2943 16.278C56.4294 13.8062 56.5421 11.7735 56.6829 9.3017C56.7223 8.60913 56.4463 7.67444 56.4857 6.98188C56.497 6.77354 56.2999 6.59336 56.0971 6.59336ZM1.47198 79.1384C1.3875 79.1271 1.5283 79.1159 1.47198 79.1384V79.1384ZM1.64658 79.4706C1.64658 79.4706 1.64658 79.4481 1.64658 79.4425C1.66347 79.403 1.65221 79.3411 1.65784 79.2961C1.69163 79.3355 1.7029 79.3918 1.64658 79.4706Z" fill="#1E1C1C"/>
<path d="M56.0971 6.59336C52.0984 6.59336 50.9945 6.19922 46.9958 6.19922H34.594C30.8825 6.19922 26.6021 6.59336 22.8906 6.59336H12.5896C10.8719 6.59336 9.14282 6.53706 7.42505 6.59336C7.39689 6.59336 7.37436 6.59336 7.3462 6.59336C7.16034 6.59336 7.03644 6.71724 6.97449 6.88053C6.81116 7.29719 6.73794 7.77016 6.67036 8.21498C6.42818 9.72962 6.36059 11.2668 6.35496 12.7927C6.34933 14.1553 6.23669 15.5179 6.11842 16.8749C5.71291 21.7003 5.1835 26.5145 4.68225 31.3287C4.13594 36.5652 3.57837 41.8017 3.11654 47.0494C2.75046 51.233 2.29426 57.0382 2.02955 61.2274C1.686 66.5708 1.57899 70.3039 1.16222 75.6418C1.09464 76.4807 1.03268 77.3197 0.965099 78.1643C0.931307 78.5753 0.874986 78.9976 0.869354 79.4087C0.869354 79.876 1.27486 79.9098 1.63531 79.938C2.27173 79.9886 2.91378 79.9886 3.55584 79.9943C8.39939 80.0506 13.2429 79.9436 18.0865 79.8929C21.3024 79.8591 24.5183 79.8704 27.7342 79.8704H52.7404C52.9601 79.8704 53.5627 79.6564 53.5796 79.4481C53.7429 77.1958 53.8162 76.2724 53.9682 74.0258C54.2667 69.5044 54.5145 65.3771 54.7454 60.8501C54.875 58.2825 54.6441 54.0258 54.7286 51.4526C54.7454 50.9515 53.9682 50.9571 53.9513 51.4526C53.7936 56.0753 53.5684 60.6925 53.2924 65.3096C53.0558 69.251 52.7968 73.1868 52.5208 77.1226C52.4757 77.7814 52.4307 78.4402 52.38 79.0934H31.1585C27.7905 79.0934 24.4225 79.0877 21.0546 79.0934C16.3575 79.1046 11.6603 79.206 6.96322 79.2229C5.22855 79.2285 3.48262 79.2792 1.75358 79.1666C1.72542 79.1666 1.7029 79.1666 1.67474 79.1609C1.70853 78.7274 1.74232 78.2938 1.77611 77.8659C2.15346 73.0235 2.53081 68.1812 2.86873 63.3332C3.05459 60.6699 3.22918 58.001 3.36998 55.3321C3.46572 53.519 3.53331 51.706 3.66848 49.8929C4.04019 44.9943 4.63719 40.5404 5.13844 35.653C5.66785 30.5066 6.15221 24.9323 6.63656 19.7803C6.79989 18.0292 6.96885 16.278 7.07586 14.5213C7.2054 12.4323 7.09276 10.3265 7.45321 8.2544C7.5039 7.96724 7.54895 7.66318 7.63343 7.37602H55.686C55.5959 9.03706 55.5001 10.6981 55.41 12.3648C55.3087 14.2229 55.1847 16.0866 55.1003 17.9447C55.0271 19.5157 54.9933 21.0922 54.9369 22.6688C54.92 23.1699 55.6973 23.1643 55.7142 22.6688C55.7874 20.6024 56.1816 18.3445 56.2943 16.278C56.4294 13.8062 56.5421 11.7735 56.6829 9.3017C56.7223 8.60913 56.4463 7.67444 56.4857 6.98188C56.497 6.77354 56.2999 6.59336 56.0971 6.59336ZM1.47198 79.1384C1.3875 79.1271 1.5283 79.1159 1.47198 79.1384V79.1384ZM1.64658 79.4706C1.64658 79.4706 1.64658 79.4481 1.64658 79.4425C1.66347 79.403 1.65221 79.3411 1.65784 79.2961C1.69163 79.3355 1.7029 79.3918 1.64658 79.4706Z" fill="url(#paint0_linear_108_187)"/>
<path d="M63.661 10.4617L48.2573 34.7297C47.007 36.7793 45.7623 38.8344 44.5402 40.8953L42.721 43.9977L41.8312 45.5574C41.5439 46.0754 41.2455 46.6103 41.0089 47.1171C40.9864 47.1621 40.9582 47.2691 40.9638 47.1959C40.9638 47.1734 40.9638 47.2072 40.9638 47.2297V47.2973L40.9526 47.4155L40.9132 47.8716L40.8343 48.7725L40.6654 50.5687L40.3387 54.1554C40.2373 55.3491 40.1359 56.5428 40.0627 57.7365L40.0177 58.6261C40.0064 58.9133 39.9951 59.2286 40.0177 59.4707C40.0177 59.482 40.0233 59.527 40.0177 59.5158C40.0064 59.4707 39.9782 59.42 39.9445 59.3919C39.9445 59.3919 39.967 59.4088 39.9951 59.4257C40.0233 59.4426 40.0402 59.4538 40.074 59.4707C40.1923 59.5326 40.3162 59.5946 40.4513 59.6565C40.716 59.7748 40.9864 59.8874 41.2623 59.9944C41.5383 60.1013 41.8143 60.2027 42.0903 60.2984C42.2254 60.3435 42.3662 60.3941 42.5014 60.4279C42.569 60.4504 42.6309 60.4617 42.6873 60.4786C42.6985 60.4786 42.6873 60.4786 42.6929 60.4786C42.6929 60.4786 42.6591 60.4786 42.6422 60.4786C42.5127 60.5124 42.5915 60.4899 42.6084 60.4786C43.0646 60.1858 43.5715 59.8142 44.0446 59.4651C45.0077 58.7556 45.9651 58.0293 46.9169 57.3029C48.8149 55.8389 50.7129 54.3637 52.5377 52.8322C52.763 52.6408 52.9883 52.4437 53.2023 52.2466C53.3093 52.1509 53.4163 52.0495 53.5064 51.9538L53.574 51.8862L53.6134 51.8356C53.6472 51.7849 53.6866 51.7173 53.726 51.661L54.6328 50.1239L56.4407 47.0101L59.7805 40.6869C62.1854 36.5259 64.8268 32.4437 67.2486 28.2883L74.6491 15.9178L75.3137 16.3176L67.9188 29.0597L60.7605 41.1824L57.156 47.4212L55.3424 50.5349C55.0383 51.0585 54.7398 51.5653 54.4188 52.0946C54.3737 52.1621 54.3399 52.2241 54.2893 52.2973L54.1879 52.4212L54.0978 52.5169C53.9795 52.6407 53.8669 52.7421 53.7542 52.8491C53.5233 53.0574 53.298 53.2545 53.0671 53.4516C51.2142 55.0056 49.3162 56.4752 47.4069 57.9448C46.4495 58.6768 45.492 59.4031 44.5233 60.1182C44.0277 60.4786 43.5715 60.8277 43.0139 61.1768C42.9632 61.1993 42.9801 61.2218 42.783 61.2781C42.6873 61.3007 42.6591 61.2894 42.6253 61.2894C42.5915 61.2894 42.5464 61.2781 42.5239 61.2725C42.4338 61.25 42.3493 61.2331 42.2705 61.2106C42.1128 61.1655 41.972 61.1148 41.8256 61.0698C41.5327 60.9685 41.2511 60.8615 40.9638 60.7545C40.6766 60.6419 40.395 60.5236 40.1134 60.3998C39.9726 60.3378 39.8318 60.2646 39.6797 60.1858C39.646 60.1689 39.6009 60.1407 39.5615 60.1182C39.5277 60.0957 39.4826 60.0732 39.4263 60.0225C39.3981 60 39.3812 59.9887 39.3475 59.9493C39.2968 59.8874 39.2517 59.8029 39.2292 59.7241C39.2123 59.6396 39.2123 59.6058 39.201 59.5495C39.1785 59.1948 39.1954 58.9076 39.201 58.5923L39.2517 57.6858C39.3306 56.4808 39.4319 55.2815 39.5333 54.0822L39.86 50.4899L40.0289 48.6993L40.1078 47.804L40.1416 47.3592V47.2522L40.1528 47.2072C40.1528 47.1959 40.1528 47.1903 40.1585 47.134C40.1979 46.9144 40.2317 46.8862 40.2655 46.7905C40.5358 46.2049 40.8287 45.6926 41.1215 45.1633L42.017 43.5923L43.8475 40.4842C45.0752 38.4178 46.3199 36.3626 47.5759 34.313L62.7711 9.82544L63.6553 10.4617H63.661Z" fill="#1E1C1C"/>
<path d="M63.661 10.4617L48.2573 34.7297C47.007 36.7793 45.7623 38.8344 44.5402 40.8953L42.721 43.9977L41.8312 45.5574C41.5439 46.0754 41.2455 46.6103 41.0089 47.1171C40.9864 47.1621 40.9582 47.2691 40.9638 47.1959C40.9638 47.1734 40.9638 47.2072 40.9638 47.2297V47.2973L40.9526 47.4155L40.9132 47.8716L40.8343 48.7725L40.6654 50.5687L40.3387 54.1554C40.2373 55.3491 40.1359 56.5428 40.0627 57.7365L40.0177 58.6261C40.0064 58.9133 39.9951 59.2286 40.0177 59.4707C40.0177 59.482 40.0233 59.527 40.0177 59.5158C40.0064 59.4707 39.9782 59.42 39.9445 59.3919C39.9445 59.3919 39.967 59.4088 39.9951 59.4257C40.0233 59.4426 40.0402 59.4538 40.074 59.4707C40.1923 59.5326 40.3162 59.5946 40.4513 59.6565C40.716 59.7748 40.9864 59.8874 41.2623 59.9944C41.5383 60.1013 41.8143 60.2027 42.0903 60.2984C42.2254 60.3435 42.3662 60.3941 42.5014 60.4279C42.569 60.4504 42.6309 60.4617 42.6873 60.4786C42.6985 60.4786 42.6873 60.4786 42.6929 60.4786C42.6929 60.4786 42.6591 60.4786 42.6422 60.4786C42.5127 60.5124 42.5915 60.4899 42.6084 60.4786C43.0646 60.1858 43.5715 59.8142 44.0446 59.4651C45.0077 58.7556 45.9651 58.0293 46.9169 57.3029C48.8149 55.8389 50.7129 54.3637 52.5377 52.8322C52.763 52.6408 52.9883 52.4437 53.2023 52.2466C53.3093 52.1509 53.4163 52.0495 53.5064 51.9538L53.574 51.8862L53.6134 51.8356C53.6472 51.7849 53.6866 51.7173 53.726 51.661L54.6328 50.1239L56.4407 47.0101L59.7805 40.6869C62.1854 36.5259 64.8268 32.4437 67.2486 28.2883L74.6491 15.9178L75.3137 16.3176L67.9188 29.0597L60.7605 41.1824L57.156 47.4212L55.3424 50.5349C55.0383 51.0585 54.7398 51.5653 54.4188 52.0946C54.3737 52.1621 54.3399 52.2241 54.2893 52.2973L54.1879 52.4212L54.0978 52.5169C53.9795 52.6407 53.8669 52.7421 53.7542 52.8491C53.5233 53.0574 53.298 53.2545 53.0671 53.4516C51.2142 55.0056 49.3162 56.4752 47.4069 57.9448C46.4495 58.6768 45.492 59.4031 44.5233 60.1182C44.0277 60.4786 43.5715 60.8277 43.0139 61.1768C42.9632 61.1993 42.9801 61.2218 42.783 61.2781C42.6873 61.3007 42.6591 61.2894 42.6253 61.2894C42.5915 61.2894 42.5464 61.2781 42.5239 61.2725C42.4338 61.25 42.3493 61.2331 42.2705 61.2106C42.1128 61.1655 41.972 61.1148 41.8256 61.0698C41.5327 60.9685 41.2511 60.8615 40.9638 60.7545C40.6766 60.6419 40.395 60.5236 40.1134 60.3998C39.9726 60.3378 39.8318 60.2646 39.6797 60.1858C39.646 60.1689 39.6009 60.1407 39.5615 60.1182C39.5277 60.0957 39.4826 60.0732 39.4263 60.0225C39.3981 60 39.3812 59.9887 39.3475 59.9493C39.2968 59.8874 39.2517 59.8029 39.2292 59.7241C39.2123 59.6396 39.2123 59.6058 39.201 59.5495C39.1785 59.1948 39.1954 58.9076 39.201 58.5923L39.2517 57.6858C39.3306 56.4808 39.4319 55.2815 39.5333 54.0822L39.86 50.4899L40.0289 48.6993L40.1078 47.804L40.1416 47.3592V47.2522L40.1528 47.2072C40.1528 47.1959 40.1528 47.1903 40.1585 47.134C40.1979 46.9144 40.2317 46.8862 40.2655 46.7905C40.5358 46.2049 40.8287 45.6926 41.1215 45.1633L42.017 43.5923L43.8475 40.4842C45.0752 38.4178 46.3199 36.3626 47.5759 34.313L62.7711 9.82544L63.6553 10.4617H63.661Z" fill="url(#paint1_linear_108_187)"/>
<path d="M75.9163 17.196C75.7586 17.196 75.5896 17.1566 75.4207 17.0722C75.3531 17.0384 75.1165 16.9258 74.7505 16.7512C61.4926 10.4674 61.4926 9.83117 61.4926 9.4145C61.4926 8.32779 63.2724 5.91788 63.7398 5.18027C64.8156 3.48545 67.2711 5.48432 70.2448 6.97081C73.2692 8.47982 77.1779 10.8165 77.2229 10.8447L77.9382 11.2219C78.0508 11.2951 79.0252 11.9708 79.0252 12.7647C79.0252 13.5586 78.2198 15.0057 77.7411 15.7208C77.4538 16.1544 76.7611 17.1904 75.9107 17.1904L75.9163 17.196ZM62.2755 9.34693C62.4839 9.60031 63.3794 10.1127 67.9244 12.3987C69.6873 13.2884 71.5458 14.4821 74.5139 15.8841C74.8856 16.0586 75.6966 16.3458 75.7699 16.3796C76.074 16.5316 76.5189 16.1656 77.1047 15.2929C77.7636 14.3075 78.2592 13.2208 78.2592 12.7647C78.2592 12.4832 77.7861 12.0496 77.5271 11.8751C77.3074 11.74 73.9676 9.60031 71.0333 8.13635C68.4201 6.83004 66.308 5.63072 66.0152 5.5181C65.5196 5.32666 64.8324 5.03387 64.303 5.73207C63.8299 6.35144 62.3712 8.51923 62.2868 9.34693H62.2755Z" fill="#1E1C1C"/>
<path d="M75.9163 17.196C75.7586 17.196 75.5896 17.1566 75.4207 17.0722C75.3531 17.0384 75.1165 16.9258 74.7505 16.7512C61.4926 10.4674 61.4926 9.83117 61.4926 9.4145C61.4926 8.32779 63.2724 5.91788 63.7398 5.18027C64.8156 3.48545 67.2711 5.48432 70.2448 6.97081C73.2692 8.47982 77.1779 10.8165 77.2229 10.8447L77.9382 11.2219C78.0508 11.2951 79.0252 11.9708 79.0252 12.7647C79.0252 13.5586 78.2198 15.0057 77.7411 15.7208C77.4538 16.1544 76.7611 17.1904 75.9107 17.1904L75.9163 17.196ZM62.2755 9.34693C62.4839 9.60031 63.3794 10.1127 67.9244 12.3987C69.6873 13.2884 71.5458 14.4821 74.5139 15.8841C74.8856 16.0586 75.6966 16.3458 75.7699 16.3796C76.074 16.5316 76.5189 16.1656 77.1047 15.2929C77.7636 14.3075 78.2592 13.2208 78.2592 12.7647C78.2592 12.4832 77.7861 12.0496 77.5271 11.8751C77.3074 11.74 73.9676 9.60031 71.0333 8.13635C68.4201 6.83004 66.308 5.63072 66.0152 5.5181C65.5196 5.32666 64.8324 5.03387 64.303 5.73207C63.8299 6.35144 62.3712 8.51923 62.2868 9.34693H62.2755Z" fill="url(#paint2_linear_108_187)"/>
<path d="M76.0627 10.4617L75.5784 9.90429C75.5784 9.90429 76.1134 9.13852 76.84 7.74775C77.5834 6.3232 78.5352 4.2455 78.6647 3.98649C78.8224 3.67118 78.9125 3.35586 78.2818 2.93919C77.3468 2.31419 74.5533 0.737618 74.1084 0.686942C73.6241 0.686942 73.365 0.563069 72.9651 1.15992C72.6722 1.5991 71.512 3.22636 70.6391 4.64528C70.0139 5.66442 69.569 6.65541 69.5577 6.67793L68.8988 6.27253C69.017 6.08109 71.743 1.62163 72.2555 0.855861C72.8806 -0.0844539 73.1848 5.53112e-06 73.7367 5.53112e-06C74.0859 5.53112e-06 75.4939 0.630636 76.4513 1.15992C77.544 1.76239 78.2423 2.2241 78.3888 2.31983C79.2167 2.87163 79.7573 3.53041 79.3575 4.32996C79.104 4.84235 76.181 10.2365 76.0627 10.4561V10.4617Z" fill="#1E1C1C"/>
<path d="M76.0627 10.4617L75.5784 9.90429C75.5784 9.90429 76.1134 9.13852 76.84 7.74775C77.5834 6.3232 78.5352 4.2455 78.6647 3.98649C78.8224 3.67118 78.9125 3.35586 78.2818 2.93919C77.3468 2.31419 74.5533 0.737618 74.1084 0.686942C73.6241 0.686942 73.365 0.563069 72.9651 1.15992C72.6722 1.5991 71.512 3.22636 70.6391 4.64528C70.0139 5.66442 69.569 6.65541 69.5577 6.67793L68.8988 6.27253C69.017 6.08109 71.743 1.62163 72.2555 0.855861C72.8806 -0.0844539 73.1848 5.53112e-06 73.7367 5.53112e-06C74.0859 5.53112e-06 75.4939 0.630636 76.4513 1.15992C77.544 1.76239 78.2423 2.2241 78.3888 2.31983C79.2167 2.87163 79.7573 3.53041 79.3575 4.32996C79.104 4.84235 76.181 10.2365 76.0627 10.4561V10.4617Z" fill="url(#paint3_linear_108_187)"/>
<path d="M66.5671 42.1677C66.0433 42.1677 65.5027 41.9763 65.114 41.6384C64.6015 41.188 64.4044 40.5348 64.5508 39.8029C64.8043 38.5303 65.6547 36.8299 66.5784 36.2893C66.9726 36.0641 67.2936 36.0923 67.4908 36.1598C67.7611 36.2499 67.9413 36.3963 68.0371 36.599C68.1047 36.7398 68.1159 36.8806 68.1047 37.0157C70.6278 33.4853 79.2448 18.1812 79.4814 17.2409C79.6222 16.6835 78.1353 15.9121 77.0033 15.5743L77.6115 15.1125C78.1804 15.2815 80.6078 15.929 80.2361 17.4324C80.039 18.2207 76.2824 24.5551 74.1253 28.2882C70.3406 34.8366 68.4201 38.1531 67.885 38.3952C67.7555 38.4515 67.6203 38.4515 67.502 38.3952C66.9107 38.0968 67.1472 37.4887 67.243 37.2297C67.2767 37.1396 67.3331 36.9932 67.3331 36.9312C67.3274 36.9312 67.2993 36.9143 67.243 36.8975C67.1697 36.8749 67.0796 36.8975 66.967 36.9594C66.3418 37.3254 65.5533 38.7499 65.3112 39.9549C65.2211 40.4166 65.3224 40.7882 65.6266 41.0585C65.9645 41.3569 66.5277 41.4752 66.9388 41.34C67.8005 40.8333 74.4294 30.3716 77.0709 25.0844C77.7523 23.7161 78.4113 22.4943 78.9914 21.4189C80.3262 18.947 81.3794 16.9932 81.0302 16.295C80.6472 15.5348 78.7492 14.8986 77.6453 14.6734L77.9945 13.9526C78.3268 14.0202 81.0471 14.6002 81.7229 15.9515C82.2523 17.0101 81.2836 18.8119 79.6729 21.7905C79.0928 22.8659 77.5045 25.7713 76.8287 27.1283C74.7223 31.34 68.3525 41.6835 67.181 42.0776C66.9839 42.1452 66.7755 42.1734 66.5615 42.1734L66.5671 42.1677Z" fill="#1E1C1C"/>
<path d="M66.5671 42.1677C66.0433 42.1677 65.5027 41.9763 65.114 41.6384C64.6015 41.188 64.4044 40.5348 64.5508 39.8029C64.8043 38.5303 65.6547 36.8299 66.5784 36.2893C66.9726 36.0641 67.2936 36.0923 67.4908 36.1598C67.7611 36.2499 67.9413 36.3963 68.0371 36.599C68.1047 36.7398 68.1159 36.8806 68.1047 37.0157C70.6278 33.4853 79.2448 18.1812 79.4814 17.2409C79.6222 16.6835 78.1353 15.9121 77.0033 15.5743L77.6115 15.1125C78.1804 15.2815 80.6078 15.929 80.2361 17.4324C80.039 18.2207 76.2824 24.5551 74.1253 28.2882C70.3406 34.8366 68.4201 38.1531 67.885 38.3952C67.7555 38.4515 67.6203 38.4515 67.502 38.3952C66.9107 38.0968 67.1472 37.4887 67.243 37.2297C67.2767 37.1396 67.3331 36.9932 67.3331 36.9312C67.3274 36.9312 67.2993 36.9143 67.243 36.8975C67.1697 36.8749 67.0796 36.8975 66.967 36.9594C66.3418 37.3254 65.5533 38.7499 65.3112 39.9549C65.2211 40.4166 65.3224 40.7882 65.6266 41.0585C65.9645 41.3569 66.5277 41.4752 66.9388 41.34C67.8005 40.8333 74.4294 30.3716 77.0709 25.0844C77.7523 23.7161 78.4113 22.4943 78.9914 21.4189C80.3262 18.947 81.3794 16.9932 81.0302 16.295C80.6472 15.5348 78.7492 14.8986 77.6453 14.6734L77.9945 13.9526C78.3268 14.0202 81.0471 14.6002 81.7229 15.9515C82.2523 17.0101 81.2836 18.8119 79.6729 21.7905C79.0928 22.8659 77.5045 25.7713 76.8287 27.1283C74.7223 31.34 68.3525 41.6835 67.181 42.0776C66.9839 42.1452 66.7755 42.1734 66.5615 42.1734L66.5671 42.1677Z" fill="url(#paint4_linear_108_187)"/>
<path d="M48.7868 27.6126C46.6635 27.7421 44.5346 27.849 42.4056 27.9448C39.0264 28.0968 34.8756 28.2995 31.4908 28.2882C28.7367 28.277 26.7429 28.1756 23.9832 28.1362C20.9307 28.0968 17.8725 28.0518 14.8199 28.0011C13.1697 27.9729 11.5139 27.9054 9.85809 27.9166C9.83556 27.9166 9.81303 27.9166 9.78487 27.9166C9.28362 27.9054 9.28362 28.6824 9.78487 28.6936C11.1535 28.7162 12.522 28.7387 13.8963 28.7612C16.87 28.8119 19.8493 28.8569 22.823 28.8963C25.7067 28.9358 28.5846 28.9752 31.4682 28.9921C34.6785 29.009 37.8888 28.9132 41.0934 28.7781C43.6165 28.6711 46.1397 28.5416 48.6572 28.3952C48.6966 28.3952 48.7361 28.3952 48.7755 28.3896C49.2711 28.3614 49.2767 27.5844 48.7755 27.6126H48.7868Z" fill="#1E1C1C"/>
<path d="M48.7868 27.6126C46.6635 27.7421 44.5346 27.849 42.4056 27.9448C39.0264 28.0968 34.8756 28.2995 31.4908 28.2882C28.7367 28.277 26.7429 28.1756 23.9832 28.1362C20.9307 28.0968 17.8725 28.0518 14.8199 28.0011C13.1697 27.9729 11.5139 27.9054 9.85809 27.9166C9.83556 27.9166 9.81303 27.9166 9.78487 27.9166C9.28362 27.9054 9.28362 28.6824 9.78487 28.6936C11.1535 28.7162 12.522 28.7387 13.8963 28.7612C16.87 28.8119 19.8493 28.8569 22.823 28.8963C25.7067 28.9358 28.5846 28.9752 31.4682 28.9921C34.6785 29.009 37.8888 28.9132 41.0934 28.7781C43.6165 28.6711 46.1397 28.5416 48.6572 28.3952C48.6966 28.3952 48.7361 28.3952 48.7755 28.3896C49.2711 28.3614 49.2767 27.5844 48.7755 27.6126H48.7868Z" fill="url(#paint5_linear_108_187)"/>
<path d="M49.395 19.6903H42.124C38.9588 19.6903 35.788 19.7015 32.6228 19.679C29.7336 19.6565 26.8387 19.6227 23.9495 19.5833C20.9983 19.5439 18.0527 19.5045 15.1015 19.4594C13.5583 19.4369 12.0095 19.3693 10.4664 19.3862C10.4438 19.3862 10.4213 19.3862 10.3988 19.3862C9.89751 19.3806 9.89751 20.152 10.3988 20.1633C11.6772 20.1858 12.9557 20.2027 14.2286 20.2252C17.084 20.2702 19.9451 20.3096 22.8005 20.3491C25.7742 20.3885 28.5114 20.518 31.4908 20.5405C34.4757 20.5687 37.6973 20.4673 40.6879 20.4673H49.395C49.8963 20.4673 49.8963 19.6903 49.395 19.6903Z" fill="#1E1C1C"/>
<path d="M49.395 19.6903H42.124C38.9588 19.6903 35.788 19.7015 32.6228 19.679C29.7336 19.6565 26.8387 19.6227 23.9495 19.5833C20.9983 19.5439 18.0527 19.5045 15.1015 19.4594C13.5583 19.4369 12.0095 19.3693 10.4664 19.3862C10.4438 19.3862 10.4213 19.3862 10.3988 19.3862C9.89751 19.3806 9.89751 20.152 10.3988 20.1633C11.6772 20.1858 12.9557 20.2027 14.2286 20.2252C17.084 20.2702 19.9451 20.3096 22.8005 20.3491C25.7742 20.3885 28.5114 20.518 31.4908 20.5405C34.4757 20.5687 37.6973 20.4673 40.6879 20.4673H49.395C49.8963 20.4673 49.8963 19.6903 49.395 19.6903Z" fill="url(#paint6_linear_108_187)"/>
<path d="M46.2692 36.8412C43.9545 36.6442 41.6341 36.4809 39.3137 36.3514C37.472 36.25 35.6303 36.1656 33.7886 36.143C32.7298 36.1318 31.6654 36.1318 30.6065 36.1149C27.8806 36.0698 25.1604 35.9967 22.4345 35.9235C19.6241 35.8446 16.8137 35.7602 14.0033 35.6757C12.5221 35.6307 11.0296 35.5349 9.54835 35.5349C9.52582 35.5349 9.50329 35.5349 9.48076 35.5349C8.97951 35.518 8.98514 36.2951 9.48076 36.312C10.7085 36.3514 11.9363 36.3908 13.1641 36.4302C15.8957 36.5147 17.9007 36.7399 20.6378 36.8187C23.4482 36.8976 26.9851 36.83 29.7899 36.8807C32.5102 36.9313 34.5828 37.0721 37.303 37.2016C40.0289 37.3367 43.4025 37.3762 46.1228 37.607C46.1735 37.607 46.2186 37.6126 46.2692 37.6183C46.7649 37.6633 46.7649 36.8863 46.2692 36.8412Z" fill="#1E1C1C"/>
<path d="M46.2692 36.8412C43.9545 36.6442 41.6341 36.4809 39.3137 36.3514C37.472 36.25 35.6303 36.1656 33.7886 36.143C32.7298 36.1318 31.6654 36.1318 30.6065 36.1149C27.8806 36.0698 25.1604 35.9967 22.4345 35.9235C19.6241 35.8446 16.8137 35.7602 14.0033 35.6757C12.5221 35.6307 11.0296 35.5349 9.54835 35.5349C9.52582 35.5349 9.50329 35.5349 9.48076 35.5349C8.97951 35.518 8.98514 36.2951 9.48076 36.312C10.7085 36.3514 11.9363 36.3908 13.1641 36.4302C15.8957 36.5147 17.9007 36.7399 20.6378 36.8187C23.4482 36.8976 26.9851 36.83 29.7899 36.8807C32.5102 36.9313 34.5828 37.0721 37.303 37.2016C40.0289 37.3367 43.4025 37.3762 46.1228 37.607C46.1735 37.607 46.2186 37.6126 46.2692 37.6183C46.7649 37.6633 46.7649 36.8863 46.2692 36.8412Z" fill="url(#paint7_linear_108_187)"/>
<path d="M41.1948 45.4841C39.7924 45.3208 38.3788 45.2026 36.9707 45.09C33.7943 44.8422 30.798 44.5776 27.6103 44.5607C24.9632 44.5438 22.1247 44.6114 19.4776 44.5269C17.0727 44.4481 14.6679 44.3524 12.2686 44.2398C11.452 44.2004 10.6297 44.1609 9.81305 44.1215C9.41881 44.099 9.01893 44.0652 8.62469 44.0596C8.60779 44.0596 8.5909 44.0596 8.56837 44.0596C8.07275 44.0314 8.07275 44.8085 8.56837 44.8366C9.55961 44.8929 10.5565 44.938 11.5477 44.9886C13.8569 45.1013 16.166 45.197 18.4751 45.2758C21.0884 45.3659 24.6028 45.3321 27.2217 45.3434C30.4376 45.3546 32.7523 45.5686 35.9626 45.7994C37.1172 45.8839 38.2717 45.974 39.4207 46.0866C39.9839 46.1373 40.5471 46.2161 41.1103 46.2612C41.1385 46.2612 41.161 46.2668 41.1891 46.2724C41.3975 46.2949 41.5778 46.0753 41.5778 45.8839C41.5778 45.6531 41.3975 45.5179 41.1891 45.4954L41.1948 45.4841Z" fill="#1E1C1C"/>
<path d="M41.1948 45.4841C39.7924 45.3208 38.3788 45.2026 36.9707 45.09C33.7943 44.8422 30.798 44.5776 27.6103 44.5607C24.9632 44.5438 22.1247 44.6114 19.4776 44.5269C17.0727 44.4481 14.6679 44.3524 12.2686 44.2398C11.452 44.2004 10.6297 44.1609 9.81305 44.1215C9.41881 44.099 9.01893 44.0652 8.62469 44.0596C8.60779 44.0596 8.5909 44.0596 8.56837 44.0596C8.07275 44.0314 8.07275 44.8085 8.56837 44.8366C9.55961 44.8929 10.5565 44.938 11.5477 44.9886C13.8569 45.1013 16.166 45.197 18.4751 45.2758C21.0884 45.3659 24.6028 45.3321 27.2217 45.3434C30.4376 45.3546 32.7523 45.5686 35.9626 45.7994C37.1172 45.8839 38.2717 45.974 39.4207 46.0866C39.9839 46.1373 40.5471 46.2161 41.1103 46.2612C41.1385 46.2612 41.161 46.2668 41.1891 46.2724C41.3975 46.2949 41.5778 46.0753 41.5778 45.8839C41.5778 45.6531 41.3975 45.5179 41.1891 45.4954L41.1948 45.4841Z" fill="url(#paint8_linear_108_187)"/>
<path d="M39.9219 53.8794C38.8687 53.8287 37.8212 53.778 36.768 53.7274C34.442 53.6204 32.1216 53.519 29.7955 53.4289C27.4808 53.3389 25.1604 53.2544 22.8456 53.2093C20.2492 53.1643 17.6529 53.1587 15.0565 53.0911C13.0289 53.0348 11.0014 52.9729 8.97951 52.894C8.94572 52.894 8.91192 52.894 8.87813 52.894C8.37688 52.8715 8.38251 53.6485 8.87813 53.6711C10.579 53.7386 12.2799 53.7949 13.9751 53.8456C16.7067 53.9244 19.4382 53.9526 22.1697 53.9807C24.4 54.0089 26.6303 54.0877 28.8606 54.1722C31.2542 54.2623 33.6478 54.3636 36.0415 54.4762C37.3143 54.5325 38.5928 54.6452 39.8712 54.6564C39.8881 54.6564 39.9107 54.6564 39.9276 54.6564C40.4288 54.6789 40.4232 53.9075 39.9276 53.8794H39.9219Z" fill="#1E1C1C"/>
<path d="M39.9219 53.8794C38.8687 53.8287 37.8212 53.778 36.768 53.7274C34.442 53.6204 32.1216 53.519 29.7955 53.4289C27.4808 53.3389 25.1604 53.2544 22.8456 53.2093C20.2492 53.1643 17.6529 53.1587 15.0565 53.0911C13.0289 53.0348 11.0014 52.9729 8.97951 52.894C8.94572 52.894 8.91192 52.894 8.87813 52.894C8.37688 52.8715 8.38251 53.6485 8.87813 53.6711C10.579 53.7386 12.2799 53.7949 13.9751 53.8456C16.7067 53.9244 19.4382 53.9526 22.1697 53.9807C24.4 54.0089 26.6303 54.0877 28.8606 54.1722C31.2542 54.2623 33.6478 54.3636 36.0415 54.4762C37.3143 54.5325 38.5928 54.6452 39.8712 54.6564C39.8881 54.6564 39.9107 54.6564 39.9276 54.6564C40.4288 54.6789 40.4232 53.9075 39.9276 53.8794H39.9219Z" fill="url(#paint9_linear_108_187)"/>
<path d="M13.9639 75.732C13.4007 75.732 12.3587 75.6588 11.7223 75.5574C8.35436 75.0394 6.78865 72.7421 6.35498 68.8513C6.1635 67.1453 6.82808 65.1464 8.08402 63.643C8.96825 62.5845 10.5565 61.2894 13.0853 61.1149C13.4288 61.0529 16.6222 60.8615 19.0834 63.9358C21.8487 67.3874 19.962 71.982 19.5903 72.9167C19.0045 74.3806 17.039 75.7376 13.9582 75.7376L13.9639 75.732ZM13.8231 61.8356C13.4683 61.8356 13.243 61.875 13.2148 61.8806H13.1641C10.8944 62.0383 9.47513 63.1982 8.68102 64.1441C7.5715 65.4673 6.95761 67.286 7.12657 68.7669C7.52082 72.3198 9.25548 74.3581 12.2855 74.8254C16.2336 75.4336 18.385 73.8457 18.875 72.6295C19.2186 71.768 20.8181 67.3029 18.3231 64.1836C16.6841 62.134 14.7805 61.8412 13.8231 61.8412V61.8356Z" fill="#1E1C1C"/>
<path d="M13.9639 75.732C13.4007 75.732 12.3587 75.6588 11.7223 75.5574C8.35436 75.0394 6.78865 72.7421 6.35498 68.8513C6.1635 67.1453 6.82808 65.1464 8.08402 63.643C8.96825 62.5845 10.5565 61.2894 13.0853 61.1149C13.4288 61.0529 16.6222 60.8615 19.0834 63.9358C21.8487 67.3874 19.962 71.982 19.5903 72.9167C19.0045 74.3806 17.039 75.7376 13.9582 75.7376L13.9639 75.732ZM13.8231 61.8356C13.4683 61.8356 13.243 61.875 13.2148 61.8806H13.1641C10.8944 62.0383 9.47513 63.1982 8.68102 64.1441C7.5715 65.4673 6.95761 67.286 7.12657 68.7669C7.52082 72.3198 9.25548 74.3581 12.2855 74.8254C16.2336 75.4336 18.385 73.8457 18.875 72.6295C19.2186 71.768 20.8181 67.3029 18.3231 64.1836C16.6841 62.134 14.7805 61.8412 13.8231 61.8412V61.8356Z" fill="url(#paint10_linear_108_187)"/>
<path d="M13.7273 73.5587C12.4376 73.5587 11.1591 73.0801 10.1791 72.1961C8.95699 71.0981 8.33746 69.5159 8.48953 67.8661C8.65286 66.0699 9.59341 64.9607 10.3537 64.347C11.4801 63.4404 12.8882 63.0688 13.7104 63.1645C15.2254 63.3503 16.5096 63.7163 18.0527 66.4922C18.8187 67.8774 18.9088 69.4371 18.2893 70.7771C17.6529 72.1566 16.3575 73.1364 14.7467 73.4573C14.4088 73.5249 14.0709 73.5587 13.733 73.5587H13.7273ZM13.4345 63.9247C12.86 63.9247 11.7955 64.1837 10.8437 64.9494C10.2017 65.4675 9.40192 66.4078 9.26112 67.9337C9.13158 69.3413 9.52019 70.7546 10.5621 71.6837C11.6209 72.6353 13.2092 72.9675 14.589 72.6916C15.9576 72.4157 17.0446 71.5992 17.5796 70.4449C18.0922 69.3301 18.1823 67.8098 17.5402 66.6443C16.0646 63.9922 14.7918 64.0711 13.6147 63.9303C13.564 63.9247 13.502 63.919 13.4345 63.919V63.9247Z" fill="#1E1C1C"/>
<path d="M13.7273 73.5587C12.4376 73.5587 11.1591 73.0801 10.1791 72.1961C8.95699 71.0981 8.33746 69.5159 8.48953 67.8661C8.65286 66.0699 9.59341 64.9607 10.3537 64.347C11.4801 63.4404 12.8882 63.0688 13.7104 63.1645C15.2254 63.3503 16.5096 63.7163 18.0527 66.4922C18.8187 67.8774 18.9088 69.4371 18.2893 70.7771C17.6529 72.1566 16.3575 73.1364 14.7467 73.4573C14.4088 73.5249 14.0709 73.5587 13.733 73.5587H13.7273ZM13.4345 63.9247C12.86 63.9247 11.7955 64.1837 10.8437 64.9494C10.2017 65.4675 9.40192 66.4078 9.26112 67.9337C9.13158 69.3413 9.52019 70.7546 10.5621 71.6837C11.6209 72.6353 13.2092 72.9675 14.589 72.6916C15.9576 72.4157 17.0446 71.5992 17.5796 70.4449C18.0922 69.3301 18.1823 67.8098 17.5402 66.6443C16.0646 63.9922 14.7918 64.0711 13.6147 63.9303C13.564 63.9247 13.502 63.919 13.4345 63.919V63.9247Z" fill="url(#paint11_linear_108_187)"/>
<path d="M39.308 64.6565C38.8012 65.4504 38.2661 66.2218 37.7142 66.982C36.7905 68.2545 35.8218 69.5608 34.6278 70.6081C34.5715 70.6588 34.5152 70.7038 34.4589 70.7545C34.4307 70.777 34.4025 70.7995 34.3744 70.822C34.3631 70.8277 34.3293 70.8558 34.3181 70.8671C34.2054 70.9459 34.0928 71.0247 33.9745 71.0923C33.9238 71.1205 33.8731 71.143 33.8281 71.1711C33.8168 71.1711 33.8112 71.1768 33.8055 71.1824C33.783 71.1937 33.7605 71.1993 33.7323 71.2106C33.6873 71.2218 33.6422 71.2331 33.5972 71.2443C33.5746 71.2443 33.5521 71.2443 33.5352 71.2443C33.5352 71.2443 33.5239 71.2443 33.5127 71.2443C33.507 71.2443 33.4958 71.2443 33.4958 71.2443C33.462 71.2274 33.4564 71.2274 33.462 71.2331C33.462 71.2331 33.4451 71.2218 33.4338 71.2162L33.4226 71.2049C33.3775 71.1036 33.4338 71.2556 33.3888 71.1599C33.3831 71.143 33.3719 71.1205 33.3606 71.1036C33.3493 71.0529 33.3324 71.0022 33.3212 70.9515C33.3156 70.929 33.3099 70.9009 33.3099 70.8783C33.3099 70.8727 33.3099 70.8671 33.3099 70.8615C33.3099 70.7995 33.3043 70.7376 33.3043 70.67C33.3043 70.5293 33.3156 70.3885 33.3324 70.2477C33.3324 70.2252 33.3324 70.2196 33.3324 70.2139C33.3324 70.2139 33.3324 70.2083 33.3324 70.1914C33.3324 70.152 33.3437 70.1182 33.3493 70.0788C33.3606 69.9943 33.3775 69.9155 33.3944 69.831C33.4676 69.4651 33.569 69.1047 33.676 68.75C33.9238 67.9448 34.2279 67.1565 34.5546 66.3795C34.8306 65.7207 35.146 65.0394 35.4557 64.3806C35.6303 64.0146 35.8387 63.6542 35.9964 63.2826C36.0077 63.2657 36.0133 63.2432 36.0246 63.2263C36.2442 62.7815 35.5853 62.393 35.3544 62.8378C34.6954 64.1554 34.5997 64.6284 33.8224 65.884C33.1579 66.9594 31.7949 68.8175 31.0571 69.8423C30.4263 70.7207 29.773 71.5934 29.0127 72.3705C28.7311 72.6576 28.4326 72.9392 28.0947 73.1588C27.8299 73.3277 27.5934 73.4459 27.3287 73.4234C27.3963 73.429 27.2442 73.4009 27.2217 73.3896C27.278 73.4121 27.1428 73.3446 27.1147 73.3277C27.0527 73.2826 26.9345 73.1306 26.8669 73.0124C26.7655 72.8322 26.6979 72.6407 26.6416 72.4493C26.6191 72.3761 26.6022 72.3029 26.5853 72.2353C26.5796 72.1959 26.5684 72.1621 26.5627 72.1227C26.5627 72.1171 26.5571 72.0777 26.5515 72.0608C26.467 71.3795 26.5627 70.6756 26.7542 69.9887C27.7962 68.7049 28.2298 68.8063 29.1704 67.4437C29.6209 66.7961 30.6403 64.7184 31.0233 64.0259C31.2542 63.6148 31.5471 63.1193 31.5584 62.6351C31.5696 62.1396 31.1247 61.8919 30.6967 62.1002C30.3249 62.2804 30.0208 62.6295 29.7561 62.9335C28.7705 64.0653 27.9595 65.366 27.2724 66.6948C26.7993 67.6126 26.3487 68.5923 26.0615 69.6058C25.5095 70.2815 24.9463 70.9572 24.3719 71.6103C23.6791 72.3986 22.9639 73.1869 22.1134 73.8119C21.539 74.2398 20.9363 74.6002 20.2717 74.7804C20.1704 74.8085 20.0634 74.831 19.962 74.8479C19.9395 74.8479 19.9169 74.8536 19.8944 74.8592C19.8493 74.8592 19.7987 74.8705 19.7536 74.8705C19.6804 74.8705 19.6072 74.8761 19.5283 74.8705C19.5002 74.8705 19.472 74.8705 19.4495 74.8705C19.4157 74.8648 19.3763 74.8592 19.3425 74.8479C18.8694 74.6903 18.661 75.4392 19.1341 75.5968C19.3312 75.6644 19.5677 75.6644 19.7761 75.6475C20.3675 75.6081 21.6629 75.0675 22.1923 74.7973C23.9438 73.9076 24.5296 72.6576 25.7743 71.1655C25.7743 71.1993 25.763 71.2331 25.763 71.2669C25.7123 72.0157 25.8362 72.8153 26.2361 73.4628C26.6697 74.1723 27.2724 74.741 28.0102 74.4031C28.8662 74.0146 29.6829 72.8265 30.2743 72.1171C31.0627 71.1768 31.7836 70.1689 32.482 69.1554C32.6453 68.9245 32.7974 68.6824 32.9551 68.4515C32.7523 69.0934 32.5778 69.7522 32.5271 70.4279C32.4933 70.9515 32.5609 71.5991 33.0621 71.8919C33.5465 72.179 34.1322 71.9313 34.5546 71.6497C35.1741 71.2387 36.0415 70.6869 36.5371 70.1407C37.1341 69.4763 37.5508 68.9133 38.0859 68.2038C38.8068 67.2466 39.3362 66.1374 39.9557 65.107C39.967 65.0901 39.9783 65.0732 39.9895 65.0563C40.2599 64.634 39.5896 64.2455 39.3193 64.6678L39.308 64.6565ZM30.7811 62.6013C30.7811 62.6013 30.7811 62.6182 30.7811 62.6126C30.7811 62.6126 30.7811 62.607 30.7811 62.6013ZM31.0346 62.7702C31.074 62.7477 31.0796 62.759 31.0346 62.7702V62.7702ZM30.7811 62.607C30.7811 62.607 30.7811 62.6013 30.7811 62.5957V62.607ZM30.7755 62.5788V62.5901C30.7755 62.5957 30.7755 62.6013 30.7755 62.607C30.7642 62.5901 30.7473 62.5394 30.7755 62.5788ZM30.584 63.1531C30.584 63.1531 30.5615 63.2094 30.5446 63.232C30.2517 63.8288 29.8913 64.3919 29.5252 64.9437C28.9676 65.7826 28.3763 66.6047 27.768 67.4099C28.3256 66.2781 28.9789 65.1858 29.7279 64.1779C29.9758 63.8401 30.2686 63.4797 30.584 63.1531Z" fill="#1E1C1C"/>
<path d="M39.308 64.6565C38.8012 65.4504 38.2661 66.2218 37.7142 66.982C36.7905 68.2545 35.8218 69.5608 34.6278 70.6081C34.5715 70.6588 34.5152 70.7038 34.4589 70.7545C34.4307 70.777 34.4025 70.7995 34.3744 70.822C34.3631 70.8277 34.3293 70.8558 34.3181 70.8671C34.2054 70.9459 34.0928 71.0247 33.9745 71.0923C33.9238 71.1205 33.8731 71.143 33.8281 71.1711C33.8168 71.1711 33.8112 71.1768 33.8055 71.1824C33.783 71.1937 33.7605 71.1993 33.7323 71.2106C33.6873 71.2218 33.6422 71.2331 33.5972 71.2443C33.5746 71.2443 33.5521 71.2443 33.5352 71.2443C33.5352 71.2443 33.5239 71.2443 33.5127 71.2443C33.507 71.2443 33.4958 71.2443 33.4958 71.2443C33.462 71.2274 33.4564 71.2274 33.462 71.2331C33.462 71.2331 33.4451 71.2218 33.4338 71.2162L33.4226 71.2049C33.3775 71.1036 33.4338 71.2556 33.3888 71.1599C33.3831 71.143 33.3719 71.1205 33.3606 71.1036C33.3493 71.0529 33.3324 71.0022 33.3212 70.9515C33.3156 70.929 33.3099 70.9009 33.3099 70.8783C33.3099 70.8727 33.3099 70.8671 33.3099 70.8615C33.3099 70.7995 33.3043 70.7376 33.3043 70.67C33.3043 70.5293 33.3156 70.3885 33.3324 70.2477C33.3324 70.2252 33.3324 70.2196 33.3324 70.2139C33.3324 70.2139 33.3324 70.2083 33.3324 70.1914C33.3324 70.152 33.3437 70.1182 33.3493 70.0788C33.3606 69.9943 33.3775 69.9155 33.3944 69.831C33.4676 69.4651 33.569 69.1047 33.676 68.75C33.9238 67.9448 34.2279 67.1565 34.5546 66.3795C34.8306 65.7207 35.146 65.0394 35.4557 64.3806C35.6303 64.0146 35.8387 63.6542 35.9964 63.2826C36.0077 63.2657 36.0133 63.2432 36.0246 63.2263C36.2442 62.7815 35.5853 62.393 35.3544 62.8378C34.6954 64.1554 34.5997 64.6284 33.8224 65.884C33.1579 66.9594 31.7949 68.8175 31.0571 69.8423C30.4263 70.7207 29.773 71.5934 29.0127 72.3705C28.7311 72.6576 28.4326 72.9392 28.0947 73.1588C27.8299 73.3277 27.5934 73.4459 27.3287 73.4234C27.3963 73.429 27.2442 73.4009 27.2217 73.3896C27.278 73.4121 27.1428 73.3446 27.1147 73.3277C27.0527 73.2826 26.9345 73.1306 26.8669 73.0124C26.7655 72.8322 26.6979 72.6407 26.6416 72.4493C26.6191 72.3761 26.6022 72.3029 26.5853 72.2353C26.5796 72.1959 26.5684 72.1621 26.5627 72.1227C26.5627 72.1171 26.5571 72.0777 26.5515 72.0608C26.467 71.3795 26.5627 70.6756 26.7542 69.9887C27.7962 68.7049 28.2298 68.8063 29.1704 67.4437C29.6209 66.7961 30.6403 64.7184 31.0233 64.0259C31.2542 63.6148 31.5471 63.1193 31.5584 62.6351C31.5696 62.1396 31.1247 61.8919 30.6967 62.1002C30.3249 62.2804 30.0208 62.6295 29.7561 62.9335C28.7705 64.0653 27.9595 65.366 27.2724 66.6948C26.7993 67.6126 26.3487 68.5923 26.0615 69.6058C25.5095 70.2815 24.9463 70.9572 24.3719 71.6103C23.6791 72.3986 22.9639 73.1869 22.1134 73.8119C21.539 74.2398 20.9363 74.6002 20.2717 74.7804C20.1704 74.8085 20.0634 74.831 19.962 74.8479C19.9395 74.8479 19.9169 74.8536 19.8944 74.8592C19.8493 74.8592 19.7987 74.8705 19.7536 74.8705C19.6804 74.8705 19.6072 74.8761 19.5283 74.8705C19.5002 74.8705 19.472 74.8705 19.4495 74.8705C19.4157 74.8648 19.3763 74.8592 19.3425 74.8479C18.8694 74.6903 18.661 75.4392 19.1341 75.5968C19.3312 75.6644 19.5677 75.6644 19.7761 75.6475C20.3675 75.6081 21.6629 75.0675 22.1923 74.7973C23.9438 73.9076 24.5296 72.6576 25.7743 71.1655C25.7743 71.1993 25.763 71.2331 25.763 71.2669C25.7123 72.0157 25.8362 72.8153 26.2361 73.4628C26.6697 74.1723 27.2724 74.741 28.0102 74.4031C28.8662 74.0146 29.6829 72.8265 30.2743 72.1171C31.0627 71.1768 31.7836 70.1689 32.482 69.1554C32.6453 68.9245 32.7974 68.6824 32.9551 68.4515C32.7523 69.0934 32.5778 69.7522 32.5271 70.4279C32.4933 70.9515 32.5609 71.5991 33.0621 71.8919C33.5465 72.179 34.1322 71.9313 34.5546 71.6497C35.1741 71.2387 36.0415 70.6869 36.5371 70.1407C37.1341 69.4763 37.5508 68.9133 38.0859 68.2038C38.8068 67.2466 39.3362 66.1374 39.9557 65.107C39.967 65.0901 39.9783 65.0732 39.9895 65.0563C40.2599 64.634 39.5896 64.2455 39.3193 64.6678L39.308 64.6565ZM30.7811 62.6013C30.7811 62.6013 30.7811 62.6182 30.7811 62.6126C30.7811 62.6126 30.7811 62.607 30.7811 62.6013ZM31.0346 62.7702C31.074 62.7477 31.0796 62.759 31.0346 62.7702V62.7702ZM30.7811 62.607C30.7811 62.607 30.7811 62.6013 30.7811 62.5957V62.607ZM30.7755 62.5788V62.5901C30.7755 62.5957 30.7755 62.6013 30.7755 62.607C30.7642 62.5901 30.7473 62.5394 30.7755 62.5788ZM30.584 63.1531C30.584 63.1531 30.5615 63.2094 30.5446 63.232C30.2517 63.8288 29.8913 64.3919 29.5252 64.9437C28.9676 65.7826 28.3763 66.6047 27.768 67.4099C28.3256 66.2781 28.9789 65.1858 29.7279 64.1779C29.9758 63.8401 30.2686 63.4797 30.584 63.1531Z" fill="url(#paint12_linear_108_187)"/>
<path d="M41.6003 60.7375C41.6622 60.6362 41.6566 60.5404 41.6228 60.456C41.6397 60.349 41.6228 60.2477 41.5327 60.1632C41.4257 60.0562 41.2398 60.0281 41.1103 60.1069C40.9976 59.9943 40.8399 59.9774 40.6879 60.0393C40.6316 60.0618 40.5752 60.1013 40.5245 60.1294C40.395 59.938 40.119 59.9154 39.9501 60.1407C39.094 61.2893 38.6265 62.697 38.5984 64.1272C38.5984 64.3186 38.7617 64.465 38.9476 64.4763C39.3024 64.4931 39.5727 64.251 39.753 63.9639C39.8881 63.7555 40.0008 63.5303 40.1078 63.2995C40.5358 62.6576 40.9244 61.9875 41.2623 61.2949C41.375 61.1091 41.4933 60.9177 41.6059 60.7319L41.6003 60.7375Z" fill="#1E1C1C"/>
<path d="M41.6003 60.7375C41.6622 60.6362 41.6566 60.5404 41.6228 60.456C41.6397 60.349 41.6228 60.2477 41.5327 60.1632C41.4257 60.0562 41.2398 60.0281 41.1103 60.1069C40.9976 59.9943 40.8399 59.9774 40.6879 60.0393C40.6316 60.0618 40.5752 60.1013 40.5245 60.1294C40.395 59.938 40.119 59.9154 39.9501 60.1407C39.094 61.2893 38.6265 62.697 38.5984 64.1272C38.5984 64.3186 38.7617 64.465 38.9476 64.4763C39.3024 64.4931 39.5727 64.251 39.753 63.9639C39.8881 63.7555 40.0008 63.5303 40.1078 63.2995C40.5358 62.6576 40.9244 61.9875 41.2623 61.2949C41.375 61.1091 41.4933 60.9177 41.6059 60.7319L41.6003 60.7375Z" fill="url(#paint13_linear_108_187)"/>
<path d="M52.5208 52.5168C52.0083 52.4267 51.5014 52.224 51.0171 52.0439C49.35 51.4189 47.6829 50.5855 46.0609 49.7184C44.4726 48.8682 42.9126 47.9673 41.375 47.0326C40.947 46.7736 40.5584 47.4436 40.9864 47.7026C43.3857 49.161 45.8243 50.5574 48.3644 51.7511C49.4908 52.2803 50.651 52.7984 51.845 53.1531C51.997 53.1981 52.1547 53.2488 52.3124 53.277C52.5208 53.3108 52.7292 53.2207 52.7912 53.0067C52.8418 52.8209 52.7292 52.5675 52.5208 52.5281V52.5168Z" fill="#1E1C1C"/>
<path d="M52.5208 52.5168C52.0083 52.4267 51.5014 52.224 51.0171 52.0439C49.35 51.4189 47.6829 50.5855 46.0609 49.7184C44.4726 48.8682 42.9126 47.9673 41.375 47.0326C40.947 46.7736 40.5584 47.4436 40.9864 47.7026C43.3857 49.161 45.8243 50.5574 48.3644 51.7511C49.4908 52.2803 50.651 52.7984 51.845 53.1531C51.997 53.1981 52.1547 53.2488 52.3124 53.277C52.5208 53.3108 52.7292 53.2207 52.7912 53.0067C52.8418 52.8209 52.7292 52.5675 52.5208 52.5281V52.5168Z" fill="url(#paint14_linear_108_187)"/>
</g>
<defs>
<linearGradient id="paint0_linear_108_187" x1="72.6915" y1="-18.196" x2="93.1997" y2="77.6482" gradientUnits="userSpaceOnUse">
<stop stop-color="#92CE1D"/>
<stop offset="1" stop-color="#147AD8"/>
</linearGradient>
<linearGradient id="paint1_linear_108_187" x1="85.6716" y1="-7.18479" x2="100.971" y2="59.178" gradientUnits="userSpaceOnUse">
<stop stop-color="#92CE1D"/>
<stop offset="1" stop-color="#147AD8"/>
</linearGradient>
<linearGradient id="paint2_linear_108_187" x1="84.0524" y1="0.347051" x2="86.0351" y2="17.3119" gradientUnits="userSpaceOnUse">
<stop stop-color="#92CE1D"/>
<stop offset="1" stop-color="#147AD8"/>
</linearGradient>
<linearGradient id="paint3_linear_108_187" x1="82.5295" y1="-3.46029" x2="84.7441" y2="10.395" gradientUnits="userSpaceOnUse">
<stop stop-color="#92CE1D"/>
<stop offset="1" stop-color="#147AD8"/>
</linearGradient>
<linearGradient id="paint4_linear_108_187" x1="86.8474" y1="4.62544" x2="96.2734" y2="40.4693" gradientUnits="userSpaceOnUse">
<stop stop-color="#92CE1D"/>
<stop offset="1" stop-color="#147AD8"/>
</linearGradient>
<linearGradient id="paint5_linear_108_187" x1="60.5442" y1="27.155" x2="60.5548" y2="29.0319" gradientUnits="userSpaceOnUse">
<stop stop-color="#92CE1D"/>
<stop offset="1" stop-color="#147AD8"/>
</linearGradient>
<linearGradient id="paint6_linear_108_187" x1="61.1681" y1="18.9995" x2="61.1755" y2="20.5773" gradientUnits="userSpaceOnUse">
<stop stop-color="#92CE1D"/>
<stop offset="1" stop-color="#147AD8"/>
</linearGradient>
<linearGradient id="paint7_linear_108_187" x1="57.4032" y1="34.8454" x2="57.4287" y2="37.6772" gradientUnits="userSpaceOnUse">
<stop stop-color="#92CE1D"/>
<stop offset="1" stop-color="#147AD8"/>
</linearGradient>
<linearGradient id="paint8_linear_108_187" x1="51.1492" y1="43.3267" x2="51.1815" y2="46.3345" gradientUnits="userSpaceOnUse">
<stop stop-color="#92CE1D"/>
<stop offset="1" stop-color="#147AD8"/>
</linearGradient>
<linearGradient id="paint9_linear_108_187" x1="49.4187" y1="52.3108" x2="49.4402" y2="54.7051" gradientUnits="userSpaceOnUse">
<stop stop-color="#92CE1D"/>
<stop offset="1" stop-color="#147AD8"/>
</linearGradient>
<linearGradient id="paint10_linear_108_187" x1="24.6473" y1="56.247" x2="27.8691" y2="75.6035" gradientUnits="userSpaceOnUse">
<stop stop-color="#92CE1D"/>
<stop offset="1" stop-color="#147AD8"/>
</linearGradient>
<linearGradient id="paint11_linear_108_187" x1="21.6313" y1="59.7097" x2="23.8969" y2="73.4714" gradientUnits="userSpaceOnUse">
<stop stop-color="#92CE1D"/>
<stop offset="1" stop-color="#147AD8"/>
</linearGradient>
<linearGradient id="paint12_linear_108_187" x1="46.1272" y1="57.521" x2="48.0336" y2="75.8326" gradientUnits="userSpaceOnUse">
<stop stop-color="#92CE1D"/>
<stop offset="1" stop-color="#147AD8"/>
</linearGradient>
<linearGradient id="paint13_linear_108_187" x1="42.5221" y1="58.492" x2="43.9016" y2="64.2713" gradientUnits="userSpaceOnUse">
<stop stop-color="#92CE1D"/>
<stop offset="1" stop-color="#147AD8"/>
</linearGradient>
<linearGradient id="paint14_linear_108_187" x1="56.2448" y1="44.8887" x2="56.9684" y2="53.3955" gradientUnits="userSpaceOnUse">
<stop stop-color="#92CE1D"/>
<stop offset="1" stop-color="#147AD8"/>
</linearGradient>
<clipPath id="clip0_108_187">
<rect width="81" height="80" fill="white" transform="translate(0.875)"/>
</clipPath>
</defs>
</svg>
