<svg width="56" height="56" viewBox="0 0 56 56" fill="none" xmlns="http://www.w3.org/2000/svg">
<g clip-path="url(#clip0_18_3913)">
<path d="M50.0583 18.7049C50.0583 18.7049 50.0346 18.6813 50.0211 18.6745C49.2916 18.0937 48.5654 17.5128 47.8358 16.9319C46.1842 15.6114 44.5326 14.2876 42.8843 12.9603C41.1516 11.5655 39.4256 10.1674 37.7098 8.74894C37.0681 8.21872 36.4263 7.6885 35.7947 7.14477C35.2205 6.65507 34.6734 6.13836 34.0958 5.64866C33.0386 4.7537 31.9443 3.90265 30.8331 3.07523C29.8941 2.37615 28.9484 1.68045 27.9554 1.0658C27.7189 0.9172 27.4521 0.728077 27.1785 0.657156C27.0198 0.616629 26.9015 0.66391 26.7631 0.738209C26.3409 0.964481 25.9491 1.2583 25.5573 1.53523C23.9597 2.65308 22.3958 3.8216 20.832 4.98673C18.9406 6.39165 17.0525 7.8067 15.1644 9.21499C13.7999 10.2349 12.4387 11.265 11.0471 12.2477C8.97331 13.7101 6.95689 15.2534 4.97424 16.834C4.21091 17.4419 3.44082 18.0464 2.71802 18.6982C2.57953 18.8231 2.34986 18.9886 2.29919 19.1777C2.1776 19.6202 2.68086 20.0153 3.06928 20.0288C3.84951 20.0524 4.63311 20.0153 5.41333 20.0052C7.12239 19.9883 8.83145 19.9714 10.5405 19.9511C12.7157 19.9275 14.8908 19.9072 17.066 19.887C19.2783 19.8667 21.4907 19.8464 23.7063 19.8295C25.4728 19.816 27.2427 19.8025 29.0092 19.7958C29.9751 19.7924 30.9411 19.7958 31.9071 19.8025C33.6939 19.8194 35.4806 19.7924 37.2707 19.7721C39.5979 19.7485 41.9251 19.7181 44.2522 19.6843C45.8262 19.6641 47.4001 19.637 48.9775 19.6202C49.0957 19.6202 49.2139 19.6202 49.3321 19.6202C49.7442 19.61 50.0617 19.35 50.1123 18.9447C50.1495 18.867 50.1427 18.7759 50.0617 18.7016L50.0583 18.7049ZM27.0704 1.1536C27.0704 1.1536 27.0772 1.15023 27.0806 1.14685C27.0873 1.14685 27.0873 1.14685 27.0941 1.14347C27.0941 1.14347 27.0806 1.1536 27.0704 1.1536ZM49.349 19.1136C49.3118 19.1136 49.2781 19.1136 49.2409 19.1136C49.0687 19.1136 48.893 19.1136 48.7208 19.117C48.0419 19.1237 47.3663 19.1338 46.6875 19.144C44.5393 19.1744 42.3912 19.2014 40.243 19.2284C38.0982 19.2554 36.3959 19.1777 34.2478 19.1879C33.1906 19.1946 31.691 19.2824 30.6338 19.2791C29.2287 19.2791 27.8236 19.2858 26.4219 19.2959C24.4021 19.3095 22.3823 19.3263 20.3625 19.3432C18.1435 19.3635 15.9278 19.3838 13.7087 19.4074C11.7328 19.4277 9.75691 19.4479 7.78102 19.4682C6.48403 19.4817 5.18365 19.4952 3.88666 19.5087C3.62321 19.5087 3.353 19.529 3.09293 19.5155C3.07604 19.5155 3.05915 19.5155 3.04564 19.5155C2.96796 19.502 2.90716 19.4614 2.8565 19.3973C2.83961 19.3736 2.82948 19.3398 2.81597 19.3128C2.98484 19.1372 3.16723 18.9751 3.353 18.8164C5.18028 17.2359 7.11901 15.7701 9.05099 14.3213C10.4594 13.2676 11.9051 12.2612 13.3203 11.2143C15.0665 9.9242 15.9784 9.29605 17.7179 7.99582C19.5114 6.65507 22.129 4.64226 23.936 3.32177C24.9527 2.57878 25.9626 1.78176 27.0569 1.1536C27.0603 1.1536 27.0603 1.1536 27.0637 1.15023C27.1245 1.17725 27.0603 1.1401 27.1346 1.17725C27.4521 1.33597 27.7527 1.52847 28.0465 1.72098C29.07 2.38966 30.0562 3.11238 31.029 3.84861C32.103 4.65914 33.1602 5.49331 34.1735 6.37814C34.67 6.8138 35.1564 7.26297 35.663 7.69187C37.1289 8.93806 38.8616 10.5996 40.3545 11.8121C42.1074 13.2339 43.624 14.1997 45.3871 15.6114C46.6368 16.6111 47.8865 17.6107 49.1396 18.607C49.2916 18.7252 49.4402 18.8468 49.5922 18.965C49.5449 19.0764 49.4672 19.1001 49.3524 19.1068L49.349 19.1136Z" fill="#1E1C1C"/>
<path d="M50.0583 18.7049C50.0583 18.7049 50.0346 18.6813 50.0211 18.6745C49.2916 18.0937 48.5654 17.5128 47.8358 16.9319C46.1842 15.6114 44.5326 14.2876 42.8843 12.9603C41.1516 11.5655 39.4256 10.1674 37.7098 8.74894C37.0681 8.21872 36.4263 7.6885 35.7947 7.14477C35.2205 6.65507 34.6734 6.13836 34.0958 5.64866C33.0386 4.7537 31.9443 3.90265 30.8331 3.07523C29.8941 2.37615 28.9484 1.68045 27.9554 1.0658C27.7189 0.9172 27.4521 0.728077 27.1785 0.657156C27.0198 0.616629 26.9015 0.66391 26.7631 0.738209C26.3409 0.964481 25.9491 1.2583 25.5573 1.53523C23.9597 2.65308 22.3958 3.8216 20.832 4.98673C18.9406 6.39165 17.0525 7.8067 15.1644 9.21499C13.7999 10.2349 12.4387 11.265 11.0471 12.2477C8.97331 13.7101 6.95689 15.2534 4.97424 16.834C4.21091 17.4419 3.44082 18.0464 2.71802 18.6982C2.57953 18.8231 2.34986 18.9886 2.29919 19.1777C2.1776 19.6202 2.68086 20.0153 3.06928 20.0288C3.84951 20.0524 4.63311 20.0153 5.41333 20.0052C7.12239 19.9883 8.83145 19.9714 10.5405 19.9511C12.7157 19.9275 14.8908 19.9072 17.066 19.887C19.2783 19.8667 21.4907 19.8464 23.7063 19.8295C25.4728 19.816 27.2427 19.8025 29.0092 19.7958C29.9751 19.7924 30.9411 19.7958 31.9071 19.8025C33.6939 19.8194 35.4806 19.7924 37.2707 19.7721C39.5979 19.7485 41.9251 19.7181 44.2522 19.6843C45.8262 19.6641 47.4001 19.637 48.9775 19.6202C49.0957 19.6202 49.2139 19.6202 49.3321 19.6202C49.7442 19.61 50.0617 19.35 50.1123 18.9447C50.1495 18.867 50.1427 18.7759 50.0617 18.7016L50.0583 18.7049ZM27.0704 1.1536C27.0704 1.1536 27.0772 1.15023 27.0806 1.14685C27.0873 1.14685 27.0873 1.14685 27.0941 1.14347C27.0941 1.14347 27.0806 1.1536 27.0704 1.1536ZM49.349 19.1136C49.3118 19.1136 49.2781 19.1136 49.2409 19.1136C49.0687 19.1136 48.893 19.1136 48.7208 19.117C48.0419 19.1237 47.3663 19.1338 46.6875 19.144C44.5393 19.1744 42.3912 19.2014 40.243 19.2284C38.0982 19.2554 36.3959 19.1777 34.2478 19.1879C33.1906 19.1946 31.691 19.2824 30.6338 19.2791C29.2287 19.2791 27.8236 19.2858 26.4219 19.2959C24.4021 19.3095 22.3823 19.3263 20.3625 19.3432C18.1435 19.3635 15.9278 19.3838 13.7087 19.4074C11.7328 19.4277 9.75691 19.4479 7.78102 19.4682C6.48403 19.4817 5.18365 19.4952 3.88666 19.5087C3.62321 19.5087 3.353 19.529 3.09293 19.5155C3.07604 19.5155 3.05915 19.5155 3.04564 19.5155C2.96796 19.502 2.90716 19.4614 2.8565 19.3973C2.83961 19.3736 2.82948 19.3398 2.81597 19.3128C2.98484 19.1372 3.16723 18.9751 3.353 18.8164C5.18028 17.2359 7.11901 15.7701 9.05099 14.3213C10.4594 13.2676 11.9051 12.2612 13.3203 11.2143C15.0665 9.9242 15.9784 9.29605 17.7179 7.99582C19.5114 6.65507 22.129 4.64226 23.936 3.32177C24.9527 2.57878 25.9626 1.78176 27.0569 1.1536C27.0603 1.1536 27.0603 1.1536 27.0637 1.15023C27.1245 1.17725 27.0603 1.1401 27.1346 1.17725C27.4521 1.33597 27.7527 1.52847 28.0465 1.72098C29.07 2.38966 30.0562 3.11238 31.029 3.84861C32.103 4.65914 33.1602 5.49331 34.1735 6.37814C34.67 6.8138 35.1564 7.26297 35.663 7.69187C37.1289 8.93806 38.8616 10.5996 40.3545 11.8121C42.1074 13.2339 43.624 14.1997 45.3871 15.6114C46.6368 16.6111 47.8865 17.6107 49.1396 18.607C49.2916 18.7252 49.4402 18.8468 49.5922 18.965C49.5449 19.0764 49.4672 19.1001 49.3524 19.1068L49.349 19.1136Z" fill="url(#paint0_linear_18_3913)"/>
<path d="M46.4544 19.4006C46.4544 19.4243 46.4544 19.4513 46.4544 19.4749C46.4544 19.4986 46.451 19.5188 46.4476 19.5425C46.4476 19.5627 46.4443 19.583 46.4409 19.6033C46.4476 19.556 46.4409 19.61 46.4375 19.6269C46.4037 19.8025 46.3598 19.9748 46.272 20.1267C46.1234 20.3868 45.9038 20.4847 45.6269 20.5286C45.5728 20.5388 45.5188 20.5455 45.4648 20.5523C45.4175 20.559 45.4648 20.5523 45.4749 20.5523C45.458 20.5523 45.4411 20.5556 45.4242 20.559C45.3871 20.5624 45.3465 20.5692 45.3094 20.5725C45.154 20.5894 44.9953 20.6063 44.8399 20.6198C44.4447 20.657 44.0529 20.684 43.6578 20.7076C42.7661 20.7617 41.8744 20.7988 40.9827 20.8157C40.3004 20.8292 39.6114 20.8461 38.9325 20.7853C38.9021 20.7853 38.8751 20.7785 38.8447 20.7752C38.7636 20.7684 38.8852 20.7853 38.821 20.7752C38.7805 20.7684 38.7434 20.7583 38.7028 20.7515C38.6893 20.7515 38.6758 20.7414 38.6623 20.738C38.6285 20.7346 38.7163 20.7752 38.6995 20.7549C38.6859 20.738 38.6488 20.7279 38.6285 20.711C38.5779 20.6705 38.5137 20.5759 38.4698 20.4949C38.3583 20.2922 38.2975 20.0592 38.2502 19.8329C38.2333 19.7485 38.2165 19.6607 38.2029 19.5763C38.1894 19.4884 38.2029 19.6033 38.1996 19.5459C38.1996 19.5357 38.1996 19.5256 38.1962 19.5155C38.1827 19.3804 38.0881 19.2622 37.9429 19.2622C37.8179 19.2622 37.676 19.3804 37.6896 19.5155C37.7267 19.8633 37.801 20.2145 37.9361 20.5388C38.0678 20.8562 38.2773 21.1872 38.642 21.2547C39.277 21.3729 39.9559 21.3358 40.5977 21.329C41.5434 21.3189 42.4857 21.2851 43.4315 21.2311C44.1847 21.1872 44.9446 21.1467 45.6944 21.0318C46.0829 20.971 46.4071 20.8258 46.6435 20.4949C46.8631 20.1909 46.9678 19.7755 46.9678 19.404C46.9678 19.0764 46.4612 19.0764 46.4578 19.404L46.4544 19.4006Z" fill="#1E1C1C"/>
<path d="M46.4544 19.4006C46.4544 19.4243 46.4544 19.4513 46.4544 19.4749C46.4544 19.4986 46.451 19.5188 46.4476 19.5425C46.4476 19.5627 46.4443 19.583 46.4409 19.6033C46.4476 19.556 46.4409 19.61 46.4375 19.6269C46.4037 19.8025 46.3598 19.9748 46.272 20.1267C46.1234 20.3868 45.9038 20.4847 45.6269 20.5286C45.5728 20.5388 45.5188 20.5455 45.4648 20.5523C45.4175 20.559 45.4648 20.5523 45.4749 20.5523C45.458 20.5523 45.4411 20.5556 45.4242 20.559C45.3871 20.5624 45.3465 20.5692 45.3094 20.5725C45.154 20.5894 44.9953 20.6063 44.8399 20.6198C44.4447 20.657 44.0529 20.684 43.6578 20.7076C42.7661 20.7617 41.8744 20.7988 40.9827 20.8157C40.3004 20.8292 39.6114 20.8461 38.9325 20.7853C38.9021 20.7853 38.8751 20.7785 38.8447 20.7752C38.7636 20.7684 38.8852 20.7853 38.821 20.7752C38.7805 20.7684 38.7434 20.7583 38.7028 20.7515C38.6893 20.7515 38.6758 20.7414 38.6623 20.738C38.6285 20.7346 38.7163 20.7752 38.6995 20.7549C38.6859 20.738 38.6488 20.7279 38.6285 20.711C38.5779 20.6705 38.5137 20.5759 38.4698 20.4949C38.3583 20.2922 38.2975 20.0592 38.2502 19.8329C38.2333 19.7485 38.2165 19.6607 38.2029 19.5763C38.1894 19.4884 38.2029 19.6033 38.1996 19.5459C38.1996 19.5357 38.1996 19.5256 38.1962 19.5155C38.1827 19.3804 38.0881 19.2622 37.9429 19.2622C37.8179 19.2622 37.676 19.3804 37.6896 19.5155C37.7267 19.8633 37.801 20.2145 37.9361 20.5388C38.0678 20.8562 38.2773 21.1872 38.642 21.2547C39.277 21.3729 39.9559 21.3358 40.5977 21.329C41.5434 21.3189 42.4857 21.2851 43.4315 21.2311C44.1847 21.1872 44.9446 21.1467 45.6944 21.0318C46.0829 20.971 46.4071 20.8258 46.6435 20.4949C46.8631 20.1909 46.9678 19.7755 46.9678 19.404C46.9678 19.0764 46.4612 19.0764 46.4578 19.404L46.4544 19.4006Z" fill="url(#paint1_linear_18_3913)"/>
<path d="M30.3636 19.5391C30.367 19.61 30.3636 19.6843 30.3568 19.7553C30.3568 19.7688 30.3568 19.7823 30.3534 19.7958C30.3534 19.7823 30.3602 19.7418 30.3534 19.7958C30.3467 19.8363 30.3399 19.8735 30.3298 19.914C30.3095 20.0018 30.2859 20.0896 30.2521 20.174C30.1238 20.4814 29.8434 20.6874 29.4888 20.7515C29.4415 20.7617 29.3942 20.7684 29.3469 20.7752C29.4246 20.7651 29.3199 20.7752 29.303 20.7786C29.2692 20.7819 29.2355 20.7853 29.2017 20.7887C29.0463 20.8056 28.8876 20.8191 28.7322 20.8292C28.3472 20.8562 27.9655 20.8697 27.5804 20.8833C26.6753 20.9103 25.7667 20.917 24.8581 20.9035C24.1454 20.8934 23.4226 20.8833 22.7133 20.8022C22.6931 20.8022 22.5884 20.7853 22.6694 20.7988C22.6424 20.7954 22.6154 20.7921 22.585 20.7853C22.5411 20.7786 22.4972 20.7718 22.4566 20.7617C22.4398 20.7583 22.4195 20.7482 22.4026 20.7448C22.3486 20.7347 22.4296 20.7617 22.4229 20.7549C22.3553 20.6941 22.308 20.6705 22.254 20.5725C22.102 20.2889 22.0851 19.914 22.102 19.5898C22.1189 19.2622 21.6123 19.2622 21.592 19.5898C21.5582 20.1943 21.6764 21.1298 22.3925 21.2683C23.0646 21.3966 23.7705 21.3898 24.4494 21.4067C25.4087 21.4304 26.1652 21.508 27.1211 21.4844C27.8574 21.4641 28.8099 21.3696 29.5428 21.2581C30.0157 21.1838 30.4345 20.9272 30.6574 20.4949C30.8027 20.2112 30.8871 19.8667 30.8668 19.5459C30.85 19.2217 30.3399 19.2183 30.3568 19.5459L30.3636 19.5391Z" fill="#1E1C1C"/>
<path d="M30.3636 19.5391C30.367 19.61 30.3636 19.6843 30.3568 19.7553C30.3568 19.7688 30.3568 19.7823 30.3534 19.7958C30.3534 19.7823 30.3602 19.7418 30.3534 19.7958C30.3467 19.8363 30.3399 19.8735 30.3298 19.914C30.3095 20.0018 30.2859 20.0896 30.2521 20.174C30.1238 20.4814 29.8434 20.6874 29.4888 20.7515C29.4415 20.7617 29.3942 20.7684 29.3469 20.7752C29.4246 20.7651 29.3199 20.7752 29.303 20.7786C29.2692 20.7819 29.2355 20.7853 29.2017 20.7887C29.0463 20.8056 28.8876 20.8191 28.7322 20.8292C28.3472 20.8562 27.9655 20.8697 27.5804 20.8833C26.6753 20.9103 25.7667 20.917 24.8581 20.9035C24.1454 20.8934 23.4226 20.8833 22.7133 20.8022C22.6931 20.8022 22.5884 20.7853 22.6694 20.7988C22.6424 20.7954 22.6154 20.7921 22.585 20.7853C22.5411 20.7786 22.4972 20.7718 22.4566 20.7617C22.4398 20.7583 22.4195 20.7482 22.4026 20.7448C22.3486 20.7347 22.4296 20.7617 22.4229 20.7549C22.3553 20.6941 22.308 20.6705 22.254 20.5725C22.102 20.2889 22.0851 19.914 22.102 19.5898C22.1189 19.2622 21.6123 19.2622 21.592 19.5898C21.5582 20.1943 21.6764 21.1298 22.3925 21.2683C23.0646 21.3966 23.7705 21.3898 24.4494 21.4067C25.4087 21.4304 26.1652 21.508 27.1211 21.4844C27.8574 21.4641 28.8099 21.3696 29.5428 21.2581C30.0157 21.1838 30.4345 20.9272 30.6574 20.4949C30.8027 20.2112 30.8871 19.8667 30.8668 19.5459C30.85 19.2217 30.3399 19.2183 30.3568 19.5459L30.3636 19.5391Z" fill="url(#paint2_linear_18_3913)"/>
<path d="M14.7659 19.654C14.7659 19.6776 14.7524 19.7587 14.7659 19.6709C14.7557 19.735 14.7456 19.7958 14.7321 19.86C14.6949 20.0255 14.6477 20.1808 14.5767 20.3125C14.4957 20.4611 14.3943 20.5895 14.2457 20.6199C14.1816 20.6334 14.0802 20.63 13.9958 20.63C13.3709 20.6401 12.7495 20.657 12.1246 20.6705C10.5202 20.7043 8.89901 20.7752 7.29465 20.6908C7.17981 20.684 7.06498 20.6739 6.95014 20.6638C6.90285 20.6604 7.00756 20.6739 6.97716 20.6672C6.96365 20.6672 6.95352 20.6672 6.94001 20.6604C6.92649 20.6604 6.90961 20.6536 6.8961 20.6503C6.88259 20.6503 6.86908 20.6435 6.85894 20.6401C6.84881 20.6401 6.92649 20.6807 6.85557 20.6368C6.82854 20.6199 6.79815 20.6064 6.7745 20.5861C6.51443 20.3767 6.37933 19.9715 6.3084 19.6574C6.23747 19.3365 5.74772 19.4716 5.81865 19.7925C5.89971 20.1504 6.0517 20.5118 6.278 20.7989C6.48403 21.0589 6.72384 21.1501 7.03458 21.1805C7.72023 21.248 8.63893 21.2278 9.32796 21.2244C10.9458 21.2176 12.3475 21.1636 13.9654 21.1366C14.1005 21.1366 14.2356 21.14 14.3673 21.1096C14.624 21.0488 14.8267 20.8698 14.9652 20.6536C15.1543 20.3632 15.2489 19.9951 15.2759 19.6506C15.3029 19.323 14.7963 19.3264 14.7659 19.6506V19.654Z" fill="#1E1C1C"/>
<path d="M14.7659 19.654C14.7659 19.6776 14.7524 19.7587 14.7659 19.6709C14.7557 19.735 14.7456 19.7958 14.7321 19.86C14.6949 20.0255 14.6477 20.1808 14.5767 20.3125C14.4957 20.4611 14.3943 20.5895 14.2457 20.6199C14.1816 20.6334 14.0802 20.63 13.9958 20.63C13.3709 20.6401 12.7495 20.657 12.1246 20.6705C10.5202 20.7043 8.89901 20.7752 7.29465 20.6908C7.17981 20.684 7.06498 20.6739 6.95014 20.6638C6.90285 20.6604 7.00756 20.6739 6.97716 20.6672C6.96365 20.6672 6.95352 20.6672 6.94001 20.6604C6.92649 20.6604 6.90961 20.6536 6.8961 20.6503C6.88259 20.6503 6.86908 20.6435 6.85894 20.6401C6.84881 20.6401 6.92649 20.6807 6.85557 20.6368C6.82854 20.6199 6.79815 20.6064 6.7745 20.5861C6.51443 20.3767 6.37933 19.9715 6.3084 19.6574C6.23747 19.3365 5.74772 19.4716 5.81865 19.7925C5.89971 20.1504 6.0517 20.5118 6.278 20.7989C6.48403 21.0589 6.72384 21.1501 7.03458 21.1805C7.72023 21.248 8.63893 21.2278 9.32796 21.2244C10.9458 21.2176 12.3475 21.1636 13.9654 21.1366C14.1005 21.1366 14.2356 21.14 14.3673 21.1096C14.624 21.0488 14.8267 20.8698 14.9652 20.6536C15.1543 20.3632 15.2489 19.9951 15.2759 19.6506C15.3029 19.323 14.7963 19.3264 14.7659 19.6506V19.654Z" fill="url(#paint3_linear_18_3913)"/>
<path d="M45.2824 20.7989C45.2689 21.3257 45.2587 21.8525 45.2486 22.3828C45.2216 23.8282 45.1946 25.8883 45.1844 27.3337C45.1709 29.3466 45.1844 30.7447 45.1844 32.7609V37.2053C45.1844 37.8065 45.1608 38.411 45.1844 39.0087C45.1844 39.0155 45.1844 39.0256 45.1844 39.0324C45.1844 39.36 45.6944 39.36 45.6944 39.0324V33.4499C45.6944 31.4404 45.6911 29.431 45.7012 27.4216C45.7113 25.8782 45.7248 24.3348 45.7519 22.788C45.762 22.1362 45.8025 21.4777 45.7924 20.8259C45.7924 20.8157 45.7924 20.809 45.7924 20.7989C45.8025 20.4713 45.2925 20.4713 45.2824 20.7989Z" fill="#1E1C1C"/>
<path d="M45.2824 20.7989C45.2689 21.3257 45.2587 21.8525 45.2486 22.3828C45.2216 23.8282 45.1946 25.8883 45.1844 27.3337C45.1709 29.3466 45.1844 30.7447 45.1844 32.7609V37.2053C45.1844 37.8065 45.1608 38.411 45.1844 39.0087C45.1844 39.0155 45.1844 39.0256 45.1844 39.0324C45.1844 39.36 45.6944 39.36 45.6944 39.0324V33.4499C45.6944 31.4404 45.6911 29.431 45.7012 27.4216C45.7113 25.8782 45.7248 24.3348 45.7519 22.788C45.762 22.1362 45.8025 21.4777 45.7924 20.8259C45.7924 20.8157 45.7924 20.809 45.7924 20.7989C45.8025 20.4713 45.2925 20.4713 45.2824 20.7989Z" fill="url(#paint4_linear_18_3913)"/>
<path d="M38.7366 21.0454C38.7434 21.6398 38.7535 22.2342 38.7602 22.8252C38.7771 24.1524 38.7906 25.4796 38.8042 26.8035C38.8177 28.1814 38.8278 29.5593 38.8278 30.9338C38.8278 32.6292 38.8278 34.3212 38.8278 36.0165C38.8278 37.0027 38.8075 37.9922 38.8278 38.9783C38.8278 38.9952 38.8278 39.0087 38.8278 39.0256C38.8278 39.3532 39.3378 39.3532 39.3378 39.0256V31.1432C39.3378 29.7484 39.3311 28.7657 39.3209 27.3709C39.3108 25.993 39.2939 24.6185 39.2804 23.2406C39.2703 22.5212 39.2838 21.7951 39.2534 21.0758C39.2534 21.0656 39.2534 21.0555 39.2534 21.0454C39.25 20.7178 38.74 20.7178 38.7434 21.0454H38.7366Z" fill="#1E1C1C"/>
<path d="M38.7366 21.0454C38.7434 21.6398 38.7535 22.2342 38.7602 22.8252C38.7771 24.1524 38.7906 25.4796 38.8042 26.8035C38.8177 28.1814 38.8278 29.5593 38.8278 30.9338C38.8278 32.6292 38.8278 34.3212 38.8278 36.0165C38.8278 37.0027 38.8075 37.9922 38.8278 38.9783C38.8278 38.9952 38.8278 39.0087 38.8278 39.0256C38.8278 39.3532 39.3378 39.3532 39.3378 39.0256V31.1432C39.3378 29.7484 39.3311 28.7657 39.3209 27.3709C39.3108 25.993 39.2939 24.6185 39.2804 23.2406C39.2703 22.5212 39.2838 21.7951 39.2534 21.0758C39.2534 21.0656 39.2534 21.0555 39.2534 21.0454C39.25 20.7178 38.74 20.7178 38.7434 21.0454H38.7366Z" fill="url(#paint5_linear_18_3913)"/>
<path d="M43.6577 23.2608V35.976C43.6577 36.3036 44.1678 36.3036 44.1678 35.976V23.2608C44.1678 22.9332 43.6577 22.9332 43.6577 23.2608Z" fill="#1E1C1C"/>
<path d="M43.6577 23.2608V35.976C43.6577 36.3036 44.1678 36.3036 44.1678 35.976V23.2608C44.1678 22.9332 43.6577 22.9332 43.6577 23.2608Z" fill="url(#paint6_linear_18_3913)"/>
<path d="M41.1144 23.2608V35.976C41.1144 36.3036 41.6245 36.3036 41.6245 35.976V23.2608C41.6245 22.9332 41.1144 22.9332 41.1144 23.2608Z" fill="#1E1C1C"/>
<path d="M41.1144 23.2608V35.976C41.1144 36.3036 41.6245 36.3036 41.6245 35.976V23.2608C41.6245 22.9332 41.1144 22.9332 41.1144 23.2608Z" fill="url(#paint7_linear_18_3913)"/>
<path d="M29.1882 21.0217C29.2084 21.6059 29.2287 22.1902 29.2456 22.7778C29.2861 24.0747 29.3233 25.3715 29.3537 26.6684C29.3841 28.0159 29.4111 29.3634 29.4111 30.7143C29.4111 32.3488 29.4314 33.9834 29.482 35.6146C29.5158 36.6514 29.5428 37.6916 29.607 38.725C29.607 38.7419 29.607 38.7588 29.607 38.7757C29.6239 39.0999 30.1339 39.1032 30.117 38.7757C30.0731 37.9111 30.0393 37.0432 30.0089 36.1786C29.9481 34.4967 29.9076 32.8115 29.9177 31.1297C29.9245 29.8227 29.9515 28.3806 29.9211 27.077C29.8907 25.7329 29.8063 24.5205 29.7624 23.1763C29.7421 22.4705 29.7353 21.7613 29.6914 21.0555C29.6914 21.0453 29.6914 21.0352 29.6914 21.0217C29.6813 20.6941 29.1713 20.6941 29.1814 21.0217H29.1882Z" fill="#1E1C1C"/>
<path d="M29.1882 21.0217C29.2084 21.6059 29.2287 22.1902 29.2456 22.7778C29.2861 24.0747 29.3233 25.3715 29.3537 26.6684C29.3841 28.0159 29.4111 29.3634 29.4111 30.7143C29.4111 32.3488 29.4314 33.9834 29.482 35.6146C29.5158 36.6514 29.5428 37.6916 29.607 38.725C29.607 38.7419 29.607 38.7588 29.607 38.7757C29.6239 39.0999 30.1339 39.1032 30.117 38.7757C30.0731 37.9111 30.0393 37.0432 30.0089 36.1786C29.9481 34.4967 29.9076 32.8115 29.9177 31.1297C29.9245 29.8227 29.9515 28.3806 29.9211 27.077C29.8907 25.7329 29.8063 24.5205 29.7624 23.1763C29.7421 22.4705 29.7353 21.7613 29.6914 21.0555C29.6914 21.0453 29.6914 21.0352 29.6914 21.0217C29.6813 20.6941 29.1713 20.6941 29.1814 21.0217H29.1882Z" fill="url(#paint8_linear_18_3913)"/>
<path d="M22.7809 21.1028C22.7809 21.8526 22.7876 22.5989 22.7876 23.3487C22.791 24.838 22.7978 26.3274 22.8011 27.8133C22.8011 29.1203 22.7978 30.4273 22.8214 31.7309C22.8518 33.2371 22.8991 34.7467 22.9531 36.253C22.9835 37.1648 23.0038 38.0767 23.0578 38.9851C23.0578 38.9986 23.0578 39.0121 23.0578 39.0257C23.0714 39.3532 23.5814 39.3532 23.5679 39.0257C23.5375 38.2692 23.5071 37.5127 23.48 36.7528C23.426 35.2567 23.3483 33.3992 23.3145 31.9031C23.2841 30.5962 23.3145 29.6573 23.3145 28.3503C23.3145 26.8475 23.3078 25.3446 23.3044 23.8417C23.3044 22.9434 23.3213 22.0383 23.2943 21.14C23.2943 21.1265 23.2943 21.113 23.2943 21.0995C23.2943 20.7719 22.7843 20.7719 22.7843 21.0995L22.7809 21.1028Z" fill="#1E1C1C"/>
<path d="M22.7809 21.1028C22.7809 21.8526 22.7876 22.5989 22.7876 23.3487C22.791 24.838 22.7978 26.3274 22.8011 27.8133C22.8011 29.1203 22.7978 30.4273 22.8214 31.7309C22.8518 33.2371 22.8991 34.7467 22.9531 36.253C22.9835 37.1648 23.0038 38.0767 23.0578 38.9851C23.0578 38.9986 23.0578 39.0121 23.0578 39.0257C23.0714 39.3532 23.5814 39.3532 23.5679 39.0257C23.5375 38.2692 23.5071 37.5127 23.48 36.7528C23.426 35.2567 23.3483 33.3992 23.3145 31.9031C23.2841 30.5962 23.3145 29.6573 23.3145 28.3503C23.3145 26.8475 23.3078 25.3446 23.3044 23.8417C23.3044 22.9434 23.3213 22.0383 23.2943 21.14C23.2943 21.1265 23.2943 21.113 23.2943 21.0995C23.2943 20.7719 22.7843 20.7719 22.7843 21.0995L22.7809 21.1028Z" fill="url(#paint9_linear_18_3913)"/>
<path d="M27.3812 23.7708V35.976C27.3812 36.3036 27.8912 36.3036 27.8912 35.976V23.7708C27.8912 23.4432 27.3812 23.4432 27.3812 23.7708Z" fill="#1E1C1C"/>
<path d="M27.3812 23.7708V35.976C27.3812 36.3036 27.8912 36.3036 27.8912 35.976V23.7708C27.8912 23.4432 27.3812 23.4432 27.3812 23.7708Z" fill="url(#paint10_linear_18_3913)"/>
<path d="M25.0912 23.7708V35.976C25.0912 36.3036 25.6012 36.3036 25.6012 35.976V23.7708C25.6012 23.4432 25.0912 23.4432 25.0912 23.7708Z" fill="#1E1C1C"/>
<path d="M25.0912 23.7708V35.976C25.0912 36.3036 25.6012 36.3036 25.6012 35.976V23.7708C25.6012 23.4432 25.0912 23.4432 25.0912 23.7708Z" fill="url(#paint11_linear_18_3913)"/>
<path d="M13.6479 20.9711C13.6681 21.6398 13.685 22.3085 13.7019 22.9772C13.7391 24.4091 13.7762 25.8444 13.81 27.2763C13.8404 28.6137 13.8809 30.5657 13.9012 31.9031C13.9181 33.1831 13.9012 33.845 13.9012 35.125V39.0256C13.9012 39.3532 14.4112 39.3532 14.4112 39.0256V35.7666C14.4112 34.3921 14.4213 33.0142 14.4078 31.6397C14.3943 30.3732 14.3639 29.1102 14.3335 27.8437C14.2997 26.3746 14.2626 24.9055 14.2221 23.4398C14.2018 22.6293 14.1984 21.8154 14.1579 21.0082C14.1579 20.9947 14.1579 20.9846 14.1579 20.9711C14.1477 20.6435 13.6411 20.6435 13.6479 20.9711Z" fill="#1E1C1C"/>
<path d="M13.6479 20.9711C13.6681 21.6398 13.685 22.3085 13.7019 22.9772C13.7391 24.4091 13.7762 25.8444 13.81 27.2763C13.8404 28.6137 13.8809 30.5657 13.9012 31.9031C13.9181 33.1831 13.9012 33.845 13.9012 35.125V39.0256C13.9012 39.3532 14.4112 39.3532 14.4112 39.0256V35.7666C14.4112 34.3921 14.4213 33.0142 14.4078 31.6397C14.3943 30.3732 14.3639 29.1102 14.3335 27.8437C14.2997 26.3746 14.2626 24.9055 14.2221 23.4398C14.2018 22.6293 14.1984 21.8154 14.1579 21.0082C14.1579 20.9947 14.1579 20.9846 14.1579 20.9711C14.1477 20.6435 13.6411 20.6435 13.6479 20.9711Z" fill="url(#paint12_linear_18_3913)"/>
<path d="M7.16628 20.9373C7.17979 21.758 7.1933 22.5786 7.20681 23.3993C7.23045 24.9393 7.25409 26.4793 7.27098 28.0193C7.28449 29.1338 7.28111 30.2516 7.30476 31.3661C7.33516 32.8926 7.38582 34.4225 7.43648 35.949C7.47026 36.9588 7.49053 37.9719 7.54119 38.9783C7.54119 38.9952 7.54119 39.0121 7.54119 39.0256C7.5547 39.3532 8.06134 39.3532 8.0512 39.0256C8.02081 38.1813 7.99041 37.337 7.96339 36.4961C7.91272 34.9527 7.83504 34.4664 7.79789 32.923C7.77087 31.8119 7.80802 29.2013 7.79789 28.0902C7.781 26.557 7.74722 25.4661 7.72358 23.9329C7.70669 22.9501 7.71007 21.964 7.67629 20.9812C7.67629 20.9643 7.67629 20.9508 7.67629 20.9339C7.66954 20.6063 7.1629 20.6063 7.16628 20.9339V20.9373Z" fill="#1E1C1C"/>
<path d="M7.16628 20.9373C7.17979 21.758 7.1933 22.5786 7.20681 23.3993C7.23045 24.9393 7.25409 26.4793 7.27098 28.0193C7.28449 29.1338 7.28111 30.2516 7.30476 31.3661C7.33516 32.8926 7.38582 34.4225 7.43648 35.949C7.47026 36.9588 7.49053 37.9719 7.54119 38.9783C7.54119 38.9952 7.54119 39.0121 7.54119 39.0256C7.5547 39.3532 8.06134 39.3532 8.0512 39.0256C8.02081 38.1813 7.99041 37.337 7.96339 36.4961C7.91272 34.9527 7.83504 34.4664 7.79789 32.923C7.77087 31.8119 7.80802 29.2013 7.79789 28.0902C7.781 26.557 7.74722 25.4661 7.72358 23.9329C7.70669 22.9501 7.71007 21.964 7.67629 20.9812C7.67629 20.9643 7.67629 20.9508 7.67629 20.9339C7.66954 20.6063 7.1629 20.6063 7.16628 20.9339V20.9373Z" fill="url(#paint13_linear_18_3913)"/>
<path d="M11.8679 23.7708V29.2385C11.8679 29.9544 11.8916 30.6738 11.9152 31.3897C11.9524 32.538 11.9963 33.6862 12.0402 34.8345C12.0672 35.5437 12.0807 36.2563 12.1246 36.9621C12.1246 36.9723 12.1246 36.9858 12.1246 36.9959C12.1381 37.3235 12.6448 37.3235 12.6346 36.9959C12.611 36.4083 12.5873 35.8206 12.5671 35.2296C12.5232 34.0847 12.4793 32.9399 12.4421 31.795C12.4151 31.0284 12.3813 30.2584 12.3813 29.4917V26.3847C12.3813 25.5303 12.4016 24.6725 12.3813 23.818C12.3813 23.8045 12.3813 23.7876 12.3813 23.7741C12.3813 23.4465 11.8713 23.4465 11.8713 23.7741L11.8679 23.7708Z" fill="#1E1C1C"/>
<path d="M11.8679 23.7708V29.2385C11.8679 29.9544 11.8916 30.6738 11.9152 31.3897C11.9524 32.538 11.9963 33.6862 12.0402 34.8345C12.0672 35.5437 12.0807 36.2563 12.1246 36.9621C12.1246 36.9723 12.1246 36.9858 12.1246 36.9959C12.1381 37.3235 12.6448 37.3235 12.6346 36.9959C12.611 36.4083 12.5873 35.8206 12.5671 35.2296C12.5232 34.0847 12.4793 32.9399 12.4421 31.795C12.4151 31.0284 12.3813 30.2584 12.3813 29.4917V26.3847C12.3813 25.5303 12.4016 24.6725 12.3813 23.818C12.3813 23.8045 12.3813 23.7876 12.3813 23.7741C12.3813 23.4465 11.8713 23.4465 11.8713 23.7741L11.8679 23.7708Z" fill="url(#paint14_linear_18_3913)"/>
<path d="M9.32459 23.7708C9.41578 25.4256 9.49685 27.0804 9.54751 28.7352C9.61168 30.8021 9.57791 32.8757 9.57791 34.9425V36.9925C9.57791 37.3201 10.0879 37.3201 10.0879 36.9925V32.1597C10.0879 31.2074 10.0947 30.0861 10.0677 29.1338C10.0373 28.0227 9.98997 26.9116 9.93593 25.8005C9.90216 25.1216 9.86838 24.4428 9.83123 23.7674C9.81434 23.4432 9.30432 23.4398 9.32121 23.7674L9.32459 23.7708Z" fill="#1E1C1C"/>
<path d="M9.32459 23.7708C9.41578 25.4256 9.49685 27.0804 9.54751 28.7352C9.61168 30.8021 9.57791 32.8757 9.57791 34.9425V36.9925C9.57791 37.3201 10.0879 37.3201 10.0879 36.9925V32.1597C10.0879 31.2074 10.0947 30.0861 10.0677 29.1338C10.0373 28.0227 9.98997 26.9116 9.93593 25.8005C9.90216 25.1216 9.86838 24.4428 9.83123 23.7674C9.81434 23.4432 9.30432 23.4398 9.32121 23.7674L9.32459 23.7708Z" fill="url(#paint15_linear_18_3913)"/>
<path d="M46.9644 41.0621C46.9273 40.7615 46.8665 40.4609 46.7888 40.1671C46.674 39.7416 46.5118 39.235 46.1572 38.9479C45.9039 38.7453 45.6168 38.7723 45.3128 38.7723C44.9548 38.7723 44.5967 38.7723 44.2387 38.7757C43.2119 38.7824 42.3945 38.7453 41.3678 38.7723C40.5403 38.7926 39.4966 38.85 38.6758 38.9513C38.5509 38.9682 38.4158 38.9783 38.2942 39.0188C38.078 39.0864 37.9159 39.2688 37.8179 39.468C37.5815 39.951 37.5511 40.5318 37.5511 41.0621C37.5511 41.3896 38.0611 41.3896 38.0611 41.0621C38.0611 40.6433 38.0814 40.211 38.2198 39.8125C38.2469 39.7416 38.2975 39.6369 38.3279 39.5963C38.3414 39.5795 38.4124 39.5119 38.3955 39.5254C38.409 39.5153 38.436 39.5085 38.4461 39.495C38.3887 39.5558 38.3854 39.5119 38.4124 39.5119C38.4934 39.5052 38.5813 39.4714 38.6623 39.4613C38.7197 39.4511 38.5981 39.468 38.6589 39.4613C38.6691 39.4613 38.6826 39.4613 38.6927 39.4579C38.7265 39.4545 38.7569 39.4511 38.7907 39.4477C38.8683 39.441 38.946 39.4309 39.0237 39.4275C39.1993 39.414 39.375 39.4005 39.554 39.3937C39.9998 39.3701 40.4457 39.3532 40.8915 39.3397C42.4891 39.2958 44.0867 39.2856 45.6843 39.2856C45.7012 39.2856 45.7181 39.2856 45.735 39.2856C45.6742 39.2789 45.7384 39.2856 45.7519 39.2958C45.7417 39.2924 45.8093 39.3262 45.8194 39.3329C45.8802 39.3768 45.9376 39.4545 45.9849 39.5288C46.1133 39.7314 46.1842 39.9307 46.2518 40.1603C46.3159 40.3731 46.3666 40.5892 46.4071 40.8088C46.4206 40.8831 46.4341 40.9574 46.4443 41.0283C46.4477 41.0519 46.451 41.0722 46.4544 41.0958C46.4645 41.1499 46.4443 41.0215 46.451 41.0621C46.4679 41.1971 46.5557 41.3153 46.7043 41.3153C46.8293 41.3153 46.9746 41.1971 46.9577 41.0621H46.9644Z" fill="#1E1C1C"/>
<path d="M46.9644 41.0621C46.9273 40.7615 46.8665 40.4609 46.7888 40.1671C46.674 39.7416 46.5118 39.235 46.1572 38.9479C45.9039 38.7453 45.6168 38.7723 45.3128 38.7723C44.9548 38.7723 44.5967 38.7723 44.2387 38.7757C43.2119 38.7824 42.3945 38.7453 41.3678 38.7723C40.5403 38.7926 39.4966 38.85 38.6758 38.9513C38.5509 38.9682 38.4158 38.9783 38.2942 39.0188C38.078 39.0864 37.9159 39.2688 37.8179 39.468C37.5815 39.951 37.5511 40.5318 37.5511 41.0621C37.5511 41.3896 38.0611 41.3896 38.0611 41.0621C38.0611 40.6433 38.0814 40.211 38.2198 39.8125C38.2469 39.7416 38.2975 39.6369 38.3279 39.5963C38.3414 39.5795 38.4124 39.5119 38.3955 39.5254C38.409 39.5153 38.436 39.5085 38.4461 39.495C38.3887 39.5558 38.3854 39.5119 38.4124 39.5119C38.4934 39.5052 38.5813 39.4714 38.6623 39.4613C38.7197 39.4511 38.5981 39.468 38.6589 39.4613C38.6691 39.4613 38.6826 39.4613 38.6927 39.4579C38.7265 39.4545 38.7569 39.4511 38.7907 39.4477C38.8683 39.441 38.946 39.4309 39.0237 39.4275C39.1993 39.414 39.375 39.4005 39.554 39.3937C39.9998 39.3701 40.4457 39.3532 40.8915 39.3397C42.4891 39.2958 44.0867 39.2856 45.6843 39.2856C45.7012 39.2856 45.7181 39.2856 45.735 39.2856C45.6742 39.2789 45.7384 39.2856 45.7519 39.2958C45.7417 39.2924 45.8093 39.3262 45.8194 39.3329C45.8802 39.3768 45.9376 39.4545 45.9849 39.5288C46.1133 39.7314 46.1842 39.9307 46.2518 40.1603C46.3159 40.3731 46.3666 40.5892 46.4071 40.8088C46.4206 40.8831 46.4341 40.9574 46.4443 41.0283C46.4477 41.0519 46.451 41.0722 46.4544 41.0958C46.4645 41.1499 46.4443 41.0215 46.451 41.0621C46.4679 41.1971 46.5557 41.3153 46.7043 41.3153C46.8293 41.3153 46.9746 41.1971 46.9577 41.0621H46.9644Z" fill="url(#paint16_linear_18_3913)"/>
<path d="M31.4512 41.062C31.4512 40.3157 31.2451 39.2991 30.5392 38.9006C30.2724 38.752 29.9718 38.7351 29.6745 38.7216C29.276 38.7014 28.8774 38.698 28.4755 38.698C27.4386 38.698 26.405 38.7284 25.3715 38.7757C24.571 38.8128 23.7469 38.8331 22.9565 38.9783C22.8451 38.9986 22.7336 39.0256 22.6357 39.0864C22.3958 39.2384 22.2776 39.5288 22.2033 39.7888C22.0648 40.2819 22.0412 40.5555 22.0412 41.062C22.0412 41.3896 22.5512 41.6429 22.5512 41.3153C22.5512 40.9168 22.5681 40.5116 22.6492 40.1232C22.6728 40.0016 22.7032 39.8834 22.7471 39.7686C22.7708 39.7078 22.8316 39.593 22.8586 39.5626C22.8755 39.5457 22.8924 39.5254 22.9092 39.5119C22.8687 39.5423 22.9295 39.5051 22.9329 39.5018C22.9531 39.495 22.8518 39.522 22.9092 39.5119C22.9464 39.5051 22.9802 39.4916 23.0173 39.4849C23.068 39.4748 23.1153 39.4646 23.1659 39.4579C23.193 39.4545 23.22 39.4511 23.247 39.4444C23.2605 39.4444 23.3213 39.4342 23.247 39.4444C23.2673 39.4444 23.2842 39.441 23.3044 39.4376C23.4665 39.4173 23.6287 39.4005 23.7908 39.3869C24.2164 39.3498 24.6453 39.3228 25.0743 39.3025C26.0707 39.2519 27.1447 39.2924 28.1445 39.2856C28.5633 39.2823 28.9078 39.208 29.3233 39.2215C29.4786 39.2248 29.634 39.2316 29.786 39.2417C29.8468 39.2451 29.9042 39.2485 29.965 39.2552C29.9887 39.2552 30.0089 39.262 30.0326 39.262C30.0799 39.2654 29.9752 39.2519 30.0089 39.2586C30.0224 39.2586 30.0359 39.2586 30.0461 39.2654C30.7756 39.414 30.9378 40.4508 30.9411 41.0688C30.9411 41.3964 31.4512 41.3964 31.4512 41.0688V41.062Z" fill="#1E1C1C"/>
<path d="M31.4512 41.062C31.4512 40.3157 31.2451 39.2991 30.5392 38.9006C30.2724 38.752 29.9718 38.7351 29.6745 38.7216C29.276 38.7014 28.8774 38.698 28.4755 38.698C27.4386 38.698 26.405 38.7284 25.3715 38.7757C24.571 38.8128 23.7469 38.8331 22.9565 38.9783C22.8451 38.9986 22.7336 39.0256 22.6357 39.0864C22.3958 39.2384 22.2776 39.5288 22.2033 39.7888C22.0648 40.2819 22.0412 40.5555 22.0412 41.062C22.0412 41.3896 22.5512 41.6429 22.5512 41.3153C22.5512 40.9168 22.5681 40.5116 22.6492 40.1232C22.6728 40.0016 22.7032 39.8834 22.7471 39.7686C22.7708 39.7078 22.8316 39.593 22.8586 39.5626C22.8755 39.5457 22.8924 39.5254 22.9092 39.5119C22.8687 39.5423 22.9295 39.5051 22.9329 39.5018C22.9531 39.495 22.8518 39.522 22.9092 39.5119C22.9464 39.5051 22.9802 39.4916 23.0173 39.4849C23.068 39.4748 23.1153 39.4646 23.1659 39.4579C23.193 39.4545 23.22 39.4511 23.247 39.4444C23.2605 39.4444 23.3213 39.4342 23.247 39.4444C23.2673 39.4444 23.2842 39.441 23.3044 39.4376C23.4665 39.4173 23.6287 39.4005 23.7908 39.3869C24.2164 39.3498 24.6453 39.3228 25.0743 39.3025C26.0707 39.2519 27.1447 39.2924 28.1445 39.2856C28.5633 39.2823 28.9078 39.208 29.3233 39.2215C29.4786 39.2248 29.634 39.2316 29.786 39.2417C29.8468 39.2451 29.9042 39.2485 29.965 39.2552C29.9887 39.2552 30.0089 39.262 30.0326 39.262C30.0799 39.2654 29.9752 39.2519 30.0089 39.2586C30.0224 39.2586 30.0359 39.2586 30.0461 39.2654C30.7756 39.414 30.9378 40.4508 30.9411 41.0688C30.9411 41.3964 31.4512 41.3964 31.4512 41.0688V41.062Z" fill="url(#paint17_linear_18_3913)"/>
<path d="M15.6812 41.3153C15.6812 41.0181 15.6508 40.7243 15.6069 40.4305C15.5359 39.9611 15.411 39.4511 15.0901 39.0864C14.8401 38.8027 14.5159 38.7689 14.1612 38.7723C13.7931 38.7723 13.4283 38.7791 13.0602 38.7858C11.9793 38.8027 10.8985 38.823 9.82105 38.8534C8.96652 38.8804 8.10185 38.8838 7.2507 38.9851C7.09871 39.002 6.96361 39.0222 6.82512 39.0931C6.55492 39.2316 6.39617 39.5119 6.31849 39.7956C6.17663 40.3022 6.26445 40.802 6.2712 41.3153C6.27458 41.6429 6.78459 41.6429 6.78122 41.3153C6.77784 40.9168 6.70353 40.5116 6.76771 40.1198C6.80148 39.907 6.8589 39.6909 7.01765 39.5693C7.06493 39.5322 7.15613 39.5119 7.25408 39.495C7.30136 39.4883 7.18653 39.5018 7.23719 39.495C7.2507 39.495 7.26421 39.4917 7.27772 39.4883C7.30474 39.4883 7.32839 39.4815 7.35541 39.4815C7.42634 39.4748 7.50064 39.468 7.57157 39.4613C7.74721 39.4477 7.92284 39.4376 8.09848 39.4275C8.57134 39.4005 9.35832 39.2924 9.83118 39.2789C10.8749 39.2451 11.601 39.316 12.6481 39.2992C13.0534 39.2924 13.4587 39.2856 13.864 39.2823C13.9957 39.2823 14.1308 39.2823 14.2626 39.2823C14.3031 39.2823 14.3436 39.2823 14.3842 39.2823C14.4112 39.2823 14.4348 39.2823 14.4619 39.2823C14.4112 39.2789 14.5868 39.3194 14.5395 39.2992C14.5598 39.3093 14.5801 39.3194 14.6003 39.3329C14.6105 39.3363 14.6645 39.3768 14.6274 39.3464C14.6713 39.3802 14.7118 39.4241 14.7489 39.4646C14.7625 39.4781 14.7861 39.5153 14.8131 39.5592C14.8469 39.6132 14.8739 39.6706 14.9009 39.7281C14.9854 39.9138 15.0529 40.1941 15.0935 40.4238C15.1407 40.6939 15.1745 41.0046 15.1745 41.3153C15.1745 41.6429 15.6845 41.6429 15.6845 41.3153H15.6812Z" fill="#1E1C1C"/>
<path d="M15.6812 41.3153C15.6812 41.0181 15.6508 40.7243 15.6069 40.4305C15.5359 39.9611 15.411 39.4511 15.0901 39.0864C14.8401 38.8027 14.5159 38.7689 14.1612 38.7723C13.7931 38.7723 13.4283 38.7791 13.0602 38.7858C11.9793 38.8027 10.8985 38.823 9.82105 38.8534C8.96652 38.8804 8.10185 38.8838 7.2507 38.9851C7.09871 39.002 6.96361 39.0222 6.82512 39.0931C6.55492 39.2316 6.39617 39.5119 6.31849 39.7956C6.17663 40.3022 6.26445 40.802 6.2712 41.3153C6.27458 41.6429 6.78459 41.6429 6.78122 41.3153C6.77784 40.9168 6.70353 40.5116 6.76771 40.1198C6.80148 39.907 6.8589 39.6909 7.01765 39.5693C7.06493 39.5322 7.15613 39.5119 7.25408 39.495C7.30136 39.4883 7.18653 39.5018 7.23719 39.495C7.2507 39.495 7.26421 39.4917 7.27772 39.4883C7.30474 39.4883 7.32839 39.4815 7.35541 39.4815C7.42634 39.4748 7.50064 39.468 7.57157 39.4613C7.74721 39.4477 7.92284 39.4376 8.09848 39.4275C8.57134 39.4005 9.35832 39.2924 9.83118 39.2789C10.8749 39.2451 11.601 39.316 12.6481 39.2992C13.0534 39.2924 13.4587 39.2856 13.864 39.2823C13.9957 39.2823 14.1308 39.2823 14.2626 39.2823C14.3031 39.2823 14.3436 39.2823 14.3842 39.2823C14.4112 39.2823 14.4348 39.2823 14.4619 39.2823C14.4112 39.2789 14.5868 39.3194 14.5395 39.2992C14.5598 39.3093 14.5801 39.3194 14.6003 39.3329C14.6105 39.3363 14.6645 39.3768 14.6274 39.3464C14.6713 39.3802 14.7118 39.4241 14.7489 39.4646C14.7625 39.4781 14.7861 39.5153 14.8131 39.5592C14.8469 39.6132 14.8739 39.6706 14.9009 39.7281C14.9854 39.9138 15.0529 40.1941 15.0935 40.4238C15.1407 40.6939 15.1745 41.0046 15.1745 41.3153C15.1745 41.6429 15.6845 41.6429 15.6845 41.3153H15.6812Z" fill="url(#paint18_linear_18_3913)"/>
<path d="M47.6973 46.6412C47.7075 45.9151 47.7142 45.189 47.7244 44.4595C47.7311 43.9361 47.7379 43.416 47.7446 42.8925C47.7514 42.4062 47.7953 41.903 47.5521 41.4606C47.2819 40.9675 46.7955 40.775 46.2686 40.7784C45.7586 40.7817 45.2486 40.7885 44.7386 40.7953C42.8775 40.8155 41.0198 40.8324 39.1588 40.8493C37.2302 40.8662 35.305 40.8797 33.3764 40.8797C32.1064 40.8797 30.8398 40.856 29.5732 40.8729C27.4419 40.8966 25.3141 40.9472 23.1828 40.9945C20.9097 41.0452 18.6366 41.0992 16.3635 41.1397C14.2525 41.1769 12.1381 41.1397 10.0271 41.187C8.75375 41.214 7.48377 41.2748 6.21042 41.3255C5.84564 41.339 5.39305 41.2816 5.05867 41.4437C4.63985 41.6463 4.52163 42.1225 4.50812 42.548C4.47097 44.0205 4.47434 45.4929 4.45746 46.962C4.45746 47.1208 4.45408 47.2761 4.4507 47.4348C4.44732 47.7624 4.95734 47.7624 4.96072 47.4348C4.9776 46.0232 4.99111 44.6115 5.008 43.1964C5.008 42.9938 5.008 42.7946 5.01476 42.5919C5.02151 42.2069 5.10595 41.8557 5.55179 41.8489C6.46712 41.8321 7.64252 41.8557 8.55785 41.8219C10.8546 41.7375 12.8913 41.6936 15.1881 41.6632C17.3193 41.6362 19.4472 41.5855 21.5784 41.5382C23.8009 41.4876 26.02 41.4335 28.2424 41.3964C29.6137 41.3728 30.5865 41.3018 31.9578 41.312C33.6432 41.3255 35.7204 41.3795 37.4092 41.3694C39.3851 41.3559 41.3644 41.3356 43.3402 41.3153C44.3839 41.3052 45.431 41.2849 46.4746 41.2849C46.4915 41.2849 46.5084 41.2849 46.5287 41.2849C46.4679 41.2816 46.5557 41.2917 46.576 41.2951C46.6097 41.3052 46.6537 41.3187 46.6841 41.3288C46.8563 41.3964 47.0083 41.5315 47.1029 41.6936C47.3224 42.0718 47.2414 42.5885 47.2346 43.0107C47.2211 44.0103 47.2346 45.1417 47.2211 46.1414C47.2211 46.3474 47.1941 46.4251 47.1907 46.6311C47.1873 46.9586 47.694 46.9586 47.7007 46.6311L47.6973 46.6412Z" fill="#1E1C1C"/>
<path d="M47.6973 46.6412C47.7075 45.9151 47.7142 45.189 47.7244 44.4595C47.7311 43.9361 47.7379 43.416 47.7446 42.8925C47.7514 42.4062 47.7953 41.903 47.5521 41.4606C47.2819 40.9675 46.7955 40.775 46.2686 40.7784C45.7586 40.7817 45.2486 40.7885 44.7386 40.7953C42.8775 40.8155 41.0198 40.8324 39.1588 40.8493C37.2302 40.8662 35.305 40.8797 33.3764 40.8797C32.1064 40.8797 30.8398 40.856 29.5732 40.8729C27.4419 40.8966 25.3141 40.9472 23.1828 40.9945C20.9097 41.0452 18.6366 41.0992 16.3635 41.1397C14.2525 41.1769 12.1381 41.1397 10.0271 41.187C8.75375 41.214 7.48377 41.2748 6.21042 41.3255C5.84564 41.339 5.39305 41.2816 5.05867 41.4437C4.63985 41.6463 4.52163 42.1225 4.50812 42.548C4.47097 44.0205 4.47434 45.4929 4.45746 46.962C4.45746 47.1208 4.45408 47.2761 4.4507 47.4348C4.44732 47.7624 4.95734 47.7624 4.96072 47.4348C4.9776 46.0232 4.99111 44.6115 5.008 43.1964C5.008 42.9938 5.008 42.7946 5.01476 42.5919C5.02151 42.2069 5.10595 41.8557 5.55179 41.8489C6.46712 41.8321 7.64252 41.8557 8.55785 41.8219C10.8546 41.7375 12.8913 41.6936 15.1881 41.6632C17.3193 41.6362 19.4472 41.5855 21.5784 41.5382C23.8009 41.4876 26.02 41.4335 28.2424 41.3964C29.6137 41.3728 30.5865 41.3018 31.9578 41.312C33.6432 41.3255 35.7204 41.3795 37.4092 41.3694C39.3851 41.3559 41.3644 41.3356 43.3402 41.3153C44.3839 41.3052 45.431 41.2849 46.4746 41.2849C46.4915 41.2849 46.5084 41.2849 46.5287 41.2849C46.4679 41.2816 46.5557 41.2917 46.576 41.2951C46.6097 41.3052 46.6537 41.3187 46.6841 41.3288C46.8563 41.3964 47.0083 41.5315 47.1029 41.6936C47.3224 42.0718 47.2414 42.5885 47.2346 43.0107C47.2211 44.0103 47.2346 45.1417 47.2211 46.1414C47.2211 46.3474 47.1941 46.4251 47.1907 46.6311C47.1873 46.9586 47.694 46.9586 47.7007 46.6311L47.6973 46.6412Z" fill="url(#paint19_linear_18_3913)"/>
<path d="M50.1596 47.3707C50.136 47.0971 50.1393 46.7121 49.9502 46.4892C49.9502 46.4892 49.9502 46.4825 49.9434 46.4825C49.9434 46.4825 49.9434 46.4825 49.9434 46.4791C49.8793 46.4082 49.8083 46.3913 49.7374 46.4048H38.6522C36.6628 46.4048 34.67 46.3913 32.6806 46.4116C30.7317 46.4284 28.7862 46.4723 26.8407 46.5129C24.4224 46.5635 22.0007 46.6243 19.5823 46.6817C17.397 46.7358 15.2083 46.7898 13.023 46.8405C11.8003 46.8709 10.581 46.908 9.35835 46.9114C8.26739 46.9114 7.17643 46.9114 6.08547 46.9249C4.99451 46.9384 3.89679 46.9384 2.81258 47.0363C2.58629 47.0566 2.22151 47.0465 2.04249 47.2187C1.87699 47.3774 1.95468 47.7793 1.95468 47.982C1.96143 48.9242 1.95468 49.8833 2.07627 50.8188C2.11005 51.0789 2.13369 51.4571 2.46469 51.4875C2.53224 51.4942 2.60317 51.4875 2.67072 51.4875C3.05915 51.4841 3.44757 51.4774 3.83937 51.474C5.39306 51.4571 7.01092 51.5078 8.56799 51.4909C10.6452 51.4672 12.6583 51.3727 14.7355 51.3457C16.7181 51.322 18.7041 51.2984 20.6868 51.2781C21.9838 51.2646 23.041 51.2443 24.3379 51.2342C25.1891 51.2274 29.7016 51.2714 31.4579 51.2342C33.6398 51.1903 36.906 51.0282 39.0879 50.9809C41.1178 50.937 43.0059 50.8796 45.0392 50.8323C46.3767 50.8019 47.7142 50.7715 49.0518 50.7411C49.2848 50.7344 49.528 50.7513 49.7611 50.7242C50.0482 50.6938 50.0988 50.4237 50.136 50.1839C50.2035 49.728 50.2137 49.2653 50.217 48.806C50.2204 48.3264 50.2103 47.8469 50.1697 47.3707H50.1596ZM49.5618 46.8202C49.5618 46.8202 49.555 46.8202 49.555 46.7932C49.555 46.7999 49.5584 46.8101 49.5618 46.8202ZM46.8732 50.2818C45.0696 50.3224 43.266 50.3629 41.4657 50.4034C39.3074 50.4507 37.1491 50.5013 34.9909 50.5453C33.0251 50.5858 31.056 50.6297 29.0902 50.6668C27.8338 50.6905 26.5773 50.7175 25.3208 50.7242C24.4866 50.7276 23.6523 50.7344 22.8214 50.7445C21.0988 50.7614 19.3797 50.7817 17.6571 50.8019C15.5866 50.8256 13.5128 50.8492 11.4423 50.8728C9.58127 50.8931 7.7236 50.9167 5.86255 50.9404C4.80198 50.9539 3.7448 50.9674 2.68424 50.9775C2.66397 50.9775 2.63695 50.9775 2.60655 50.9742C2.57277 50.8188 2.55926 50.677 2.54575 50.5149C2.46469 49.5929 2.45794 48.6608 2.45456 47.7354C2.45456 47.6983 2.46131 47.6442 2.46469 47.5868C2.47145 47.5868 2.4782 47.5834 2.48496 47.5801C2.5998 47.5598 2.74841 47.5463 2.90378 47.5328C3.12332 47.5159 3.33949 47.5024 3.55903 47.4923C4.72768 47.4382 5.90308 47.4281 7.07172 47.4213C8.43627 47.4112 9.80081 47.4146 11.162 47.3842C13.0264 47.3437 14.5733 47.2052 16.4344 47.1613C18.8156 47.1039 21.5143 47.1343 23.8955 47.0802C26.0943 47.0296 27.9722 46.9452 30.171 46.908C31.8227 46.881 33.7918 46.908 35.4401 46.908H49.5787C49.5888 46.962 49.6023 47.0127 49.6091 47.0667C49.6361 47.2423 49.6496 47.4484 49.6597 47.6375C49.6901 48.1441 49.6935 48.654 49.68 49.1606C49.6699 49.5186 49.653 49.8833 49.5922 50.2177C48.6802 50.2345 47.7717 50.2582 46.8597 50.2785L46.8732 50.2818ZM49.5854 50.3088C49.5854 50.3088 49.5787 50.3021 49.5922 50.292C49.5922 50.3088 49.5888 50.3224 49.5854 50.3088ZM49.7442 50.2177C49.7442 50.2177 49.7104 50.2177 49.6935 50.2177C49.9198 50.0623 49.7948 50.2312 49.7442 50.2177Z" fill="#1E1C1C"/>
<path d="M50.1596 47.3707C50.136 47.0971 50.1393 46.7121 49.9502 46.4892C49.9502 46.4892 49.9502 46.4825 49.9434 46.4825C49.9434 46.4825 49.9434 46.4825 49.9434 46.4791C49.8793 46.4082 49.8083 46.3913 49.7374 46.4048H38.6522C36.6628 46.4048 34.67 46.3913 32.6806 46.4116C30.7317 46.4284 28.7862 46.4723 26.8407 46.5129C24.4224 46.5635 22.0007 46.6243 19.5823 46.6817C17.397 46.7358 15.2083 46.7898 13.023 46.8405C11.8003 46.8709 10.581 46.908 9.35835 46.9114C8.26739 46.9114 7.17643 46.9114 6.08547 46.9249C4.99451 46.9384 3.89679 46.9384 2.81258 47.0363C2.58629 47.0566 2.22151 47.0465 2.04249 47.2187C1.87699 47.3774 1.95468 47.7793 1.95468 47.982C1.96143 48.9242 1.95468 49.8833 2.07627 50.8188C2.11005 51.0789 2.13369 51.4571 2.46469 51.4875C2.53224 51.4942 2.60317 51.4875 2.67072 51.4875C3.05915 51.4841 3.44757 51.4774 3.83937 51.474C5.39306 51.4571 7.01092 51.5078 8.56799 51.4909C10.6452 51.4672 12.6583 51.3727 14.7355 51.3457C16.7181 51.322 18.7041 51.2984 20.6868 51.2781C21.9838 51.2646 23.041 51.2443 24.3379 51.2342C25.1891 51.2274 29.7016 51.2714 31.4579 51.2342C33.6398 51.1903 36.906 51.0282 39.0879 50.9809C41.1178 50.937 43.0059 50.8796 45.0392 50.8323C46.3767 50.8019 47.7142 50.7715 49.0518 50.7411C49.2848 50.7344 49.528 50.7513 49.7611 50.7242C50.0482 50.6938 50.0988 50.4237 50.136 50.1839C50.2035 49.728 50.2137 49.2653 50.217 48.806C50.2204 48.3264 50.2103 47.8469 50.1697 47.3707H50.1596ZM49.5618 46.8202C49.5618 46.8202 49.555 46.8202 49.555 46.7932C49.555 46.7999 49.5584 46.8101 49.5618 46.8202ZM46.8732 50.2818C45.0696 50.3224 43.266 50.3629 41.4657 50.4034C39.3074 50.4507 37.1491 50.5013 34.9909 50.5453C33.0251 50.5858 31.056 50.6297 29.0902 50.6668C27.8338 50.6905 26.5773 50.7175 25.3208 50.7242C24.4866 50.7276 23.6523 50.7344 22.8214 50.7445C21.0988 50.7614 19.3797 50.7817 17.6571 50.8019C15.5866 50.8256 13.5128 50.8492 11.4423 50.8728C9.58127 50.8931 7.7236 50.9167 5.86255 50.9404C4.80198 50.9539 3.7448 50.9674 2.68424 50.9775C2.66397 50.9775 2.63695 50.9775 2.60655 50.9742C2.57277 50.8188 2.55926 50.677 2.54575 50.5149C2.46469 49.5929 2.45794 48.6608 2.45456 47.7354C2.45456 47.6983 2.46131 47.6442 2.46469 47.5868C2.47145 47.5868 2.4782 47.5834 2.48496 47.5801C2.5998 47.5598 2.74841 47.5463 2.90378 47.5328C3.12332 47.5159 3.33949 47.5024 3.55903 47.4923C4.72768 47.4382 5.90308 47.4281 7.07172 47.4213C8.43627 47.4112 9.80081 47.4146 11.162 47.3842C13.0264 47.3437 14.5733 47.2052 16.4344 47.1613C18.8156 47.1039 21.5143 47.1343 23.8955 47.0802C26.0943 47.0296 27.9722 46.9452 30.171 46.908C31.8227 46.881 33.7918 46.908 35.4401 46.908H49.5787C49.5888 46.962 49.6023 47.0127 49.6091 47.0667C49.6361 47.2423 49.6496 47.4484 49.6597 47.6375C49.6901 48.1441 49.6935 48.654 49.68 49.1606C49.6699 49.5186 49.653 49.8833 49.5922 50.2177C48.6802 50.2345 47.7717 50.2582 46.8597 50.2785L46.8732 50.2818ZM49.5854 50.3088C49.5854 50.3088 49.5787 50.3021 49.5922 50.292C49.5922 50.3088 49.5888 50.3224 49.5854 50.3088ZM49.7442 50.2177C49.7442 50.2177 49.7104 50.2177 49.6935 50.2177C49.9198 50.0623 49.7948 50.2312 49.7442 50.2177Z" fill="url(#paint20_linear_18_3913)"/>
<path d="M43.9077 17.5499C43.9077 17.5162 43.8975 17.4858 43.8806 17.4588C43.8806 17.4588 43.8806 17.4554 43.8806 17.452C43.8536 17.3912 43.8097 17.3574 43.7658 17.3405C43.249 16.9285 42.7323 16.5131 42.2189 16.0977C41.1144 15.2062 40.0099 14.3112 38.9156 13.4061C38.0239 12.6733 37.1356 11.8391 36.2878 11.0556C35.6528 10.4713 34.9908 10.0221 34.3255 9.47842C33.2109 8.56995 32.0794 7.68174 30.9445 6.80029C29.9886 6.06068 29.0294 5.3177 28.0431 4.61524C27.8506 4.47678 27.6243 4.27077 27.3913 4.20322C27.1954 4.14919 26.9792 4.3248 26.8272 4.42274C25.9929 4.94621 25.1857 5.51695 24.3751 6.07757C23.176 6.90836 21.9837 7.74929 20.7982 8.59697C19.6971 9.38048 18.8088 9.99513 17.7246 10.8023C16.9951 11.346 16.0865 12.0957 15.3671 12.653C14.1883 13.5682 12.9723 14.4598 11.7733 15.3615C11.1991 15.7904 10.6283 16.2227 10.0642 16.6617C9.71297 16.9319 9.35157 17.2021 9.0307 17.506C8.93613 17.5972 8.82467 17.7053 8.82129 17.8471C8.82129 18.0059 8.94626 18.1004 9.08812 18.1308C9.37859 18.1916 9.69271 18.1781 9.98656 18.1781C11.2903 18.1882 12.5974 18.1443 13.9012 18.1106C15.8298 18.0599 17.7584 18.0025 19.687 17.9552C21.8047 17.9012 23.9225 17.8573 26.0436 17.8404C28.391 17.8235 30.7418 17.8505 33.0893 17.9012C35.2509 17.9484 37.4092 18.0126 39.5708 18.0531C40.3511 18.0666 41.1279 18.0768 41.9081 18.07C42.4013 18.0633 42.9011 18.0599 43.3875 17.989C43.6341 17.9518 43.9718 17.837 43.9144 17.5533L43.9077 17.5499ZM9.18607 17.631C9.15567 17.6006 9.1658 17.631 9.18607 17.631V17.631ZM41.3475 17.5634C39.4932 17.5634 37.6389 17.5027 35.7879 17.4588C33.4169 17.398 31.0424 17.3439 28.6714 17.3304C26.5806 17.3169 24.4933 17.3439 22.4026 17.3845C20.3726 17.425 17.9678 17.3574 15.9379 17.4115C14.3234 17.4554 13.0872 17.6276 11.4727 17.6546C10.9525 17.6648 10.429 17.6715 9.90887 17.6648C9.81092 17.6648 9.71635 17.658 9.6184 17.658C10.0203 17.3169 10.4425 16.9961 10.858 16.6786C12.0604 15.76 13.2763 14.8617 14.4855 13.9532C15.3164 13.3251 16.1236 12.6699 16.9478 12.035C16.9579 12.0282 16.968 12.0181 16.9748 12.0147C16.9951 11.9978 17.0153 11.9843 17.0356 11.9674C17.0795 11.9336 17.1268 11.8999 17.1707 11.8627C17.2653 11.7918 17.3598 11.7175 17.4544 11.6466C17.6706 11.4845 17.8901 11.3224 18.1063 11.1603C18.6264 10.7786 19.1466 10.397 19.6701 10.0188C20.8489 9.16771 22.0344 8.32341 23.2267 7.48587C24.2366 6.77665 25.2465 6.07082 26.2699 5.38524C26.5671 5.18599 26.861 4.98673 27.165 4.80099C27.2089 4.77397 27.2595 4.74695 27.3068 4.72331C28.0195 5.15897 28.6815 5.69932 29.3435 6.20253C30.4683 7.05696 31.5795 7.9249 32.6839 8.80297C33.5858 9.51894 34.491 10.2349 35.3556 10.9982C35.5853 11.2008 35.8015 11.4203 36.0278 11.6229C36.406 11.964 36.7911 12.2916 37.1795 12.6158C38.2468 13.5142 39.3277 14.399 40.4119 15.2805C41.2934 15.9964 42.1783 16.7124 43.0667 17.425C43.097 17.452 43.1308 17.4756 43.1612 17.4993C43.1139 17.5027 43.07 17.5094 43.0227 17.5128C42.4654 17.5567 41.9048 17.5567 41.3475 17.5567V17.5634Z" fill="#1E1C1C"/>
<path d="M43.9077 17.5499C43.9077 17.5162 43.8975 17.4858 43.8806 17.4588C43.8806 17.4588 43.8806 17.4554 43.8806 17.452C43.8536 17.3912 43.8097 17.3574 43.7658 17.3405C43.249 16.9285 42.7323 16.5131 42.2189 16.0977C41.1144 15.2062 40.0099 14.3112 38.9156 13.4061C38.0239 12.6733 37.1356 11.8391 36.2878 11.0556C35.6528 10.4713 34.9908 10.0221 34.3255 9.47842C33.2109 8.56995 32.0794 7.68174 30.9445 6.80029C29.9886 6.06068 29.0294 5.3177 28.0431 4.61524C27.8506 4.47678 27.6243 4.27077 27.3913 4.20322C27.1954 4.14919 26.9792 4.3248 26.8272 4.42274C25.9929 4.94621 25.1857 5.51695 24.3751 6.07757C23.176 6.90836 21.9837 7.74929 20.7982 8.59697C19.6971 9.38048 18.8088 9.99513 17.7246 10.8023C16.9951 11.346 16.0865 12.0957 15.3671 12.653C14.1883 13.5682 12.9723 14.4598 11.7733 15.3615C11.1991 15.7904 10.6283 16.2227 10.0642 16.6617C9.71297 16.9319 9.35157 17.2021 9.0307 17.506C8.93613 17.5972 8.82467 17.7053 8.82129 17.8471C8.82129 18.0059 8.94626 18.1004 9.08812 18.1308C9.37859 18.1916 9.69271 18.1781 9.98656 18.1781C11.2903 18.1882 12.5974 18.1443 13.9012 18.1106C15.8298 18.0599 17.7584 18.0025 19.687 17.9552C21.8047 17.9012 23.9225 17.8573 26.0436 17.8404C28.391 17.8235 30.7418 17.8505 33.0893 17.9012C35.2509 17.9484 37.4092 18.0126 39.5708 18.0531C40.3511 18.0666 41.1279 18.0768 41.9081 18.07C42.4013 18.0633 42.9011 18.0599 43.3875 17.989C43.6341 17.9518 43.9718 17.837 43.9144 17.5533L43.9077 17.5499ZM9.18607 17.631C9.15567 17.6006 9.1658 17.631 9.18607 17.631V17.631ZM41.3475 17.5634C39.4932 17.5634 37.6389 17.5027 35.7879 17.4588C33.4169 17.398 31.0424 17.3439 28.6714 17.3304C26.5806 17.3169 24.4933 17.3439 22.4026 17.3845C20.3726 17.425 17.9678 17.3574 15.9379 17.4115C14.3234 17.4554 13.0872 17.6276 11.4727 17.6546C10.9525 17.6648 10.429 17.6715 9.90887 17.6648C9.81092 17.6648 9.71635 17.658 9.6184 17.658C10.0203 17.3169 10.4425 16.9961 10.858 16.6786C12.0604 15.76 13.2763 14.8617 14.4855 13.9532C15.3164 13.3251 16.1236 12.6699 16.9478 12.035C16.9579 12.0282 16.968 12.0181 16.9748 12.0147C16.9951 11.9978 17.0153 11.9843 17.0356 11.9674C17.0795 11.9336 17.1268 11.8999 17.1707 11.8627C17.2653 11.7918 17.3598 11.7175 17.4544 11.6466C17.6706 11.4845 17.8901 11.3224 18.1063 11.1603C18.6264 10.7786 19.1466 10.397 19.6701 10.0188C20.8489 9.16771 22.0344 8.32341 23.2267 7.48587C24.2366 6.77665 25.2465 6.07082 26.2699 5.38524C26.5671 5.18599 26.861 4.98673 27.165 4.80099C27.2089 4.77397 27.2595 4.74695 27.3068 4.72331C28.0195 5.15897 28.6815 5.69932 29.3435 6.20253C30.4683 7.05696 31.5795 7.9249 32.6839 8.80297C33.5858 9.51894 34.491 10.2349 35.3556 10.9982C35.5853 11.2008 35.8015 11.4203 36.0278 11.6229C36.406 11.964 36.7911 12.2916 37.1795 12.6158C38.2468 13.5142 39.3277 14.399 40.4119 15.2805C41.2934 15.9964 42.1783 16.7124 43.0667 17.425C43.097 17.452 43.1308 17.4756 43.1612 17.4993C43.1139 17.5027 43.07 17.5094 43.0227 17.5128C42.4654 17.5567 41.9048 17.5567 41.3475 17.5567V17.5634Z" fill="url(#paint21_linear_18_3913)"/>
<path d="M29.0362 8.91781C28.6275 8.67803 28.1445 8.5193 27.6818 8.42812C26.8745 8.26601 26.0639 8.32343 25.3614 8.78273C24.8446 9.11707 24.3414 9.67769 24.3718 10.3329C24.4021 10.9948 24.9054 11.4744 25.4931 11.7074C26.2193 11.9911 27.0502 11.8729 27.8101 11.8999C28.1614 11.9134 28.5296 11.937 28.8606 12.0586C29.0869 12.143 29.249 12.295 29.3672 12.4875C29.6307 12.9164 29.6509 13.4534 29.33 13.8688C28.9281 14.3821 28.2154 14.5949 27.6041 14.7097C26.9185 14.8381 26.1889 14.8617 25.4965 14.7671C25.233 14.73 24.9595 14.6489 24.7028 14.5476C24.544 14.4868 24.365 14.426 24.2265 14.3247C24.1151 14.2437 23.9428 14.3078 23.8786 14.4159C23.8043 14.5442 23.8584 14.6827 23.9698 14.7638C24.088 14.8516 24.2366 14.9056 24.3718 14.9596C24.6284 15.0677 24.8851 15.169 25.1587 15.2231C25.7498 15.3379 26.3679 15.3514 26.9657 15.3007C28.1817 15.2028 29.9921 14.7536 30.0799 13.2575C30.1103 12.7476 29.884 12.1836 29.4956 11.8492C28.9585 11.3798 28.1242 11.3899 27.4521 11.3832C26.7361 11.3764 25.9018 11.4845 25.2905 11.0286C25.0946 10.8833 24.9426 10.6773 24.8919 10.4342C24.8446 10.191 24.9257 9.95799 25.0608 9.75198C25.5066 9.07654 26.3612 8.78948 27.1346 8.85702C27.6919 8.90431 28.2931 9.06979 28.7795 9.35685C29.0632 9.52233 29.3199 9.0833 29.0362 8.91781Z" fill="#1E1C1C"/>
<path d="M29.0362 8.91781C28.6275 8.67803 28.1445 8.5193 27.6818 8.42812C26.8745 8.26601 26.0639 8.32343 25.3614 8.78273C24.8446 9.11707 24.3414 9.67769 24.3718 10.3329C24.4021 10.9948 24.9054 11.4744 25.4931 11.7074C26.2193 11.9911 27.0502 11.8729 27.8101 11.8999C28.1614 11.9134 28.5296 11.937 28.8606 12.0586C29.0869 12.143 29.249 12.295 29.3672 12.4875C29.6307 12.9164 29.6509 13.4534 29.33 13.8688C28.9281 14.3821 28.2154 14.5949 27.6041 14.7097C26.9185 14.8381 26.1889 14.8617 25.4965 14.7671C25.233 14.73 24.9595 14.6489 24.7028 14.5476C24.544 14.4868 24.365 14.426 24.2265 14.3247C24.1151 14.2437 23.9428 14.3078 23.8786 14.4159C23.8043 14.5442 23.8584 14.6827 23.9698 14.7638C24.088 14.8516 24.2366 14.9056 24.3718 14.9596C24.6284 15.0677 24.8851 15.169 25.1587 15.2231C25.7498 15.3379 26.3679 15.3514 26.9657 15.3007C28.1817 15.2028 29.9921 14.7536 30.0799 13.2575C30.1103 12.7476 29.884 12.1836 29.4956 11.8492C28.9585 11.3798 28.1242 11.3899 27.4521 11.3832C26.7361 11.3764 25.9018 11.4845 25.2905 11.0286C25.0946 10.8833 24.9426 10.6773 24.8919 10.4342C24.8446 10.191 24.9257 9.95799 25.0608 9.75198C25.5066 9.07654 26.3612 8.78948 27.1346 8.85702C27.6919 8.90431 28.2931 9.06979 28.7795 9.35685C29.0632 9.52233 29.3199 9.0833 29.0362 8.91781Z" fill="url(#paint22_linear_18_3913)"/>
<path d="M27.2055 7.63784C27.2224 8.54631 27.2393 9.45478 27.2562 10.3632C27.2832 11.8053 27.3102 13.244 27.3372 14.6861C27.344 15.017 27.3508 15.348 27.3575 15.679C27.3643 16.0066 27.8709 16.0066 27.8675 15.679C27.8506 14.7705 27.8338 13.862 27.8169 12.9536C27.7898 11.5115 27.7628 10.0728 27.7358 8.63074C27.729 8.29977 27.7223 7.96881 27.7155 7.63784C27.7088 7.31025 27.2021 7.31025 27.2055 7.63784Z" fill="#1E1C1C"/>
<path d="M27.2055 7.63784C27.2224 8.54631 27.2393 9.45478 27.2562 10.3632C27.2832 11.8053 27.3102 13.244 27.3372 14.6861C27.344 15.017 27.3508 15.348 27.3575 15.679C27.3643 16.0066 27.8709 16.0066 27.8675 15.679C27.8506 14.7705 27.8338 13.862 27.8169 12.9536C27.7898 11.5115 27.7628 10.0728 27.7358 8.63074C27.729 8.29977 27.7223 7.96881 27.7155 7.63784C27.7088 7.31025 27.2021 7.31025 27.2055 7.63784Z" fill="url(#paint23_linear_18_3913)"/>
<path d="M26.2429 7.7358C26.2598 8.64427 26.2767 9.55274 26.2936 10.4612C26.3206 11.9033 26.3476 13.342 26.3746 14.784C26.3814 15.115 26.3881 15.446 26.3949 15.7769C26.4017 16.1045 26.9083 16.1045 26.9049 15.7769C26.888 14.8685 26.8711 13.96 26.8542 13.0515L26.7732 8.7287C26.7664 8.39774 26.7597 8.06677 26.7529 7.7358C26.7462 7.40822 26.2395 7.40822 26.2429 7.7358Z" fill="#1E1C1C"/>
<path d="M26.2429 7.7358C26.2598 8.64427 26.2767 9.55274 26.2936 10.4612C26.3206 11.9033 26.3476 13.342 26.3746 14.784C26.3814 15.115 26.3881 15.446 26.3949 15.7769C26.4017 16.1045 26.9083 16.1045 26.9049 15.7769C26.888 14.8685 26.8711 13.96 26.8542 13.0515L26.7732 8.7287C26.7664 8.39774 26.7597 8.06677 26.7529 7.7358C26.7462 7.40822 26.2395 7.40822 26.2429 7.7358Z" fill="url(#paint24_linear_18_3913)"/>
</g>
<defs>
<linearGradient id="paint0_linear_18_3913" x1="63.8552" y1="-5.7677" x2="65.5749" y2="20.4562" gradientUnits="userSpaceOnUse">
<stop stop-color="#92CE1D"/>
<stop offset="1" stop-color="#147AD8"/>
</linearGradient>
<linearGradient id="paint1_linear_18_3913" x1="49.6284" y1="18.4373" x2="49.741" y2="21.3955" gradientUnits="userSpaceOnUse">
<stop stop-color="#92CE1D"/>
<stop offset="1" stop-color="#147AD8"/>
</linearGradient>
<linearGradient id="paint2_linear_18_3913" x1="33.5316" y1="18.5785" x2="33.6447" y2="21.5446" gradientUnits="userSpaceOnUse">
<stop stop-color="#92CE1D"/>
<stop offset="1" stop-color="#147AD8"/>
</linearGradient>
<linearGradient id="paint3_linear_18_3913" x1="17.991" y1="18.8035" x2="18.0681" y2="21.2775" gradientUnits="userSpaceOnUse">
<stop stop-color="#92CE1D"/>
<stop offset="1" stop-color="#147AD8"/>
</linearGradient>
<linearGradient id="paint4_linear_18_3913" x1="45.9718" y1="14.3644" x2="50.9665" y2="15.3866" gradientUnits="userSpaceOnUse">
<stop stop-color="#92CE1D"/>
<stop offset="1" stop-color="#147AD8"/>
</linearGradient>
<linearGradient id="paint5_linear_18_3913" x1="39.5102" y1="14.6946" x2="44.3595" y2="15.6701" gradientUnits="userSpaceOnUse">
<stop stop-color="#92CE1D"/>
<stop offset="1" stop-color="#147AD8"/>
</linearGradient>
<linearGradient id="paint6_linear_18_3913" x1="44.314" y1="18.6503" x2="48.3635" y2="19.6167" gradientUnits="userSpaceOnUse">
<stop stop-color="#92CE1D"/>
<stop offset="1" stop-color="#147AD8"/>
</linearGradient>
<linearGradient id="paint7_linear_18_3913" x1="41.7707" y1="18.6503" x2="45.8202" y2="19.6167" gradientUnits="userSpaceOnUse">
<stop stop-color="#92CE1D"/>
<stop offset="1" stop-color="#147AD8"/>
</linearGradient>
<linearGradient id="paint8_linear_18_3913" x1="30.3859" y1="14.7462" x2="37.5244" y2="17.0099" gradientUnits="userSpaceOnUse">
<stop stop-color="#92CE1D"/>
<stop offset="1" stop-color="#147AD8"/>
</linearGradient>
<linearGradient id="paint9_linear_18_3913" x1="23.7939" y1="14.7666" x2="29.9696" y2="16.398" gradientUnits="userSpaceOnUse">
<stop stop-color="#92CE1D"/>
<stop offset="1" stop-color="#147AD8"/>
</linearGradient>
<linearGradient id="paint10_linear_18_3913" x1="28.0374" y1="19.3287" x2="32.0691" y2="20.3296" gradientUnits="userSpaceOnUse">
<stop stop-color="#92CE1D"/>
<stop offset="1" stop-color="#147AD8"/>
</linearGradient>
<linearGradient id="paint11_linear_18_3913" x1="25.7474" y1="19.3287" x2="29.7791" y2="20.3296" gradientUnits="userSpaceOnUse">
<stop stop-color="#92CE1D"/>
<stop offset="1" stop-color="#147AD8"/>
</linearGradient>
<linearGradient id="paint12_linear_18_3913" x1="14.6348" y1="14.5958" x2="20.6773" y2="16.1403" gradientUnits="userSpaceOnUse">
<stop stop-color="#92CE1D"/>
<stop offset="1" stop-color="#147AD8"/>
</linearGradient>
<linearGradient id="paint13_linear_18_3913" x1="8.30514" y1="14.5464" x2="15.1408" y2="16.5584" gradientUnits="userSpaceOnUse">
<stop stop-color="#92CE1D"/>
<stop offset="1" stop-color="#147AD8"/>
</linearGradient>
<linearGradient id="paint14_linear_18_3913" x1="12.8547" y1="18.9961" x2="18.6037" y2="20.983" gradientUnits="userSpaceOnUse">
<stop stop-color="#92CE1D"/>
<stop offset="1" stop-color="#147AD8"/>
</linearGradient>
<linearGradient id="paint15_linear_18_3913" x1="10.3088" y1="18.9899" x2="16.064" y2="20.9812" gradientUnits="userSpaceOnUse">
<stop stop-color="#92CE1D"/>
<stop offset="1" stop-color="#147AD8"/>
</linearGradient>
<linearGradient id="paint16_linear_18_3913" x1="49.6635" y1="37.9185" x2="49.8154" y2="41.3788" gradientUnits="userSpaceOnUse">
<stop stop-color="#92CE1D"/>
<stop offset="1" stop-color="#147AD8"/>
</linearGradient>
<linearGradient id="paint17_linear_18_3913" x1="34.1493" y1="37.7825" x2="34.3281" y2="41.5356" gradientUnits="userSpaceOnUse">
<stop stop-color="#92CE1D"/>
<stop offset="1" stop-color="#147AD8"/>
</linearGradient>
<linearGradient id="paint18_linear_18_3913" x1="18.3931" y1="37.8503" x2="18.5737" y2="41.629" gradientUnits="userSpaceOnUse">
<stop stop-color="#92CE1D"/>
<stop offset="1" stop-color="#147AD8"/>
</linearGradient>
<linearGradient id="paint19_linear_18_3913" x1="60.1679" y1="38.4971" x2="60.4095" y2="47.8638" gradientUnits="userSpaceOnUse">
<stop stop-color="#92CE1D"/>
<stop offset="1" stop-color="#147AD8"/>
</linearGradient>
<linearGradient id="paint20_linear_18_3913" x1="64.0615" y1="44.7168" x2="64.1795" y2="51.6322" gradientUnits="userSpaceOnUse">
<stop stop-color="#92CE1D"/>
<stop offset="1" stop-color="#147AD8"/>
</linearGradient>
<linearGradient id="paint21_linear_18_3913" x1="53.9851" y1="-0.429535" x2="55.2047" y2="18.4849" gradientUnits="userSpaceOnUse">
<stop stop-color="#92CE1D"/>
<stop offset="1" stop-color="#147AD8"/>
</linearGradient>
<linearGradient id="paint22_linear_18_3913" x1="31.8713" y1="6.03798" x2="33.5343" y2="15.2192" gradientUnits="userSpaceOnUse">
<stop stop-color="#92CE1D"/>
<stop offset="1" stop-color="#147AD8"/>
</linearGradient>
<linearGradient id="paint23_linear_18_3913" x1="28.0574" y1="4.57208" x2="32.5747" y2="6.73817" gradientUnits="userSpaceOnUse">
<stop stop-color="#92CE1D"/>
<stop offset="1" stop-color="#147AD8"/>
</linearGradient>
<linearGradient id="paint24_linear_18_3913" x1="27.0948" y1="4.67004" x2="31.6121" y2="6.83613" gradientUnits="userSpaceOnUse">
<stop stop-color="#92CE1D"/>
<stop offset="1" stop-color="#147AD8"/>
</linearGradient>
<clipPath id="clip0_18_3913">
<rect width="48.2759" height="50.8506" fill="white" transform="translate(1.93103 0.643677)"/>
</clipPath>
</defs>
</svg>
