<svg width="82" height="80" viewBox="0 0 82 80" fill="none" xmlns="http://www.w3.org/2000/svg">
<g clip-path="url(#clip0_18_2842)">
<path d="M55.3471 6.59336C51.3484 6.59336 50.2445 6.19922 46.2458 6.19922H33.844C30.1325 6.19922 25.8521 6.59336 22.1406 6.59336H11.8396C10.1219 6.59336 8.39282 6.53706 6.67505 6.59336C6.64689 6.59336 6.62436 6.59336 6.5962 6.59336C6.41034 6.59336 6.28644 6.71724 6.22449 6.88053C6.06116 7.29719 5.98794 7.77016 5.92036 8.21498C5.67818 9.72962 5.61059 11.2668 5.60496 12.7927C5.59933 14.1553 5.48669 15.5179 5.36842 16.8749C4.96291 21.7003 4.4335 26.5145 3.93225 31.3287C3.38594 36.5652 2.82837 41.8017 2.36654 47.0494C2.00046 51.233 1.54426 57.0382 1.27955 61.2274C0.936 66.5708 0.828991 70.3039 0.41222 75.6418C0.344636 76.4807 0.282683 77.3197 0.215099 78.1643C0.181307 78.5753 0.124986 78.9976 0.119354 79.4087C0.119354 79.876 0.524861 79.9098 0.885312 79.938C1.52173 79.9886 2.16378 79.9886 2.80584 79.9943C7.64939 80.0506 12.4929 79.9436 17.3365 79.8929C20.5524 79.8591 23.7683 79.8704 26.9842 79.8704H51.9904C52.2101 79.8704 52.8127 79.6564 52.8296 79.4481C52.9929 77.1958 53.0662 76.2724 53.2182 74.0258C53.5167 69.5044 53.7645 65.3771 53.9954 60.8501C54.125 58.2825 53.8941 54.0258 53.9786 51.4526C53.9954 50.9515 53.2182 50.9571 53.2013 51.4526C53.0436 56.0753 52.8184 60.6925 52.5424 65.3096C52.3058 69.251 52.0468 73.1868 51.7708 77.1226C51.7257 77.7814 51.6807 78.4402 51.63 79.0934H30.4085C27.0405 79.0934 23.6725 79.0877 20.3046 79.0934C15.6075 79.1046 10.9103 79.206 6.21322 79.2229C4.47855 79.2285 2.73262 79.2792 1.00358 79.1666C0.975424 79.1666 0.952896 79.1666 0.924736 79.1609C0.958528 78.7274 0.99232 78.2938 1.02611 77.8659C1.40346 73.0235 1.78081 68.1812 2.11873 63.3332C2.30459 60.6699 2.47918 58.001 2.61998 55.3321C2.71572 53.519 2.78331 51.706 2.91848 49.8929C3.29019 44.9943 3.88719 40.5404 4.38844 35.653C4.91785 30.5066 5.40221 24.9323 5.88656 19.7803C6.04989 18.0292 6.21885 16.278 6.32586 14.5213C6.4554 12.4323 6.34276 10.3265 6.70321 8.2544C6.7539 7.96724 6.79895 7.66318 6.88343 7.37602H54.936C54.8459 9.03706 54.7501 10.6981 54.66 12.3648C54.5587 14.2229 54.4347 16.0866 54.3503 17.9447C54.2771 19.5157 54.2433 21.0922 54.1869 22.6688C54.17 23.1699 54.9473 23.1643 54.9642 22.6688C55.0374 20.6024 55.4316 18.3445 55.5443 16.278C55.6794 13.8062 55.7921 11.7735 55.9329 9.3017C55.9723 8.60913 55.6963 7.67444 55.7357 6.98188C55.747 6.77354 55.5499 6.59336 55.3471 6.59336ZM0.721982 79.1384C0.637502 79.1271 0.778303 79.1159 0.721982 79.1384V79.1384ZM0.896576 79.4706C0.896576 79.4706 0.896576 79.4481 0.896576 79.4425C0.913472 79.403 0.902208 79.3411 0.90784 79.2961C0.941632 79.3355 0.952896 79.3918 0.896576 79.4706Z" fill="#1E1C1C"/>
<path d="M55.3471 6.59336C51.3484 6.59336 50.2445 6.19922 46.2458 6.19922H33.844C30.1325 6.19922 25.8521 6.59336 22.1406 6.59336H11.8396C10.1219 6.59336 8.39282 6.53706 6.67505 6.59336C6.64689 6.59336 6.62436 6.59336 6.5962 6.59336C6.41034 6.59336 6.28644 6.71724 6.22449 6.88053C6.06116 7.29719 5.98794 7.77016 5.92036 8.21498C5.67818 9.72962 5.61059 11.2668 5.60496 12.7927C5.59933 14.1553 5.48669 15.5179 5.36842 16.8749C4.96291 21.7003 4.4335 26.5145 3.93225 31.3287C3.38594 36.5652 2.82837 41.8017 2.36654 47.0494C2.00046 51.233 1.54426 57.0382 1.27955 61.2274C0.936 66.5708 0.828991 70.3039 0.41222 75.6418C0.344636 76.4807 0.282683 77.3197 0.215099 78.1643C0.181307 78.5753 0.124986 78.9976 0.119354 79.4087C0.119354 79.876 0.524861 79.9098 0.885312 79.938C1.52173 79.9886 2.16378 79.9886 2.80584 79.9943C7.64939 80.0506 12.4929 79.9436 17.3365 79.8929C20.5524 79.8591 23.7683 79.8704 26.9842 79.8704H51.9904C52.2101 79.8704 52.8127 79.6564 52.8296 79.4481C52.9929 77.1958 53.0662 76.2724 53.2182 74.0258C53.5167 69.5044 53.7645 65.3771 53.9954 60.8501C54.125 58.2825 53.8941 54.0258 53.9786 51.4526C53.9954 50.9515 53.2182 50.9571 53.2013 51.4526C53.0436 56.0753 52.8184 60.6925 52.5424 65.3096C52.3058 69.251 52.0468 73.1868 51.7708 77.1226C51.7257 77.7814 51.6807 78.4402 51.63 79.0934H30.4085C27.0405 79.0934 23.6725 79.0877 20.3046 79.0934C15.6075 79.1046 10.9103 79.206 6.21322 79.2229C4.47855 79.2285 2.73262 79.2792 1.00358 79.1666C0.975424 79.1666 0.952896 79.1666 0.924736 79.1609C0.958528 78.7274 0.99232 78.2938 1.02611 77.8659C1.40346 73.0235 1.78081 68.1812 2.11873 63.3332C2.30459 60.6699 2.47918 58.001 2.61998 55.3321C2.71572 53.519 2.78331 51.706 2.91848 49.8929C3.29019 44.9943 3.88719 40.5404 4.38844 35.653C4.91785 30.5066 5.40221 24.9323 5.88656 19.7803C6.04989 18.0292 6.21885 16.278 6.32586 14.5213C6.4554 12.4323 6.34276 10.3265 6.70321 8.2544C6.7539 7.96724 6.79895 7.66318 6.88343 7.37602H54.936C54.8459 9.03706 54.7501 10.6981 54.66 12.3648C54.5587 14.2229 54.4347 16.0866 54.3503 17.9447C54.2771 19.5157 54.2433 21.0922 54.1869 22.6688C54.17 23.1699 54.9473 23.1643 54.9642 22.6688C55.0374 20.6024 55.4316 18.3445 55.5443 16.278C55.6794 13.8062 55.7921 11.7735 55.9329 9.3017C55.9723 8.60913 55.6963 7.67444 55.7357 6.98188C55.747 6.77354 55.5499 6.59336 55.3471 6.59336ZM0.721982 79.1384C0.637502 79.1271 0.778303 79.1159 0.721982 79.1384V79.1384ZM0.896576 79.4706C0.896576 79.4706 0.896576 79.4481 0.896576 79.4425C0.913472 79.403 0.902208 79.3411 0.90784 79.2961C0.941632 79.3355 0.952896 79.3918 0.896576 79.4706Z" fill="url(#paint0_linear_18_2842)"/>
<path d="M62.911 10.4617L47.5073 34.7297C46.257 36.7793 45.0123 38.8344 43.7902 40.8953L41.971 43.9977L41.0812 45.5574C40.7939 46.0754 40.4955 46.6103 40.2589 47.1171C40.2364 47.1621 40.2082 47.2691 40.2138 47.1959C40.2138 47.1734 40.2138 47.2072 40.2138 47.2297V47.2973L40.2026 47.4155L40.1632 47.8716L40.0843 48.7725L39.9154 50.5687L39.5887 54.1554C39.4873 55.3491 39.3859 56.5428 39.3127 57.7365L39.2677 58.6261C39.2564 58.9133 39.2451 59.2286 39.2677 59.4707C39.2677 59.482 39.2733 59.527 39.2677 59.5158C39.2564 59.4707 39.2282 59.42 39.1945 59.3919C39.1945 59.3919 39.217 59.4088 39.2451 59.4257C39.2733 59.4426 39.2902 59.4538 39.324 59.4707C39.4423 59.5326 39.5662 59.5946 39.7013 59.6565C39.966 59.7748 40.2364 59.8874 40.5123 59.9944C40.7883 60.1013 41.0643 60.2027 41.3403 60.2984C41.4754 60.3435 41.6162 60.3941 41.7514 60.4279C41.819 60.4504 41.8809 60.4617 41.9373 60.4786C41.9485 60.4786 41.9373 60.4786 41.9429 60.4786C41.9429 60.4786 41.9091 60.4786 41.8922 60.4786C41.7627 60.5124 41.8415 60.4899 41.8584 60.4786C42.3146 60.1858 42.8215 59.8142 43.2946 59.4651C44.2577 58.7556 45.2151 58.0293 46.1669 57.3029C48.0649 55.8389 49.9629 54.3637 51.7877 52.8322C52.013 52.6408 52.2383 52.4437 52.4523 52.2466C52.5593 52.1509 52.6663 52.0495 52.7564 51.9538L52.824 51.8862L52.8634 51.8356C52.8972 51.7849 52.9366 51.7173 52.976 51.661L53.8828 50.1239L55.6907 47.0101L59.0305 40.6869C61.4354 36.5259 64.0768 32.4437 66.4986 28.2883L73.8991 15.9178L74.5637 16.3176L67.1688 29.0597L60.0105 41.1824L56.406 47.4212L54.5924 50.5349C54.2883 51.0585 53.9898 51.5653 53.6688 52.0946C53.6237 52.1621 53.5899 52.2241 53.5393 52.2973L53.4379 52.4212L53.3478 52.5169C53.2295 52.6407 53.1169 52.7421 53.0042 52.8491C52.7733 53.0574 52.548 53.2545 52.3171 53.4516C50.4642 55.0056 48.5662 56.4752 46.6569 57.9448C45.6995 58.6768 44.742 59.4031 43.7733 60.1182C43.2777 60.4786 42.8215 60.8277 42.2639 61.1768C42.2132 61.1993 42.2301 61.2218 42.033 61.2781C41.9373 61.3007 41.9091 61.2894 41.8753 61.2894C41.8415 61.2894 41.7964 61.2781 41.7739 61.2725C41.6838 61.25 41.5993 61.2331 41.5205 61.2106C41.3628 61.1655 41.222 61.1148 41.0756 61.0698C40.7827 60.9685 40.5011 60.8615 40.2138 60.7545C39.9266 60.6419 39.645 60.5236 39.3634 60.3998C39.2226 60.3378 39.0818 60.2646 38.9297 60.1858C38.896 60.1689 38.8509 60.1407 38.8115 60.1182C38.7777 60.0957 38.7326 60.0732 38.6763 60.0225C38.6481 60 38.6312 59.9887 38.5975 59.9493C38.5468 59.8874 38.5017 59.8029 38.4792 59.7241C38.4623 59.6396 38.4623 59.6058 38.451 59.5495C38.4285 59.1948 38.4454 58.9076 38.451 58.5923L38.5017 57.6858C38.5806 56.4808 38.6819 55.2815 38.7833 54.0822L39.11 50.4899L39.2789 48.6993L39.3578 47.804L39.3916 47.3592V47.2522L39.4028 47.2072C39.4028 47.1959 39.4028 47.1903 39.4085 47.134C39.4479 46.9144 39.4817 46.8862 39.5155 46.7905C39.7858 46.2049 40.0787 45.6926 40.3715 45.1633L41.267 43.5923L43.0975 40.4842C44.3252 38.4178 45.5699 36.3626 46.8259 34.313L62.0211 9.82544L62.9053 10.4617H62.911Z" fill="#1E1C1C"/>
<path d="M62.911 10.4617L47.5073 34.7297C46.257 36.7793 45.0123 38.8344 43.7902 40.8953L41.971 43.9977L41.0812 45.5574C40.7939 46.0754 40.4955 46.6103 40.2589 47.1171C40.2364 47.1621 40.2082 47.2691 40.2138 47.1959C40.2138 47.1734 40.2138 47.2072 40.2138 47.2297V47.2973L40.2026 47.4155L40.1632 47.8716L40.0843 48.7725L39.9154 50.5687L39.5887 54.1554C39.4873 55.3491 39.3859 56.5428 39.3127 57.7365L39.2677 58.6261C39.2564 58.9133 39.2451 59.2286 39.2677 59.4707C39.2677 59.482 39.2733 59.527 39.2677 59.5158C39.2564 59.4707 39.2282 59.42 39.1945 59.3919C39.1945 59.3919 39.217 59.4088 39.2451 59.4257C39.2733 59.4426 39.2902 59.4538 39.324 59.4707C39.4423 59.5326 39.5662 59.5946 39.7013 59.6565C39.966 59.7748 40.2364 59.8874 40.5123 59.9944C40.7883 60.1013 41.0643 60.2027 41.3403 60.2984C41.4754 60.3435 41.6162 60.3941 41.7514 60.4279C41.819 60.4504 41.8809 60.4617 41.9373 60.4786C41.9485 60.4786 41.9373 60.4786 41.9429 60.4786C41.9429 60.4786 41.9091 60.4786 41.8922 60.4786C41.7627 60.5124 41.8415 60.4899 41.8584 60.4786C42.3146 60.1858 42.8215 59.8142 43.2946 59.4651C44.2577 58.7556 45.2151 58.0293 46.1669 57.3029C48.0649 55.8389 49.9629 54.3637 51.7877 52.8322C52.013 52.6408 52.2383 52.4437 52.4523 52.2466C52.5593 52.1509 52.6663 52.0495 52.7564 51.9538L52.824 51.8862L52.8634 51.8356C52.8972 51.7849 52.9366 51.7173 52.976 51.661L53.8828 50.1239L55.6907 47.0101L59.0305 40.6869C61.4354 36.5259 64.0768 32.4437 66.4986 28.2883L73.8991 15.9178L74.5637 16.3176L67.1688 29.0597L60.0105 41.1824L56.406 47.4212L54.5924 50.5349C54.2883 51.0585 53.9898 51.5653 53.6688 52.0946C53.6237 52.1621 53.5899 52.2241 53.5393 52.2973L53.4379 52.4212L53.3478 52.5169C53.2295 52.6407 53.1169 52.7421 53.0042 52.8491C52.7733 53.0574 52.548 53.2545 52.3171 53.4516C50.4642 55.0056 48.5662 56.4752 46.6569 57.9448C45.6995 58.6768 44.742 59.4031 43.7733 60.1182C43.2777 60.4786 42.8215 60.8277 42.2639 61.1768C42.2132 61.1993 42.2301 61.2218 42.033 61.2781C41.9373 61.3007 41.9091 61.2894 41.8753 61.2894C41.8415 61.2894 41.7964 61.2781 41.7739 61.2725C41.6838 61.25 41.5993 61.2331 41.5205 61.2106C41.3628 61.1655 41.222 61.1148 41.0756 61.0698C40.7827 60.9685 40.5011 60.8615 40.2138 60.7545C39.9266 60.6419 39.645 60.5236 39.3634 60.3998C39.2226 60.3378 39.0818 60.2646 38.9297 60.1858C38.896 60.1689 38.8509 60.1407 38.8115 60.1182C38.7777 60.0957 38.7326 60.0732 38.6763 60.0225C38.6481 60 38.6312 59.9887 38.5975 59.9493C38.5468 59.8874 38.5017 59.8029 38.4792 59.7241C38.4623 59.6396 38.4623 59.6058 38.451 59.5495C38.4285 59.1948 38.4454 58.9076 38.451 58.5923L38.5017 57.6858C38.5806 56.4808 38.6819 55.2815 38.7833 54.0822L39.11 50.4899L39.2789 48.6993L39.3578 47.804L39.3916 47.3592V47.2522L39.4028 47.2072C39.4028 47.1959 39.4028 47.1903 39.4085 47.134C39.4479 46.9144 39.4817 46.8862 39.5155 46.7905C39.7858 46.2049 40.0787 45.6926 40.3715 45.1633L41.267 43.5923L43.0975 40.4842C44.3252 38.4178 45.5699 36.3626 46.8259 34.313L62.0211 9.82544L62.9053 10.4617H62.911Z" fill="url(#paint1_linear_18_2842)"/>
<path d="M75.1663 17.196C75.0086 17.196 74.8396 17.1566 74.6707 17.0722C74.6031 17.0384 74.3665 16.9258 74.0005 16.7512C60.7426 10.4674 60.7426 9.83117 60.7426 9.4145C60.7426 8.32779 62.5224 5.91788 62.9898 5.18027C64.0656 3.48545 66.5211 5.48432 69.4948 6.97081C72.5192 8.47982 76.4279 10.8165 76.4729 10.8447L77.1882 11.2219C77.3008 11.2951 78.2752 11.9708 78.2752 12.7647C78.2752 13.5586 77.4698 15.0057 76.9911 15.7208C76.7038 16.1544 76.0111 17.1904 75.1607 17.1904L75.1663 17.196ZM61.5255 9.34693C61.7339 9.60031 62.6294 10.1127 67.1744 12.3987C68.9373 13.2884 70.7958 14.4821 73.7639 15.8841C74.1356 16.0586 74.9466 16.3458 75.0199 16.3796C75.324 16.5316 75.7689 16.1656 76.3547 15.2929C77.0136 14.3075 77.5092 13.2208 77.5092 12.7647C77.5092 12.4832 77.0361 12.0496 76.7771 11.8751C76.5574 11.74 73.2176 9.60031 70.2833 8.13635C67.6701 6.83004 65.558 5.63072 65.2652 5.5181C64.7696 5.32666 64.0824 5.03387 63.553 5.73207C63.0799 6.35144 61.6212 8.51923 61.5368 9.34693H61.5255Z" fill="#1E1C1C"/>
<path d="M75.1663 17.196C75.0086 17.196 74.8396 17.1566 74.6707 17.0722C74.6031 17.0384 74.3665 16.9258 74.0005 16.7512C60.7426 10.4674 60.7426 9.83117 60.7426 9.4145C60.7426 8.32779 62.5224 5.91788 62.9898 5.18027C64.0656 3.48545 66.5211 5.48432 69.4948 6.97081C72.5192 8.47982 76.4279 10.8165 76.4729 10.8447L77.1882 11.2219C77.3008 11.2951 78.2752 11.9708 78.2752 12.7647C78.2752 13.5586 77.4698 15.0057 76.9911 15.7208C76.7038 16.1544 76.0111 17.1904 75.1607 17.1904L75.1663 17.196ZM61.5255 9.34693C61.7339 9.60031 62.6294 10.1127 67.1744 12.3987C68.9373 13.2884 70.7958 14.4821 73.7639 15.8841C74.1356 16.0586 74.9466 16.3458 75.0199 16.3796C75.324 16.5316 75.7689 16.1656 76.3547 15.2929C77.0136 14.3075 77.5092 13.2208 77.5092 12.7647C77.5092 12.4832 77.0361 12.0496 76.7771 11.8751C76.5574 11.74 73.2176 9.60031 70.2833 8.13635C67.6701 6.83004 65.558 5.63072 65.2652 5.5181C64.7696 5.32666 64.0824 5.03387 63.553 5.73207C63.0799 6.35144 61.6212 8.51923 61.5368 9.34693H61.5255Z" fill="url(#paint2_linear_18_2842)"/>
<path d="M75.3127 10.4617L74.8284 9.90429C74.8284 9.90429 75.3634 9.13852 76.09 7.74775C76.8334 6.3232 77.7852 4.2455 77.9147 3.98649C78.0724 3.67118 78.1625 3.35586 77.5318 2.93919C76.5968 2.31419 73.8033 0.737618 73.3584 0.686942C72.8741 0.686942 72.615 0.563069 72.2151 1.15992C71.9222 1.5991 70.762 3.22636 69.8891 4.64528C69.2639 5.66442 68.819 6.65541 68.8077 6.67793L68.1488 6.27253C68.267 6.08109 70.993 1.62163 71.5055 0.855861C72.1306 -0.0844539 72.4348 5.53112e-06 72.9867 5.53112e-06C73.3359 5.53112e-06 74.7439 0.630636 75.7013 1.15992C76.794 1.76239 77.4923 2.2241 77.6388 2.31983C78.4667 2.87163 79.0073 3.53041 78.6075 4.32996C78.354 4.84235 75.431 10.2365 75.3127 10.4561V10.4617Z" fill="#1E1C1C"/>
<path d="M75.3127 10.4617L74.8284 9.90429C74.8284 9.90429 75.3634 9.13852 76.09 7.74775C76.8334 6.3232 77.7852 4.2455 77.9147 3.98649C78.0724 3.67118 78.1625 3.35586 77.5318 2.93919C76.5968 2.31419 73.8033 0.737618 73.3584 0.686942C72.8741 0.686942 72.615 0.563069 72.2151 1.15992C71.9222 1.5991 70.762 3.22636 69.8891 4.64528C69.2639 5.66442 68.819 6.65541 68.8077 6.67793L68.1488 6.27253C68.267 6.08109 70.993 1.62163 71.5055 0.855861C72.1306 -0.0844539 72.4348 5.53112e-06 72.9867 5.53112e-06C73.3359 5.53112e-06 74.7439 0.630636 75.7013 1.15992C76.794 1.76239 77.4923 2.2241 77.6388 2.31983C78.4667 2.87163 79.0073 3.53041 78.6075 4.32996C78.354 4.84235 75.431 10.2365 75.3127 10.4561V10.4617Z" fill="url(#paint3_linear_18_2842)"/>
<path d="M65.8171 42.1677C65.2933 42.1677 64.7527 41.9763 64.364 41.6384C63.8515 41.188 63.6544 40.5348 63.8008 39.8029C64.0543 38.5303 64.9047 36.8299 65.8284 36.2893C66.2226 36.0641 66.5436 36.0923 66.7408 36.1598C67.0111 36.2499 67.1913 36.3963 67.2871 36.599C67.3547 36.7398 67.3659 36.8806 67.3547 37.0157C69.8778 33.4853 78.4948 18.1812 78.7314 17.2409C78.8722 16.6835 77.3853 15.9121 76.2533 15.5743L76.8615 15.1125C77.4304 15.2815 79.8578 15.929 79.4861 17.4324C79.289 18.2207 75.5324 24.5551 73.3753 28.2882C69.5906 34.8366 67.6701 38.1531 67.135 38.3952C67.0055 38.4515 66.8703 38.4515 66.752 38.3952C66.1607 38.0968 66.3972 37.4887 66.493 37.2297C66.5267 37.1396 66.5831 36.9932 66.5831 36.9312C66.5774 36.9312 66.5493 36.9143 66.493 36.8975C66.4197 36.8749 66.3296 36.8975 66.217 36.9594C65.5918 37.3254 64.8033 38.7499 64.5612 39.9549C64.4711 40.4166 64.5724 40.7882 64.8766 41.0585C65.2145 41.3569 65.7777 41.4752 66.1888 41.34C67.0505 40.8333 73.6794 30.3716 76.3209 25.0844C77.0023 23.7161 77.6613 22.4943 78.2414 21.4189C79.5762 18.947 80.6294 16.9932 80.2802 16.295C79.8972 15.5348 77.9992 14.8986 76.8953 14.6734L77.2445 13.9526C77.5768 14.0202 80.2971 14.6002 80.9729 15.9515C81.5023 17.0101 80.5336 18.8119 78.9229 21.7905C78.3428 22.8659 76.7545 25.7713 76.0787 27.1283C73.9723 31.34 67.6025 41.6835 66.431 42.0776C66.2339 42.1452 66.0255 42.1734 65.8115 42.1734L65.8171 42.1677Z" fill="#1E1C1C"/>
<path d="M65.8171 42.1677C65.2933 42.1677 64.7527 41.9763 64.364 41.6384C63.8515 41.188 63.6544 40.5348 63.8008 39.8029C64.0543 38.5303 64.9047 36.8299 65.8284 36.2893C66.2226 36.0641 66.5436 36.0923 66.7408 36.1598C67.0111 36.2499 67.1913 36.3963 67.2871 36.599C67.3547 36.7398 67.3659 36.8806 67.3547 37.0157C69.8778 33.4853 78.4948 18.1812 78.7314 17.2409C78.8722 16.6835 77.3853 15.9121 76.2533 15.5743L76.8615 15.1125C77.4304 15.2815 79.8578 15.929 79.4861 17.4324C79.289 18.2207 75.5324 24.5551 73.3753 28.2882C69.5906 34.8366 67.6701 38.1531 67.135 38.3952C67.0055 38.4515 66.8703 38.4515 66.752 38.3952C66.1607 38.0968 66.3972 37.4887 66.493 37.2297C66.5267 37.1396 66.5831 36.9932 66.5831 36.9312C66.5774 36.9312 66.5493 36.9143 66.493 36.8975C66.4197 36.8749 66.3296 36.8975 66.217 36.9594C65.5918 37.3254 64.8033 38.7499 64.5612 39.9549C64.4711 40.4166 64.5724 40.7882 64.8766 41.0585C65.2145 41.3569 65.7777 41.4752 66.1888 41.34C67.0505 40.8333 73.6794 30.3716 76.3209 25.0844C77.0023 23.7161 77.6613 22.4943 78.2414 21.4189C79.5762 18.947 80.6294 16.9932 80.2802 16.295C79.8972 15.5348 77.9992 14.8986 76.8953 14.6734L77.2445 13.9526C77.5768 14.0202 80.2971 14.6002 80.9729 15.9515C81.5023 17.0101 80.5336 18.8119 78.9229 21.7905C78.3428 22.8659 76.7545 25.7713 76.0787 27.1283C73.9723 31.34 67.6025 41.6835 66.431 42.0776C66.2339 42.1452 66.0255 42.1734 65.8115 42.1734L65.8171 42.1677Z" fill="url(#paint4_linear_18_2842)"/>
<path d="M48.0368 27.6126C45.9135 27.7421 43.7846 27.849 41.6556 27.9448C38.2764 28.0968 34.1256 28.2995 30.7408 28.2882C27.9867 28.277 25.9929 28.1756 23.2332 28.1362C20.1807 28.0968 17.1225 28.0518 14.0699 28.0011C12.4197 27.9729 10.7639 27.9054 9.10809 27.9166C9.08556 27.9166 9.06303 27.9166 9.03487 27.9166C8.53362 27.9054 8.53362 28.6824 9.03487 28.6936C10.4035 28.7162 11.772 28.7387 13.1463 28.7612C16.12 28.8119 19.0993 28.8569 22.073 28.8963C24.9567 28.9358 27.8346 28.9752 30.7182 28.9921C33.9285 29.009 37.1388 28.9132 40.3434 28.7781C42.8665 28.6711 45.3897 28.5416 47.9072 28.3952C47.9466 28.3952 47.9861 28.3952 48.0255 28.3896C48.5211 28.3614 48.5267 27.5844 48.0255 27.6126H48.0368Z" fill="#1E1C1C"/>
<path d="M48.0368 27.6126C45.9135 27.7421 43.7846 27.849 41.6556 27.9448C38.2764 28.0968 34.1256 28.2995 30.7408 28.2882C27.9867 28.277 25.9929 28.1756 23.2332 28.1362C20.1807 28.0968 17.1225 28.0518 14.0699 28.0011C12.4197 27.9729 10.7639 27.9054 9.10809 27.9166C9.08556 27.9166 9.06303 27.9166 9.03487 27.9166C8.53362 27.9054 8.53362 28.6824 9.03487 28.6936C10.4035 28.7162 11.772 28.7387 13.1463 28.7612C16.12 28.8119 19.0993 28.8569 22.073 28.8963C24.9567 28.9358 27.8346 28.9752 30.7182 28.9921C33.9285 29.009 37.1388 28.9132 40.3434 28.7781C42.8665 28.6711 45.3897 28.5416 47.9072 28.3952C47.9466 28.3952 47.9861 28.3952 48.0255 28.3896C48.5211 28.3614 48.5267 27.5844 48.0255 27.6126H48.0368Z" fill="url(#paint5_linear_18_2842)"/>
<path d="M48.645 19.6903H41.374C38.2088 19.6903 35.038 19.7015 31.8728 19.679C28.9836 19.6565 26.0887 19.6227 23.1995 19.5833C20.2483 19.5439 17.3027 19.5045 14.3515 19.4594C12.8083 19.4369 11.2595 19.3693 9.71635 19.3862C9.69382 19.3862 9.67129 19.3862 9.64877 19.3862C9.14751 19.3806 9.14751 20.152 9.64877 20.1633C10.9272 20.1858 12.2057 20.2027 13.4786 20.2252C16.334 20.2702 19.1951 20.3096 22.0505 20.3491C25.0242 20.3885 27.7614 20.518 30.7408 20.5405C33.7257 20.5687 36.9473 20.4673 39.9379 20.4673H48.645C49.1463 20.4673 49.1463 19.6903 48.645 19.6903Z" fill="#1E1C1C"/>
<path d="M48.645 19.6903H41.374C38.2088 19.6903 35.038 19.7015 31.8728 19.679C28.9836 19.6565 26.0887 19.6227 23.1995 19.5833C20.2483 19.5439 17.3027 19.5045 14.3515 19.4594C12.8083 19.4369 11.2595 19.3693 9.71635 19.3862C9.69382 19.3862 9.67129 19.3862 9.64877 19.3862C9.14751 19.3806 9.14751 20.152 9.64877 20.1633C10.9272 20.1858 12.2057 20.2027 13.4786 20.2252C16.334 20.2702 19.1951 20.3096 22.0505 20.3491C25.0242 20.3885 27.7614 20.518 30.7408 20.5405C33.7257 20.5687 36.9473 20.4673 39.9379 20.4673H48.645C49.1463 20.4673 49.1463 19.6903 48.645 19.6903Z" fill="url(#paint6_linear_18_2842)"/>
<path d="M45.5192 36.8412C43.2045 36.6442 40.8841 36.4809 38.5637 36.3514C36.722 36.25 34.8803 36.1656 33.0386 36.143C31.9798 36.1318 30.9154 36.1318 29.8565 36.1149C27.1306 36.0698 24.4104 35.9967 21.6845 35.9235C18.8741 35.8446 16.0637 35.7602 13.2533 35.6757C11.7721 35.6307 10.2796 35.5349 8.79835 35.5349C8.77582 35.5349 8.75329 35.5349 8.73076 35.5349C8.22951 35.518 8.23514 36.2951 8.73076 36.312C9.95855 36.3514 11.1863 36.3908 12.4141 36.4302C15.1457 36.5147 17.1507 36.7399 19.8878 36.8187C22.6982 36.8976 26.2351 36.83 29.0399 36.8807C31.7602 36.9313 33.8328 37.0721 36.553 37.2016C39.2789 37.3367 42.6525 37.3762 45.3728 37.607C45.4235 37.607 45.4686 37.6126 45.5192 37.6183C46.0149 37.6633 46.0149 36.8863 45.5192 36.8412Z" fill="#1E1C1C"/>
<path d="M45.5192 36.8412C43.2045 36.6442 40.8841 36.4809 38.5637 36.3514C36.722 36.25 34.8803 36.1656 33.0386 36.143C31.9798 36.1318 30.9154 36.1318 29.8565 36.1149C27.1306 36.0698 24.4104 35.9967 21.6845 35.9235C18.8741 35.8446 16.0637 35.7602 13.2533 35.6757C11.7721 35.6307 10.2796 35.5349 8.79835 35.5349C8.77582 35.5349 8.75329 35.5349 8.73076 35.5349C8.22951 35.518 8.23514 36.2951 8.73076 36.312C9.95855 36.3514 11.1863 36.3908 12.4141 36.4302C15.1457 36.5147 17.1507 36.7399 19.8878 36.8187C22.6982 36.8976 26.2351 36.83 29.0399 36.8807C31.7602 36.9313 33.8328 37.0721 36.553 37.2016C39.2789 37.3367 42.6525 37.3762 45.3728 37.607C45.4235 37.607 45.4686 37.6126 45.5192 37.6183C46.0149 37.6633 46.0149 36.8863 45.5192 36.8412Z" fill="url(#paint7_linear_18_2842)"/>
<path d="M40.4448 45.4841C39.0424 45.3208 37.6288 45.2026 36.2207 45.09C33.0443 44.8422 30.048 44.5776 26.8603 44.5607C24.2132 44.5438 21.3747 44.6114 18.7276 44.5269C16.3227 44.4481 13.9179 44.3524 11.5186 44.2398C10.702 44.2004 9.8797 44.1609 9.06305 44.1215C8.66881 44.099 8.26893 44.0652 7.87469 44.0596C7.85779 44.0596 7.8409 44.0596 7.81837 44.0596C7.32275 44.0314 7.32275 44.8085 7.81837 44.8366C8.80961 44.8929 9.80648 44.938 10.7977 44.9886C13.1069 45.1013 15.416 45.197 17.7251 45.2758C20.3384 45.3659 23.8528 45.3321 26.4717 45.3434C29.6876 45.3546 32.0023 45.5686 35.2126 45.7994C36.3672 45.8839 37.5217 45.974 38.6707 46.0866C39.2339 46.1373 39.7971 46.2161 40.3603 46.2612C40.3885 46.2612 40.411 46.2668 40.4391 46.2724C40.6475 46.2949 40.8278 46.0753 40.8278 45.8839C40.8278 45.6531 40.6475 45.5179 40.4391 45.4954L40.4448 45.4841Z" fill="#1E1C1C"/>
<path d="M40.4448 45.4841C39.0424 45.3208 37.6288 45.2026 36.2207 45.09C33.0443 44.8422 30.048 44.5776 26.8603 44.5607C24.2132 44.5438 21.3747 44.6114 18.7276 44.5269C16.3227 44.4481 13.9179 44.3524 11.5186 44.2398C10.702 44.2004 9.8797 44.1609 9.06305 44.1215C8.66881 44.099 8.26893 44.0652 7.87469 44.0596C7.85779 44.0596 7.8409 44.0596 7.81837 44.0596C7.32275 44.0314 7.32275 44.8085 7.81837 44.8366C8.80961 44.8929 9.80648 44.938 10.7977 44.9886C13.1069 45.1013 15.416 45.197 17.7251 45.2758C20.3384 45.3659 23.8528 45.3321 26.4717 45.3434C29.6876 45.3546 32.0023 45.5686 35.2126 45.7994C36.3672 45.8839 37.5217 45.974 38.6707 46.0866C39.2339 46.1373 39.7971 46.2161 40.3603 46.2612C40.3885 46.2612 40.411 46.2668 40.4391 46.2724C40.6475 46.2949 40.8278 46.0753 40.8278 45.8839C40.8278 45.6531 40.6475 45.5179 40.4391 45.4954L40.4448 45.4841Z" fill="url(#paint8_linear_18_2842)"/>
<path d="M39.1719 53.8794C38.1187 53.8287 37.0712 53.778 36.018 53.7274C33.692 53.6204 31.3716 53.519 29.0455 53.4289C26.7308 53.3389 24.4104 53.2544 22.0956 53.2093C19.4992 53.1643 16.9029 53.1587 14.3065 53.0911C12.2789 53.0348 10.2514 52.9729 8.22951 52.894C8.19572 52.894 8.16192 52.894 8.12813 52.894C7.62688 52.8715 7.63251 53.6485 8.12813 53.6711C9.82901 53.7386 11.5299 53.7949 13.2251 53.8456C15.9567 53.9244 18.6882 53.9526 21.4197 53.9807C23.65 54.0089 25.8803 54.0877 28.1106 54.1722C30.5042 54.2623 32.8978 54.3636 35.2915 54.4762C36.5643 54.5325 37.8428 54.6452 39.1212 54.6564C39.1381 54.6564 39.1607 54.6564 39.1776 54.6564C39.6788 54.6789 39.6732 53.9075 39.1776 53.8794H39.1719Z" fill="#1E1C1C"/>
<path d="M39.1719 53.8794C38.1187 53.8287 37.0712 53.778 36.018 53.7274C33.692 53.6204 31.3716 53.519 29.0455 53.4289C26.7308 53.3389 24.4104 53.2544 22.0956 53.2093C19.4992 53.1643 16.9029 53.1587 14.3065 53.0911C12.2789 53.0348 10.2514 52.9729 8.22951 52.894C8.19572 52.894 8.16192 52.894 8.12813 52.894C7.62688 52.8715 7.63251 53.6485 8.12813 53.6711C9.82901 53.7386 11.5299 53.7949 13.2251 53.8456C15.9567 53.9244 18.6882 53.9526 21.4197 53.9807C23.65 54.0089 25.8803 54.0877 28.1106 54.1722C30.5042 54.2623 32.8978 54.3636 35.2915 54.4762C36.5643 54.5325 37.8428 54.6452 39.1212 54.6564C39.1381 54.6564 39.1607 54.6564 39.1776 54.6564C39.6788 54.6789 39.6732 53.9075 39.1776 53.8794H39.1719Z" fill="url(#paint9_linear_18_2842)"/>
<path d="M13.2139 75.732C12.6507 75.732 11.6087 75.6588 10.9723 75.5574C7.60436 75.0394 6.03865 72.7421 5.60498 68.8513C5.4135 67.1453 6.07808 65.1464 7.33402 63.643C8.21825 62.5845 9.80649 61.2894 12.3353 61.1149C12.6788 61.0529 15.8722 60.8615 18.3334 63.9358C21.0987 67.3874 19.212 71.982 18.8403 72.9167C18.2545 74.3806 16.289 75.7376 13.2082 75.7376L13.2139 75.732ZM13.0731 61.8356C12.7183 61.8356 12.493 61.875 12.4648 61.8806H12.4141C10.1444 62.0383 8.72513 63.1982 7.93102 64.1441C6.8215 65.4673 6.20761 67.286 6.37657 68.7669C6.77082 72.3198 8.50548 74.3581 11.5355 74.8254C15.4836 75.4336 17.635 73.8457 18.125 72.6295C18.4686 71.768 20.0681 67.3029 17.5731 64.1836C15.9341 62.134 14.0305 61.8412 13.0731 61.8412V61.8356Z" fill="#1E1C1C"/>
<path d="M13.2139 75.732C12.6507 75.732 11.6087 75.6588 10.9723 75.5574C7.60436 75.0394 6.03865 72.7421 5.60498 68.8513C5.4135 67.1453 6.07808 65.1464 7.33402 63.643C8.21825 62.5845 9.80649 61.2894 12.3353 61.1149C12.6788 61.0529 15.8722 60.8615 18.3334 63.9358C21.0987 67.3874 19.212 71.982 18.8403 72.9167C18.2545 74.3806 16.289 75.7376 13.2082 75.7376L13.2139 75.732ZM13.0731 61.8356C12.7183 61.8356 12.493 61.875 12.4648 61.8806H12.4141C10.1444 62.0383 8.72513 63.1982 7.93102 64.1441C6.8215 65.4673 6.20761 67.286 6.37657 68.7669C6.77082 72.3198 8.50548 74.3581 11.5355 74.8254C15.4836 75.4336 17.635 73.8457 18.125 72.6295C18.4686 71.768 20.0681 67.3029 17.5731 64.1836C15.9341 62.134 14.0305 61.8412 13.0731 61.8412V61.8356Z" fill="url(#paint10_linear_18_2842)"/>
<path d="M12.9773 73.5587C11.6876 73.5587 10.4091 73.0801 9.42914 72.1961C8.20699 71.0981 7.58746 69.5159 7.73953 67.8661C7.90286 66.0699 8.84341 64.9607 9.60373 64.347C10.7301 63.4404 12.1382 63.0688 12.9604 63.1645C14.4754 63.3503 15.7596 63.7163 17.3027 66.4922C18.0687 67.8774 18.1588 69.4371 17.5393 70.7771C16.9029 72.1566 15.6075 73.1364 13.9967 73.4573C13.6588 73.5249 13.3209 73.5587 12.983 73.5587H12.9773ZM12.6845 63.9247C12.11 63.9247 11.0455 64.1837 10.0937 64.9494C9.45167 65.4675 8.65192 66.4078 8.51112 67.9337C8.38158 69.3413 8.77019 70.7546 9.81212 71.6837C10.8709 72.6353 12.4592 72.9675 13.839 72.6916C15.2076 72.4157 16.2946 71.5992 16.8296 70.4449C17.3422 69.3301 17.4323 67.8098 16.7902 66.6443C15.3146 63.9922 14.0418 64.0711 12.8647 63.9303C12.814 63.9247 12.752 63.919 12.6845 63.919V63.9247Z" fill="#1E1C1C"/>
<path d="M12.9773 73.5587C11.6876 73.5587 10.4091 73.0801 9.42914 72.1961C8.20699 71.0981 7.58746 69.5159 7.73953 67.8661C7.90286 66.0699 8.84341 64.9607 9.60373 64.347C10.7301 63.4404 12.1382 63.0688 12.9604 63.1645C14.4754 63.3503 15.7596 63.7163 17.3027 66.4922C18.0687 67.8774 18.1588 69.4371 17.5393 70.7771C16.9029 72.1566 15.6075 73.1364 13.9967 73.4573C13.6588 73.5249 13.3209 73.5587 12.983 73.5587H12.9773ZM12.6845 63.9247C12.11 63.9247 11.0455 64.1837 10.0937 64.9494C9.45167 65.4675 8.65192 66.4078 8.51112 67.9337C8.38158 69.3413 8.77019 70.7546 9.81212 71.6837C10.8709 72.6353 12.4592 72.9675 13.839 72.6916C15.2076 72.4157 16.2946 71.5992 16.8296 70.4449C17.3422 69.3301 17.4323 67.8098 16.7902 66.6443C15.3146 63.9922 14.0418 64.0711 12.8647 63.9303C12.814 63.9247 12.752 63.919 12.6845 63.919V63.9247Z" fill="url(#paint11_linear_18_2842)"/>
<path d="M38.558 64.6565C38.0512 65.4504 37.5161 66.2218 36.9642 66.982C36.0405 68.2545 35.0718 69.5608 33.8778 70.6081C33.8215 70.6588 33.7652 70.7038 33.7089 70.7545C33.6807 70.777 33.6525 70.7995 33.6244 70.822C33.6131 70.8277 33.5793 70.8558 33.5681 70.8671C33.4554 70.9459 33.3428 71.0247 33.2245 71.0923C33.1738 71.1205 33.1231 71.143 33.0781 71.1711C33.0668 71.1711 33.0612 71.1768 33.0555 71.1824C33.033 71.1937 33.0105 71.1993 32.9823 71.2106C32.9373 71.2218 32.8922 71.2331 32.8472 71.2443C32.8246 71.2443 32.8021 71.2443 32.7852 71.2443C32.7852 71.2443 32.7739 71.2443 32.7627 71.2443C32.757 71.2443 32.7458 71.2443 32.7458 71.2443C32.712 71.2274 32.7064 71.2274 32.712 71.2331C32.712 71.2331 32.6951 71.2218 32.6838 71.2162L32.6726 71.2049C32.6275 71.1036 32.6838 71.2556 32.6388 71.1599C32.6331 71.143 32.6219 71.1205 32.6106 71.1036C32.5993 71.0529 32.5824 71.0022 32.5712 70.9515C32.5656 70.929 32.5599 70.9009 32.5599 70.8783C32.5599 70.8727 32.5599 70.8671 32.5599 70.8615C32.5599 70.7995 32.5543 70.7376 32.5543 70.67C32.5543 70.5293 32.5656 70.3885 32.5824 70.2477C32.5824 70.2252 32.5824 70.2196 32.5824 70.2139C32.5824 70.2139 32.5824 70.2083 32.5824 70.1914C32.5824 70.152 32.5937 70.1182 32.5993 70.0788C32.6106 69.9943 32.6275 69.9155 32.6444 69.831C32.7176 69.4651 32.819 69.1047 32.926 68.75C33.1738 67.9448 33.4779 67.1565 33.8046 66.3795C34.0806 65.7207 34.396 65.0394 34.7057 64.3806C34.8803 64.0146 35.0887 63.6542 35.2464 63.2826C35.2577 63.2657 35.2633 63.2432 35.2746 63.2263C35.4942 62.7815 34.8353 62.393 34.6044 62.8378C33.9454 64.1554 33.8497 64.6284 33.0724 65.884C32.4079 66.9594 31.0449 68.8175 30.3071 69.8423C29.6763 70.7207 29.023 71.5934 28.2627 72.3705C27.9811 72.6576 27.6826 72.9392 27.3447 73.1588C27.0799 73.3277 26.8434 73.4459 26.5787 73.4234C26.6463 73.429 26.4942 73.4009 26.4717 73.3896C26.528 73.4121 26.3928 73.3446 26.3647 73.3277C26.3027 73.2826 26.1845 73.1306 26.1169 73.0124C26.0155 72.8322 25.9479 72.6407 25.8916 72.4493C25.8691 72.3761 25.8522 72.3029 25.8353 72.2353C25.8296 72.1959 25.8184 72.1621 25.8127 72.1227C25.8127 72.1171 25.8071 72.0777 25.8015 72.0608C25.717 71.3795 25.8127 70.6756 26.0042 69.9887C27.0462 68.7049 27.4798 68.8063 28.4204 67.4437C28.8709 66.7961 29.8903 64.7184 30.2733 64.0259C30.5042 63.6148 30.7971 63.1193 30.8084 62.6351C30.8196 62.1396 30.3747 61.8919 29.9467 62.1002C29.5749 62.2804 29.2708 62.6295 29.0061 62.9335C28.0205 64.0653 27.2095 65.366 26.5224 66.6948C26.0493 67.6126 25.5987 68.5923 25.3115 69.6058C24.7595 70.2815 24.1963 70.9572 23.6219 71.6103C22.9291 72.3986 22.2139 73.1869 21.3634 73.8119C20.789 74.2398 20.1863 74.6002 19.5217 74.7804C19.4204 74.8085 19.3134 74.831 19.212 74.8479C19.1895 74.8479 19.1669 74.8536 19.1444 74.8592C19.0993 74.8592 19.0487 74.8705 19.0036 74.8705C18.9304 74.8705 18.8572 74.8761 18.7783 74.8705C18.7502 74.8705 18.722 74.8705 18.6995 74.8705C18.6657 74.8648 18.6263 74.8592 18.5925 74.8479C18.1194 74.6903 17.911 75.4392 18.3841 75.5968C18.5812 75.6644 18.8177 75.6644 19.0261 75.6475C19.6175 75.6081 20.9129 75.0675 21.4423 74.7973C23.1938 73.9076 23.7796 72.6576 25.0243 71.1655C25.0243 71.1993 25.013 71.2331 25.013 71.2669C24.9623 72.0157 25.0862 72.8153 25.4861 73.4628C25.9197 74.1723 26.5224 74.741 27.2602 74.4031C28.1162 74.0146 28.9329 72.8265 29.5243 72.1171C30.3127 71.1768 31.0336 70.1689 31.732 69.1554C31.8953 68.9245 32.0474 68.6824 32.2051 68.4515C32.0023 69.0934 31.8278 69.7522 31.7771 70.4279C31.7433 70.9515 31.8109 71.5991 32.3121 71.8919C32.7965 72.179 33.3822 71.9313 33.8046 71.6497C34.4241 71.2387 35.2915 70.6869 35.7871 70.1407C36.3841 69.4763 36.8008 68.9133 37.3359 68.2038C38.0568 67.2466 38.5862 66.1374 39.2057 65.107C39.217 65.0901 39.2283 65.0732 39.2395 65.0563C39.5099 64.634 38.8396 64.2455 38.5693 64.6678L38.558 64.6565ZM30.0311 62.6013C30.0311 62.6013 30.0311 62.6182 30.0311 62.6126C30.0311 62.6126 30.0311 62.607 30.0311 62.6013ZM30.2846 62.7702C30.324 62.7477 30.3296 62.759 30.2846 62.7702V62.7702ZM30.0311 62.607C30.0311 62.607 30.0311 62.6013 30.0311 62.5957V62.607ZM30.0255 62.5788V62.5901C30.0255 62.5957 30.0255 62.6013 30.0255 62.607C30.0142 62.5901 29.9973 62.5394 30.0255 62.5788ZM29.834 63.1531C29.834 63.1531 29.8115 63.2094 29.7946 63.232C29.5017 63.8288 29.1413 64.3919 28.7752 64.9437C28.2176 65.7826 27.6263 66.6047 27.018 67.4099C27.5756 66.2781 28.2289 65.1858 28.9779 64.1779C29.2258 63.8401 29.5186 63.4797 29.834 63.1531Z" fill="#1E1C1C"/>
<path d="M38.558 64.6565C38.0512 65.4504 37.5161 66.2218 36.9642 66.982C36.0405 68.2545 35.0718 69.5608 33.8778 70.6081C33.8215 70.6588 33.7652 70.7038 33.7089 70.7545C33.6807 70.777 33.6525 70.7995 33.6244 70.822C33.6131 70.8277 33.5793 70.8558 33.5681 70.8671C33.4554 70.9459 33.3428 71.0247 33.2245 71.0923C33.1738 71.1205 33.1231 71.143 33.0781 71.1711C33.0668 71.1711 33.0612 71.1768 33.0555 71.1824C33.033 71.1937 33.0105 71.1993 32.9823 71.2106C32.9373 71.2218 32.8922 71.2331 32.8472 71.2443C32.8246 71.2443 32.8021 71.2443 32.7852 71.2443C32.7852 71.2443 32.7739 71.2443 32.7627 71.2443C32.757 71.2443 32.7458 71.2443 32.7458 71.2443C32.712 71.2274 32.7064 71.2274 32.712 71.2331C32.712 71.2331 32.6951 71.2218 32.6838 71.2162L32.6726 71.2049C32.6275 71.1036 32.6838 71.2556 32.6388 71.1599C32.6331 71.143 32.6219 71.1205 32.6106 71.1036C32.5993 71.0529 32.5824 71.0022 32.5712 70.9515C32.5656 70.929 32.5599 70.9009 32.5599 70.8783C32.5599 70.8727 32.5599 70.8671 32.5599 70.8615C32.5599 70.7995 32.5543 70.7376 32.5543 70.67C32.5543 70.5293 32.5656 70.3885 32.5824 70.2477C32.5824 70.2252 32.5824 70.2196 32.5824 70.2139C32.5824 70.2139 32.5824 70.2083 32.5824 70.1914C32.5824 70.152 32.5937 70.1182 32.5993 70.0788C32.6106 69.9943 32.6275 69.9155 32.6444 69.831C32.7176 69.4651 32.819 69.1047 32.926 68.75C33.1738 67.9448 33.4779 67.1565 33.8046 66.3795C34.0806 65.7207 34.396 65.0394 34.7057 64.3806C34.8803 64.0146 35.0887 63.6542 35.2464 63.2826C35.2577 63.2657 35.2633 63.2432 35.2746 63.2263C35.4942 62.7815 34.8353 62.393 34.6044 62.8378C33.9454 64.1554 33.8497 64.6284 33.0724 65.884C32.4079 66.9594 31.0449 68.8175 30.3071 69.8423C29.6763 70.7207 29.023 71.5934 28.2627 72.3705C27.9811 72.6576 27.6826 72.9392 27.3447 73.1588C27.0799 73.3277 26.8434 73.4459 26.5787 73.4234C26.6463 73.429 26.4942 73.4009 26.4717 73.3896C26.528 73.4121 26.3928 73.3446 26.3647 73.3277C26.3027 73.2826 26.1845 73.1306 26.1169 73.0124C26.0155 72.8322 25.9479 72.6407 25.8916 72.4493C25.8691 72.3761 25.8522 72.3029 25.8353 72.2353C25.8296 72.1959 25.8184 72.1621 25.8127 72.1227C25.8127 72.1171 25.8071 72.0777 25.8015 72.0608C25.717 71.3795 25.8127 70.6756 26.0042 69.9887C27.0462 68.7049 27.4798 68.8063 28.4204 67.4437C28.8709 66.7961 29.8903 64.7184 30.2733 64.0259C30.5042 63.6148 30.7971 63.1193 30.8084 62.6351C30.8196 62.1396 30.3747 61.8919 29.9467 62.1002C29.5749 62.2804 29.2708 62.6295 29.0061 62.9335C28.0205 64.0653 27.2095 65.366 26.5224 66.6948C26.0493 67.6126 25.5987 68.5923 25.3115 69.6058C24.7595 70.2815 24.1963 70.9572 23.6219 71.6103C22.9291 72.3986 22.2139 73.1869 21.3634 73.8119C20.789 74.2398 20.1863 74.6002 19.5217 74.7804C19.4204 74.8085 19.3134 74.831 19.212 74.8479C19.1895 74.8479 19.1669 74.8536 19.1444 74.8592C19.0993 74.8592 19.0487 74.8705 19.0036 74.8705C18.9304 74.8705 18.8572 74.8761 18.7783 74.8705C18.7502 74.8705 18.722 74.8705 18.6995 74.8705C18.6657 74.8648 18.6263 74.8592 18.5925 74.8479C18.1194 74.6903 17.911 75.4392 18.3841 75.5968C18.5812 75.6644 18.8177 75.6644 19.0261 75.6475C19.6175 75.6081 20.9129 75.0675 21.4423 74.7973C23.1938 73.9076 23.7796 72.6576 25.0243 71.1655C25.0243 71.1993 25.013 71.2331 25.013 71.2669C24.9623 72.0157 25.0862 72.8153 25.4861 73.4628C25.9197 74.1723 26.5224 74.741 27.2602 74.4031C28.1162 74.0146 28.9329 72.8265 29.5243 72.1171C30.3127 71.1768 31.0336 70.1689 31.732 69.1554C31.8953 68.9245 32.0474 68.6824 32.2051 68.4515C32.0023 69.0934 31.8278 69.7522 31.7771 70.4279C31.7433 70.9515 31.8109 71.5991 32.3121 71.8919C32.7965 72.179 33.3822 71.9313 33.8046 71.6497C34.4241 71.2387 35.2915 70.6869 35.7871 70.1407C36.3841 69.4763 36.8008 68.9133 37.3359 68.2038C38.0568 67.2466 38.5862 66.1374 39.2057 65.107C39.217 65.0901 39.2283 65.0732 39.2395 65.0563C39.5099 64.634 38.8396 64.2455 38.5693 64.6678L38.558 64.6565ZM30.0311 62.6013C30.0311 62.6013 30.0311 62.6182 30.0311 62.6126C30.0311 62.6126 30.0311 62.607 30.0311 62.6013ZM30.2846 62.7702C30.324 62.7477 30.3296 62.759 30.2846 62.7702V62.7702ZM30.0311 62.607C30.0311 62.607 30.0311 62.6013 30.0311 62.5957V62.607ZM30.0255 62.5788V62.5901C30.0255 62.5957 30.0255 62.6013 30.0255 62.607C30.0142 62.5901 29.9973 62.5394 30.0255 62.5788ZM29.834 63.1531C29.834 63.1531 29.8115 63.2094 29.7946 63.232C29.5017 63.8288 29.1413 64.3919 28.7752 64.9437C28.2176 65.7826 27.6263 66.6047 27.018 67.4099C27.5756 66.2781 28.2289 65.1858 28.9779 64.1779C29.2258 63.8401 29.5186 63.4797 29.834 63.1531Z" fill="url(#paint12_linear_18_2842)"/>
<path d="M40.8503 60.7375C40.9122 60.6362 40.9066 60.5404 40.8728 60.456C40.8897 60.349 40.8728 60.2477 40.7827 60.1632C40.6757 60.0562 40.4898 60.0281 40.3603 60.1069C40.2476 59.9943 40.0899 59.9774 39.9379 60.0393C39.8816 60.0618 39.8252 60.1013 39.7745 60.1294C39.645 59.938 39.369 59.9154 39.2001 60.1407C38.344 61.2893 37.8765 62.697 37.8484 64.1272C37.8484 64.3186 38.0117 64.465 38.1976 64.4763C38.5524 64.4931 38.8227 64.251 39.003 63.9639C39.1381 63.7555 39.2508 63.5303 39.3578 63.2995C39.7858 62.6576 40.1744 61.9875 40.5123 61.2949C40.625 61.1091 40.7433 60.9177 40.8559 60.7319L40.8503 60.7375Z" fill="#1E1C1C"/>
<path d="M40.8503 60.7375C40.9122 60.6362 40.9066 60.5404 40.8728 60.456C40.8897 60.349 40.8728 60.2477 40.7827 60.1632C40.6757 60.0562 40.4898 60.0281 40.3603 60.1069C40.2476 59.9943 40.0899 59.9774 39.9379 60.0393C39.8816 60.0618 39.8252 60.1013 39.7745 60.1294C39.645 59.938 39.369 59.9154 39.2001 60.1407C38.344 61.2893 37.8765 62.697 37.8484 64.1272C37.8484 64.3186 38.0117 64.465 38.1976 64.4763C38.5524 64.4931 38.8227 64.251 39.003 63.9639C39.1381 63.7555 39.2508 63.5303 39.3578 63.2995C39.7858 62.6576 40.1744 61.9875 40.5123 61.2949C40.625 61.1091 40.7433 60.9177 40.8559 60.7319L40.8503 60.7375Z" fill="url(#paint13_linear_18_2842)"/>
<path d="M51.7708 52.5168C51.2583 52.4267 50.7514 52.224 50.2671 52.0439C48.6 51.4189 46.9329 50.5855 45.3109 49.7184C43.7226 48.8682 42.1626 47.9673 40.625 47.0326C40.197 46.7736 39.8084 47.4436 40.2364 47.7026C42.6357 49.161 45.0743 50.5574 47.6144 51.7511C48.7408 52.2803 49.901 52.7984 51.095 53.1531C51.247 53.1981 51.4047 53.2488 51.5624 53.277C51.7708 53.3108 51.9792 53.2207 52.0412 53.0067C52.0918 52.8209 51.9792 52.5675 51.7708 52.5281V52.5168Z" fill="#1E1C1C"/>
<path d="M51.7708 52.5168C51.2583 52.4267 50.7514 52.224 50.2671 52.0439C48.6 51.4189 46.9329 50.5855 45.3109 49.7184C43.7226 48.8682 42.1626 47.9673 40.625 47.0326C40.197 46.7736 39.8084 47.4436 40.2364 47.7026C42.6357 49.161 45.0743 50.5574 47.6144 51.7511C48.7408 52.2803 49.901 52.7984 51.095 53.1531C51.247 53.1981 51.4047 53.2488 51.5624 53.277C51.7708 53.3108 51.9792 53.2207 52.0412 53.0067C52.0918 52.8209 51.9792 52.5675 51.7708 52.5281V52.5168Z" fill="url(#paint14_linear_18_2842)"/>
</g>
<defs>
<linearGradient id="paint0_linear_18_2842" x1="71.9415" y1="-18.196" x2="92.4497" y2="77.6482" gradientUnits="userSpaceOnUse">
<stop stop-color="#92CE1D"/>
<stop offset="1" stop-color="#147AD8"/>
</linearGradient>
<linearGradient id="paint1_linear_18_2842" x1="84.9216" y1="-7.18479" x2="100.221" y2="59.178" gradientUnits="userSpaceOnUse">
<stop stop-color="#92CE1D"/>
<stop offset="1" stop-color="#147AD8"/>
</linearGradient>
<linearGradient id="paint2_linear_18_2842" x1="83.3024" y1="0.347051" x2="85.2851" y2="17.3119" gradientUnits="userSpaceOnUse">
<stop stop-color="#92CE1D"/>
<stop offset="1" stop-color="#147AD8"/>
</linearGradient>
<linearGradient id="paint3_linear_18_2842" x1="81.7795" y1="-3.46029" x2="83.9941" y2="10.395" gradientUnits="userSpaceOnUse">
<stop stop-color="#92CE1D"/>
<stop offset="1" stop-color="#147AD8"/>
</linearGradient>
<linearGradient id="paint4_linear_18_2842" x1="86.0974" y1="4.62544" x2="95.5234" y2="40.4693" gradientUnits="userSpaceOnUse">
<stop stop-color="#92CE1D"/>
<stop offset="1" stop-color="#147AD8"/>
</linearGradient>
<linearGradient id="paint5_linear_18_2842" x1="59.7942" y1="27.155" x2="59.8048" y2="29.0319" gradientUnits="userSpaceOnUse">
<stop stop-color="#92CE1D"/>
<stop offset="1" stop-color="#147AD8"/>
</linearGradient>
<linearGradient id="paint6_linear_18_2842" x1="60.4181" y1="18.9995" x2="60.4255" y2="20.5773" gradientUnits="userSpaceOnUse">
<stop stop-color="#92CE1D"/>
<stop offset="1" stop-color="#147AD8"/>
</linearGradient>
<linearGradient id="paint7_linear_18_2842" x1="56.6532" y1="34.8454" x2="56.6787" y2="37.6772" gradientUnits="userSpaceOnUse">
<stop stop-color="#92CE1D"/>
<stop offset="1" stop-color="#147AD8"/>
</linearGradient>
<linearGradient id="paint8_linear_18_2842" x1="50.3992" y1="43.3267" x2="50.4315" y2="46.3345" gradientUnits="userSpaceOnUse">
<stop stop-color="#92CE1D"/>
<stop offset="1" stop-color="#147AD8"/>
</linearGradient>
<linearGradient id="paint9_linear_18_2842" x1="48.6687" y1="52.3108" x2="48.6902" y2="54.7051" gradientUnits="userSpaceOnUse">
<stop stop-color="#92CE1D"/>
<stop offset="1" stop-color="#147AD8"/>
</linearGradient>
<linearGradient id="paint10_linear_18_2842" x1="23.8973" y1="56.247" x2="27.1191" y2="75.6035" gradientUnits="userSpaceOnUse">
<stop stop-color="#92CE1D"/>
<stop offset="1" stop-color="#147AD8"/>
</linearGradient>
<linearGradient id="paint11_linear_18_2842" x1="20.8813" y1="59.7097" x2="23.1469" y2="73.4714" gradientUnits="userSpaceOnUse">
<stop stop-color="#92CE1D"/>
<stop offset="1" stop-color="#147AD8"/>
</linearGradient>
<linearGradient id="paint12_linear_18_2842" x1="45.3772" y1="57.521" x2="47.2836" y2="75.8326" gradientUnits="userSpaceOnUse">
<stop stop-color="#92CE1D"/>
<stop offset="1" stop-color="#147AD8"/>
</linearGradient>
<linearGradient id="paint13_linear_18_2842" x1="41.7721" y1="58.492" x2="43.1516" y2="64.2713" gradientUnits="userSpaceOnUse">
<stop stop-color="#92CE1D"/>
<stop offset="1" stop-color="#147AD8"/>
</linearGradient>
<linearGradient id="paint14_linear_18_2842" x1="55.4948" y1="44.8887" x2="56.2184" y2="53.3955" gradientUnits="userSpaceOnUse">
<stop stop-color="#92CE1D"/>
<stop offset="1" stop-color="#147AD8"/>
</linearGradient>
<clipPath id="clip0_18_2842">
<rect width="81" height="80" fill="white" transform="translate(0.125)"/>
</clipPath>
</defs>
</svg>
