<svg width="553" height="568" viewBox="0 0 553 568" fill="none" xmlns="http://www.w3.org/2000/svg">
<g clip-path="url(#clip0_13_3577)">
<path d="M268.479 536.633C255.765 536.633 243.017 535.171 230.472 532.24C230.112 532.156 229.891 531.795 229.973 531.438C230.058 531.078 230.418 530.857 230.775 530.939C261.307 538.077 293.041 536.424 322.552 526.153C322.903 526.031 323.282 526.216 323.403 526.564C323.524 526.912 323.339 527.294 322.991 527.415C305.367 533.548 286.953 536.633 268.476 536.633H268.479Z" fill="#212D42"/>
<path d="M322.776 527.454C322.5 527.454 322.24 527.282 322.146 527.006C322.025 526.658 322.21 526.277 322.558 526.156C323.969 525.665 325.387 525.15 326.777 524.624C327.122 524.497 327.51 524.666 327.64 525.011C327.77 525.356 327.598 525.741 327.252 525.874C325.85 526.404 324.42 526.924 323 527.418C322.927 527.442 322.855 527.454 322.779 527.454H322.776Z" fill="#212D42"/>
<path d="M272.837 546.705C254.084 546.705 235.255 543.953 217.05 538.422C216.695 538.313 216.498 537.941 216.604 537.59C216.713 537.239 217.086 537.039 217.437 537.145C258.342 549.575 302.433 547.873 341.593 532.352C341.932 532.216 342.326 532.386 342.459 532.728C342.595 533.07 342.426 533.457 342.083 533.594C320.074 542.315 296.515 546.705 272.834 546.705H272.837Z" fill="#212D42"/>
<path d="M334.109 526.086C334.082 526.086 334.051 526.086 334.021 526.08C333.803 526.053 333.615 525.919 333.515 525.723L330.281 519.441C330.172 519.229 330.184 518.975 330.314 518.775C330.441 518.575 330.659 518.454 330.908 518.469L339.479 518.884C339.736 518.896 339.966 519.056 340.063 519.296C340.163 519.535 340.115 519.81 339.939 520.001L334.603 525.868C334.476 526.007 334.294 526.086 334.109 526.086ZM331.998 519.859L334.263 524.257L337.998 520.152L331.998 519.862V519.859Z" fill="#212D42"/>
<path d="M198.614 100.641C198.445 100.641 198.272 100.575 198.142 100.447L195.183 97.4989C194.922 97.2385 194.919 96.8147 195.183 96.5543C195.443 96.294 195.867 96.294 196.128 96.5543L199.087 99.5029C199.347 99.7633 199.35 100.187 199.087 100.447C198.957 100.578 198.784 100.644 198.614 100.644V100.641Z" fill="#212D42"/>
<path d="M208.969 110.958C208.8 110.958 208.627 110.892 208.497 110.764L205.538 107.816C205.277 107.556 205.274 107.132 205.538 106.871C205.798 106.611 206.222 106.611 206.483 106.871L209.442 109.82C209.702 110.08 209.705 110.504 209.442 110.764C209.311 110.895 209.139 110.961 208.969 110.961V110.958Z" fill="#212D42"/>
<path d="M195.658 110.958C195.486 110.958 195.316 110.892 195.186 110.761C194.925 110.501 194.925 110.077 195.186 109.817L198.145 106.868C198.405 106.608 198.829 106.608 199.09 106.868C199.35 107.129 199.35 107.553 199.09 107.813L196.131 110.761C196.001 110.892 195.831 110.955 195.658 110.955V110.958Z" fill="#212D42"/>
<path d="M206.013 100.641C205.841 100.641 205.671 100.575 205.541 100.444C205.28 100.184 205.28 99.7602 205.541 99.4998L208.5 96.5512C208.76 96.2909 209.184 96.2909 209.445 96.5512C209.705 96.8116 209.705 97.2354 209.445 97.4957L206.486 100.444C206.355 100.575 206.183 100.638 206.013 100.638V100.641Z" fill="#212D42"/>
<path d="M500.057 156.492C498.642 156.492 497.228 155.959 496.144 154.888C495.09 153.846 494.502 152.457 494.496 150.973C494.49 149.49 495.059 148.094 496.107 147.041C498.267 144.87 501.792 144.852 503.97 147.005C505.024 148.046 505.611 149.436 505.617 150.919C505.623 152.402 505.054 153.798 504.006 154.848C502.922 155.941 501.489 156.489 500.057 156.489V156.492ZM500.057 146.738C498.969 146.738 497.879 147.156 497.055 147.985C496.262 148.785 495.826 149.844 495.832 150.97C495.838 152.094 496.28 153.15 497.082 153.94C498.736 155.575 501.419 155.563 503.058 153.913C503.851 153.114 504.288 152.054 504.282 150.928C504.275 149.805 503.833 148.748 503.031 147.958C502.21 147.144 501.132 146.738 500.057 146.738Z" fill="#212D42"/>
<path d="M510.018 478.736L173.304 496.724C162.534 497.299 153.803 488.78 153.803 477.694V240.861C153.803 229.775 162.534 220.323 173.304 219.748L510.018 201.76C520.788 201.185 529.519 209.703 529.519 220.789V457.62C529.519 468.706 520.788 478.157 510.018 478.732V478.736Z" fill="white"/>
<path d="M172.274 497.417C167.38 497.417 162.789 495.604 159.251 492.253C155.308 488.517 153.136 483.346 153.136 477.694V240.864C153.136 229.448 162.168 219.678 173.271 219.085L509.984 201.097C515.285 200.818 520.282 202.638 524.077 206.234C528.02 209.97 530.191 215.14 530.191 220.792V457.623C530.191 469.039 521.16 478.808 510.057 479.401L173.343 497.39C172.986 497.408 172.632 497.417 172.277 497.417H172.274ZM511.047 202.405C510.717 202.405 510.387 202.414 510.054 202.432L173.34 220.42C162.937 220.977 154.472 230.147 154.472 240.867V477.697C154.472 482.98 156.495 487.805 160.169 491.287C163.694 494.626 168.343 496.324 173.268 496.058L509.981 478.069C520.385 477.512 528.85 468.343 528.85 457.626V220.792C528.85 215.51 526.827 210.684 523.153 207.203C519.864 204.088 515.599 202.405 511.047 202.405Z" fill="#212D42"/>
<path d="M485.91 71.6C503.585 60.5806 512.747 46.1766 517.22 17.4109C520.258 27.5404 521.193 35.0814 519.679 43.0554L529.295 37.7031C529.519 45.5075 528.002 54.9346 521.469 60.8954L533.544 55.3191C527.56 68.5455 520.572 93.2302 494.184 82.3016L485.91 71.597V71.6Z" fill="white"/>
<path d="M506.177 85.671C502.61 85.671 498.557 84.8385 493.93 82.9222C493.821 82.8768 493.727 82.8041 493.657 82.7133L485.383 72.0087C485.268 71.8603 485.219 71.6696 485.253 71.4819C485.286 71.2973 485.398 71.1338 485.555 71.0339C503.839 59.633 512.241 45.0746 516.56 17.308C516.608 16.9992 516.862 16.7661 517.174 16.7449C517.48 16.7298 517.771 16.9205 517.859 17.2202C520.884 27.3133 521.699 34.5637 520.575 41.793L528.971 37.1218C529.174 37.0098 529.422 37.0098 529.625 37.1249C529.828 37.2399 529.955 37.4518 529.964 37.6879C530.146 44.0695 529.225 52.5612 524.258 58.8762L533.265 54.7166C533.517 54.6016 533.817 54.653 534.017 54.8498C534.216 55.0466 534.271 55.3463 534.156 55.6006C533.559 56.9205 532.953 58.3524 532.311 59.8691C527.787 70.5586 521.387 85.674 506.18 85.674L506.177 85.671ZM494.605 81.7567C517.604 91.1807 525.391 72.7837 531.079 59.3454C531.469 58.4221 531.848 57.529 532.221 56.6723L521.751 61.5069C521.454 61.6431 521.096 61.5432 520.915 61.2708C520.733 60.9953 520.778 60.629 521.021 60.408C527.329 54.653 528.695 45.7103 528.65 38.8353L520.006 43.6457C519.779 43.7698 519.5 43.7547 519.291 43.6033C519.079 43.452 518.976 43.1916 519.025 42.9373C520.312 36.1591 519.849 29.493 517.398 20.4655C512.959 46.1523 504.239 60.7501 486.891 71.7816L494.608 81.7627L494.605 81.7567Z" fill="#212D42"/>
<path d="M429.553 78.9595C411.878 67.94 402.717 53.536 398.243 24.7704C395.206 34.8998 394.27 42.4409 395.784 50.4148L386.168 45.0625C385.944 52.867 387.461 62.294 393.994 68.2548L381.919 62.6785C387.903 75.9049 394.891 100.59 421.279 89.661L429.553 78.9564V78.9595Z" fill="white"/>
<path d="M409.286 93.0304C394.076 93.0304 387.679 77.915 383.155 67.2255C382.513 65.7088 381.907 64.2769 381.31 62.957C381.195 62.7027 381.25 62.403 381.449 62.2062C381.646 62.0095 381.949 61.958 382.201 62.073L391.208 66.2326C386.238 59.9176 385.317 51.4259 385.502 45.0443C385.508 44.8112 385.638 44.5993 385.841 44.4813C386.044 44.3662 386.292 44.3632 386.495 44.4782L394.891 49.1494C393.764 41.9201 394.582 34.6697 397.607 24.5766C397.698 24.2769 397.98 24.0892 398.292 24.1013C398.604 24.1225 398.858 24.3556 398.906 24.6644C403.222 52.431 411.627 66.9894 429.908 78.3903C430.068 78.4902 430.177 78.6537 430.21 78.8383C430.244 79.023 430.195 79.2168 430.08 79.3651L421.806 90.0697C421.736 90.1605 421.639 90.2332 421.533 90.2786C416.906 92.1949 412.853 93.0274 409.286 93.0274V93.0304ZM383.242 64.0287C383.615 64.8854 383.994 65.7785 384.384 66.7018C390.072 80.1401 397.859 98.5371 420.858 89.1131L428.575 79.132C411.227 68.1035 402.508 53.5027 398.068 27.8158C395.617 36.8433 395.154 43.5095 396.441 50.2877C396.49 50.542 396.387 50.8023 396.175 50.9537C395.966 51.105 395.684 51.1202 395.46 50.9961L386.816 46.1856C386.771 53.0607 388.137 62.0064 394.445 67.7583C394.688 67.9793 394.733 68.3456 394.551 68.6211C394.37 68.8966 394.012 68.9965 393.715 68.8573L383.245 64.0226L383.242 64.0287Z" fill="#212D42"/>
<path d="M459.058 134.453C482.122 134.453 500.82 115.809 500.82 92.8094C500.82 69.8102 482.122 51.1656 459.058 51.1656C435.994 51.1656 417.296 69.8102 417.296 92.8094C417.296 115.809 435.994 134.453 459.058 134.453Z" fill="#212D42"/>
<path d="M460.694 131.792C483.074 131.792 501.217 113.701 501.217 91.3835C501.217 69.0664 483.074 50.9749 460.694 50.9749C438.313 50.9749 420.17 69.0664 420.17 91.3835C420.17 113.701 438.313 131.792 460.694 131.792Z" fill="white"/>
<path d="M460.66 132.461C439.993 132.461 422.127 116.934 419.759 95.982C418.526 85.0776 421.627 74.3488 428.487 65.7724C435.347 57.196 445.148 51.7952 456.081 50.5662C478.65 48.0323 499.081 64.2799 501.622 86.7881C502.855 97.6925 499.754 108.421 492.894 116.998C486.034 125.574 476.233 130.975 465.3 132.204C463.743 132.38 462.193 132.464 460.66 132.464V132.461ZM460.721 51.6409C459.237 51.6409 457.738 51.7226 456.229 51.8921C445.65 53.0788 436.168 58.304 429.532 66.6049C422.893 74.9028 419.895 85.2835 421.088 95.8307C423.547 117.606 443.312 133.327 465.155 130.872C475.734 129.685 485.216 124.46 491.852 116.159C498.488 107.861 501.489 97.4806 500.296 86.9334C498.006 66.6624 480.716 51.6378 460.721 51.6378V51.6409Z" fill="#212D42"/>
<path d="M460.694 125.293C479.476 125.293 494.702 110.111 494.702 91.3835C494.702 72.6561 479.476 57.4745 460.694 57.4745C441.911 57.4745 426.685 72.6561 426.685 91.3835C426.685 110.111 441.911 125.293 460.694 125.293Z" fill="white"/>
<path d="M491.165 107.114C491.065 107.114 490.962 107.092 490.868 107.044C490.538 106.88 490.401 106.478 490.568 106.148C491.988 103.299 492.985 100.272 493.536 97.1536C493.6 96.7904 493.945 96.5451 494.311 96.6117C494.675 96.6753 494.917 97.0235 494.853 97.3867C494.281 100.632 493.242 103.78 491.767 106.744C491.649 106.98 491.413 107.114 491.168 107.114H491.165Z" fill="#212D42"/>
<path d="M431.174 75.2086C431.061 75.2086 430.946 75.1813 430.84 75.1208C430.519 74.9361 430.41 74.5274 430.595 74.2095C436.077 64.6765 445.877 58.2495 456.814 57.0234C470.131 55.534 482.848 61.6159 490.017 72.9108C490.214 73.2226 490.123 73.6344 489.811 73.8342C489.499 74.0309 489.087 73.9401 488.887 73.6283C481.994 62.7663 469.767 56.9145 456.962 58.3524C446.447 59.5331 437.025 65.7088 431.755 74.8756C431.631 75.0905 431.407 75.2116 431.174 75.2116V75.2086Z" fill="#212D42"/>
<path d="M460.666 125.965C443.27 125.965 428.227 112.893 426.234 95.2555C425.571 89.3673 426.431 83.3914 428.726 77.9664C428.869 77.6274 429.262 77.4669 429.602 77.6122C429.941 77.7545 430.101 78.1481 429.956 78.4871C427.751 83.7002 426.921 89.446 427.56 95.1041C429.617 113.319 446.15 126.476 464.422 124.418C464.788 124.381 465.118 124.642 465.161 125.008C465.203 125.374 464.937 125.704 464.57 125.747C463.259 125.892 461.953 125.965 460.663 125.965H460.666Z" fill="#212D42"/>
<path d="M391.932 207.106C413.807 193.468 425.14 175.646 430.677 140.048C434.435 152.584 435.592 161.914 433.721 171.783L445.62 165.159C445.896 174.82 444.021 186.484 435.934 193.858L450.878 186.959C443.473 203.328 434.826 233.874 402.168 220.351L391.929 207.103L391.932 207.106Z" fill="white"/>
<path d="M417.13 224.407C412.499 224.407 407.444 223.26 401.917 220.971C401.808 220.926 401.714 220.853 401.644 220.762L391.405 207.515C391.29 207.366 391.241 207.176 391.274 206.988C391.308 206.8 391.42 206.64 391.577 206.54C413.956 192.587 424.735 173.917 430.017 139.945C430.065 139.636 430.319 139.403 430.631 139.382C430.943 139.37 431.228 139.557 431.319 139.857C435.102 152.475 436.086 161.49 434.623 170.518L445.296 164.578C445.499 164.466 445.747 164.466 445.95 164.581C446.153 164.696 446.28 164.908 446.289 165.144C446.52 173.194 445.329 183.962 438.836 191.788L450.602 186.357C450.854 186.242 451.153 186.293 451.353 186.49C451.553 186.687 451.608 186.986 451.493 187.241C450.754 188.875 450.002 190.649 449.209 192.526C445.705 200.803 441.347 211.102 434.193 217.65C429.265 222.161 423.62 224.41 417.136 224.41L417.13 224.407ZM402.592 219.806C431.231 231.561 440.904 208.701 447.973 192.003C448.515 190.722 449.036 189.49 449.551 188.312L436.216 194.47C435.916 194.609 435.562 194.506 435.38 194.234C435.199 193.958 435.244 193.592 435.486 193.371C443.418 186.139 445.072 174.868 444.975 166.289L434.048 172.371C433.821 172.495 433.542 172.479 433.333 172.328C433.124 172.177 433.018 171.916 433.066 171.662C434.693 163.08 434.066 154.643 430.862 143.093C425.398 175.337 414.589 193.553 392.913 207.285L402.592 219.809V219.806Z" fill="#212D42"/>
<path d="M325.596 195.635C299.171 179.161 285.478 157.63 278.791 114.627C274.251 129.77 272.852 141.044 275.114 152.965L260.738 144.964C260.404 156.631 262.67 170.727 272.44 179.636L254.387 171.302C263.333 191.073 273.776 227.976 313.227 211.641L325.596 195.638V195.635Z" fill="white"/>
<path d="M295.161 216.391C287.359 216.391 280.569 213.687 274.645 208.262C266.025 200.373 260.768 187.946 256.54 177.962C255.58 175.694 254.671 173.551 253.778 171.574C253.663 171.32 253.717 171.02 253.917 170.824C254.117 170.627 254.414 170.575 254.668 170.69L269.451 177.514C261.277 168.057 259.79 154.803 260.071 144.94C260.077 144.707 260.208 144.495 260.41 144.377C260.613 144.262 260.862 144.259 261.065 144.374L274.212 151.691C272.38 140.714 273.552 129.782 278.155 114.431C278.246 114.131 278.531 113.943 278.84 113.955C279.152 113.976 279.406 114.21 279.454 114.518C285.842 155.599 298.88 178.183 325.953 195.063C326.113 195.163 326.222 195.327 326.256 195.511C326.289 195.696 326.241 195.89 326.126 196.038L313.757 212.041C313.684 212.131 313.59 212.204 313.484 212.249C306.827 215.007 300.737 216.388 295.164 216.388L295.161 216.391ZM255.719 172.649C256.385 174.172 257.064 175.773 257.769 177.441C266.334 197.676 278.058 225.37 312.806 211.087L324.617 195.808C298.241 179.149 285.172 157.022 278.603 117.664C274.581 131.947 273.77 142.3 275.769 152.838C275.817 153.092 275.714 153.353 275.502 153.504C275.293 153.656 275.011 153.671 274.787 153.547L261.38 146.084C261.234 156.504 263.197 170.3 272.888 179.137C273.131 179.358 273.176 179.727 272.994 179.999C272.813 180.275 272.455 180.375 272.158 180.235L255.719 172.646V172.649Z" fill="#212D42"/>
<path d="M351.739 266.426C384.103 266.426 410.34 240.264 410.34 207.99C410.34 175.716 384.103 149.554 351.739 149.554C319.374 149.554 293.138 175.716 293.138 207.99C293.138 240.264 319.374 266.426 351.739 266.426Z" fill="#212D42"/>
<path d="M354.243 262.954C385.648 262.954 411.106 237.569 411.106 206.255C411.106 174.941 385.648 149.557 354.243 149.557C322.839 149.557 297.381 174.941 297.381 206.255C297.381 237.569 322.839 262.954 354.243 262.954Z" fill="white"/>
<path d="M354.243 263.623C322.522 263.623 296.715 237.888 296.715 206.255C296.715 174.623 322.522 148.888 354.243 148.888C385.965 148.888 411.772 174.623 411.772 206.255C411.772 237.888 385.965 263.623 354.243 263.623ZM354.243 150.223C323.257 150.223 298.05 175.358 298.05 206.255C298.05 237.152 323.257 262.288 354.243 262.288C385.229 262.288 410.436 237.152 410.436 206.255C410.436 175.358 385.229 150.223 354.243 150.223Z" fill="#212D42"/>
<path d="M354.243 253.839C380.598 253.839 401.962 232.535 401.962 206.255C401.962 179.976 380.598 158.672 354.243 158.672C327.889 158.672 306.524 179.976 306.524 206.255C306.524 232.535 327.889 253.839 354.243 253.839Z" fill="white"/>
<path d="M394.361 232.699C394.236 232.699 394.109 232.666 393.997 232.593C393.688 232.393 393.597 231.978 393.797 231.67C396.238 227.898 398.119 223.811 399.385 219.521C399.488 219.17 399.857 218.964 400.215 219.07C400.569 219.173 400.772 219.545 400.666 219.899C399.364 224.31 397.432 228.515 394.921 232.393C394.794 232.59 394.579 232.699 394.357 232.699H394.361Z" fill="#212D42"/>
<path d="M397.198 186.169C396.95 186.169 396.714 186.03 396.596 185.794C388.652 169.476 372.424 159.341 354.246 159.341C339.312 159.341 325.12 166.519 316.276 178.543C316.058 178.84 315.64 178.903 315.344 178.685C315.047 178.468 314.983 178.05 315.201 177.753C324.293 165.386 338.891 158.003 354.249 158.003C372.945 158.003 389.633 168.426 397.801 185.206C397.962 185.536 397.825 185.939 397.492 186.099C397.398 186.145 397.298 186.166 397.201 186.166L397.198 186.169Z" fill="#212D42"/>
<path d="M354.243 254.508C327.564 254.508 305.858 232.862 305.858 206.258C305.858 197.994 307.99 189.838 312.021 182.676C312.203 182.355 312.609 182.24 312.93 182.421C313.251 182.603 313.366 183.009 313.184 183.329C309.265 190.292 307.194 198.221 307.194 206.258C307.194 232.127 328.3 253.173 354.243 253.173C354.613 253.173 354.913 253.472 354.913 253.842C354.913 254.211 354.613 254.511 354.243 254.511V254.508Z" fill="#212D42"/>
<path d="M518.864 225.476H171.172C160.099 225.476 151.122 234.448 151.122 245.517V482.408C151.122 493.476 160.099 502.449 171.172 502.449H518.864C529.937 502.449 538.914 493.476 538.914 482.408V245.517C538.914 234.448 529.937 225.476 518.864 225.476Z" fill="white"/>
<path d="M518.861 503.115H171.172C159.748 503.115 150.453 493.824 150.453 482.405V245.517C150.453 234.098 159.748 224.807 171.172 224.807H518.861C530.285 224.807 539.58 234.098 539.58 245.517V482.405C539.58 493.824 530.285 503.115 518.861 503.115ZM171.172 226.142C160.484 226.142 151.789 234.833 151.789 245.517V482.405C151.789 493.088 160.484 501.779 171.172 501.779H518.861C529.549 501.779 538.244 493.088 538.244 482.405V245.517C538.244 234.833 529.549 226.142 518.861 226.142H171.172Z" fill="#212D42"/>
<path d="M514.7 493.748H506.68C506.311 493.748 506.011 493.448 506.011 493.079C506.011 492.71 506.311 492.41 506.68 492.41H514.7C515.548 492.41 516.399 492.334 517.226 492.186C517.592 492.119 517.938 492.361 518.001 492.725C518.068 493.088 517.825 493.436 517.462 493.5C516.556 493.663 515.627 493.745 514.7 493.745V493.748ZM498.66 493.748H490.641C490.271 493.748 489.971 493.448 489.971 493.079C489.971 492.71 490.271 492.41 490.641 492.41H498.66C499.03 492.41 499.33 492.71 499.33 493.079C499.33 493.448 499.03 493.748 498.66 493.748ZM482.621 493.748H474.601C474.231 493.748 473.932 493.448 473.932 493.079C473.932 492.71 474.231 492.41 474.601 492.41H482.621C482.99 492.41 483.29 492.71 483.29 493.079C483.29 493.448 482.99 493.748 482.621 493.748ZM466.581 493.748H458.561C458.192 493.748 457.892 493.448 457.892 493.079C457.892 492.71 458.192 492.41 458.561 492.41H466.581C466.951 492.41 467.25 492.71 467.25 493.079C467.25 493.448 466.951 493.748 466.581 493.748ZM450.542 493.748H442.522C442.152 493.748 441.852 493.448 441.852 493.079C441.852 492.71 442.152 492.41 442.522 492.41H450.542C450.911 492.41 451.211 492.71 451.211 493.079C451.211 493.448 450.911 493.748 450.542 493.748ZM434.502 493.748H426.482C426.113 493.748 425.813 493.448 425.813 493.079C425.813 492.71 426.113 492.41 426.482 492.41H434.502C434.871 492.41 435.171 492.71 435.171 493.079C435.171 493.448 434.871 493.748 434.502 493.748ZM418.462 493.748H410.443C410.073 493.748 409.773 493.448 409.773 493.079C409.773 492.71 410.073 492.41 410.443 492.41H418.462C418.832 492.41 419.132 492.71 419.132 493.079C419.132 493.448 418.832 493.748 418.462 493.748ZM402.423 493.748H394.403C394.033 493.748 393.734 493.448 393.734 493.079C393.734 492.71 394.033 492.41 394.403 492.41H402.423C402.792 492.41 403.092 492.71 403.092 493.079C403.092 493.448 402.792 493.748 402.423 493.748ZM386.383 493.748H378.363C377.994 493.748 377.694 493.448 377.694 493.079C377.694 492.71 377.994 492.41 378.363 492.41H386.383C386.753 492.41 387.052 492.71 387.052 493.079C387.052 493.448 386.753 493.748 386.383 493.748ZM370.344 493.748H362.324C361.954 493.748 361.654 493.448 361.654 493.079C361.654 492.71 361.954 492.41 362.324 492.41H370.344C370.713 492.41 371.013 492.71 371.013 493.079C371.013 493.448 370.713 493.748 370.344 493.748ZM354.304 493.748H346.284C345.915 493.748 345.615 493.448 345.615 493.079C345.615 492.71 345.915 492.41 346.284 492.41H354.304C354.673 492.41 354.973 492.71 354.973 493.079C354.973 493.448 354.673 493.748 354.304 493.748ZM338.264 493.748H330.244C329.875 493.748 329.575 493.448 329.575 493.079C329.575 492.71 329.875 492.41 330.244 492.41H338.264C338.634 492.41 338.934 492.71 338.934 493.079C338.934 493.448 338.634 493.748 338.264 493.748ZM322.225 493.748H314.205C313.835 493.748 313.536 493.448 313.536 493.079C313.536 492.71 313.835 492.41 314.205 492.41H322.225C322.594 492.41 322.894 492.71 322.894 493.079C322.894 493.448 322.594 493.748 322.225 493.748ZM306.185 493.748H298.165C297.796 493.748 297.496 493.448 297.496 493.079C297.496 492.71 297.796 492.41 298.165 492.41H306.185C306.555 492.41 306.854 492.71 306.854 493.079C306.854 493.448 306.555 493.748 306.185 493.748ZM290.145 493.748H282.126C281.756 493.748 281.456 493.448 281.456 493.079C281.456 492.71 281.756 492.41 282.126 492.41H290.145C290.515 492.41 290.815 492.71 290.815 493.079C290.815 493.448 290.515 493.748 290.145 493.748ZM274.106 493.748H266.086C265.717 493.748 265.417 493.448 265.417 493.079C265.417 492.71 265.717 492.41 266.086 492.41H274.106C274.475 492.41 274.775 492.71 274.775 493.079C274.775 493.448 274.475 493.748 274.106 493.748ZM258.066 493.748H250.046C249.677 493.748 249.377 493.448 249.377 493.079C249.377 492.71 249.677 492.41 250.046 492.41H258.066C258.436 492.41 258.736 492.71 258.736 493.079C258.736 493.448 258.436 493.748 258.066 493.748ZM242.027 493.748H234.007C233.637 493.748 233.338 493.448 233.338 493.079C233.338 492.71 233.637 492.41 234.007 492.41H242.027C242.396 492.41 242.696 492.71 242.696 493.079C242.696 493.448 242.396 493.748 242.027 493.748ZM225.987 493.748H217.967C217.598 493.748 217.298 493.448 217.298 493.079C217.298 492.71 217.598 492.41 217.967 492.41H225.987C226.357 492.41 226.656 492.71 226.656 493.079C226.656 493.448 226.357 493.748 225.987 493.748ZM209.947 493.748H201.928C201.558 493.748 201.258 493.448 201.258 493.079C201.258 492.71 201.558 492.41 201.928 492.41H209.947C210.317 492.41 210.617 492.71 210.617 493.079C210.617 493.448 210.317 493.748 209.947 493.748ZM193.908 493.748H185.888C185.519 493.748 185.219 493.448 185.219 493.079C185.219 492.71 185.519 492.41 185.888 492.41H193.908C194.277 492.41 194.577 492.71 194.577 493.079C194.577 493.448 194.277 493.748 193.908 493.748ZM177.868 493.724C177.868 493.724 177.844 493.724 177.829 493.724C175.021 493.566 172.311 492.646 169.991 491.063C169.685 490.854 169.606 490.439 169.815 490.133C170.024 489.828 170.439 489.752 170.745 489.958C172.865 491.405 175.339 492.243 177.905 492.389C178.274 492.41 178.556 492.725 178.535 493.094C178.516 493.448 178.22 493.724 177.868 493.724ZM524.495 490.07C524.31 490.07 524.125 489.994 523.992 489.843C523.749 489.564 523.777 489.143 524.052 488.901C525.988 487.203 527.423 485.017 528.205 482.58C528.317 482.229 528.692 482.035 529.044 482.147C529.395 482.259 529.589 482.635 529.477 482.986C528.623 485.653 527.054 488.048 524.937 489.903C524.81 490.015 524.652 490.07 524.495 490.07ZM165.251 485.135C165 485.135 164.757 484.993 164.642 484.748C163.7 482.707 163.222 480.528 163.222 478.263V476.65C163.222 476.28 163.522 475.981 163.891 475.981C164.261 475.981 164.56 476.28 164.56 476.65V478.263C164.56 480.331 164.997 482.326 165.857 484.188C166.011 484.524 165.866 484.92 165.53 485.075C165.439 485.117 165.345 485.135 165.251 485.135ZM529.543 475.505C529.174 475.505 528.874 475.206 528.874 474.836V466.82C528.874 466.451 529.174 466.151 529.543 466.151C529.913 466.151 530.213 466.451 530.213 466.82V474.836C530.213 475.206 529.913 475.505 529.543 475.505ZM163.891 469.299C163.522 469.299 163.222 469 163.222 468.63V460.614C163.222 460.245 163.522 459.945 163.891 459.945C164.261 459.945 164.56 460.245 164.56 460.614V468.63C164.56 469 164.261 469.299 163.891 469.299ZM529.543 459.47C529.174 459.47 528.874 459.17 528.874 458.801V450.784C528.874 450.415 529.174 450.115 529.543 450.115C529.913 450.115 530.213 450.415 530.213 450.784V458.801C530.213 459.17 529.913 459.47 529.543 459.47ZM163.891 453.264C163.522 453.264 163.222 452.964 163.222 452.595V444.578C163.222 444.209 163.522 443.909 163.891 443.909C164.261 443.909 164.56 444.209 164.56 444.578V452.595C164.56 452.964 164.261 453.264 163.891 453.264ZM529.543 443.434C529.174 443.434 528.874 443.134 528.874 442.765V434.749C528.874 434.379 529.174 434.079 529.543 434.079C529.913 434.079 530.213 434.379 530.213 434.749V442.765C530.213 443.134 529.913 443.434 529.543 443.434ZM163.891 437.228C163.522 437.228 163.222 436.928 163.222 436.559V428.542C163.222 428.173 163.522 427.873 163.891 427.873C164.261 427.873 164.56 428.173 164.56 428.542V436.559C164.56 436.928 164.261 437.228 163.891 437.228ZM529.543 427.398C529.174 427.398 528.874 427.098 528.874 426.729V418.713C528.874 418.343 529.174 418.044 529.543 418.044C529.913 418.044 530.213 418.343 530.213 418.713V426.729C530.213 427.098 529.913 427.398 529.543 427.398ZM163.891 421.192C163.522 421.192 163.222 420.892 163.222 420.523V412.507C163.222 412.137 163.522 411.838 163.891 411.838C164.261 411.838 164.56 412.137 164.56 412.507V420.523C164.56 420.892 164.261 421.192 163.891 421.192ZM529.543 411.362C529.174 411.362 528.874 411.063 528.874 410.693V402.677C528.874 402.308 529.174 402.008 529.543 402.008C529.913 402.008 530.213 402.308 530.213 402.677V410.693C530.213 411.063 529.913 411.362 529.543 411.362ZM163.891 405.156C163.522 405.156 163.222 404.857 163.222 404.487V396.471C163.222 396.102 163.522 395.802 163.891 395.802C164.261 395.802 164.56 396.102 164.56 396.471V404.487C164.56 404.857 164.261 405.156 163.891 405.156ZM529.543 395.327C529.174 395.327 528.874 395.027 528.874 394.658V386.641C528.874 386.272 529.174 385.972 529.543 385.972C529.913 385.972 530.213 386.272 530.213 386.641V394.658C530.213 395.027 529.913 395.327 529.543 395.327ZM163.891 389.121C163.522 389.121 163.222 388.821 163.222 388.452V380.435C163.222 380.066 163.522 379.766 163.891 379.766C164.261 379.766 164.56 380.066 164.56 380.435V388.452C164.56 388.821 164.261 389.121 163.891 389.121ZM529.543 379.291C529.174 379.291 528.874 378.991 528.874 378.622V370.606C528.874 370.236 529.174 369.937 529.543 369.937C529.913 369.937 530.213 370.236 530.213 370.606V378.622C530.213 378.991 529.913 379.291 529.543 379.291ZM163.891 373.085C163.522 373.085 163.222 372.785 163.222 372.416V364.4C163.222 364.03 163.522 363.731 163.891 363.731C164.261 363.731 164.56 364.03 164.56 364.4V372.416C164.56 372.785 164.261 373.085 163.891 373.085ZM529.543 363.255C529.174 363.255 528.874 362.956 528.874 362.586V354.57C528.874 354.201 529.174 353.901 529.543 353.901C529.913 353.901 530.213 354.201 530.213 354.57V362.586C530.213 362.956 529.913 363.255 529.543 363.255ZM163.891 357.049C163.522 357.049 163.222 356.75 163.222 356.38V348.364C163.222 347.995 163.522 347.695 163.891 347.695C164.261 347.695 164.56 347.995 164.56 348.364V356.38C164.56 356.75 164.261 357.049 163.891 357.049ZM529.543 347.22C529.174 347.22 528.874 346.92 528.874 346.551V338.534C528.874 338.165 529.174 337.865 529.543 337.865C529.913 337.865 530.213 338.165 530.213 338.534V346.551C530.213 346.92 529.913 347.22 529.543 347.22ZM163.891 341.014C163.522 341.014 163.222 340.714 163.222 340.344V332.328C163.222 331.959 163.522 331.659 163.891 331.659C164.261 331.659 164.56 331.959 164.56 332.328V340.344C164.56 340.714 164.261 341.014 163.891 341.014ZM529.543 331.184C529.174 331.184 528.874 330.884 528.874 330.515V322.498C528.874 322.129 529.174 321.829 529.543 321.829C529.913 321.829 530.213 322.129 530.213 322.498V330.515C530.213 330.884 529.913 331.184 529.543 331.184ZM163.891 324.978C163.522 324.978 163.222 324.678 163.222 324.309V316.292C163.222 315.923 163.522 315.623 163.891 315.623C164.261 315.623 164.56 315.923 164.56 316.292V324.309C164.56 324.678 164.261 324.978 163.891 324.978ZM529.543 315.148C529.174 315.148 528.874 314.848 528.874 314.479V306.463C528.874 306.093 529.174 305.794 529.543 305.794C529.913 305.794 530.213 306.093 530.213 306.463V314.479C530.213 314.848 529.913 315.148 529.543 315.148ZM163.891 308.942C163.522 308.942 163.222 308.642 163.222 308.273V300.257C163.222 299.887 163.522 299.588 163.891 299.588C164.261 299.588 164.56 299.887 164.56 300.257V308.273C164.56 308.642 164.261 308.942 163.891 308.942ZM529.543 299.112C529.174 299.112 528.874 298.813 528.874 298.443V290.427C528.874 290.058 529.174 289.758 529.543 289.758C529.913 289.758 530.213 290.058 530.213 290.427V298.443C530.213 298.813 529.913 299.112 529.543 299.112ZM163.891 292.906C163.522 292.906 163.222 292.607 163.222 292.237V284.221C163.222 283.852 163.522 283.552 163.891 283.552C164.261 283.552 164.56 283.852 164.56 284.221V292.237C164.56 292.607 164.261 292.906 163.891 292.906ZM529.543 283.077C529.174 283.077 528.874 282.777 528.874 282.408V274.391C528.874 274.022 529.174 273.722 529.543 273.722C529.913 273.722 530.213 274.022 530.213 274.391V282.408C530.213 282.777 529.913 283.077 529.543 283.077ZM163.891 276.871C163.522 276.871 163.222 276.571 163.222 276.202V268.185C163.222 267.816 163.522 267.516 163.891 267.516C164.261 267.516 164.56 267.816 164.56 268.185V276.202C164.56 276.571 164.261 276.871 163.891 276.871ZM529.543 267.041C529.174 267.041 528.874 266.741 528.874 266.372V258.356C528.874 257.986 529.174 257.686 529.543 257.686C529.913 257.686 530.213 257.986 530.213 258.356V266.372C530.213 266.741 529.913 267.041 529.543 267.041ZM163.891 260.835C163.522 260.835 163.222 260.535 163.222 260.166V252.15C163.222 251.78 163.522 251.48 163.891 251.48C164.261 251.48 164.56 251.78 164.56 252.15V260.166C164.56 260.535 164.261 260.835 163.891 260.835ZM529.543 251.005C529.174 251.005 528.874 250.705 528.874 250.336V250.052C528.874 247.572 528.226 245.135 526.993 243.001C526.808 242.68 526.917 242.271 527.238 242.09C527.559 241.905 527.968 242.014 528.15 242.335C529.498 244.672 530.21 247.342 530.21 250.055V250.339C530.21 250.709 529.91 251.008 529.54 251.008L529.543 251.005ZM165.054 244.96C164.966 244.96 164.878 244.941 164.794 244.908C164.454 244.766 164.294 244.372 164.439 244.033C165.53 241.451 167.307 239.211 169.582 237.549C169.879 237.331 170.297 237.394 170.515 237.694C170.733 237.991 170.666 238.408 170.369 238.626C168.292 240.143 166.668 242.193 165.672 244.554C165.563 244.808 165.318 244.963 165.057 244.963L165.054 244.96ZM521.932 237.776C521.823 237.776 521.711 237.749 521.608 237.691C519.516 236.522 517.132 235.905 514.718 235.905H514.237C513.867 235.905 513.567 235.605 513.567 235.236C513.567 234.867 513.867 234.567 514.237 234.567H514.718C517.359 234.567 519.967 235.242 522.259 236.522C522.58 236.701 522.699 237.11 522.517 237.431C522.396 237.649 522.165 237.773 521.932 237.773V237.776ZM177.387 235.962C177.044 235.962 176.754 235.702 176.72 235.354C176.687 234.985 176.96 234.664 177.326 234.63C177.783 234.591 178.25 234.57 178.713 234.57H185.403C185.773 234.57 186.073 234.87 186.073 235.239C186.073 235.608 185.773 235.908 185.403 235.908H178.713C178.289 235.908 177.862 235.926 177.444 235.962C177.423 235.962 177.405 235.962 177.384 235.962H177.387ZM506.217 235.905H498.197C497.827 235.905 497.528 235.605 497.528 235.236C497.528 234.867 497.827 234.567 498.197 234.567H506.217C506.586 234.567 506.886 234.867 506.886 235.236C506.886 235.605 506.586 235.905 506.217 235.905ZM490.177 235.905H482.157C481.788 235.905 481.488 235.605 481.488 235.236C481.488 234.867 481.788 234.567 482.157 234.567H490.177C490.547 234.567 490.846 234.867 490.846 235.236C490.846 235.605 490.547 235.905 490.177 235.905ZM474.138 235.905H466.118C465.748 235.905 465.448 235.605 465.448 235.236C465.448 234.867 465.748 234.567 466.118 234.567H474.138C474.507 234.567 474.807 234.867 474.807 235.236C474.807 235.605 474.507 235.905 474.138 235.905ZM458.098 235.905H450.078C449.709 235.905 449.409 235.605 449.409 235.236C449.409 234.867 449.709 234.567 450.078 234.567H458.098C458.467 234.567 458.767 234.867 458.767 235.236C458.767 235.605 458.467 235.905 458.098 235.905ZM442.058 235.905H434.039C433.669 235.905 433.369 235.605 433.369 235.236C433.369 234.867 433.669 234.567 434.039 234.567H442.058C442.428 234.567 442.728 234.867 442.728 235.236C442.728 235.605 442.428 235.905 442.058 235.905ZM426.019 235.905H417.999C417.629 235.905 417.33 235.605 417.33 235.236C417.33 234.867 417.629 234.567 417.999 234.567H426.019C426.388 234.567 426.688 234.867 426.688 235.236C426.688 235.605 426.388 235.905 426.019 235.905ZM409.979 235.905H401.959C401.59 235.905 401.29 235.605 401.29 235.236C401.29 234.867 401.59 234.567 401.959 234.567H409.979C410.349 234.567 410.648 234.867 410.648 235.236C410.648 235.605 410.349 235.905 409.979 235.905ZM393.94 235.905H385.92C385.55 235.905 385.25 235.605 385.25 235.236C385.25 234.867 385.55 234.567 385.92 234.567H393.94C394.309 234.567 394.609 234.867 394.609 235.236C394.609 235.605 394.309 235.905 393.94 235.905ZM377.9 235.905H369.88C369.511 235.905 369.211 235.605 369.211 235.236C369.211 234.867 369.511 234.567 369.88 234.567H377.9C378.269 234.567 378.569 234.867 378.569 235.236C378.569 235.605 378.269 235.905 377.9 235.905ZM361.86 235.905H353.84C353.471 235.905 353.171 235.605 353.171 235.236C353.171 234.867 353.471 234.567 353.84 234.567H361.86C362.23 234.567 362.53 234.867 362.53 235.236C362.53 235.605 362.23 235.905 361.86 235.905ZM345.821 235.905H337.801C337.431 235.905 337.132 235.605 337.132 235.236C337.132 234.867 337.431 234.567 337.801 234.567H345.821C346.19 234.567 346.49 234.867 346.49 235.236C346.49 235.605 346.19 235.905 345.821 235.905ZM329.781 235.905H321.761C321.392 235.905 321.092 235.605 321.092 235.236C321.092 234.867 321.392 234.567 321.761 234.567H329.781C330.151 234.567 330.45 234.867 330.45 235.236C330.45 235.605 330.151 235.905 329.781 235.905ZM313.742 235.905H305.722C305.352 235.905 305.052 235.605 305.052 235.236C305.052 234.867 305.352 234.567 305.722 234.567H313.742C314.111 234.567 314.411 234.867 314.411 235.236C314.411 235.605 314.111 235.905 313.742 235.905ZM297.702 235.905H289.682C289.313 235.905 289.013 235.605 289.013 235.236C289.013 234.867 289.313 234.567 289.682 234.567H297.702C298.071 234.567 298.371 234.867 298.371 235.236C298.371 235.605 298.071 235.905 297.702 235.905ZM281.662 235.905H273.642C273.273 235.905 272.973 235.605 272.973 235.236C272.973 234.867 273.273 234.567 273.642 234.567H281.662C282.032 234.567 282.332 234.867 282.332 235.236C282.332 235.605 282.032 235.905 281.662 235.905ZM265.623 235.905H257.603C257.233 235.905 256.934 235.605 256.934 235.236C256.934 234.867 257.233 234.567 257.603 234.567H265.623C265.992 234.567 266.292 234.867 266.292 235.236C266.292 235.605 265.992 235.905 265.623 235.905ZM249.583 235.905H241.563C241.194 235.905 240.894 235.605 240.894 235.236C240.894 234.867 241.194 234.567 241.563 234.567H249.583C249.953 234.567 250.252 234.867 250.252 235.236C250.252 235.605 249.953 235.905 249.583 235.905ZM233.543 235.905H225.524C225.154 235.905 224.854 235.605 224.854 235.236C224.854 234.867 225.154 234.567 225.524 234.567H233.543C233.913 234.567 234.213 234.867 234.213 235.236C234.213 235.605 233.913 235.905 233.543 235.905ZM217.504 235.905H209.484C209.115 235.905 208.815 235.605 208.815 235.236C208.815 234.867 209.115 234.567 209.484 234.567H217.504C217.873 234.567 218.173 234.867 218.173 235.236C218.173 235.605 217.873 235.905 217.504 235.905ZM201.464 235.905H193.444C193.075 235.905 192.775 235.605 192.775 235.236C192.775 234.867 193.075 234.567 193.444 234.567H201.464C201.834 234.567 202.134 234.867 202.134 235.236C202.134 235.605 201.834 235.905 201.464 235.905Z" fill="#212D42"/>
<path d="M540.298 337.196H465.739C459.094 337.196 453.706 342.581 453.706 349.224V378.689C453.706 385.331 459.094 390.716 465.739 390.716H540.298C546.943 390.716 552.331 385.331 552.331 378.689V349.224C552.331 342.581 546.943 337.196 540.298 337.196Z" fill="white"/>
<path d="M540.298 391.385H465.739C458.737 391.385 453.037 385.691 453.037 378.688V349.224C453.037 342.224 458.734 336.527 465.739 336.527H540.298C547.3 336.527 553 342.221 553 349.224V378.688C553 385.688 547.303 391.385 540.298 391.385ZM465.739 337.865C459.473 337.865 454.376 342.96 454.376 349.224V378.688C454.376 384.952 459.473 390.047 465.739 390.047H540.298C546.564 390.047 551.661 384.952 551.661 378.688V349.224C551.661 342.96 546.564 337.865 540.298 337.865H465.739Z" fill="#212D42"/>
<path d="M475.176 374.665C481.104 374.665 485.91 369.873 485.91 363.961C485.91 358.049 481.104 353.256 475.176 353.256C469.248 353.256 464.443 358.049 464.443 363.961C464.443 369.873 469.248 374.665 475.176 374.665Z" fill="#212D42"/>
<path d="M348.059 412.162C347.91 412.162 347.762 412.113 347.638 412.013C347.35 411.78 347.308 411.359 347.538 411.075L374.099 378.231C374.329 377.947 374.75 377.898 375.038 378.132C375.326 378.362 375.368 378.785 375.138 379.07L348.577 411.913C348.443 412.077 348.253 412.162 348.056 412.162H348.059Z" fill="#212D42"/>
<path d="M379.441 373.357C379.293 373.357 379.145 373.309 379.02 373.209C378.733 372.976 378.69 372.555 378.921 372.271L410.712 332.961C410.942 332.673 411.363 332.628 411.651 332.861C411.939 333.091 411.981 333.515 411.751 333.799L379.959 373.109C379.826 373.273 379.635 373.357 379.438 373.357H379.441Z" fill="#212D42"/>
<path d="M416.012 328.138C415.864 328.138 415.715 328.09 415.591 327.99C415.303 327.757 415.261 327.336 415.491 327.052L425.271 314.96C425.501 314.673 425.922 314.627 426.21 314.861C426.497 315.094 426.54 315.514 426.309 315.799L416.53 327.89C416.397 328.054 416.206 328.138 416.009 328.138H416.012Z" fill="#212D42"/>
<path d="M242.723 408.819C242.575 408.819 242.426 408.771 242.302 408.671C242.015 408.438 241.972 408.017 242.202 407.733L260.783 384.758C261.016 384.471 261.434 384.425 261.722 384.658C262.01 384.888 262.052 385.312 261.822 385.597L243.241 408.571C243.108 408.735 242.917 408.819 242.72 408.819H242.723Z" fill="#212D42"/>
<path d="M264.941 381.346C264.793 381.346 264.644 381.298 264.52 381.198C264.233 380.965 264.19 380.544 264.42 380.26L286.214 353.313C286.448 353.026 286.865 352.98 287.153 353.214C287.441 353.444 287.483 353.867 287.253 354.152L265.459 381.098C265.326 381.262 265.135 381.346 264.938 381.346H264.941Z" fill="#212D42"/>
<path d="M293.707 345.778C293.559 345.778 293.41 345.73 293.286 345.63C292.998 345.397 292.956 344.976 293.186 344.692L316.164 316.28C316.395 315.993 316.816 315.947 317.103 316.18C317.391 316.413 317.433 316.834 317.203 317.119L294.225 345.53C294.092 345.694 293.901 345.778 293.704 345.778H293.707Z" fill="#212D42"/>
<path d="M330.665 475.336C330.517 475.336 330.369 475.287 330.244 475.188C329.957 474.954 329.914 474.534 330.145 474.249L363.556 432.935C363.787 432.648 364.208 432.602 364.495 432.835C364.783 433.068 364.825 433.489 364.595 433.774L331.183 475.088C331.05 475.251 330.859 475.336 330.662 475.336H330.665Z" fill="#212D42"/>
<path d="M367.63 429.629C367.481 429.629 367.333 429.581 367.209 429.481C366.921 429.251 366.879 428.827 367.109 428.542L395.657 393.244C395.89 392.956 396.308 392.911 396.596 393.144C396.883 393.377 396.926 393.798 396.696 394.082L368.148 429.381C368.015 429.544 367.824 429.629 367.627 429.629H367.63Z" fill="#212D42"/>
<path d="M327.334 51.5501C342.471 65.8421 348.589 81.7688 347.259 110.849C352.247 101.519 354.664 94.314 354.764 86.1978L363.126 93.3423C364.895 85.7346 365.283 76.1955 360.061 69.0631L370.792 76.913C367.551 62.7663 365.607 37.1915 337.571 42.6891L327.334 51.5471V51.5501Z" fill="white"/>
<path d="M347.259 111.518C347.202 111.518 347.141 111.509 347.084 111.494C346.781 111.412 346.578 111.131 346.593 110.819C347.877 82.7496 342.535 66.8199 326.877 52.0344C326.74 51.9043 326.665 51.7226 326.668 51.5349C326.674 51.3472 326.756 51.1686 326.898 51.0445L337.135 42.1866C337.222 42.1109 337.328 42.0594 337.444 42.0352C363.32 36.9614 367.63 58.1769 370.483 72.2146C370.81 73.8281 371.122 75.3509 371.443 76.7646C371.507 77.0371 371.391 77.3186 371.158 77.47C370.925 77.6244 370.622 77.6153 370.395 77.4518L362.39 71.597C366.01 78.7687 365.225 87.2755 363.777 93.4936C363.726 93.7207 363.556 93.9053 363.335 93.978C363.114 94.0506 362.869 94.0022 362.693 93.8508L355.391 87.6146C355.058 94.9225 352.82 101.87 347.847 111.167C347.729 111.388 347.499 111.521 347.256 111.521L347.259 111.518ZM328.327 51.5743C343.14 65.8088 348.786 81.8445 348.038 107.898C352.232 99.5331 354.01 93.0879 354.095 86.1917C354.098 85.9314 354.249 85.6982 354.489 85.5923C354.725 85.4863 355.001 85.5257 355.197 85.6922L362.714 92.1131C364.126 85.3834 364.562 76.3438 359.522 69.4597C359.328 69.1933 359.356 68.827 359.589 68.5939C359.822 68.3608 360.192 68.3335 360.455 68.5273L369.759 75.3327C369.565 74.4185 369.371 73.4679 369.171 72.484C366.264 58.189 362.284 38.6234 337.874 43.3157L328.327 51.5743Z" fill="#212D42"/>
<path d="M273.882 33.4406C253.796 39.0079 240.915 50.2271 228.443 76.5497C228.413 65.9783 229.661 58.4826 233.38 51.2625L222.634 53.6752C224.639 46.1281 228.776 37.5154 236.739 33.6495L223.573 35.5809C233.074 24.5918 246.797 2.89494 268.994 20.8409L273.882 33.4467V33.4406Z" fill="white"/>
<path d="M228.44 77.2157C228.392 77.2157 228.343 77.2096 228.295 77.2005C227.989 77.1339 227.774 76.8615 227.771 76.5497C227.741 66.0146 229.022 58.8308 232.156 52.2191L222.777 54.3231C222.553 54.3745 222.31 54.3019 222.15 54.1354C221.989 53.9658 221.926 53.7267 221.986 53.4996C223.628 47.33 226.926 39.4468 233.486 34.7968L223.667 36.2348C223.389 36.2742 223.119 36.141 222.983 35.8958C222.849 35.6505 222.88 35.3478 223.064 35.1359C224.012 34.04 225.003 32.8382 226.048 31.5637C235.158 20.4897 248.926 3.74862 269.408 20.3111C269.499 20.3838 269.569 20.4806 269.611 20.5896L274.5 33.1954C274.566 33.371 274.557 33.5677 274.472 33.7373C274.388 33.9068 274.236 34.0309 274.054 34.0824C253.278 39.8404 241.079 51.4289 229.04 76.8312C228.928 77.0673 228.689 77.2127 228.437 77.2127L228.44 77.2157ZM233.377 50.5904C233.58 50.5904 233.777 50.6842 233.907 50.8507C234.064 51.0566 234.092 51.3351 233.974 51.5652C230.815 57.7016 229.361 64.2254 229.14 73.5738C240.706 50.1999 253.22 38.6658 272.991 32.9956L268.433 21.2435C249.059 5.70125 236.36 21.1406 227.083 32.4174C226.444 33.1924 225.83 33.9431 225.23 34.6576L236.642 32.9835C236.966 32.932 237.281 33.1318 237.378 33.4467C237.475 33.7615 237.326 34.1006 237.029 34.2459C229.343 37.9786 225.487 46.1675 223.576 52.7731L233.232 50.6055C233.28 50.5934 233.328 50.5904 233.377 50.5904Z" fill="#212D42"/>
<path d="M299.171 96.7237C323.928 96.7237 343.997 76.7116 343.997 52.0253C343.997 27.3391 323.928 7.3269 299.171 7.3269C274.414 7.3269 254.344 27.3391 254.344 52.0253C254.344 76.7116 274.414 96.7237 299.171 96.7237Z" fill="#212D42"/>
<path d="M301.288 94.417C325.311 94.417 344.785 74.9985 344.785 51.0445C344.785 27.0906 325.311 7.67206 301.288 7.67206C277.265 7.67206 257.791 27.0906 257.791 51.0445C257.791 74.9985 277.265 94.417 301.288 94.417Z" fill="white"/>
<path d="M301.312 95.089C298.804 95.089 296.266 94.8741 293.713 94.4321C282.092 92.4128 271.953 86.004 265.165 76.3832C258.378 66.7623 255.755 55.0799 257.779 43.4913C261.955 19.5694 284.87 3.49433 308.865 7.6569C320.486 9.67612 330.626 16.085 337.413 25.7058C344.2 35.3266 346.823 47.0091 344.8 58.5976C341.066 79.9766 322.367 95.089 301.312 95.089ZM301.27 8.33502C280.848 8.33502 262.718 22.9873 259.099 43.7184C257.136 54.9558 259.681 66.284 266.262 75.6112C272.843 84.9414 282.674 91.1565 293.946 93.1152C296.421 93.5451 298.886 93.754 301.315 93.754C321.737 93.754 339.866 79.1017 343.486 58.3706C345.448 47.1332 342.904 35.8049 336.323 26.4778C329.742 17.1476 319.911 10.9325 308.638 8.97378C306.164 8.5439 303.699 8.33502 301.27 8.33502Z" fill="#212D42"/>
<path d="M301.288 87.442C321.447 87.442 337.789 71.1463 337.789 51.0445C337.789 30.9427 321.447 14.647 301.288 14.647C281.129 14.647 264.787 30.9427 264.787 51.0445C264.787 71.1463 281.129 87.442 301.288 87.442Z" fill="white"/>
<path d="M328.131 76.3862C327.967 76.3862 327.803 76.3287 327.676 76.2076C327.407 75.9563 327.389 75.5325 327.64 75.263C329.966 72.7504 331.91 69.9289 333.422 66.8774C333.585 66.5474 333.985 66.4112 334.318 66.5746C334.648 66.7381 334.784 67.1377 334.621 67.4707C333.052 70.6373 331.035 73.5647 328.621 76.1712C328.491 76.3135 328.309 76.3862 328.131 76.3862Z" fill="#212D42"/>
<path d="M336.39 41.6931C336.099 41.6931 335.832 41.5023 335.748 41.2087C331.925 27.9309 321.077 18.2132 307.436 15.8458C296.23 13.9022 284.639 17.4382 276.429 25.3092C276.162 25.5635 275.738 25.5544 275.484 25.291C275.23 25.0246 275.239 24.6008 275.502 24.3465C284.019 16.1818 296.042 12.5157 307.663 14.5319C321.598 16.9508 333.125 27.28 337.029 40.8424C337.132 41.1966 336.926 41.5659 336.571 41.6688C336.511 41.687 336.447 41.6961 336.387 41.6961L336.39 41.6931Z" fill="#212D42"/>
<path d="M295.028 87.5721C294.991 87.5721 294.952 87.5691 294.913 87.563C285.13 85.8647 276.598 80.47 270.886 72.3719C265.174 64.2739 262.967 54.4411 264.669 44.6871C265.762 38.4326 268.451 32.5415 272.449 27.6493C272.682 27.3647 273.103 27.3224 273.391 27.5555C273.676 27.7886 273.718 28.2094 273.485 28.497C269.633 33.2105 267.037 38.8898 265.986 44.9202C264.345 54.323 266.474 63.7986 271.98 71.606C277.486 79.4135 285.712 84.6144 295.143 86.2522C295.506 86.3158 295.751 86.6609 295.688 87.0242C295.63 87.3481 295.349 87.5782 295.031 87.5782L295.028 87.5721Z" fill="#212D42"/>
<path d="M147.122 510.752C147.122 510.752 151.607 524.46 156.092 528.647C160.578 532.831 178.419 541.059 178.668 550.005C178.959 560.395 172.904 562.317 156.698 558.563C144.989 555.853 135.325 548.712 131.872 544.637C128.823 541.038 130.525 537.977 131.27 533.757C132.184 528.58 132.36 523.304 132.36 518.048V509.454L147.122 510.752Z" fill="white"/>
<path d="M168.891 561C165.723 561 161.686 560.404 156.547 559.214C144.584 556.444 134.75 549.069 131.361 545.07C128.708 541.937 129.383 539.067 130.098 536.028C130.276 535.262 130.464 534.472 130.61 533.642C131.561 528.253 131.688 522.735 131.688 518.048V509.454C131.688 509.266 131.766 509.087 131.906 508.96C132.045 508.833 132.233 508.77 132.418 508.788L147.179 510.086C147.446 510.111 147.673 510.289 147.755 510.544C147.8 510.68 152.24 524.136 156.55 528.157C157.743 529.271 159.978 530.721 162.568 532.401C169.564 536.939 179.146 543.154 179.337 549.984C179.458 554.334 178.51 557.179 176.351 558.944C174.673 560.316 172.28 560.997 168.891 560.997V561ZM133.029 510.183V518.048C133.029 522.792 132.899 528.381 131.93 533.872C131.776 534.741 131.588 535.549 131.403 536.33C130.685 539.379 130.167 541.586 132.384 544.204C135.661 548.073 145.204 555.215 156.853 557.909C166.908 560.237 172.662 560.237 175.509 557.909C177.32 556.429 178.114 553.922 178.005 550.02C177.835 543.893 168.592 537.898 161.844 533.521C159.203 531.807 156.919 530.327 155.641 529.134C151.477 525.247 147.437 513.768 146.628 511.379L133.032 510.183H133.029Z" fill="#212D42"/>
<path d="M178.032 554.976C178.017 554.976 177.998 554.976 177.983 554.976L172.22 554.561C157.313 553.486 143.369 547.083 132.96 536.536C131.561 535.119 130.794 534.232 130.764 534.196C130.522 533.917 130.555 533.494 130.834 533.255C131.112 533.015 131.533 533.046 131.776 533.324C131.782 533.333 132.548 534.217 133.911 535.598C144.093 545.915 157.734 552.175 172.317 553.229L178.08 553.644C178.45 553.671 178.725 553.989 178.698 554.358C178.674 554.709 178.38 554.979 178.032 554.979V554.976Z" fill="#212D42"/>
<path d="M143.251 532.931C142.93 532.931 142.648 532.701 142.594 532.374C142.533 532.01 142.779 531.665 143.142 531.605C143.218 531.593 150.677 530.312 153.454 526.7C153.679 526.407 154.1 526.352 154.39 526.576C154.684 526.8 154.739 527.221 154.514 527.512C151.416 531.541 143.69 532.867 143.363 532.922C143.327 532.928 143.29 532.931 143.254 532.931H143.251Z" fill="#212D42"/>
<path d="M150.105 537.571C149.796 537.571 149.517 537.357 149.451 537.042C149.375 536.681 149.605 536.327 149.965 536.252C150.038 536.236 157.077 534.72 159.139 531.235C159.327 530.917 159.736 530.811 160.054 531.002C160.372 531.19 160.475 531.599 160.287 531.916C157.922 535.906 150.55 537.493 150.238 537.559C150.193 537.568 150.147 537.575 150.102 537.575L150.105 537.571Z" fill="#212D42"/>
<path d="M157.473 541.955C157.201 541.955 156.946 541.789 156.847 541.519C156.719 541.174 156.895 540.79 157.24 540.659C157.298 540.638 163.043 538.471 164.715 534.98C164.875 534.647 165.272 534.508 165.605 534.665C165.938 534.826 166.078 535.222 165.92 535.555C164.015 539.536 157.961 541.816 157.704 541.91C157.628 541.937 157.549 541.952 157.47 541.952L157.473 541.955Z" fill="#212D42"/>
<path d="M112.535 477.034C111.99 477.034 104.188 476.262 99.6812 475.811C97.9307 475.636 96.3679 476.904 96.1771 478.648L95.2897 486.794C94.9777 489.673 94.3962 492.519 93.5815 495.298C92.1036 500.348 89.923 509.042 91.1162 513.011C92.3943 517.255 96.3861 523.168 99.021 526.534C100.238 528.087 102.292 528.705 104.164 528.075C107.513 526.955 112.865 524.799 116.006 521.669C120.83 516.859 115.621 507.622 115.621 507.622L112.535 477.031V477.034Z" fill="white"/>
<path d="M102.692 528.986C101.083 528.986 99.5207 528.256 98.497 526.949C95.5865 523.234 91.7401 517.407 90.4772 513.208C89.29 509.257 91.1617 501.186 92.9425 495.113C93.7572 492.331 94.3236 489.51 94.6264 486.725L95.5108 478.578C95.741 476.477 97.6399 474.939 99.7448 475.148C107.359 475.908 112.138 476.365 112.532 476.368C112.874 476.368 113.162 476.629 113.198 476.968L116.272 507.425C116.92 508.624 121.345 517.295 116.478 522.147C113.337 525.281 108.161 527.448 104.376 528.714C103.821 528.898 103.255 528.989 102.692 528.989V528.986ZM99.3602 476.465C98.0851 476.465 96.9797 477.431 96.8404 478.72L95.956 486.867C95.644 489.728 95.0626 492.628 94.2236 495.486C92.8093 500.317 90.6044 508.991 91.7553 512.82C92.888 516.583 96.483 522.214 99.5449 526.122C100.584 527.445 102.352 527.981 103.949 527.442C106.938 526.443 112.417 524.3 115.53 521.197C119.943 516.795 115.085 508.04 115.033 507.952C114.988 507.873 114.961 507.783 114.952 507.692L111.92 477.661C110.039 477.509 104.388 476.952 99.6055 476.474C99.5207 476.465 99.4359 476.462 99.3541 476.462L99.3602 476.465Z" fill="#212D42"/>
<path d="M106.272 527.642C106.063 527.642 105.857 527.545 105.726 527.36C96.1832 513.977 96.8313 510.471 98.2457 502.791C98.5364 501.213 98.8665 499.427 99.1361 497.341C99.8539 491.786 102.01 476.513 102.031 476.362C102.083 475.996 102.422 475.738 102.786 475.793C103.152 475.844 103.406 476.183 103.355 476.547C103.334 476.701 101.18 491.965 100.463 497.511C100.187 499.63 99.8539 501.437 99.5601 503.03C98.2154 510.329 97.6006 513.659 106.814 526.582C107.029 526.882 106.959 527.3 106.656 527.515C106.538 527.599 106.402 527.639 106.268 527.639L106.272 527.642Z" fill="#212D42"/>
<path d="M104.978 504.307C104.651 504.307 104.366 504.068 104.318 503.735C104.264 503.369 104.518 503.03 104.881 502.978L113.673 501.689C114.049 501.631 114.379 501.889 114.431 502.252C114.485 502.618 114.231 502.957 113.867 503.009L105.075 504.298C105.042 504.304 105.009 504.304 104.978 504.304V504.307Z" fill="#212D42"/>
<path d="M105.884 510.625C105.557 510.625 105.272 510.386 105.224 510.053C105.169 509.687 105.424 509.348 105.787 509.296L114.579 508.007C114.955 507.946 115.285 508.207 115.336 508.57C115.391 508.936 115.136 509.275 114.773 509.327L105.981 510.616C105.947 510.622 105.914 510.622 105.884 510.622V510.625Z" fill="#212D42"/>
<path d="M115.442 513.535C120.57 517.061 131.418 521.599 149.651 516.144L141.803 300.099L107.459 293.557C107.459 293.557 102.455 371.066 107.325 417.196C111.771 459.303 111.953 495.195 111.877 506.596C111.859 509.351 113.168 511.969 115.442 513.532V513.535Z" fill="#212D42"/>
<path d="M115.591 283.84L174.467 264.322L194.229 374.62C192.191 401.787 160.965 473.698 149.223 481.748C130.7 494.447 115.591 283.84 115.591 283.84Z" fill="#212D42"/>
<path d="M149.329 482.968H149.311C148.942 482.959 148.651 482.653 148.66 482.284L152.467 331.468C152.476 331.105 152.773 330.818 153.136 330.818H153.155C153.524 330.827 153.815 331.132 153.806 331.502L149.999 482.317C149.99 482.68 149.693 482.968 149.333 482.968H149.329Z" fill="white"/>
<path d="M231.884 153.289C231.417 153.198 231.084 152.793 231.096 152.321C231.148 149.865 231.663 142.5 235.806 139.118C240.821 135.025 245.076 125.629 248.117 126.54C251.158 127.451 244.471 135.634 245.228 136.542C245.988 137.45 251.306 132.298 252.978 129.267C254.65 126.237 256.673 120.304 259.102 120.506C262.434 120.782 263.163 125.783 258.754 135.634C254.559 145.01 240.455 147.522 239.361 153.749C239.268 154.279 238.753 154.624 238.223 154.521L231.881 153.292L231.884 153.289Z" fill="white"/>
<path d="M238.417 155.206C238.311 155.206 238.205 155.197 238.099 155.175L231.76 153.946C230.972 153.795 230.412 153.105 230.43 152.308C230.494 149.351 231.105 142.094 235.385 138.601C237.438 136.927 239.428 134.244 241.182 131.877C243.932 128.169 246.106 125.235 248.311 125.898C248.85 126.059 249.238 126.401 249.438 126.888C250.013 128.308 248.871 130.545 247.19 133.554C246.794 134.266 246.294 135.162 246.027 135.761C247.545 134.865 251.025 131.432 252.397 128.947C252.781 128.25 253.19 127.388 253.62 126.473C255.204 123.119 256.822 119.635 259.16 119.84C260.304 119.934 261.21 120.497 261.785 121.472C263.269 123.979 262.409 129.107 259.366 135.906C257.079 141.02 252.051 144.104 247.618 146.826C243.792 149.175 240.488 151.203 240.022 153.865C239.946 154.294 239.707 154.667 239.343 154.918C239.065 155.109 238.744 155.209 238.414 155.209L238.417 155.206ZM247.681 127.142C246.352 127.142 244.271 129.952 242.254 132.67C240.452 135.101 238.41 137.853 236.227 139.633C232.268 142.863 231.808 150.171 231.763 152.333C231.76 152.478 231.863 152.602 232.011 152.632L238.35 153.861C238.462 153.88 238.544 153.84 238.586 153.813C238.632 153.783 238.689 153.725 238.704 153.631C239.277 150.377 242.817 148.203 246.918 145.685C251.188 143.063 256.028 140.09 258.145 135.358C262.149 126.41 261.219 123.14 260.635 122.147C260.28 121.548 259.762 121.227 259.048 121.169C259.023 121.169 259.002 121.169 258.978 121.169C257.6 121.169 255.998 124.557 254.826 127.042C254.383 127.975 253.969 128.856 253.563 129.591C252.154 132.143 247.448 137.136 245.613 137.311C245.116 137.366 244.834 137.117 244.713 136.972C244.156 136.306 244.677 135.307 246.018 132.906C246.975 131.196 248.572 128.329 248.193 127.394C248.163 127.321 248.114 127.239 247.923 127.182C247.845 127.157 247.763 127.148 247.681 127.148V127.142Z" fill="#212D42"/>
<path d="M239.137 152.393L232.078 150.986C230.521 150.674 228.994 151.636 228.616 153.174C226.393 162.187 219.024 190.404 213.388 192.696C206.67 195.424 201.198 188.479 189.753 182.772C183.647 179.73 174.319 178.592 166.944 178.192C160.496 177.844 154.036 178.398 147.736 179.818L127.635 184.344C125.191 184.761 116.975 186.314 108.016 191.237C108.579 192.16 99.2148 195.651 99.7054 196.586C106.744 209.988 107.362 229.481 105.905 244.557C112.853 254.659 124.146 258.761 119.725 265.582C110.814 279.335 108.101 287.787 107.825 300.118C119.346 291.677 136.797 281.07 159.942 274.219C172.874 270.389 184.68 268.594 194.553 267.816C192.73 264.737 190.107 259.642 188.55 252.937C186.251 243.028 188.141 237.631 186.733 226.221C186.212 222.01 185.085 215.698 182.284 208.081C195.234 219.969 212.264 225.222 225.075 219.987C243.877 212.307 255.234 181.371 239.131 152.396L239.137 152.393Z" fill="white"/>
<path d="M107.828 300.784C107.722 300.784 107.616 300.759 107.519 300.708C107.292 300.59 107.156 300.354 107.159 300.099C107.447 287.282 110.363 278.805 119.167 265.215C121.548 261.543 118.989 258.907 113.876 254.181C111.099 251.614 107.952 248.704 105.357 244.932C105.269 244.802 105.227 244.645 105.242 244.49C106.123 235.363 107.289 212.458 99.1148 196.892C99.0088 196.692 98.9907 196.456 99.0633 196.232C99.2965 195.508 100.481 194.861 103.558 193.32C104.896 192.651 106.877 191.658 107.35 191.201C107.35 191.152 107.359 191.104 107.371 191.058C107.419 190.883 107.534 190.731 107.695 190.646C115.915 186.13 123.647 184.344 127.523 183.681L147.591 179.161C153.978 177.723 160.505 177.169 166.98 177.52C174.013 177.901 183.726 179.019 190.049 182.17C193.823 184.05 196.927 186.051 199.671 187.816C205.25 191.406 208.933 193.78 213.134 192.072C217.392 190.344 223.588 170.76 227.965 153.011C228.428 151.125 230.288 149.944 232.205 150.326L239.265 151.733C239.458 151.773 239.622 151.894 239.719 152.063C247.963 166.897 249.747 183.771 244.619 198.366C240.876 209.016 233.846 217.12 225.333 220.596C213.152 225.573 197.067 221.51 183.768 210.264C185.531 215.528 186.751 220.853 187.402 226.13C188.029 231.21 188.008 235.024 187.987 238.717C187.96 243.334 187.938 247.321 189.204 252.776C190.392 257.886 192.384 262.83 195.131 267.465C195.25 267.665 195.256 267.91 195.15 268.113C195.044 268.315 194.838 268.452 194.607 268.47C182.917 269.39 171.317 271.537 160.133 274.848C141.54 280.352 124.074 289.034 108.219 300.647C108.101 300.732 107.964 300.777 107.825 300.777L107.828 300.784ZM106.596 244.375C109.082 247.929 112.108 250.73 114.785 253.203C119.594 257.647 123.392 261.156 120.291 265.945C111.959 278.805 108.994 286.985 108.54 298.773C124.222 287.472 141.449 278.996 159.757 273.574C170.693 270.335 182.023 268.203 193.451 267.232C190.909 262.745 189.044 257.992 187.905 253.085C186.603 247.475 186.627 243.219 186.651 238.714C186.672 235.066 186.694 231.291 186.076 226.299C185.337 220.314 183.853 214.26 181.663 208.308C181.557 208.02 181.663 207.693 181.917 207.524C182.175 207.351 182.514 207.379 182.741 207.587C195.804 219.582 212.719 224.316 224.827 219.37C232.986 216.037 239.74 208.223 243.359 197.933C248.332 183.79 246.63 167.424 238.701 152.993L231.944 151.645C230.733 151.403 229.558 152.148 229.264 153.338C226.493 164.575 219.421 190.967 213.639 193.317C208.791 195.284 204.662 192.626 198.947 188.945C196.234 187.198 193.16 185.218 189.453 183.372C183.332 180.32 173.813 179.233 166.908 178.861C160.547 178.513 154.151 179.061 147.885 180.472L127.784 184.998C124.004 185.645 116.578 187.359 108.643 191.655C108.364 192.36 107.144 193.026 104.154 194.521C102.879 195.16 101.02 196.09 100.447 196.568C108.555 212.304 107.477 235.033 106.593 244.381L106.596 244.375Z" fill="#212D42"/>
<path d="M158.533 269.321C158.434 269.321 158.334 269.299 158.24 269.251C157.91 269.087 157.773 268.688 157.934 268.358L175.185 233.295C175.348 232.965 175.751 232.829 176.078 232.99C176.408 233.153 176.545 233.553 176.384 233.883L159.133 268.945C159.018 269.181 158.779 269.318 158.533 269.318V269.321Z" fill="#212D42"/>
<path d="M173.628 257.744C173.543 257.744 173.455 257.729 173.374 257.693C173.035 257.55 172.871 257.16 173.013 256.821L177.741 245.408C177.883 245.066 178.274 244.905 178.613 245.047C178.952 245.19 179.116 245.58 178.974 245.919L174.246 257.332C174.14 257.59 173.892 257.744 173.628 257.744Z" fill="#212D42"/>
<path d="M108.016 191.234C108.016 191.234 39.5054 223.193 58.9068 261.876C74.0712 292.116 112.377 255.764 112.377 255.764L103.764 240.846C103.764 240.846 87.3638 253.421 85.8131 246.933C84.2897 240.564 91.9431 232.699 113.41 236.783L118.138 242.199C118.138 242.199 125.543 224.792 109.597 194.034L108.019 191.237L108.016 191.234Z" fill="white"/>
<path d="M105.905 244.557L115.442 234.37C124.05 234.779 130.555 236.707 135.622 239.677C137 240.485 136.67 242.55 135.104 242.853C132.242 243.407 128.038 244.363 122.92 245.95C113.043 249.007 110.902 251.123 110.902 251.123L105.908 244.557H105.905Z" fill="white"/>
<path d="M110.902 251.789C110.887 251.789 110.872 251.789 110.854 251.789C110.663 251.777 110.484 251.68 110.369 251.529L105.375 244.963C105.178 244.702 105.196 244.339 105.417 244.103L114.955 233.913C115.088 233.771 115.276 233.686 115.475 233.701C123.732 234.092 130.431 235.86 135.961 239.102C136.836 239.616 137.294 240.588 137.124 241.584C136.958 242.562 136.212 243.319 135.231 243.51C132.587 244.021 128.341 244.972 123.117 246.588C113.661 249.516 111.393 251.58 111.375 251.602C111.248 251.726 111.081 251.795 110.905 251.795L110.902 251.789ZM106.78 244.599L111.029 250.182C112.202 249.376 115.351 247.587 122.723 245.308C128.008 243.673 132.306 242.71 134.98 242.193C135.637 242.066 135.782 241.518 135.81 241.354C135.87 241.003 135.764 240.531 135.289 240.249C130.019 237.158 123.616 235.457 115.724 235.048L106.783 244.599H106.78Z" fill="#212D42"/>
<path d="M148.693 388.767L133.653 399.526L121.817 353.12L118.335 301.758L124.934 306.154L148.693 388.767Z" fill="white"/>
<path d="M133.653 400.195C133.578 400.195 133.499 400.183 133.423 400.155C133.214 400.08 133.06 399.907 133.005 399.692L121.169 353.286C121.16 353.247 121.154 353.208 121.151 353.165L117.668 301.804C117.65 301.549 117.78 301.307 118.001 301.18C118.219 301.053 118.495 301.062 118.707 301.201L125.306 305.597C125.44 305.685 125.534 305.815 125.579 305.969L149.342 388.582C149.42 388.854 149.317 389.145 149.087 389.311L134.047 400.071C133.932 400.152 133.796 400.195 133.659 400.195H133.653ZM122.478 353.014L134.059 398.415L147.921 388.5L124.358 306.575L119.095 303.066L122.481 353.014H122.478Z" fill="#212D42"/>
<path d="M40.0051 405.91L60.4029 303.448L118.335 301.758L133.653 399.526L40.0051 405.91Z" fill="white"/>
<path d="M40.0051 406.579C39.8143 406.579 39.6296 406.498 39.5024 406.352C39.3661 406.195 39.3085 405.986 39.3479 405.78L59.7457 303.317C59.8063 303.012 60.0698 302.788 60.3817 302.778L118.313 301.089C118.637 301.083 118.94 301.322 118.995 301.655L134.314 399.423C134.341 399.607 134.292 399.795 134.174 399.943C134.056 400.089 133.883 400.18 133.699 400.195L40.0506 406.579C40.0354 406.579 40.0203 406.579 40.0051 406.579ZM60.9541 304.101L40.8289 405.187L132.878 398.911L117.762 302.445L60.9511 304.104L60.9541 304.101Z" fill="#212D42"/>
<path d="M108.201 308.373C107.868 308.373 107.577 308.122 107.537 307.783L102.358 264.21C102.316 263.844 102.577 263.511 102.943 263.469C103.316 263.423 103.643 263.687 103.685 264.053L108.864 307.625C108.906 307.992 108.646 308.325 108.279 308.367C108.252 308.37 108.225 308.373 108.201 308.373Z" fill="#212D42"/>
<path d="M71.839 307.843C71.8178 307.843 71.7936 307.843 71.7724 307.84C71.412 307.804 71.1454 307.498 71.1727 307.135C71.315 305.282 87.1608 254.302 92.5245 245.014C93.63 243.101 95.5925 243.425 96.5374 243.579C96.698 243.606 96.916 243.655 96.9857 243.637C97.3461 243.555 97.6853 243.779 97.7701 244.139C97.8549 244.499 97.6126 244.86 97.2522 244.944C96.9857 245.005 96.6919 244.957 96.3194 244.896C95.226 244.717 94.2751 244.651 93.6814 245.68C88.4116 254.801 72.79 305.046 72.5023 307.247C72.4599 307.583 72.1691 307.84 71.836 307.84L71.839 307.843Z" fill="#212D42"/>
<path d="M84.6986 376.633L64.2614 384.976L70.9093 351.751L85.7616 309.823L88.3148 313.819L84.6986 376.633Z" fill="white"/>
<path d="M64.2614 385.642C64.11 385.642 63.9585 385.591 63.8344 385.491C63.6436 385.334 63.5557 385.085 63.6042 384.843L70.252 351.618C70.2581 351.588 70.2672 351.558 70.2762 351.527L85.1286 309.602C85.2134 309.36 85.4285 309.19 85.6829 309.163C85.9403 309.13 86.1856 309.254 86.3219 309.466L88.875 313.462C88.9508 313.58 88.9871 313.719 88.978 313.858L85.3618 376.672C85.3467 376.93 85.1862 377.154 84.9469 377.254L64.5097 385.594C64.428 385.627 64.3432 385.642 64.2584 385.642H64.2614ZM71.5574 351.927L65.1609 383.883L84.0565 376.173L87.6363 313.995L85.9342 311.334L71.5543 351.927H71.5574Z" fill="#212D42"/>
<path d="M43.4971 290.488L85.7646 309.823L64.2644 384.973L0.669312 347.704C0.669312 347.704 32.7637 314.361 43.4971 290.491V290.488Z" fill="white"/>
<path d="M64.2614 385.642C64.1433 385.642 64.0282 385.612 63.9222 385.552L0.330126 348.279C0.154465 348.176 0.0333203 347.998 0.00606266 347.795C-0.021195 347.592 0.0454348 347.389 0.184752 347.241C0.505786 346.908 32.3215 313.707 42.8854 290.215C42.958 290.052 43.0943 289.928 43.2609 289.864C43.4275 289.803 43.6122 289.806 43.7727 289.882L86.0403 309.218C86.3401 309.354 86.4946 309.69 86.4037 310.008L64.9035 385.158C64.8459 385.358 64.7006 385.518 64.5098 385.594C64.428 385.627 64.3462 385.642 64.2614 385.642ZM1.73238 347.553L63.8556 383.962L84.959 310.192L43.8242 291.375C33.7238 313.247 6.10269 342.93 1.72935 347.553H1.73238Z" fill="#212D42"/>
<path d="M76.6636 315.136C76.6 315.136 76.5364 315.127 76.4728 315.109C76.1185 315.003 75.9186 314.63 76.0215 314.276L88.8781 271.028C88.9841 270.677 89.3536 270.474 89.7109 270.577C90.0653 270.683 90.2652 271.055 90.1622 271.409L77.3057 314.658C77.2179 314.948 76.9544 315.136 76.6636 315.136Z" fill="#212D42"/>
<path d="M50.5932 301.652C50.466 301.652 50.3388 301.616 50.2237 301.54C49.9178 301.337 49.833 300.92 50.039 300.614C51.4776 298.455 85.3073 247.711 89.0023 243.758C91.0738 241.542 93.6482 240.579 95.7228 241.251C97.2371 241.742 98.2275 243.004 98.4425 244.714C98.4879 245.081 98.2305 245.414 97.864 245.462C97.4915 245.505 97.1644 245.25 97.116 244.884C96.9645 243.691 96.3255 242.853 95.3109 242.526C94.0752 242.123 92.0279 242.48 89.9805 244.672C86.3583 248.547 51.5048 300.829 51.1505 301.356C51.0233 301.549 50.8113 301.652 50.5932 301.652Z" fill="#212D42"/>
<path d="M76.7393 274.567C75.4915 274.567 74.2559 274.467 73.0384 274.255C66.7297 273.15 61.7749 269.087 58.3101 262.176C54.2457 254.075 53.6945 245.641 56.6626 237.104C65.9635 210.372 107.319 190.822 107.734 190.628C108.07 190.471 108.467 190.616 108.622 190.952C108.779 191.285 108.634 191.685 108.298 191.839C107.886 192.03 67.0356 211.347 57.9225 237.546C55.0756 245.726 55.6086 253.812 59.5034 261.577C62.7683 268.088 67.3991 271.912 73.2655 272.938C74.3861 273.135 75.5279 273.226 76.6848 273.226C91.5281 273.226 108.749 258.159 111.529 255.634L103.561 241.832C100.835 243.858 91.1526 250.721 87.0094 249.246C86.0554 248.907 85.4163 248.163 85.1589 247.088C84.5714 244.636 85.2346 242.159 87.0246 240.11C89.0961 237.736 94.5234 233.949 107.55 235.245C107.916 235.281 108.186 235.608 108.149 235.975C108.113 236.344 107.777 236.604 107.419 236.574C98.3365 235.669 91.2707 237.279 88.0331 240.985C86.5369 242.698 85.9797 244.754 86.4612 246.773C86.6127 247.412 86.9307 247.796 87.4576 247.984C90.7619 249.159 100.054 242.84 103.355 240.31C103.506 240.192 103.706 240.149 103.891 240.186C104.079 240.222 104.242 240.34 104.339 240.506L112.953 255.425C113.107 255.691 113.059 256.031 112.835 256.242C111.99 257.042 93.3241 274.561 76.7363 274.561L76.7393 274.567Z" fill="#212D42"/>
<path d="M146.286 168.317C146.286 168.317 144.072 170.748 139.447 169.894L146.286 168.317Z" fill="white"/>
<path d="M141.367 170.745C140.743 170.745 140.062 170.687 139.326 170.551C138.963 170.485 138.723 170.136 138.79 169.773C138.857 169.41 139.202 169.168 139.568 169.237C143.781 170.015 145.774 167.89 145.792 167.866C146.04 167.593 146.464 167.572 146.737 167.824C147.01 168.072 147.031 168.496 146.779 168.768C146.695 168.862 144.929 170.745 141.367 170.745Z" fill="#212D42"/>
<path d="M153.439 134.98C153.439 156.586 139.035 181.241 117.368 181.241C95.7016 181.241 73.6472 162.626 73.6472 141.02C73.6472 119.414 91.8765 98.6068 113.543 98.6068C135.21 98.6068 153.439 113.374 153.439 134.98Z" fill="#212D42"/>
<path d="M82.6512 153.044C82.6512 155.523 80.6372 157.534 78.1507 157.534C75.6642 157.534 73.6501 155.523 73.6501 153.044C73.6501 150.565 75.6642 148.555 78.1507 148.555C80.6372 148.555 82.6512 150.565 82.6512 153.044Z" fill="#212D42"/>
<path d="M84.9863 168.405C88.7632 168.405 91.825 165.352 91.825 161.587C91.825 157.822 88.7632 154.77 84.9863 154.77C81.2095 154.77 78.1477 157.822 78.1477 161.587C78.1477 165.352 81.2095 168.405 84.9863 168.405Z" fill="#212D42"/>
<path d="M87.7636 162.916C84.5623 166.107 84.5623 171.281 87.7636 174.471C90.9648 177.662 96.1529 177.662 99.3511 174.471C102.552 171.281 102.552 166.107 99.3511 162.916C96.1498 159.725 90.9618 159.725 87.7636 162.916Z" fill="#212D42"/>
<path d="M96.7707 173.248C96.7707 178.371 100.935 182.521 106.069 182.521C111.202 182.521 115.366 178.371 115.366 173.248C115.366 168.126 111.202 163.976 106.069 163.976C100.935 163.976 96.7707 168.126 96.7707 173.248Z" fill="#212D42"/>
<path d="M119.286 183.481C124.953 183.481 129.547 178.9 129.547 173.248C129.547 167.597 124.953 163.016 119.286 163.016C113.619 163.016 109.025 167.597 109.025 173.248C109.025 178.9 113.619 183.481 119.286 183.481Z" fill="#212D42"/>
<path d="M78.0326 145.906C82.6542 145.906 86.4007 142.17 86.4007 137.562C86.4007 132.954 82.6542 129.219 78.0326 129.219C73.411 129.219 69.6645 132.954 69.6645 137.562C69.6645 142.17 73.411 145.906 78.0326 145.906Z" fill="#212D42"/>
<path d="M89.1628 134.102C85.6133 137.641 79.8589 137.641 76.3093 134.102C72.7598 130.563 72.7598 124.826 76.3093 121.284C79.8589 117.746 85.6133 117.746 89.1628 121.284C92.7124 124.823 92.7124 130.56 89.1628 134.102Z" fill="#212D42"/>
<path d="M78.0326 151.848C80.9012 151.848 83.2267 149.529 83.2267 146.669C83.2267 143.808 80.9012 141.489 78.0326 141.489C75.164 141.489 72.8385 143.808 72.8385 146.669C72.8385 149.529 75.164 151.848 78.0326 151.848Z" fill="#212D42"/>
<path d="M148.724 143.26C152.613 143.26 155.765 140.117 155.765 136.239C155.765 132.362 152.613 129.219 148.724 129.219C144.835 129.219 141.682 132.362 141.682 136.239C141.682 140.117 144.835 143.26 148.724 143.26Z" fill="#212D42"/>
<path d="M149.142 134.653C153.26 134.653 156.598 131.324 156.598 127.218C156.598 123.112 153.26 119.783 149.142 119.783C145.024 119.783 141.685 123.112 141.685 127.218C141.685 131.324 145.024 134.653 149.142 134.653Z" fill="#212D42"/>
<path d="M143.951 126.204C148.308 126.204 151.84 122.681 151.84 118.336C151.84 113.99 148.308 110.468 143.951 110.468C139.593 110.468 136.061 113.99 136.061 118.336C136.061 122.681 139.593 126.204 143.951 126.204Z" fill="#212D42"/>
<path d="M138.354 116.084C142.437 116.084 145.747 112.782 145.747 108.709C145.747 104.636 142.437 101.334 138.354 101.334C134.271 101.334 130.961 104.636 130.961 108.709C130.961 112.782 134.271 116.084 138.354 116.084Z" fill="#212D42"/>
<path d="M128.977 108.712C131.775 108.712 134.044 106.45 134.044 103.659C134.044 100.869 131.775 98.6068 128.977 98.6068C126.179 98.6068 123.91 100.869 123.91 103.659C123.91 106.45 126.179 108.712 128.977 108.712Z" fill="#212D42"/>
<path d="M119.943 108.373C123.475 108.373 126.339 105.517 126.339 101.994C126.339 98.4716 123.475 95.6158 119.943 95.6158C116.41 95.6158 113.546 98.4716 113.546 101.994C113.546 105.517 116.41 108.373 119.943 108.373Z" fill="#212D42"/>
<path d="M109.715 114.488C114.496 114.488 118.371 110.624 118.371 105.857C118.371 101.09 114.496 97.2263 109.715 97.2263C104.935 97.2263 101.059 101.09 101.059 105.857C101.059 110.624 104.935 114.488 109.715 114.488Z" fill="#212D42"/>
<path d="M99.557 114.028C103.827 114.028 107.289 110.576 107.289 106.317C107.289 102.059 103.827 98.6068 99.557 98.6068C95.2867 98.6068 91.825 102.059 91.825 106.317C91.825 110.576 95.2867 114.028 99.557 114.028Z" fill="#212D42"/>
<path d="M91.825 118.854C96.47 118.854 100.235 115.099 100.235 110.468C100.235 105.837 96.47 102.082 91.825 102.082C87.18 102.082 83.4145 105.837 83.4145 110.468C83.4145 115.099 87.18 118.854 91.825 118.854Z" fill="#212D42"/>
<path d="M80.6887 122.892C83.8433 122.892 86.4007 120.341 86.4007 117.195C86.4007 114.048 83.8433 111.497 80.6887 111.497C77.534 111.497 74.9767 114.048 74.9767 117.195C74.9767 120.341 77.534 122.892 80.6887 122.892Z" fill="#212D42"/>
<path d="M141.328 135.667C142.988 136.575 143.881 136.754 145.259 137.656C148.064 139.491 151.416 145.848 155.665 146.487C156.51 148.612 154.793 149.202 154.357 150.559C155.06 151.549 156.84 156.444 158.297 159.371C158.806 160.394 158.473 161.651 157.51 162.268C155.886 163.313 153.994 164.151 151.807 164.736C151.807 164.736 143.091 183.335 156.341 190.011L128.241 187.598L135.795 162.989C135.431 162.928 130.673 162.075 129.507 158.505C129.077 157.195 128.965 155 130.092 154.316C131.191 153.647 133.402 154.458 135.137 156.75C135.298 156.096 135.389 155.278 135.464 154.34C135.567 153.056 135.552 151.612 135.068 150.976C145.559 145.887 133.572 137.057 141.328 135.667Z" fill="white"/>
<path d="M156.341 190.677C156.323 190.677 156.301 190.677 156.283 190.677L128.184 188.264C127.984 188.246 127.799 188.14 127.687 187.973C127.575 187.807 127.542 187.595 127.602 187.404L134.94 163.491C133.366 163.095 129.907 161.884 128.871 158.714C128.384 157.225 128.217 154.676 129.743 153.746C131.031 152.962 133.017 153.61 134.707 155.254C134.744 154.927 134.774 154.6 134.798 154.288C134.971 152.142 134.641 151.521 134.535 151.382C134.414 151.222 134.371 151.016 134.417 150.822C134.462 150.628 134.595 150.465 134.774 150.377C140.02 147.834 139.181 144.495 138.369 141.271C137.927 139.512 137.509 137.85 138.327 136.585C138.847 135.779 139.789 135.265 141.21 135.01C141.358 134.983 141.516 135.01 141.649 135.083C142.345 135.464 142.897 135.71 143.433 135.949C144.138 136.264 144.802 136.56 145.629 137.099C146.731 137.82 147.87 139.143 149.075 140.541C151.062 142.848 153.315 145.461 155.768 145.827C156.005 145.863 156.201 146.021 156.289 146.242C156.995 148.016 156.192 149.039 155.605 149.784C155.414 150.026 155.232 150.259 155.105 150.501C155.487 151.182 156.014 152.43 156.771 154.246C157.446 155.869 158.212 157.703 158.894 159.071C159.56 160.41 159.118 162.026 157.87 162.828C156.226 163.885 154.348 164.714 152.288 165.293C151.301 167.596 144.983 183.538 156.641 189.411C156.925 189.554 157.071 189.881 156.983 190.189C156.901 190.48 156.638 190.677 156.341 190.677ZM129.123 187.002L153.633 189.106C143.472 181.301 151.113 164.63 151.198 164.451C151.283 164.272 151.44 164.139 151.631 164.088C153.682 163.543 155.535 162.741 157.146 161.705C157.822 161.269 158.058 160.394 157.698 159.668C156.998 158.26 156.223 156.401 155.538 154.761C154.851 153.111 154.139 151.406 153.812 150.946C153.691 150.774 153.654 150.556 153.721 150.356C153.903 149.79 154.248 149.348 154.554 148.96C155.041 148.337 155.384 147.901 155.16 147.071C152.398 146.444 150.099 143.777 148.061 141.41C146.919 140.084 145.837 138.834 144.896 138.213C144.163 137.732 143.572 137.468 142.891 137.166C142.409 136.951 141.87 136.712 141.222 136.367C140.316 136.557 139.738 136.866 139.453 137.305C138.95 138.08 139.284 139.406 139.671 140.938C140.453 144.047 141.513 148.267 135.955 151.27C136.188 151.991 136.246 153.02 136.137 154.388C136.07 155.203 135.979 156.138 135.792 156.904C135.731 157.155 135.531 157.346 135.277 157.4C135.025 157.452 134.765 157.355 134.607 157.149C133.008 155.033 131.127 154.464 130.443 154.882C129.768 155.29 129.728 157.022 130.146 158.293C131.2 161.511 135.716 162.293 135.907 162.326C136.097 162.356 136.264 162.468 136.367 162.635C136.47 162.798 136.494 162.998 136.437 163.183L129.129 187.002H129.123Z" fill="#212D42"/>
<path d="M142.433 165.12C142.433 165.12 146.664 166.74 151.453 164.842L142.433 165.12Z" fill="white"/>
<path d="M146.552 166.437C144.051 166.437 142.309 165.789 142.194 165.744C141.849 165.61 141.679 165.226 141.809 164.884C141.94 164.539 142.324 164.366 142.673 164.496C142.712 164.512 146.734 165.995 151.207 164.221C151.546 164.085 151.94 164.254 152.073 164.596C152.21 164.938 152.04 165.326 151.698 165.462C149.832 166.201 148.054 166.437 146.549 166.437H146.552Z" fill="#212D42"/>
<path d="M153.133 332.153C152.997 332.153 152.858 332.11 152.74 332.026C152.443 331.808 152.376 331.39 152.594 331.093L160.853 319.768C161.071 319.471 161.486 319.405 161.786 319.623C162.083 319.841 162.15 320.258 161.932 320.555L153.673 331.88C153.542 332.059 153.339 332.156 153.133 332.156V332.153Z" fill="white"/>
<path d="M303.053 44.6876L302.937 44.6442C302.755 44.5766 302.553 44.6691 302.485 44.8508L294.316 66.7843C294.248 66.9661 294.341 67.1683 294.523 67.236L294.639 67.2793C294.821 67.3469 295.023 67.2544 295.091 67.0727L303.26 45.1392C303.328 44.9574 303.235 44.7552 303.053 44.6876Z" fill="#212D42"/>
<path d="M321.154 42.253C321.369 42.3329 321.607 42.2243 321.687 42.0104C321.767 41.7965 321.657 41.5584 321.442 41.4785L291.155 30.2074C290.94 30.1275 290.701 30.2361 290.622 30.45C290.542 30.6639 290.652 30.902 290.866 30.9819L321.154 42.253Z" fill="#212D42"/>
<path d="M317.827 51.1839C318.041 51.2638 318.28 51.1552 318.36 50.9414C318.439 50.7275 318.33 50.4893 318.115 50.4094L287.828 39.1383C287.613 39.0584 287.374 39.167 287.295 39.3809C287.215 39.5948 287.324 39.833 287.539 39.9129L317.827 51.1839Z" fill="#212D42"/>
<path d="M461.22 84.9829L461.096 84.9965C460.903 85.0177 460.764 85.1911 460.785 85.3839L463.343 108.648C463.364 108.841 463.537 108.98 463.73 108.959L463.854 108.945C464.046 108.924 464.186 108.751 464.164 108.558L461.607 85.2937C461.586 85.1009 461.413 84.9618 461.22 84.9829Z" fill="#212D42"/>
<path d="M476.262 74.6448C476.489 74.6197 476.654 74.4156 476.629 74.1887C476.604 73.9619 476.399 73.7982 476.171 73.8232L444.046 77.3514C443.818 77.3764 443.654 77.5806 443.679 77.8074C443.704 78.0343 443.909 78.1979 444.136 78.1729L476.262 74.6448Z" fill="#212D42"/>
<path d="M477.301 84.1132C477.529 84.0882 477.694 83.884 477.669 83.6572C477.644 83.4303 477.439 83.2667 477.211 83.2917L445.086 86.8198C444.858 86.8448 444.694 87.049 444.719 87.2759C444.744 87.5027 444.948 87.6663 445.176 87.6413L477.301 84.1132Z" fill="#212D42"/>
<path d="M355.152 205.589L354.61 205.648C354.377 205.674 354.209 205.883 354.235 206.116L356.388 225.709C356.414 225.942 356.623 226.11 356.856 226.084L357.398 226.025C357.631 225.999 357.799 225.79 357.773 225.557L355.619 205.964C355.594 205.731 355.384 205.563 355.152 205.589Z" fill="#212D42"/>
<path d="M380.328 188.216C380.71 188.174 380.986 187.83 380.944 187.447C380.902 187.065 380.558 186.789 380.175 186.831L326.101 192.77C325.718 192.812 325.442 193.156 325.484 193.538C325.526 193.92 325.87 194.196 326.253 194.154L380.328 188.216Z" fill="#212D42"/>
<path d="M382.08 204.156C382.463 204.114 382.739 203.77 382.697 203.388C382.655 203.006 382.311 202.73 381.928 202.772L327.853 208.711C327.471 208.753 327.195 209.096 327.237 209.479C327.279 209.861 327.623 210.137 328.006 210.095L382.08 204.156Z" fill="#212D42"/>
</g>
<defs>
<clipPath id="clip0_13_3577">
<rect width="553" height="554" fill="white" transform="translate(0 7)"/>
</clipPath>
</defs>
</svg>
