<svg width="85" height="80" viewBox="0 0 85 80" fill="none" xmlns="http://www.w3.org/2000/svg">
<g clip-path="url(#clip0_108_369)">
<path d="M79.1655 22.9257H72.5608C72.3032 22.9257 72.0895 23.1375 72.0895 23.393C72.0895 24.3215 72.1147 25.2687 72.2655 26.191C72.3409 26.6396 72.4791 27.1693 73.0196 27.2067C73.3401 27.2254 73.6668 27.2316 73.9873 27.2441C75.1876 27.3002 76.3942 27.35 77.6007 27.35C78.0532 27.35 78.5182 27.35 78.9706 27.2939C79.398 27.2379 79.6493 27.0385 79.6493 26.5836V23.3868C79.6493 22.7823 78.7067 22.7823 78.7067 23.3868V26.0663C78.7067 26.2533 78.6941 26.4465 78.7067 26.6334C78.7193 26.9014 78.7696 26.4589 78.9141 26.3655C78.8952 26.3779 79.0272 26.3468 78.9706 26.3405C78.9518 26.3405 78.9204 26.353 78.8952 26.3592C78.7444 26.3904 78.9518 26.3592 78.8135 26.3717C78.7256 26.3779 78.6376 26.3841 78.5496 26.3904C78.3297 26.4028 78.116 26.4091 77.8961 26.4091C76.7649 26.4153 75.6275 26.3717 74.4963 26.3218C74.0879 26.3031 73.6857 26.2844 73.2772 26.2658C73.2207 26.2658 73.1704 26.2595 73.1138 26.2658C73.0384 26.2658 72.9567 26.2284 73.1138 26.2907C73.2521 26.3468 73.2458 26.3405 73.3149 26.4153C73.2961 26.3966 73.2772 26.3094 73.2898 26.3779C73.3086 26.4527 73.2772 26.3281 73.2709 26.3094C73.2584 26.2595 73.2458 26.2097 73.2332 26.1598C73.051 25.3373 73.051 24.3028 73.051 23.3868C72.8939 23.5426 72.7368 23.6984 72.5797 23.8542H79.1843C79.7939 23.8542 79.7939 22.9194 79.1843 22.9194L79.1655 22.9257Z" fill="#1E1C1C"/>
<path d="M79.1655 22.9257H72.5608C72.3032 22.9257 72.0895 23.1375 72.0895 23.393C72.0895 24.3215 72.1147 25.2687 72.2655 26.191C72.3409 26.6396 72.4791 27.1693 73.0196 27.2067C73.3401 27.2254 73.6668 27.2316 73.9873 27.2441C75.1876 27.3002 76.3942 27.35 77.6007 27.35C78.0532 27.35 78.5182 27.35 78.9706 27.2939C79.398 27.2379 79.6493 27.0385 79.6493 26.5836V23.3868C79.6493 22.7823 78.7067 22.7823 78.7067 23.3868V26.0663C78.7067 26.2533 78.6941 26.4465 78.7067 26.6334C78.7193 26.9014 78.7696 26.4589 78.9141 26.3655C78.8952 26.3779 79.0272 26.3468 78.9706 26.3405C78.9518 26.3405 78.9204 26.353 78.8952 26.3592C78.7444 26.3904 78.9518 26.3592 78.8135 26.3717C78.7256 26.3779 78.6376 26.3841 78.5496 26.3904C78.3297 26.4028 78.116 26.4091 77.8961 26.4091C76.7649 26.4153 75.6275 26.3717 74.4963 26.3218C74.0879 26.3031 73.6857 26.2844 73.2772 26.2658C73.2207 26.2658 73.1704 26.2595 73.1138 26.2658C73.0384 26.2658 72.9567 26.2284 73.1138 26.2907C73.2521 26.3468 73.2458 26.3405 73.3149 26.4153C73.2961 26.3966 73.2772 26.3094 73.2898 26.3779C73.3086 26.4527 73.2772 26.3281 73.2709 26.3094C73.2584 26.2595 73.2458 26.2097 73.2332 26.1598C73.051 25.3373 73.051 24.3028 73.051 23.3868C72.8939 23.5426 72.7368 23.6984 72.5797 23.8542H79.1843C79.7939 23.8542 79.7939 22.9194 79.1843 22.9194L79.1655 22.9257Z" fill="url(#paint0_linear_108_369)"/>
<path d="M77.7515 55.8281C76.4256 55.7595 75.1059 55.7034 73.7799 55.6785C73.0384 55.666 72.278 55.6349 71.5365 55.7097C71.2914 55.7346 71.0086 55.7533 70.8201 55.934C70.6127 56.1396 70.6442 56.5883 70.6127 56.8563C70.5562 57.3174 70.5059 57.7785 70.4745 58.2459C70.4494 58.6322 70.4179 59.0684 70.5436 59.4423C70.663 59.7913 70.927 59.9222 71.2789 59.9284C71.5491 59.9346 71.813 59.9533 72.0832 59.9596C73.7737 60.0343 75.5018 60.1714 77.1985 60.053C77.4813 60.0343 77.8458 60.0281 78.0657 59.8162C78.3108 59.5794 78.2228 59.0809 78.2228 58.7693V56.283C78.2228 55.6785 77.2802 55.6785 77.2802 56.283V59.3177C77.2802 59.3551 77.2739 59.3987 77.2802 59.4361C77.2362 59.218 77.475 59.1432 77.5127 59.0809C77.5379 59.0373 77.5504 59.0747 77.4687 59.0809C77.4499 59.0809 77.431 59.0809 77.4122 59.0934C77.3053 59.1183 77.519 59.0809 77.4185 59.0934C75.8726 59.2492 74.2701 59.1121 72.7179 59.0498C72.3849 59.0373 72.0455 59.0186 71.7125 59.0061C71.5554 58.9999 71.3166 58.9438 71.1595 58.9874C71.216 58.975 71.3794 59.0996 71.4297 59.137C71.3983 59.1121 71.4611 59.2492 71.4423 59.1619C71.436 59.1308 71.4234 59.0996 71.4171 59.0622C71.3983 58.9812 71.4171 59.056 71.4171 59.0685C71.4171 59.0248 71.4108 58.9812 71.4045 58.9376C71.4045 58.8379 71.3983 58.7382 71.4045 58.6385C71.4045 58.196 71.4548 57.7474 71.5051 57.3112C71.5428 56.9934 71.6182 56.6569 71.6119 56.3391C71.6119 56.1334 71.5239 56.5821 71.4045 56.6506C71.4674 56.6132 71.2726 56.6631 71.3606 56.6693C71.392 56.6693 71.4423 56.6506 71.4737 56.6444C71.5742 56.6195 71.3668 56.6506 71.5302 56.6382C72.1964 56.5821 72.875 56.5883 73.5412 56.6008C74.9425 56.6195 76.3439 56.6756 77.739 56.7503C78.3485 56.7815 78.3422 55.8468 77.739 55.8156L77.7515 55.8281Z" fill="#1E1C1C"/>
<path d="M77.7515 55.8281C76.4256 55.7595 75.1059 55.7034 73.7799 55.6785C73.0384 55.666 72.278 55.6349 71.5365 55.7097C71.2914 55.7346 71.0086 55.7533 70.8201 55.934C70.6127 56.1396 70.6442 56.5883 70.6127 56.8563C70.5562 57.3174 70.5059 57.7785 70.4745 58.2459C70.4494 58.6322 70.4179 59.0684 70.5436 59.4423C70.663 59.7913 70.927 59.9222 71.2789 59.9284C71.5491 59.9346 71.813 59.9533 72.0832 59.9596C73.7737 60.0343 75.5018 60.1714 77.1985 60.053C77.4813 60.0343 77.8458 60.0281 78.0657 59.8162C78.3108 59.5794 78.2228 59.0809 78.2228 58.7693V56.283C78.2228 55.6785 77.2802 55.6785 77.2802 56.283V59.3177C77.2802 59.3551 77.2739 59.3987 77.2802 59.4361C77.2362 59.218 77.475 59.1432 77.5127 59.0809C77.5379 59.0373 77.5504 59.0747 77.4687 59.0809C77.4499 59.0809 77.431 59.0809 77.4122 59.0934C77.3053 59.1183 77.519 59.0809 77.4185 59.0934C75.8726 59.2492 74.2701 59.1121 72.7179 59.0498C72.3849 59.0373 72.0455 59.0186 71.7125 59.0061C71.5554 58.9999 71.3166 58.9438 71.1595 58.9874C71.216 58.975 71.3794 59.0996 71.4297 59.137C71.3983 59.1121 71.4611 59.2492 71.4423 59.1619C71.436 59.1308 71.4234 59.0996 71.4171 59.0622C71.3983 58.9812 71.4171 59.056 71.4171 59.0685C71.4171 59.0248 71.4108 58.9812 71.4045 58.9376C71.4045 58.8379 71.3983 58.7382 71.4045 58.6385C71.4045 58.196 71.4548 57.7474 71.5051 57.3112C71.5428 56.9934 71.6182 56.6569 71.6119 56.3391C71.6119 56.1334 71.5239 56.5821 71.4045 56.6506C71.4674 56.6132 71.2726 56.6631 71.3606 56.6693C71.392 56.6693 71.4423 56.6506 71.4737 56.6444C71.5742 56.6195 71.3668 56.6506 71.5302 56.6382C72.1964 56.5821 72.875 56.5883 73.5412 56.6008C74.9425 56.6195 76.3439 56.6756 77.739 56.7503C78.3485 56.7815 78.3422 55.8468 77.739 55.8156L77.7515 55.8281Z" fill="url(#paint1_linear_108_369)"/>
<path d="M76.8969 23.393C76.8592 20.296 76.8215 17.1989 76.8089 14.0956C76.8089 13.2295 76.7272 12.4381 76.3313 11.6529C75.8726 10.7369 75.1059 9.99531 74.2513 9.43448C72.6362 8.37512 70.7384 8.03239 68.8532 7.86414C65.9311 7.60865 62.9964 7.44663 60.068 7.27215C55.9142 7.02912 51.7541 6.80478 47.6003 6.60538C43.8738 6.42466 40.1536 6.25641 36.4271 6.14424C32.8765 6.03831 29.326 6.06947 25.7818 6.10686C23.2932 6.13178 20.811 6.1754 18.3288 6.28757C16.4498 6.37481 14.552 6.46205 12.6919 6.77363C11.2466 7.01665 9.54356 7.57126 8.6952 8.83625C8.21132 9.55911 8.07307 10.4564 7.99766 11.3039C7.92225 12.1701 7.9411 13.0425 7.93482 13.9087C7.89083 17.7099 7.77143 21.5174 7.67088 25.3186C7.58291 28.721 7.46979 32.1296 7.46979 35.532V48.4811C7.46979 53.4725 7.36925 58.4764 7.59547 63.4616C7.64575 64.6393 7.72116 65.8171 7.88454 66.9824C8.02908 68.0542 8.29301 69.126 8.99055 69.986C9.59383 70.7275 10.4548 71.1637 11.3157 71.5314C11.9127 71.7869 12.516 72.0673 13.1569 72.1857C14.4892 72.4349 15.8717 72.4786 17.2228 72.5284C19.1269 72.6032 21.0372 72.6219 22.9413 72.6219C26.561 72.6281 30.1744 72.5658 33.794 72.5222C36.1317 72.491 38.4631 72.5097 40.8008 72.5097H68.7212C70.5939 72.5097 72.674 72.5845 73.9685 70.9955C74.4209 70.4346 74.7226 69.7616 74.8483 69.0575C74.9237 68.615 74.9237 68.1726 74.9488 67.7239C75.0431 66.0913 75.1876 64.4586 75.3196 62.826C75.4076 61.7542 75.4955 60.6823 75.5898 59.6105C75.6401 59.0123 74.6974 59.0123 74.6472 59.6105C74.4147 62.3274 74.1633 65.0444 74.0062 67.7613C73.9936 67.942 73.9873 68.1227 73.9811 68.3035C73.9811 68.3969 73.9811 68.4904 73.9685 68.5839C73.9685 68.6088 73.9496 68.7584 73.9559 68.7085C73.9559 68.6773 73.9308 68.8518 73.9245 68.8892C73.8051 69.5248 73.56 70.0857 73.1013 70.5593C71.8319 71.8679 69.7644 71.575 68.0991 71.575H36.358C33.8883 71.575 31.4186 71.6248 28.949 71.656C25.0654 71.6996 21.1692 71.7432 17.2856 71.5999C16.5252 71.5688 15.7711 71.5376 15.0108 71.4753C14.7028 71.4504 14.3949 71.4254 14.0933 71.388C14.0304 71.3818 13.9676 71.3756 13.8985 71.3631C13.7853 71.3507 13.9362 71.3694 13.8042 71.3507C13.6848 71.332 13.5591 71.3133 13.4397 71.2946C12.849 71.1886 12.3023 70.9456 11.7493 70.715C10.9512 70.3785 10.1154 69.9797 9.60011 69.2631C9.00312 68.4281 8.8523 67.3625 8.73919 66.3655C8.60722 65.1566 8.54438 63.9414 8.50039 62.7325C8.39356 59.8535 8.40613 56.9684 8.40613 54.0894V41.0095C8.40613 37.7816 8.39356 34.5537 8.46268 31.3257C8.55066 27.2192 8.67006 23.1064 8.77061 18.9998C8.80831 17.3485 8.8523 15.6909 8.87115 14.0333C8.88372 13.2108 8.86487 12.382 8.91514 11.5594C8.96542 10.7742 9.06596 9.93923 9.51842 9.29115C9.90175 8.73032 10.6244 8.37512 11.2968 8.12586C11.919 7.88906 12.5474 7.73951 13.2072 7.6398C15.0485 7.35939 16.984 7.27838 18.8629 7.2036C23.5635 7.01042 28.2703 7.01042 32.9771 7.01665C35.8678 7.01665 38.7585 7.15375 41.6492 7.27215C45.7527 7.4404 49.8563 7.64604 53.9535 7.86414C57.6486 8.06355 61.3437 8.26919 65.0387 8.51845C66.2641 8.59946 67.4833 8.68046 68.7087 8.7864C70.4431 8.93596 72.1838 9.2226 73.6794 10.1698C74.4838 10.6745 75.2002 11.3725 75.5898 12.2449C75.8977 12.9303 75.8726 13.6345 75.8789 14.3698C75.8851 16.258 75.9103 18.1523 75.9291 20.0405C75.9417 21.1559 75.9543 22.2714 75.9668 23.3868C75.9731 23.9913 76.9157 23.9913 76.9095 23.3868L76.8969 23.393Z" fill="#1E1C1C"/>
<path d="M76.8969 23.393C76.8592 20.296 76.8215 17.1989 76.8089 14.0956C76.8089 13.2295 76.7272 12.4381 76.3313 11.6529C75.8726 10.7369 75.1059 9.99531 74.2513 9.43448C72.6362 8.37512 70.7384 8.03239 68.8532 7.86414C65.9311 7.60865 62.9964 7.44663 60.068 7.27215C55.9142 7.02912 51.7541 6.80478 47.6003 6.60538C43.8738 6.42466 40.1536 6.25641 36.4271 6.14424C32.8765 6.03831 29.326 6.06947 25.7818 6.10686C23.2932 6.13178 20.811 6.1754 18.3288 6.28757C16.4498 6.37481 14.552 6.46205 12.6919 6.77363C11.2466 7.01665 9.54356 7.57126 8.6952 8.83625C8.21132 9.55911 8.07307 10.4564 7.99766 11.3039C7.92225 12.1701 7.9411 13.0425 7.93482 13.9087C7.89083 17.7099 7.77143 21.5174 7.67088 25.3186C7.58291 28.721 7.46979 32.1296 7.46979 35.532V48.4811C7.46979 53.4725 7.36925 58.4764 7.59547 63.4616C7.64575 64.6393 7.72116 65.8171 7.88454 66.9824C8.02908 68.0542 8.29301 69.126 8.99055 69.986C9.59383 70.7275 10.4548 71.1637 11.3157 71.5314C11.9127 71.7869 12.516 72.0673 13.1569 72.1857C14.4892 72.4349 15.8717 72.4786 17.2228 72.5284C19.1269 72.6032 21.0372 72.6219 22.9413 72.6219C26.561 72.6281 30.1744 72.5658 33.794 72.5222C36.1317 72.491 38.4631 72.5097 40.8008 72.5097H68.7212C70.5939 72.5097 72.674 72.5845 73.9685 70.9955C74.4209 70.4346 74.7226 69.7616 74.8483 69.0575C74.9237 68.615 74.9237 68.1726 74.9488 67.7239C75.0431 66.0913 75.1876 64.4586 75.3196 62.826C75.4076 61.7542 75.4955 60.6823 75.5898 59.6105C75.6401 59.0123 74.6974 59.0123 74.6472 59.6105C74.4147 62.3274 74.1633 65.0444 74.0062 67.7613C73.9936 67.942 73.9873 68.1227 73.9811 68.3035C73.9811 68.3969 73.9811 68.4904 73.9685 68.5839C73.9685 68.6088 73.9496 68.7584 73.9559 68.7085C73.9559 68.6773 73.9308 68.8518 73.9245 68.8892C73.8051 69.5248 73.56 70.0857 73.1013 70.5593C71.8319 71.8679 69.7644 71.575 68.0991 71.575H36.358C33.8883 71.575 31.4186 71.6248 28.949 71.656C25.0654 71.6996 21.1692 71.7432 17.2856 71.5999C16.5252 71.5688 15.7711 71.5376 15.0108 71.4753C14.7028 71.4504 14.3949 71.4254 14.0933 71.388C14.0304 71.3818 13.9676 71.3756 13.8985 71.3631C13.7853 71.3507 13.9362 71.3694 13.8042 71.3507C13.6848 71.332 13.5591 71.3133 13.4397 71.2946C12.849 71.1886 12.3023 70.9456 11.7493 70.715C10.9512 70.3785 10.1154 69.9797 9.60011 69.2631C9.00312 68.4281 8.8523 67.3625 8.73919 66.3655C8.60722 65.1566 8.54438 63.9414 8.50039 62.7325C8.39356 59.8535 8.40613 56.9684 8.40613 54.0894V41.0095C8.40613 37.7816 8.39356 34.5537 8.46268 31.3257C8.55066 27.2192 8.67006 23.1064 8.77061 18.9998C8.80831 17.3485 8.8523 15.6909 8.87115 14.0333C8.88372 13.2108 8.86487 12.382 8.91514 11.5594C8.96542 10.7742 9.06596 9.93923 9.51842 9.29115C9.90175 8.73032 10.6244 8.37512 11.2968 8.12586C11.919 7.88906 12.5474 7.73951 13.2072 7.6398C15.0485 7.35939 16.984 7.27838 18.8629 7.2036C23.5635 7.01042 28.2703 7.01042 32.9771 7.01665C35.8678 7.01665 38.7585 7.15375 41.6492 7.27215C45.7527 7.4404 49.8563 7.64604 53.9535 7.86414C57.6486 8.06355 61.3437 8.26919 65.0387 8.51845C66.2641 8.59946 67.4833 8.68046 68.7087 8.7864C70.4431 8.93596 72.1838 9.2226 73.6794 10.1698C74.4838 10.6745 75.2002 11.3725 75.5898 12.2449C75.8977 12.9303 75.8726 13.6345 75.8789 14.3698C75.8851 16.258 75.9103 18.1523 75.9291 20.0405C75.9417 21.1559 75.9543 22.2714 75.9668 23.3868C75.9731 23.9913 76.9157 23.9913 76.9095 23.3868L76.8969 23.393Z" fill="url(#paint2_linear_108_369)"/>
<path d="M76.0737 27.0884C75.9983 28.4843 75.9291 29.8739 75.8537 31.2698C75.728 33.7935 75.6024 36.3111 75.4955 38.8348C75.4264 40.4239 75.4075 42.0067 75.3636 43.5957C75.2944 46.0322 75.1939 48.4687 75.0933 50.9115C75.0242 52.6563 74.8922 54.4073 74.8734 56.1584C74.8734 56.1896 74.8734 56.2145 74.8734 56.2394C74.8483 56.8439 75.7909 56.8376 75.816 56.2394C75.8789 54.7688 75.9417 53.3044 76.0045 51.8337C76.1114 49.3287 76.2119 46.8298 76.2873 44.3248C76.3376 42.7607 76.3439 41.2028 76.4067 39.6449C76.5073 37.1523 76.6267 34.6597 76.7524 32.1734C76.834 30.5095 76.9786 28.8457 77.01 27.1819C77.01 27.157 77.01 27.1321 77.01 27.1009C77.0414 26.4965 76.0988 26.5027 76.0674 27.1009L76.0737 27.0884Z" fill="#1E1C1C"/>
<path d="M76.0737 27.0884C75.9983 28.4843 75.9291 29.8739 75.8537 31.2698C75.728 33.7935 75.6024 36.3111 75.4955 38.8348C75.4264 40.4239 75.4075 42.0067 75.3636 43.5957C75.2944 46.0322 75.1939 48.4687 75.0933 50.9115C75.0242 52.6563 74.8922 54.4073 74.8734 56.1584C74.8734 56.1896 74.8734 56.2145 74.8734 56.2394C74.8483 56.8439 75.7909 56.8376 75.816 56.2394C75.8789 54.7688 75.9417 53.3044 76.0045 51.8337C76.1114 49.3287 76.2119 46.8298 76.2873 44.3248C76.3376 42.7607 76.3439 41.2028 76.4067 39.6449C76.5073 37.1523 76.6267 34.6597 76.7524 32.1734C76.834 30.5095 76.9786 28.8457 77.01 27.1819C77.01 27.157 77.01 27.1321 77.01 27.1009C77.0414 26.4965 76.0988 26.5027 76.0674 27.1009L76.0737 27.0884Z" fill="url(#paint3_linear_108_369)"/>
<path d="M83.4135 12.164C83.3507 15.4854 83.2941 18.8068 83.2376 22.1282C83.137 28.0045 83.0428 33.8808 82.9799 39.7571C82.9234 45.2844 82.8605 50.8055 82.6406 56.3329C82.4332 61.5175 82.0876 66.7021 81.9996 71.8929C81.9807 73.0707 81.8425 74.2547 81.5346 75.395C81.3335 76.1303 81.057 77.1461 80.4411 77.6571C79.9196 78.0933 79.1592 78.2553 78.4993 78.3737C77.739 78.5108 76.9597 78.5669 76.1868 78.5918C74.9991 78.6292 73.8051 78.6105 72.6174 78.6105H15.5826C13.1506 78.6105 10.725 78.7974 8.29929 78.6977C6.85394 78.6416 5.25777 78.5731 4.00723 77.7692C2.62472 76.8844 1.85177 75.2517 1.79522 73.6502C1.75751 72.5161 1.79522 71.3757 1.79522 70.2416V46.6678C1.79522 42.4553 1.88319 43.0598 1.79522 38.8473C1.71352 35.1458 1.88948 30.8523 1.79522 27.1508C1.70095 23.5053 1.14795 15.3608 1.32391 11.7153C1.41188 9.83342 1.65697 8.21323 2.02145 6.36871C2.28538 5.0414 2.57445 3.50845 3.71816 2.64227C5.17608 1.53307 7.05504 1.43959 8.81459 1.4209C13.1381 1.36482 17.4616 1.29004 21.7788 1.22149C27.0072 1.14048 32.2418 1.05324 37.4702 0.990925C41.3538 0.947305 45.2374 1.00962 49.121 1.09063C54.8144 1.20903 60.5079 1.36482 66.2076 1.4209C69.3056 1.45206 72.3974 1.4209 75.4955 1.50191C76.9472 1.5393 78.4176 1.56422 79.8567 1.76986C81.2581 1.96927 82.584 2.69212 83.1245 4.05682C83.4387 4.85445 83.4072 5.68324 83.4072 6.5245V12.1889C83.4072 12.7934 84.3499 12.7934 84.3499 12.1889V6.09452C84.3499 5.18472 84.287 4.31855 83.91 3.47729C82.5714 0.529794 78.9267 0.654424 76.1805 0.560952C72.9504 0.448785 69.7204 0.492405 66.4841 0.461248C63.9579 0.436322 61.4253 0.380238 58.8991 0.330386C53.212 0.218219 47.5248 0.0562002 41.8314 0.00634818C37.9604 -0.0310408 34.0831 0.0748947 30.2058 0.130978C24.7134 0.211988 19.2211 0.299229 13.7288 0.38647C12.0384 0.411396 10.3416 0.442553 8.65121 0.461248C6.69056 0.486174 4.63564 0.691813 3.04576 1.95681C1.85806 2.904 1.46844 4.39332 1.16052 5.80787C0.789755 7.60878 0.6138 9.44707 0.506969 11.2729C0.287025 15.0118 0.393855 18.7632 0.494401 22.5083C0.64522 28.3347 0.852597 34.155 0.852597 39.9814V70.3974C0.852597 71.6187 0.752051 72.8962 0.890301 74.1113C1.07883 75.7814 1.87063 77.358 3.24685 78.3675C4.52881 79.3084 6.12498 79.4891 7.6646 79.5826C10.2537 79.7446 12.8302 79.5265 15.4192 79.5265C17.3987 79.5265 29.6025 79.9939 35.2896 79.9939C39.079 79.9939 61.0169 79.5265 66.6349 79.5265H72.7996C74.0942 79.5265 75.4013 79.5577 76.6958 79.4891C78.116 79.4144 79.8944 79.296 81.0381 78.355C81.6854 77.8253 82.0185 76.9093 82.2761 76.1428C82.6343 75.0648 82.8102 73.9244 82.8919 72.7903C82.9611 71.8431 82.9422 70.8834 82.9799 69.9362C83.0239 68.7959 83.0742 67.6617 83.1245 66.5214C83.4261 59.916 83.7717 53.3106 83.8597 46.699C83.9288 41.5019 84.2682 36.5416 84.3436 31.3383C84.4253 25.9356 84.1928 20.2899 84.2933 14.8872C84.3122 13.9774 84.3247 13.0676 84.3436 12.1578C84.3561 11.5533 83.4135 11.5533 83.401 12.1578L83.4135 12.164Z" fill="#1E1C1C"/>
<path d="M83.4135 12.164C83.3507 15.4854 83.2941 18.8068 83.2376 22.1282C83.137 28.0045 83.0428 33.8808 82.9799 39.7571C82.9234 45.2844 82.8605 50.8055 82.6406 56.3329C82.4332 61.5175 82.0876 66.7021 81.9996 71.8929C81.9807 73.0707 81.8425 74.2547 81.5346 75.395C81.3335 76.1303 81.057 77.1461 80.4411 77.6571C79.9196 78.0933 79.1592 78.2553 78.4993 78.3737C77.739 78.5108 76.9597 78.5669 76.1868 78.5918C74.9991 78.6292 73.8051 78.6105 72.6174 78.6105H15.5826C13.1506 78.6105 10.725 78.7974 8.29929 78.6977C6.85394 78.6416 5.25777 78.5731 4.00723 77.7692C2.62472 76.8844 1.85177 75.2517 1.79522 73.6502C1.75751 72.5161 1.79522 71.3757 1.79522 70.2416V46.6678C1.79522 42.4553 1.88319 43.0598 1.79522 38.8473C1.71352 35.1458 1.88948 30.8523 1.79522 27.1508C1.70095 23.5053 1.14795 15.3608 1.32391 11.7153C1.41188 9.83342 1.65697 8.21323 2.02145 6.36871C2.28538 5.0414 2.57445 3.50845 3.71816 2.64227C5.17608 1.53307 7.05504 1.43959 8.81459 1.4209C13.1381 1.36482 17.4616 1.29004 21.7788 1.22149C27.0072 1.14048 32.2418 1.05324 37.4702 0.990925C41.3538 0.947305 45.2374 1.00962 49.121 1.09063C54.8144 1.20903 60.5079 1.36482 66.2076 1.4209C69.3056 1.45206 72.3974 1.4209 75.4955 1.50191C76.9472 1.5393 78.4176 1.56422 79.8567 1.76986C81.2581 1.96927 82.584 2.69212 83.1245 4.05682C83.4387 4.85445 83.4072 5.68324 83.4072 6.5245V12.1889C83.4072 12.7934 84.3499 12.7934 84.3499 12.1889V6.09452C84.3499 5.18472 84.287 4.31855 83.91 3.47729C82.5714 0.529794 78.9267 0.654424 76.1805 0.560952C72.9504 0.448785 69.7204 0.492405 66.4841 0.461248C63.9579 0.436322 61.4253 0.380238 58.8991 0.330386C53.212 0.218219 47.5248 0.0562002 41.8314 0.00634818C37.9604 -0.0310408 34.0831 0.0748947 30.2058 0.130978C24.7134 0.211988 19.2211 0.299229 13.7288 0.38647C12.0384 0.411396 10.3416 0.442553 8.65121 0.461248C6.69056 0.486174 4.63564 0.691813 3.04576 1.95681C1.85806 2.904 1.46844 4.39332 1.16052 5.80787C0.789755 7.60878 0.6138 9.44707 0.506969 11.2729C0.287025 15.0118 0.393855 18.7632 0.494401 22.5083C0.64522 28.3347 0.852597 34.155 0.852597 39.9814V70.3974C0.852597 71.6187 0.752051 72.8962 0.890301 74.1113C1.07883 75.7814 1.87063 77.358 3.24685 78.3675C4.52881 79.3084 6.12498 79.4891 7.6646 79.5826C10.2537 79.7446 12.8302 79.5265 15.4192 79.5265C17.3987 79.5265 29.6025 79.9939 35.2896 79.9939C39.079 79.9939 61.0169 79.5265 66.6349 79.5265H72.7996C74.0942 79.5265 75.4013 79.5577 76.6958 79.4891C78.116 79.4144 79.8944 79.296 81.0381 78.355C81.6854 77.8253 82.0185 76.9093 82.2761 76.1428C82.6343 75.0648 82.8102 73.9244 82.8919 72.7903C82.9611 71.8431 82.9422 70.8834 82.9799 69.9362C83.0239 68.7959 83.0742 67.6617 83.1245 66.5214C83.4261 59.916 83.7717 53.3106 83.8597 46.699C83.9288 41.5019 84.2682 36.5416 84.3436 31.3383C84.4253 25.9356 84.1928 20.2899 84.2933 14.8872C84.3122 13.9774 84.3247 13.0676 84.3436 12.1578C84.3561 11.5533 83.4135 11.5533 83.401 12.1578L83.4135 12.164Z" fill="url(#paint4_linear_108_369)"/>
<path d="M53.4194 37.5822C53.2811 36.5789 53.0863 35.5819 52.8098 34.6035C52.194 32.435 51.1131 30.3412 49.3347 28.8893C46.9593 26.9326 43.8172 26.3842 40.8008 26.5026C37.6022 26.6272 34.2842 27.3563 31.8397 29.5249C30.2183 30.9581 29.1752 32.9335 28.7039 35.0211C28.4211 36.2674 28.3017 37.5822 28.4148 38.8659C28.4148 38.9344 28.4274 38.9967 28.4337 39.0653C28.4399 42.2496 29.2694 45.5024 31.4752 47.914C33.4987 50.1262 36.4082 51.2354 39.3618 51.4784C41.0522 51.6155 42.8117 51.5283 44.4582 51.0921C46.0355 50.6683 47.4997 49.9081 48.7628 48.8861C51.044 47.0354 52.6213 44.3247 53.2371 41.4769C53.5136 40.1994 53.6079 38.8846 53.4256 37.5884L53.4194 37.5822ZM49.7871 46.5244C48.8634 47.6461 47.7448 48.5995 46.4628 49.2912C45.0426 50.0514 43.4779 50.444 41.8691 50.5499C38.9973 50.7369 36.0123 50.2446 33.6306 48.5621C31.2866 46.9108 29.9858 44.2686 29.5522 41.5018C29.4265 40.6917 29.3763 39.8754 29.3763 39.0591C29.2632 38.2178 29.3071 37.3392 29.4014 36.5041C29.4014 36.4668 29.4265 36.311 29.4265 36.2923C29.4391 36.1988 29.4517 36.1053 29.4705 36.0181C29.502 35.8062 29.5459 35.6006 29.5899 35.3887C29.6842 34.9525 29.7973 34.5288 29.9418 34.105C30.2498 33.1952 30.6834 32.329 31.2929 31.5003C32.8011 29.4501 35.2519 28.2536 37.7844 27.7614C39.5628 27.4186 41.4292 27.3127 43.2391 27.4872C44.5964 27.618 45.9664 27.9483 47.1855 28.5714C48.2098 29.0949 49.077 29.7804 49.8186 30.659C50.4407 31.3943 51.0251 32.4225 51.3833 33.2949C51.7666 34.2359 52.0431 35.2205 52.2505 36.2175C52.4642 37.2519 52.615 38.1929 52.5836 39.246C52.5019 41.8445 51.465 44.4867 49.806 46.5119L49.7871 46.5244Z" fill="#1E1C1C"/>
<path d="M53.4194 37.5822C53.2811 36.5789 53.0863 35.5819 52.8098 34.6035C52.194 32.435 51.1131 30.3412 49.3347 28.8893C46.9593 26.9326 43.8172 26.3842 40.8008 26.5026C37.6022 26.6272 34.2842 27.3563 31.8397 29.5249C30.2183 30.9581 29.1752 32.9335 28.7039 35.0211C28.4211 36.2674 28.3017 37.5822 28.4148 38.8659C28.4148 38.9344 28.4274 38.9967 28.4337 39.0653C28.4399 42.2496 29.2694 45.5024 31.4752 47.914C33.4987 50.1262 36.4082 51.2354 39.3618 51.4784C41.0522 51.6155 42.8117 51.5283 44.4582 51.0921C46.0355 50.6683 47.4997 49.9081 48.7628 48.8861C51.044 47.0354 52.6213 44.3247 53.2371 41.4769C53.5136 40.1994 53.6079 38.8846 53.4256 37.5884L53.4194 37.5822ZM49.7871 46.5244C48.8634 47.6461 47.7448 48.5995 46.4628 49.2912C45.0426 50.0514 43.4779 50.444 41.8691 50.5499C38.9973 50.7369 36.0123 50.2446 33.6306 48.5621C31.2866 46.9108 29.9858 44.2686 29.5522 41.5018C29.4265 40.6917 29.3763 39.8754 29.3763 39.0591C29.2632 38.2178 29.3071 37.3392 29.4014 36.5041C29.4014 36.4668 29.4265 36.311 29.4265 36.2923C29.4391 36.1988 29.4517 36.1053 29.4705 36.0181C29.502 35.8062 29.5459 35.6006 29.5899 35.3887C29.6842 34.9525 29.7973 34.5288 29.9418 34.105C30.2498 33.1952 30.6834 32.329 31.2929 31.5003C32.8011 29.4501 35.2519 28.2536 37.7844 27.7614C39.5628 27.4186 41.4292 27.3127 43.2391 27.4872C44.5964 27.618 45.9664 27.9483 47.1855 28.5714C48.2098 29.0949 49.077 29.7804 49.8186 30.659C50.4407 31.3943 51.0251 32.4225 51.3833 33.2949C51.7666 34.2359 52.0431 35.2205 52.2505 36.2175C52.4642 37.2519 52.615 38.1929 52.5836 39.246C52.5019 41.8445 51.465 44.4867 49.806 46.5119L49.7871 46.5244Z" fill="url(#paint5_linear_108_369)"/>
<path d="M66.2327 30.5966C65.7174 28.1414 64.8753 25.7174 63.562 23.5737C62.1292 21.2432 60.0931 19.2927 57.7868 17.8158C53.589 15.1238 48.5869 14.214 43.6601 14.0707C42.7489 14.0458 41.844 14.0396 40.9328 14.0396C34.8623 14.052 28.7353 16.339 24.0913 20.2025C22.1244 21.8414 20.3585 23.8479 19.3028 26.1972C18.379 28.2536 17.7758 30.4533 17.3547 32.6593C16.3618 37.9 16.2927 43.5519 17.8952 48.6805C18.2848 49.9268 18.7812 51.1481 19.4034 52.2947C20.0381 53.4663 20.7796 54.6253 21.6091 55.6722C23.2241 57.7224 24.1667 58.8752 26.3285 60.3521C30.8279 63.4242 36.9487 65.9106 42.3719 65.9666C48.4109 66.029 54.3871 63.3307 58.8866 59.4173C60.954 57.6164 62.9901 55.1176 64.2532 52.6811C65.3341 50.5998 65.8557 48.3128 66.2578 46.0196C67.1439 40.9534 67.301 35.6442 66.239 30.5904L66.2327 30.5966ZM65.8054 42.3617C65.5917 44.5864 65.221 46.7985 64.6617 48.9609C64.0396 51.3538 62.8707 53.5161 61.3122 55.4354C57.7366 59.8348 52.4893 63.0565 46.8901 64.1657C44.1251 64.7141 41.2344 64.6393 38.4506 64.2218C35.8803 63.8355 33.3541 63.1126 31.0164 61.9972C28.7604 60.9191 26.6929 59.4983 24.8831 57.7847C23.0419 56.0399 21.3829 53.9959 20.1826 51.7651C17.7192 47.1849 17.3107 41.6451 17.7632 36.5602C17.9769 34.1548 18.4105 31.7557 19.108 29.4438C19.749 27.3251 20.6225 25.3373 22.0364 23.6049C23.752 21.4987 25.9326 19.7912 28.2954 18.4515C30.853 16.9995 33.6432 15.9589 36.5402 15.4105C37.9918 15.1363 39.4623 14.993 40.9328 14.993C45.3128 14.993 49.7054 15.2422 53.8215 16.8562C56.3603 17.8532 58.6792 19.3675 60.5833 21.3117C62.2863 23.0503 63.5242 25.1441 64.3538 27.4248C66.0819 32.167 66.2893 37.4014 65.8054 42.3866V42.3617Z" fill="#1E1C1C"/>
<path d="M66.2327 30.5966C65.7174 28.1414 64.8753 25.7174 63.562 23.5737C62.1292 21.2432 60.0931 19.2927 57.7868 17.8158C53.589 15.1238 48.5869 14.214 43.6601 14.0707C42.7489 14.0458 41.844 14.0396 40.9328 14.0396C34.8623 14.052 28.7353 16.339 24.0913 20.2025C22.1244 21.8414 20.3585 23.8479 19.3028 26.1972C18.379 28.2536 17.7758 30.4533 17.3547 32.6593C16.3618 37.9 16.2927 43.5519 17.8952 48.6805C18.2848 49.9268 18.7812 51.1481 19.4034 52.2947C20.0381 53.4663 20.7796 54.6253 21.6091 55.6722C23.2241 57.7224 24.1667 58.8752 26.3285 60.3521C30.8279 63.4242 36.9487 65.9106 42.3719 65.9666C48.4109 66.029 54.3871 63.3307 58.8866 59.4173C60.954 57.6164 62.9901 55.1176 64.2532 52.6811C65.3341 50.5998 65.8557 48.3128 66.2578 46.0196C67.1439 40.9534 67.301 35.6442 66.239 30.5904L66.2327 30.5966ZM65.8054 42.3617C65.5917 44.5864 65.221 46.7985 64.6617 48.9609C64.0396 51.3538 62.8707 53.5161 61.3122 55.4354C57.7366 59.8348 52.4893 63.0565 46.8901 64.1657C44.1251 64.7141 41.2344 64.6393 38.4506 64.2218C35.8803 63.8355 33.3541 63.1126 31.0164 61.9972C28.7604 60.9191 26.6929 59.4983 24.8831 57.7847C23.0419 56.0399 21.3829 53.9959 20.1826 51.7651C17.7192 47.1849 17.3107 41.6451 17.7632 36.5602C17.9769 34.1548 18.4105 31.7557 19.108 29.4438C19.749 27.3251 20.6225 25.3373 22.0364 23.6049C23.752 21.4987 25.9326 19.7912 28.2954 18.4515C30.853 16.9995 33.6432 15.9589 36.5402 15.4105C37.9918 15.1363 39.4623 14.993 40.9328 14.993C45.3128 14.993 49.7054 15.2422 53.8215 16.8562C56.3603 17.8532 58.6792 19.3675 60.5833 21.3117C62.2863 23.0503 63.5242 25.1441 64.3538 27.4248C66.0819 32.167 66.2893 37.4014 65.8054 42.3866V42.3617Z" fill="url(#paint6_linear_108_369)"/>
<path d="M31.6511 22.9694C31.5757 22.851 31.5066 22.7389 31.4312 22.6205C31.4312 22.5706 31.4249 22.5208 31.4123 22.4709C31.3872 22.284 31.3055 22.097 31.2175 21.935C31.1233 21.7667 30.9976 21.6047 30.853 21.4801C30.7776 21.4178 30.7022 21.3617 30.6205 21.3056C30.6017 21.2807 30.5891 21.2495 30.5703 21.2246C30.476 21.075 30.3252 20.9504 30.1492 20.9006C29.9796 20.8569 29.7533 20.8756 29.6025 20.9691C29.5899 20.9753 29.5837 20.9878 29.5774 20.994C29.3826 21.0127 29.2129 21.1124 29.0935 21.262C28.9678 21.424 28.8861 21.667 28.9678 21.8727C29.1438 22.3338 29.3826 22.7264 29.6968 23.1065C29.9733 23.4306 30.3189 23.711 30.6897 23.9228C30.9536 24.0724 31.3369 24.0412 31.5443 23.8107C31.7517 23.5863 31.8271 23.2311 31.6574 22.9632L31.6511 22.9694Z" fill="#1E1C1C"/>
<path d="M31.6511 22.9694C31.5757 22.851 31.5066 22.7389 31.4312 22.6205C31.4312 22.5706 31.4249 22.5208 31.4123 22.4709C31.3872 22.284 31.3055 22.097 31.2175 21.935C31.1233 21.7667 30.9976 21.6047 30.853 21.4801C30.7776 21.4178 30.7022 21.3617 30.6205 21.3056C30.6017 21.2807 30.5891 21.2495 30.5703 21.2246C30.476 21.075 30.3252 20.9504 30.1492 20.9006C29.9796 20.8569 29.7533 20.8756 29.6025 20.9691C29.5899 20.9753 29.5837 20.9878 29.5774 20.994C29.3826 21.0127 29.2129 21.1124 29.0935 21.262C28.9678 21.424 28.8861 21.667 28.9678 21.8727C29.1438 22.3338 29.3826 22.7264 29.6968 23.1065C29.9733 23.4306 30.3189 23.711 30.6897 23.9228C30.9536 24.0724 31.3369 24.0412 31.5443 23.8107C31.7517 23.5863 31.8271 23.2311 31.6574 22.9632L31.6511 22.9694Z" fill="url(#paint7_linear_108_369)"/>
<path d="M25.1031 36.4045C25.1031 36.4045 25.1156 36.3733 25.1156 36.3546C25.1156 36.3297 25.1031 36.2985 25.0968 36.2736C25.0968 36.2362 25.0842 36.1988 25.0779 36.1614C25.0654 36.1178 25.0528 36.0867 25.0402 36.0493C25.0088 35.9807 24.9648 35.9122 24.9083 35.8561C24.3553 35.2703 23.5823 34.9401 22.7842 34.8902C22.6083 34.8778 22.4072 34.9775 22.2815 35.0959C22.2438 35.1332 22.2186 35.1831 22.1935 35.2329C22.093 35.3077 22.0113 35.4012 21.961 35.5196C21.9107 35.638 21.8982 35.7564 21.9107 35.881C21.9296 36.0181 21.9924 36.1926 22.1055 36.2861C22.2752 36.4169 22.4449 36.5478 22.6397 36.6475C22.8345 36.7534 23.0419 36.8407 23.2492 36.903C23.6012 37.0152 23.9908 37.065 24.3615 37.0525C24.3741 37.0525 24.3867 37.0588 24.4055 37.0588C24.5312 37.0588 24.6632 37.0089 24.7763 36.9404C24.7889 36.9404 24.7951 36.9279 24.8077 36.9217C24.8391 36.8968 24.8831 36.8843 24.9083 36.8594C25.0025 36.7534 25.0654 36.6226 25.0905 36.4792C25.0905 36.4543 25.1031 36.4356 25.1031 36.4169V36.4045Z" fill="#1E1C1C"/>
<path d="M25.1031 36.4045C25.1031 36.4045 25.1156 36.3733 25.1156 36.3546C25.1156 36.3297 25.1031 36.2985 25.0968 36.2736C25.0968 36.2362 25.0842 36.1988 25.0779 36.1614C25.0654 36.1178 25.0528 36.0867 25.0402 36.0493C25.0088 35.9807 24.9648 35.9122 24.9083 35.8561C24.3553 35.2703 23.5823 34.9401 22.7842 34.8902C22.6083 34.8778 22.4072 34.9775 22.2815 35.0959C22.2438 35.1332 22.2186 35.1831 22.1935 35.2329C22.093 35.3077 22.0113 35.4012 21.961 35.5196C21.9107 35.638 21.8982 35.7564 21.9107 35.881C21.9296 36.0181 21.9924 36.1926 22.1055 36.2861C22.2752 36.4169 22.4449 36.5478 22.6397 36.6475C22.8345 36.7534 23.0419 36.8407 23.2492 36.903C23.6012 37.0152 23.9908 37.065 24.3615 37.0525C24.3741 37.0525 24.3867 37.0588 24.4055 37.0588C24.5312 37.0588 24.6632 37.0089 24.7763 36.9404C24.7889 36.9404 24.7951 36.9279 24.8077 36.9217C24.8391 36.8968 24.8831 36.8843 24.9083 36.8594C25.0025 36.7534 25.0654 36.6226 25.0905 36.4792C25.0905 36.4543 25.1031 36.4356 25.1031 36.4169V36.4045Z" fill="url(#paint8_linear_108_369)"/>
<path d="M26.2845 47.9389C26.2719 47.8392 26.2342 47.752 26.1839 47.671C26.1525 47.6024 26.1148 47.5339 26.0582 47.484C26.0017 47.4342 25.9389 47.3968 25.8697 47.3594C25.8446 47.3469 25.8195 47.3345 25.7943 47.3282C25.7378 47.2971 25.6749 47.2659 25.6121 47.2472C25.5241 47.2161 25.4173 47.2098 25.323 47.2036C25.2287 47.2036 25.1282 47.2161 25.0339 47.241C24.9083 47.2722 24.7951 47.3594 24.7072 47.4591C24.6192 47.4903 24.5249 47.5276 24.4432 47.5713C24.0913 47.7395 23.796 48.0262 23.5886 48.3502C23.5634 48.4063 23.5383 48.4624 23.5195 48.5185C23.5132 48.5808 23.5006 48.6431 23.4943 48.7054C23.4943 48.8612 23.5509 49.0107 23.6451 49.1291C23.8148 49.3472 24.1102 49.4594 24.3867 49.3784C24.8894 49.2413 25.3419 49.0108 25.7566 48.7054C25.7629 48.7054 25.7692 48.7054 25.7755 48.7054C25.832 48.6805 25.8886 48.6556 25.9451 48.6369C26.0771 48.5621 26.1776 48.4437 26.2342 48.3004C26.2845 48.182 26.297 48.0636 26.2845 47.9389Z" fill="#1E1C1C"/>
<path d="M26.2845 47.9389C26.2719 47.8392 26.2342 47.752 26.1839 47.671C26.1525 47.6024 26.1148 47.5339 26.0582 47.484C26.0017 47.4342 25.9389 47.3968 25.8697 47.3594C25.8446 47.3469 25.8195 47.3345 25.7943 47.3282C25.7378 47.2971 25.6749 47.2659 25.6121 47.2472C25.5241 47.2161 25.4173 47.2098 25.323 47.2036C25.2287 47.2036 25.1282 47.2161 25.0339 47.241C24.9083 47.2722 24.7951 47.3594 24.7072 47.4591C24.6192 47.4903 24.5249 47.5276 24.4432 47.5713C24.0913 47.7395 23.796 48.0262 23.5886 48.3502C23.5634 48.4063 23.5383 48.4624 23.5195 48.5185C23.5132 48.5808 23.5006 48.6431 23.4943 48.7054C23.4943 48.8612 23.5509 49.0107 23.6451 49.1291C23.8148 49.3472 24.1102 49.4594 24.3867 49.3784C24.8894 49.2413 25.3419 49.0108 25.7566 48.7054C25.7629 48.7054 25.7692 48.7054 25.7755 48.7054C25.832 48.6805 25.8886 48.6556 25.9451 48.6369C26.0771 48.5621 26.1776 48.4437 26.2342 48.3004C26.2845 48.182 26.297 48.0636 26.2845 47.9389Z" fill="url(#paint9_linear_108_369)"/>
<path d="M34.988 56.2207C34.9754 55.9964 34.8749 55.7969 34.7052 55.6723C34.6864 55.6536 34.6801 55.6287 34.6612 55.61C34.5356 55.4854 34.3345 55.3981 34.1585 55.4044C33.9763 55.4106 33.7877 55.4729 33.6558 55.61C33.5364 55.7409 33.4358 55.9216 33.4484 56.1085C33.4484 56.1335 33.4484 56.1584 33.4484 56.1833C33.1782 56.6382 33.0274 57.1492 33.0462 57.6851C33.0525 57.9842 33.2599 58.2896 33.5678 58.3643C33.6935 58.3955 33.8192 58.3955 33.9448 58.3643C34.1208 58.3269 34.2716 58.1898 34.3659 58.0403C34.4916 57.8471 34.5858 57.6352 34.6675 57.4171C34.8875 57.0619 35.0131 56.6382 34.988 56.2207Z" fill="#1E1C1C"/>
<path d="M34.988 56.2207C34.9754 55.9964 34.8749 55.7969 34.7052 55.6723C34.6864 55.6536 34.6801 55.6287 34.6612 55.61C34.5356 55.4854 34.3345 55.3981 34.1585 55.4044C33.9763 55.4106 33.7877 55.4729 33.6558 55.61C33.5364 55.7409 33.4358 55.9216 33.4484 56.1085C33.4484 56.1335 33.4484 56.1584 33.4484 56.1833C33.1782 56.6382 33.0274 57.1492 33.0462 57.6851C33.0525 57.9842 33.2599 58.2896 33.5678 58.3643C33.6935 58.3955 33.8192 58.3955 33.9448 58.3643C34.1208 58.3269 34.2716 58.1898 34.3659 58.0403C34.4916 57.8471 34.5858 57.6352 34.6675 57.4171C34.8875 57.0619 35.0131 56.6382 34.988 56.2207Z" fill="url(#paint10_linear_108_369)"/>
<path d="M48.7125 58.0029C48.568 57.6227 48.4109 57.2364 48.2601 56.8563C48.2601 56.8251 48.2601 56.8002 48.2601 56.769C48.2601 56.5883 48.1784 56.4014 48.0527 56.2705C48.0339 56.2518 48.0087 56.2456 47.9899 56.2269C47.9899 56.2269 47.9899 56.2144 47.9836 56.2082C47.9333 56.1334 47.8705 56.0711 47.7825 56.0275C47.6317 55.9402 47.4054 55.9028 47.2358 55.9589C47.0661 56.015 46.8964 56.1209 46.8147 56.283C46.733 56.4388 46.6765 56.6506 46.7456 56.8251C46.7896 56.9373 46.8336 57.0494 46.8776 57.1554C46.9404 57.6539 47.1227 58.14 47.4306 58.5325C47.4746 58.6135 47.5374 58.6821 47.6128 58.7319C47.6819 58.7943 47.7636 58.8379 47.8516 58.8566C48.0087 58.894 48.1595 58.8815 48.3104 58.8192C48.4486 58.7631 48.5806 58.6634 48.6497 58.5325C48.7314 58.3768 48.788 58.1649 48.7188 57.9904L48.7125 58.0029Z" fill="#1E1C1C"/>
<path d="M48.7125 58.0029C48.568 57.6227 48.4109 57.2364 48.2601 56.8563C48.2601 56.8251 48.2601 56.8002 48.2601 56.769C48.2601 56.5883 48.1784 56.4014 48.0527 56.2705C48.0339 56.2518 48.0087 56.2456 47.9899 56.2269C47.9899 56.2269 47.9899 56.2144 47.9836 56.2082C47.9333 56.1334 47.8705 56.0711 47.7825 56.0275C47.6317 55.9402 47.4054 55.9028 47.2358 55.9589C47.0661 56.015 46.8964 56.1209 46.8147 56.283C46.733 56.4388 46.6765 56.6506 46.7456 56.8251C46.7896 56.9373 46.8336 57.0494 46.8776 57.1554C46.9404 57.6539 47.1227 58.14 47.4306 58.5325C47.4746 58.6135 47.5374 58.6821 47.6128 58.7319C47.6819 58.7943 47.7636 58.8379 47.8516 58.8566C48.0087 58.894 48.1595 58.8815 48.3104 58.8192C48.4486 58.7631 48.5806 58.6634 48.6497 58.5325C48.7314 58.3768 48.788 58.1649 48.7188 57.9904L48.7125 58.0029Z" fill="url(#paint11_linear_108_369)"/>
<path d="M58.321 51.3475C57.6046 50.7181 56.7877 50.2383 55.8953 49.9018C55.7319 49.8395 55.4931 49.8893 55.3486 49.9704C55.2041 50.0576 55.0595 50.2196 55.0218 50.3879C54.9778 50.5686 54.9904 50.768 55.0909 50.93C55.1098 50.9549 55.1349 50.9736 55.1538 50.9923C55.1915 51.1793 55.2983 51.3537 55.4806 51.4597C56.1655 51.8772 56.8882 52.2262 57.636 52.5128L57.8245 52.5377C57.9188 52.5377 58.0131 52.519 58.0948 52.4754C58.233 52.4193 58.365 52.3196 58.4341 52.1888C58.5724 51.927 58.5661 51.5469 58.321 51.3413V51.3475Z" fill="#1E1C1C"/>
<path d="M58.321 51.3475C57.6046 50.7181 56.7877 50.2383 55.8953 49.9018C55.7319 49.8395 55.4931 49.8893 55.3486 49.9704C55.2041 50.0576 55.0595 50.2196 55.0218 50.3879C54.9778 50.5686 54.9904 50.768 55.0909 50.93C55.1098 50.9549 55.1349 50.9736 55.1538 50.9923C55.1915 51.1793 55.2983 51.3537 55.4806 51.4597C56.1655 51.8772 56.8882 52.2262 57.636 52.5128L57.8245 52.5377C57.9188 52.5377 58.0131 52.519 58.0948 52.4754C58.233 52.4193 58.365 52.3196 58.4341 52.1888C58.5724 51.927 58.5661 51.5469 58.321 51.3413V51.3475Z" fill="url(#paint12_linear_108_369)"/>
<path d="M60.9038 39.9751C60.4513 39.8442 59.9989 39.7133 59.5464 39.5762C59.4333 39.5451 59.3139 39.5513 59.1945 39.5825C59.1756 39.5825 59.1693 39.5638 59.1505 39.5575C58.9808 39.5139 58.7546 39.5326 58.6038 39.6261C58.453 39.7196 58.321 39.8691 58.277 40.0436C58.2393 40.2181 58.2393 40.4362 58.3461 40.5857C58.5221 40.8163 58.698 41.0033 58.9431 41.159C59.1316 41.2774 59.3516 41.3709 59.5715 41.4208C60.0805 41.5392 60.5958 41.4831 61.0672 41.2463C61.1677 41.1964 61.2683 41.0905 61.3185 40.997C61.4002 40.8599 61.4254 40.7041 61.4002 40.5484C61.3625 40.2742 61.1677 40.0436 60.8912 39.9626L60.9038 39.9751Z" fill="#1E1C1C"/>
<path d="M60.9038 39.9751C60.4513 39.8442 59.9989 39.7133 59.5464 39.5762C59.4333 39.5451 59.3139 39.5513 59.1945 39.5825C59.1756 39.5825 59.1693 39.5638 59.1505 39.5575C58.9808 39.5139 58.7546 39.5326 58.6038 39.6261C58.453 39.7196 58.321 39.8691 58.277 40.0436C58.2393 40.2181 58.2393 40.4362 58.3461 40.5857C58.5221 40.8163 58.698 41.0033 58.9431 41.159C59.1316 41.2774 59.3516 41.3709 59.5715 41.4208C60.0805 41.5392 60.5958 41.4831 61.0672 41.2463C61.1677 41.1964 61.2683 41.0905 61.3185 40.997C61.4002 40.8599 61.4254 40.7041 61.4002 40.5484C61.3625 40.2742 61.1677 40.0436 60.8912 39.9626L60.9038 39.9751Z" fill="url(#paint13_linear_108_369)"/>
<path d="M58.9305 28.3534C58.9305 28.3098 58.9431 28.2662 58.9305 28.2288C58.9305 28.1353 58.8991 28.0481 58.8489 27.9671C58.786 27.8673 58.698 27.7801 58.5975 27.7178C58.5158 27.6679 58.4278 27.6368 58.3336 27.6368C58.2393 27.6181 58.145 27.6181 58.0508 27.6492C57.6926 27.7739 57.3784 27.9546 57.1019 28.2163C56.9699 28.3409 56.8568 28.4843 56.75 28.6338C56.6431 28.7896 56.5677 28.9579 56.4923 29.1323C56.4609 29.257 56.4609 29.3816 56.4923 29.5062C56.5112 29.5997 56.5551 29.6745 56.618 29.743C56.6683 29.8178 56.7311 29.8801 56.8191 29.9237C56.9322 29.9861 57.0453 30.0172 57.1773 30.0172C57.2967 30.0048 57.4224 29.9923 57.5418 29.9611C57.6297 29.9362 57.7114 29.905 57.7931 29.8677C57.8811 29.8303 57.9628 29.7991 58.0445 29.7493C58.145 29.6869 58.2393 29.6122 58.3273 29.5436C58.6101 29.3193 58.8049 28.9953 58.9243 28.6587C58.9557 28.5653 58.9557 28.4718 58.9368 28.3783C58.9368 28.3721 58.9368 28.3659 58.9368 28.3596L58.9305 28.3534Z" fill="#1E1C1C"/>
<path d="M58.9305 28.3534C58.9305 28.3098 58.9431 28.2662 58.9305 28.2288C58.9305 28.1353 58.8991 28.0481 58.8489 27.9671C58.786 27.8673 58.698 27.7801 58.5975 27.7178C58.5158 27.6679 58.4278 27.6368 58.3336 27.6368C58.2393 27.6181 58.145 27.6181 58.0508 27.6492C57.6926 27.7739 57.3784 27.9546 57.1019 28.2163C56.9699 28.3409 56.8568 28.4843 56.75 28.6338C56.6431 28.7896 56.5677 28.9579 56.4923 29.1323C56.4609 29.257 56.4609 29.3816 56.4923 29.5062C56.5112 29.5997 56.5551 29.6745 56.618 29.743C56.6683 29.8178 56.7311 29.8801 56.8191 29.9237C56.9322 29.9861 57.0453 30.0172 57.1773 30.0172C57.2967 30.0048 57.4224 29.9923 57.5418 29.9611C57.6297 29.9362 57.7114 29.905 57.7931 29.8677C57.8811 29.8303 57.9628 29.7991 58.0445 29.7493C58.145 29.6869 58.2393 29.6122 58.3273 29.5436C58.6101 29.3193 58.8049 28.9953 58.9243 28.6587C58.9557 28.5653 58.9557 28.4718 58.9368 28.3783C58.9368 28.3721 58.9368 28.3659 58.9368 28.3596L58.9305 28.3534Z" fill="url(#paint14_linear_108_369)"/>
<path d="M47.5814 21.0873C47.5814 21.0375 47.5814 20.9938 47.5814 20.944C47.5688 20.6636 47.4117 20.4143 47.1478 20.3022C47.0284 20.2523 46.909 20.2398 46.7833 20.2523C46.6199 20.271 46.5005 20.3395 46.3748 20.4455C46.0983 20.6885 45.8847 21.0624 45.8156 21.4238C45.7779 21.6108 45.759 21.8039 45.7779 21.9909C45.7904 22.1093 45.803 22.2339 45.8407 22.3523C45.8784 22.4707 45.9287 22.5891 45.9852 22.7013C46.0229 22.7511 46.0606 22.7947 46.0984 22.8446C46.1486 22.882 46.1926 22.9194 46.2429 22.9568C46.3811 23.0378 46.5382 23.0627 46.6953 23.0378C46.9781 23.0004 47.1918 22.8072 47.2861 22.533C47.3489 22.3461 47.4054 22.1654 47.4683 21.9784C47.5563 21.86 47.6191 21.7229 47.6128 21.5734C47.6128 21.5609 47.6128 21.5485 47.6128 21.536C47.6128 21.5235 47.6191 21.5111 47.6254 21.4986C47.6694 21.3677 47.6442 21.2119 47.594 21.0749L47.5814 21.0873Z" fill="#1E1C1C"/>
<path d="M47.5814 21.0873C47.5814 21.0375 47.5814 20.9938 47.5814 20.944C47.5688 20.6636 47.4117 20.4143 47.1478 20.3022C47.0284 20.2523 46.909 20.2398 46.7833 20.2523C46.6199 20.271 46.5005 20.3395 46.3748 20.4455C46.0983 20.6885 45.8847 21.0624 45.8156 21.4238C45.7779 21.6108 45.759 21.8039 45.7779 21.9909C45.7904 22.1093 45.803 22.2339 45.8407 22.3523C45.8784 22.4707 45.9287 22.5891 45.9852 22.7013C46.0229 22.7511 46.0606 22.7947 46.0984 22.8446C46.1486 22.882 46.1926 22.9194 46.2429 22.9568C46.3811 23.0378 46.5382 23.0627 46.6953 23.0378C46.9781 23.0004 47.1918 22.8072 47.2861 22.533C47.3489 22.3461 47.4054 22.1654 47.4683 21.9784C47.5563 21.86 47.6191 21.7229 47.6128 21.5734C47.6128 21.5609 47.6128 21.5485 47.6128 21.536C47.6128 21.5235 47.6191 21.5111 47.6254 21.4986C47.6694 21.3677 47.6442 21.2119 47.594 21.0749L47.5814 21.0873Z" fill="url(#paint15_linear_108_369)"/>
<path d="M42.3656 28.5403L41.423 38.8347L40.3484 38.2614L40.9516 28.5403H42.3656Z" fill="#1E1C1C"/>
<path d="M42.3656 28.5403L41.423 38.8347L40.3484 38.2614L40.9516 28.5403H42.3656Z" fill="url(#paint16_linear_108_369)"/>
<path d="M42.4787 38.7412L50.3841 43.5083L49.4415 44.4493L41.5989 39.3207L42.4787 38.7412Z" fill="#1E1C1C"/>
<path d="M42.4787 38.7412L50.3841 43.5083L49.4415 44.4493L41.5989 39.3207L42.4787 38.7412Z" fill="url(#paint17_linear_108_369)"/>
<path d="M39.4947 38.3567L30.2322 42.9502L30.7465 43.9701L40.0091 39.3767L39.4947 38.3567Z" fill="#1E1C1C"/>
<path d="M39.4947 38.3567L30.2322 42.9502L30.7465 43.9701L40.0091 39.3767L39.4947 38.3567Z" fill="url(#paint18_linear_108_369)"/>
<path d="M39.0664 36.9591C39.0664 36.9591 40.009 36.0243 41.8943 36.4917C43.7795 36.9591 43.7795 39.7695 42.3656 40.7042C40.9516 41.6389 39.0601 40.7042 38.5888 39.7695C38.1175 38.8347 38.5888 37.4327 39.0601 36.9653L39.0664 36.9591Z" fill="#1E1C1C"/>
<path d="M39.0664 36.9591C39.0664 36.9591 40.009 36.0243 41.8943 36.4917C43.7795 36.9591 43.7795 39.7695 42.3656 40.7042C40.9516 41.6389 39.0601 40.7042 38.5888 39.7695C38.1175 38.8347 38.5888 37.4327 39.0601 36.9653L39.0664 36.9591Z" fill="url(#paint19_linear_108_369)"/>
</g>
<defs>
<linearGradient id="paint0_linear_108_369" x1="81.817" y1="21.4551" x2="82.3825" y2="27.418" gradientUnits="userSpaceOnUse">
<stop stop-color="#92CE1D"/>
<stop offset="1" stop-color="#147AD8"/>
</linearGradient>
<linearGradient id="paint1_linear_108_369" x1="80.4709" y1="54.1946" x2="81.022" y2="60.1704" gradientUnits="userSpaceOnUse">
<stop stop-color="#92CE1D"/>
<stop offset="1" stop-color="#147AD8"/>
</linearGradient>
<linearGradient id="paint2_linear_108_369" x1="96.8266" y1="-15.9238" x2="110.508" y2="72.3282" gradientUnits="userSpaceOnUse">
<stop stop-color="#92CE1D"/>
<stop offset="1" stop-color="#147AD8"/>
</linearGradient>
<linearGradient id="paint3_linear_108_369" x1="77.6238" y1="16.7212" x2="92.6572" y2="23.3331" gradientUnits="userSpaceOnUse">
<stop stop-color="#92CE1D"/>
<stop offset="1" stop-color="#147AD8"/>
</linearGradient>
<linearGradient id="paint4_linear_108_369" x1="108.442" y1="-26.4406" x2="124.797" y2="79.6692" gradientUnits="userSpaceOnUse">
<stop stop-color="#92CE1D"/>
<stop offset="1" stop-color="#147AD8"/>
</linearGradient>
<linearGradient id="paint5_linear_108_369" x1="60.7299" y1="18.2078" x2="66.0745" y2="51.3643" gradientUnits="userSpaceOnUse">
<stop stop-color="#92CE1D"/>
<stop offset="1" stop-color="#147AD8"/>
</linearGradient>
<linearGradient id="paint6_linear_108_369" x1="81.413" y1="-3.12316" x2="92.8651" y2="65.4815" gradientUnits="userSpaceOnUse">
<stop stop-color="#92CE1D"/>
<stop offset="1" stop-color="#147AD8"/>
</linearGradient>
<linearGradient id="paint7_linear_108_369" x1="32.5583" y1="19.8416" x2="33.3017" y2="23.9665" gradientUnits="userSpaceOnUse">
<stop stop-color="#92CE1D"/>
<stop offset="1" stop-color="#147AD8"/>
</linearGradient>
<linearGradient id="paint8_linear_108_369" x1="26.0359" y1="34.1721" x2="26.3544" y2="37.0835" gradientUnits="userSpaceOnUse">
<stop stop-color="#92CE1D"/>
<stop offset="1" stop-color="#147AD8"/>
</linearGradient>
<linearGradient id="paint9_linear_108_369" x1="27.0903" y1="46.4761" x2="27.4652" y2="49.4174" gradientUnits="userSpaceOnUse">
<stop stop-color="#92CE1D"/>
<stop offset="1" stop-color="#147AD8"/>
</linearGradient>
<linearGradient id="paint10_linear_108_369" x1="35.5493" y1="54.4179" x2="36.496" y2="58.2348" gradientUnits="userSpaceOnUse">
<stop stop-color="#92CE1D"/>
<stop offset="1" stop-color="#147AD8"/>
</linearGradient>
<linearGradient id="paint11_linear_108_369" x1="49.3335" y1="54.9589" x2="50.2213" y2="58.7506" gradientUnits="userSpaceOnUse">
<stop stop-color="#92CE1D"/>
<stop offset="1" stop-color="#147AD8"/>
</linearGradient>
<linearGradient id="paint12_linear_108_369" x1="59.5362" y1="48.9933" x2="59.9718" y2="52.5576" gradientUnits="userSpaceOnUse">
<stop stop-color="#92CE1D"/>
<stop offset="1" stop-color="#147AD8"/>
</linearGradient>
<linearGradient id="paint13_linear_108_369" x1="62.3143" y1="38.8921" x2="62.5753" y2="41.5082" gradientUnits="userSpaceOnUse">
<stop stop-color="#92CE1D"/>
<stop offset="1" stop-color="#147AD8"/>
</linearGradient>
<linearGradient id="paint14_linear_108_369" x1="59.6611" y1="26.8331" x2="60.1563" y2="30.0056" gradientUnits="userSpaceOnUse">
<stop stop-color="#92CE1D"/>
<stop offset="1" stop-color="#147AD8"/>
</linearGradient>
<linearGradient id="paint15_linear_108_369" x1="48.1865" y1="19.3226" x2="49.053" y2="22.9148" gradientUnits="userSpaceOnUse">
<stop stop-color="#92CE1D"/>
<stop offset="1" stop-color="#147AD8"/>
</linearGradient>
<linearGradient id="paint16_linear_108_369" x1="42.944" y1="25.1379" x2="49.8076" y2="33.4495" gradientUnits="userSpaceOnUse">
<stop stop-color="#92CE1D"/>
<stop offset="1" stop-color="#147AD8"/>
</linearGradient>
<linearGradient id="paint17_linear_108_369" x1="52.9031" y1="36.8546" x2="53.7092" y2="44.5212" gradientUnits="userSpaceOnUse">
<stop stop-color="#92CE1D"/>
<stop offset="1" stop-color="#147AD8"/>
</linearGradient>
<linearGradient id="paint18_linear_108_369" x1="41.9805" y1="36.7025" x2="42.6944" y2="38.0796" gradientUnits="userSpaceOnUse">
<stop stop-color="#92CE1D"/>
<stop offset="1" stop-color="#147AD8"/>
</linearGradient>
<linearGradient id="paint19_linear_108_369" x1="44.8013" y1="34.7974" x2="45.766" y2="41.073" gradientUnits="userSpaceOnUse">
<stop stop-color="#92CE1D"/>
<stop offset="1" stop-color="#147AD8"/>
</linearGradient>
<clipPath id="clip0_108_369">
<rect width="84" height="80" fill="white" transform="translate(0.375)"/>
</clipPath>
</defs>
</svg>
