<svg width="16" height="17" viewBox="0 0 16 17" fill="none" xmlns="http://www.w3.org/2000/svg">
<path d="M8 0.5C12.4062 0.5 16 4.09375 16 8.5C16 12.9375 12.4062 16.5 8 16.5C3.5625 16.5 0 12.9375 0 8.5C0 4.09375 3.5625 0.5 8 0.5ZM8 15C11.5625 15 14.5 12.0938 14.5 8.5C14.5 4.9375 11.5625 2 8 2C4.40625 2 1.5 4.9375 1.5 8.5C1.5 12.0938 4.40625 15 8 15ZM8 11C8.53125 11 9 11.4375 9 12C9 12.5625 8.53125 13 8 13C7.40625 13 7 12.5625 7 12C7 11.4375 7.4375 11 8 11ZM9.03125 4.5C10.2812 4.5 11.25 5.46875 11.2188 6.6875C11.2188 7.4375 10.8125 8.15625 10.1562 8.5625L8.75 9.4375V9.5C8.75 9.90625 8.40625 10.25 8 10.25C7.59375 10.25 7.25 9.90625 7.25 9.5V9C7.25 8.75 7.375 8.5 7.625 8.34375L9.40625 7.28125C9.625 7.15625 9.75 6.9375 9.75 6.6875C9.75 6.3125 9.40625 6 9 6H7.40625C7.03125 6 6.75 6.3125 6.75 6.6875C6.75 7.09375 6.40625 7.4375 6 7.4375C5.59375 7.4375 5.25 7.09375 5.25 6.6875C5.25 5.46875 6.21875 4.5 7.4375 4.5H9.03125Z" fill="#A2A9B5"/>
</svg>
