<?xml version="1.0" encoding="utf-8"?>
<!-- Generator: Adobe Illustrator 17.0.0, SVG Export Plug-In . SVG Version: 6.00 Build 0)  -->
<!DOCTYPE svg PUBLIC "-//W3C//DTD SVG 1.1//EN" "http://www.w3.org/Graphics/SVG/1.1/DTD/svg11.dtd">
<svg version="1.1" id="Layer_1" xmlns="http://www.w3.org/2000/svg" xmlns:xlink="http://www.w3.org/1999/xlink" x="0px" y="0px"
	 width="100px" height="38px" viewBox="0 0 100 38" enable-background="new 0 0 100 38" xml:space="preserve">
<path fill="#95D319" d="M92,0H49c-4.411,0-8,3.589-8,8v2h3V8c0-2.757,2.243-5,5-5h43c2.757,0,5,2.243,5,5v22c0,2.757-2.243,5-5,5H49
	c-2.414,0-4.434-1.721-4.899-4h-3.032c0.495,3.94,3.859,7,7.931,7h43c4.411,0,8-3.589,8-8V8C100,3.589,96.411,0,92,0z"/>
<path fill="#212D42" d="M9.517,13.664c1.616,0,2.992,0.616,4.128,1.848c1.152,1.216,1.728,2.712,1.728,4.488
	s-0.576,3.28-1.728,4.512c-1.136,1.216-2.512,1.824-4.128,1.824c-1.68,0-2.976-0.584-3.888-1.752V30.8H2.533V14h3.096v1.416
	C6.541,14.248,7.837,13.664,9.517,13.664z M6.565,22.448c0.624,0.624,1.416,0.936,2.376,0.936s1.752-0.312,2.376-0.936
	c0.64-0.64,0.96-1.456,0.96-2.448s-0.32-1.8-0.96-2.424c-0.624-0.64-1.416-0.96-2.376-0.96s-1.752,0.32-2.376,0.96
	C5.941,18.2,5.629,19.008,5.629,20S5.941,21.808,6.565,22.448z M26.677,14h3.096v12h-3.096v-1.416
	c-0.928,1.168-2.232,1.752-3.912,1.752c-1.6,0-2.976-0.608-4.128-1.824c-1.136-1.232-1.704-2.736-1.704-4.512
	s0.568-3.272,1.704-4.488c1.152-1.232,2.528-1.848,4.128-1.848c1.68,0,2.984,0.584,3.912,1.752V14z M20.965,22.448
	c0.624,0.624,1.416,0.936,2.376,0.936c0.96,0,1.752-0.312,2.376-0.936c0.64-0.64,0.96-1.456,0.96-2.448s-0.32-1.8-0.96-2.424
	c-0.624-0.64-1.416-0.96-2.376-0.96c-0.96,0-1.752,0.32-2.376,0.96C20.341,18.2,20.029,19.008,20.029,20
	S20.341,21.808,20.965,22.448z M40.404,14h3.312l-4.368,12c-0.624,1.728-1.456,2.976-2.496,3.744
	c-1.024,0.784-2.304,1.136-3.84,1.056v-2.88c0.832,0.016,1.488-0.16,1.968-0.528c0.496-0.368,0.888-0.96,1.176-1.776L31.236,14
	h3.384l3.12,8.064L40.404,14z"/>
<path fill="#95D319" d="M56.361,13.664c1.312,0,2.392,0.44,3.24,1.32c0.864,0.88,1.296,2.096,1.296,3.648V26h-3.096v-6.984
	c0-0.8-0.216-1.408-0.648-1.824c-0.432-0.432-1.008-0.648-1.728-0.648c-0.8,0-1.44,0.248-1.92,0.744
	c-0.48,0.496-0.72,1.24-0.72,2.232V26h-3.096V9.2h3.096v6.144C53.537,14.224,54.729,13.664,56.361,13.664z M71.461,14h3.096v12
	h-3.096v-1.344c-0.752,1.12-1.944,1.68-3.576,1.68c-1.312,0-2.4-0.44-3.264-1.32c-0.848-0.88-1.272-2.096-1.272-3.648V14h3.096
	v6.984c0,0.8,0.216,1.416,0.648,1.848c0.432,0.416,1.008,0.624,1.728,0.624c0.8,0,1.44-0.248,1.92-0.744
	c0.48-0.496,0.72-1.24,0.72-2.232V14z M84.377,13.664c1.616,0,2.992,0.616,4.128,1.848c1.152,1.216,1.728,2.712,1.728,4.488
	s-0.576,3.28-1.728,4.512c-1.136,1.216-2.512,1.824-4.128,1.824c-1.68,0-2.976-0.584-3.888-1.752V26h-3.096V9.2h3.096v6.216
	C81.401,14.248,82.697,13.664,84.377,13.664z M81.425,22.448c0.624,0.624,1.416,0.936,2.376,0.936s1.752-0.312,2.376-0.936
	c0.64-0.64,0.96-1.456,0.96-2.448s-0.32-1.8-0.96-2.424c-0.624-0.64-1.416-0.96-2.376-0.96s-1.752,0.32-2.376,0.96
	C80.801,18.2,80.489,19.008,80.489,20S80.801,21.808,81.425,22.448z"/>
</svg>
