<?xml version="1.0" encoding="utf-8"?>
<!-- Generator: Adobe Illustrator 17.0.0, SVG Export Plug-In . SVG Version: 6.00 Build 0)  -->
<!DOCTYPE svg PUBLIC "-//W3C//DTD SVG 1.1//EN" "http://www.w3.org/Graphics/SVG/1.1/DTD/svg11.dtd">
<svg version="1.1"
	 id="Layer_1" xmlns:dc="http://purl.org/dc/elements/1.1/" xmlns:cc="http://creativecommons.org/ns#" xmlns:rdf="http://www.w3.org/1999/02/22-rdf-syntax-ns#" xmlns:svg="http://www.w3.org/2000/svg" xmlns:sodipodi="http://sodipodi.sourceforge.net/DTD/sodipodi-0.dtd" xmlns:inkscape="http://www.inkscape.org/namespaces/inkscape" sodipodi:docname="Visa_2006.svg" inkscape:version="0.91 r13725"
	 xmlns="http://www.w3.org/2000/svg" xmlns:xlink="http://www.w3.org/1999/xlink" x="0px" y="0px" width="525.835px"
	 height="405.553px" viewBox="3090.548 0 525.835 405.553" enable-background="new 3090.548 0 525.835 405.553"
	 xml:space="preserve">
<sodipodi:namedview  inkscape:cy="131.15483" inkscape:cx="34.690897" inkscape:zoom="0.35355339" showgrid="false" guidetolerance="10" gridtolerance="10" objecttolerance="10" borderopacity="1" pagecolor="#ffffff" bordercolor="#666666" id="namedview19" inkscape:current-layer="Layer_1" inkscape:window-maximized="1" inkscape:window-y="-8" inkscape:window-x="-8" inkscape:window-height="705" inkscape:window-width="1366" inkscape:pageopacity="0" inkscape:pageshadow="2">
	</sodipodi:namedview>
<g>
	<path fill="#747474" d="M3424.559,288.663h-142.186V35.132h142.186V288.663z"/>
	<path fill="#494949" d="M3291.398,161.905c0-51.43,24.271-97.243,62.063-126.766c-27.637-21.589-62.518-34.475-100.425-34.475
		c-89.742,0-162.488,72.189-162.488,161.241c0,89.051,72.746,161.24,162.488,161.24c37.907,0,72.787-12.885,100.425-34.474
		C3315.668,259.148,3291.398,213.334,3291.398,161.905"/>
	<path fill="#737373" d="M3616.383,161.905c0,89.051-72.746,161.24-162.488,161.24c-37.907,0-72.787-12.885-100.435-34.474
		c37.804-29.523,62.073-75.337,62.073-126.766c0-51.43-24.269-97.243-62.073-126.766c27.647-21.589,62.528-34.475,100.435-34.475
		C3543.637,0.664,3616.383,72.852,3616.383,161.905"/>
	<path fill="#202020" d="M3472.667,360.305c1.891,0,4.609,0.358,6.685,1.169l-2.892,8.774c-1.984-0.809-3.968-1.075-5.869-1.075
		c-6.137,0-9.206,3.936-9.206,11.01v24.008h-9.391v-42.81h9.297v5.198C3463.731,362.816,3467.254,360.305,3472.667,360.305
		L3472.667,360.305z"/>
	<path fill="#202020" d="M3437.973,369.889h-15.343v19.344c0,4.296,1.53,7.167,6.23,7.167c2.439,0,5.506-0.81,8.297-2.42
		l2.707,7.965c-2.975,2.061-7.667,3.322-11.727,3.322c-11.107,0-14.982-5.915-14.982-15.859v-19.519h-8.761v-8.509h8.761v-12.987
		h9.474v12.987h15.343V369.889z"/>
	<path fill="#202020" d="M3329.468,360.304c12.1,0,20.406,9.134,20.5,22.481c0,1.24-0.092,2.39-0.184,3.549l-0.003,0.029h-32.04
		c1.354,7.699,6.861,10.478,12.905,10.478c4.329,0,8.936-1.61,12.542-4.481l4.609,6.9c-5.24,4.386-11.19,5.997-17.689,5.997
		c-12.914,0-22.12-8.867-22.12-22.471C3307.99,369.438,3316.833,360.304,3329.468,360.304z M3329.293,368.627
		c-6.685,0-10.466,4.214-11.469,10.395h22.389C3339.222,372.39,3335.337,368.627,3329.293,368.627z"/>
	<path fill="#202020" d="M3391.211,372.308c-2.614-1.619-7.935-3.679-13.441-3.679c-5.145,0-8.214,1.886-8.214,5.023
		c0,2.859,3.244,3.669,7.304,4.203l4.422,0.625c9.391,1.354,15.073,5.29,15.073,12.814c0,8.15-7.221,13.974-19.672,13.974
		c-7.046,0-13.545-1.795-18.69-5.556l4.422-7.259c3.162,2.419,7.862,4.48,14.361,4.48c6.407,0,9.837-1.876,9.837-5.197
		c0-2.409-2.439-3.763-7.584-4.47l-4.422-0.625c-9.66-1.354-14.898-5.648-14.898-12.63c0-8.509,7.046-13.705,17.967-13.705
		c6.86,0,13.09,1.527,17.596,4.48L3391.211,372.308L3391.211,372.308z"/>
	<path fill="#202020" d="M3516.278,362.037c-2.852-1.159-5.951-1.734-9.299-1.734c-3.347,0-6.447,0.575-9.299,1.734
		c-2.851,1.147-5.3,2.736-7.366,4.756c-2.066,2.019-3.688,4.408-4.867,7.155c-1.177,2.757-1.767,5.75-1.767,8.979
		c0,3.229,0.589,6.223,1.767,8.981c1.179,2.747,2.8,5.146,4.867,7.165c2.066,2.019,4.515,3.598,7.366,4.756
		c2.852,1.149,5.952,1.722,9.299,1.722c3.348,0,6.447-0.574,9.299-1.722c2.852-1.159,5.321-2.737,7.398-4.756
		c2.086-2.019,3.709-4.418,4.887-7.165c1.177-2.757,1.767-5.751,1.767-8.981c0-3.229-0.589-6.222-1.767-8.979
		c-1.177-2.747-2.8-5.136-4.887-7.155C3521.599,364.773,3519.13,363.184,3516.278,362.037z M3501.596,370.156
		c1.663-0.667,3.451-1.005,5.383-1.005c1.933,0,3.729,0.338,5.383,1.005c1.663,0.675,3.11,1.619,4.319,2.829
		c1.229,1.209,2.179,2.664,2.882,4.356c0.693,1.692,1.034,3.558,1.034,5.587c0,2.04-0.341,3.896-1.034,5.587
		c-0.703,1.692-1.653,3.147-2.882,4.358c-1.209,1.209-2.656,2.152-4.319,2.829c-1.653,0.677-3.45,1.005-5.383,1.005
		c-1.932,0-3.72-0.328-5.383-1.005c-1.653-0.677-3.089-1.62-4.297-2.829c-1.209-1.21-2.16-2.666-2.852-4.358
		c-0.693-1.691-1.032-3.546-1.032-5.587c0-2.029,0.34-3.895,1.032-5.587c0.692-1.692,1.643-3.147,2.852-4.356
		C3498.508,371.775,3499.943,370.831,3501.596,370.156z"/>
	<path fill="#202020" d="M3297.916,361.38v21.404v21.404h-9.382v-5.197c-2.985,3.854-7.491,6.273-13.628,6.273
		c-12.098,0-21.572-9.411-21.572-22.481c0-13.08,9.474-22.481,21.572-22.481c6.137,0,10.643,2.419,13.628,6.275v-5.198H3297.916z
		 M3276.075,369.079c-8.122,0-13.09,6.182-13.09,13.705c0,7.525,4.969,13.695,13.09,13.695c7.759,0,12.997-5.905,12.997-13.695
		C3289.072,374.994,3283.834,369.079,3276.075,369.079z"/>
	<path fill="#202020" d="M3245.028,404.19v-26.869c0-10.118-6.499-16.925-16.965-17.016c-5.508-0.093-11.2,1.609-15.168,7.616
		c-2.975-4.746-7.676-7.616-14.268-7.616c-4.597,0-9.113,1.342-12.636,6.355v-5.28h-9.382v42.81h9.475v-23.731
		c0-7.432,4.153-11.38,10.558-11.38c6.23,0,9.392,4.029,9.392,11.286v23.825h9.474v-23.731c0-7.432,4.341-11.38,10.56-11.38
		c6.417,0,9.485,4.029,9.485,11.286v23.825H3245.028L3245.028,404.19z"/>
</g>
</svg>
