<svg width="20" height="20" viewBox="0 0 20 20" fill="none" xmlns="http://www.w3.org/2000/svg">
<g clip-path="url(#clip0_108_318)">
<path d="M10 20C15.5228 20 20 15.5228 20 10C20 4.47715 15.5228 0 10 0C4.47715 0 0 4.47715 0 10C0 15.5228 4.47715 20 10 20Z" fill="#00ABC2"/>
<path d="M10 14.1667C12.3012 14.1667 14.1667 12.3012 14.1667 10C14.1667 7.69885 12.3012 5.83337 10 5.83337C7.69882 5.83337 5.83334 7.69885 5.83334 10C5.83334 12.3012 7.69882 14.1667 10 14.1667Z" fill="#FFEC2D"/>
<path d="M10 5.62374C10.229 5.62088 10.3149 5.47777 10.3149 5.30604C10.3149 5.07706 10 3.98657 10 3.98657C10 3.98657 9.6852 5.07706 9.6852 5.30604C9.6852 5.47777 9.77106 5.62374 10 5.62374Z" fill="#FFEC2D"/>
<path d="M14.3763 10C14.3792 10.229 14.5223 10.3149 14.694 10.3149C14.923 10.3149 16.0135 10 16.0135 10C16.0135 10 14.923 9.68518 14.694 9.68518C14.5223 9.68518 14.3763 9.77105 14.3763 10Z" fill="#FFEC2D"/>
<path d="M10 14.3763C9.77104 14.3791 9.68517 14.5222 9.68517 14.694C9.68517 14.9229 10 16.0134 10 16.0134C10 16.0134 10.3148 14.9229 10.3148 14.694C10.3148 14.5222 10.229 14.3763 10 14.3763Z" fill="#FFEC2D"/>
<path d="M5.62375 10.0001C5.62089 9.77113 5.47778 9.68526 5.30605 9.68526C5.07708 9.68526 3.98659 10.0001 3.98659 10.0001C3.98659 10.0001 5.07708 10.3149 5.30605 10.3149C5.47778 10.3149 5.62375 10.2291 5.62375 10.0001Z" fill="#FFEC2D"/>
<path d="M11.6747 5.95676C11.8874 6.04174 12.0215 5.94238 12.0872 5.78372C12.1748 5.57218 12.3013 4.44421 12.3013 4.44421C12.3013 4.44421 11.5931 5.33121 11.5055 5.54276C11.4397 5.70141 11.4632 5.86913 11.6747 5.95676Z" fill="#FFEC2D"/>
<path d="M14.0432 11.6746C13.9582 11.8873 14.0575 12.0213 14.2162 12.0871C14.4277 12.1747 15.5557 12.3011 15.5557 12.3011C15.5557 12.3011 14.6687 11.5929 14.4572 11.5053C14.2985 11.4396 14.1308 11.4631 14.0432 11.6746Z" fill="#FFEC2D"/>
<path d="M8.32531 14.043C8.11267 13.958 7.97858 14.0574 7.91286 14.216C7.82523 14.4276 7.6988 15.5555 7.6988 15.5555C7.6988 15.5555 8.40698 14.6685 8.49461 14.457C8.56033 14.2983 8.53686 14.1306 8.32531 14.043Z" fill="#FFEC2D"/>
<path d="M5.95689 8.32514C6.04188 8.1125 5.94252 7.97841 5.78386 7.91269C5.57232 7.82507 4.44435 7.69863 4.44435 7.69863C4.44435 7.69863 5.33135 8.40681 5.54289 8.49444C5.70155 8.56016 5.86927 8.53669 5.95689 8.32514Z" fill="#FFEC2D"/>
<path d="M13.0945 6.90542C13.2585 7.06531 13.4204 7.02483 13.5418 6.9034C13.7037 6.74149 14.2522 5.74777 14.2522 5.74777C14.2522 5.74777 13.2585 6.29624 13.0966 6.45815C12.9751 6.57958 12.9326 6.74351 13.0945 6.90542Z" fill="#FFEC2D"/>
<path d="M13.0946 13.0944C12.9347 13.2583 12.9752 13.4202 13.0966 13.5417C13.2585 13.7036 14.2522 14.252 14.2522 14.252C14.2522 14.252 13.7038 13.2583 13.5419 13.0964C13.4204 12.975 13.2565 12.9325 13.0946 13.0944Z" fill="#FFEC2D"/>
<path d="M6.90556 13.0943C6.74163 12.9344 6.57972 12.9749 6.45829 13.0964C6.29638 13.2583 5.74791 14.252 5.74791 14.252C5.74791 14.252 6.74163 13.7035 6.90354 13.5416C7.02497 13.4202 7.06747 13.2562 6.90556 13.0943Z" fill="#FFEC2D"/>
<path d="M6.90556 6.90548C7.06544 6.74155 7.02497 6.57964 6.90354 6.45821C6.74163 6.2963 5.74791 5.74783 5.74791 5.74783C5.74791 5.74783 6.29638 6.74155 6.45829 6.90346C6.57972 7.02489 6.74365 7.06739 6.90556 6.90548Z" fill="#FFEC2D"/>
<path d="M14.0432 8.3251C14.1334 8.53555 14.2985 8.56012 14.4572 8.4944C14.6687 8.40677 15.5557 7.69859 15.5557 7.69859C15.5557 7.69859 14.4277 7.82503 14.2162 7.91265C14.0575 7.97837 13.9555 8.11356 14.0432 8.3251Z" fill="#FFEC2D"/>
<path d="M11.6748 14.043C11.4643 14.1333 11.4398 14.2983 11.5055 14.457C11.5931 14.6685 12.3013 15.5555 12.3013 15.5555C12.3013 15.5555 12.1749 14.4276 12.0872 14.216C12.0215 14.0574 11.8863 13.9554 11.6748 14.043Z" fill="#FFEC2D"/>
<path d="M5.95686 11.6745C5.86659 11.4641 5.70152 11.4395 5.54286 11.5052C5.33132 11.5929 4.44432 12.301 4.44432 12.301C4.44432 12.301 5.57228 12.1746 5.78383 12.087C5.94249 12.0213 6.04449 11.8861 5.95686 11.6745Z" fill="#FFEC2D"/>
<path d="M8.32532 5.95663C8.53577 5.86637 8.56033 5.70129 8.49461 5.54263C8.40699 5.33109 7.6988 4.44409 7.6988 4.44409C7.6988 4.44409 7.82524 5.57206 7.91287 5.7836C7.97858 5.94226 8.11377 6.04426 8.32532 5.95663Z" fill="#FFEC2D"/>
<path d="M10.8538 5.7079C11.0789 5.74976 11.191 5.62616 11.2245 5.45773C11.2692 5.23315 11.1732 4.10219 11.1732 4.10219C11.1732 4.10219 10.6516 5.11031 10.607 5.33488C10.5734 5.50331 10.6292 5.66323 10.8538 5.7079Z" fill="#FFEC2D"/>
<path d="M14.2922 10.8538C14.2503 11.0789 14.3739 11.191 14.5423 11.2245C14.7669 11.2692 15.8979 11.1732 15.8979 11.1732C15.8979 11.1732 14.8898 10.6516 14.6652 10.607C14.4967 10.5735 14.3368 10.6292 14.2922 10.8538Z" fill="#FFEC2D"/>
<path d="M9.14623 14.2922C8.92109 14.2504 8.80896 14.374 8.77546 14.5424C8.73078 14.767 8.82683 15.8979 8.82683 15.8979C8.82683 15.8979 9.34836 14.8898 9.39303 14.6652C9.42654 14.4968 9.3708 14.3369 9.14623 14.2922Z" fill="#FFEC2D"/>
<path d="M5.70782 9.14635C5.74969 8.92121 5.62608 8.80908 5.45765 8.77558C5.23308 8.73091 4.10212 8.82695 4.10212 8.82695C4.10212 8.82695 5.11023 9.34849 5.33481 9.39316C5.50324 9.42666 5.66315 9.37092 5.70782 9.14635Z" fill="#FFEC2D"/>
<path d="M12.4313 6.36124C12.6233 6.48607 12.7742 6.41479 12.8696 6.272C12.9968 6.08161 13.3409 4.99999 13.3409 4.99999C13.3409 4.99999 12.4732 5.73178 12.346 5.92217C12.2506 6.06496 12.2409 6.23403 12.4313 6.36124Z" fill="#FFEC2D"/>
<path d="M13.6387 12.4313C13.5139 12.6233 13.5852 12.7742 13.728 12.8696C13.9184 12.9968 15 13.3409 15 13.3409C15 13.3409 14.2682 12.4733 14.0778 12.346C13.935 12.2506 13.7659 12.2409 13.6387 12.4313Z" fill="#FFEC2D"/>
<path d="M7.56866 13.6388C7.37669 13.5139 7.22579 13.5852 7.13038 13.728C7.00317 13.9184 6.6591 15 6.6591 15C6.6591 15 7.52673 14.2682 7.65394 14.0778C7.74935 13.935 7.75905 13.766 7.56866 13.6388Z" fill="#FFEC2D"/>
<path d="M6.36127 7.56868C6.4861 7.3767 6.41482 7.2258 6.27203 7.13039C6.08164 7.00318 5.00002 6.65912 5.00002 6.65912C5.00002 6.65912 5.73181 7.52674 5.9222 7.65395C6.06499 7.74936 6.23406 7.75906 6.36127 7.56868Z" fill="#FFEC2D"/>
<path d="M13.6388 7.56868C13.7684 7.75747 13.9351 7.74936 14.0779 7.65395C14.2683 7.52674 15 6.65912 15 6.65912C15 6.65912 13.9184 7.00318 13.728 7.13039C13.5853 7.2258 13.5116 7.37829 13.6388 7.56868Z" fill="#FFEC2D"/>
<path d="M12.4314 13.6387C12.2426 13.7683 12.2507 13.935 12.3461 14.0778C12.4733 14.2682 13.341 15 13.341 15C13.341 15 12.9969 13.9184 12.8697 13.728C12.7743 13.5852 12.6218 13.5115 12.4314 13.6387Z" fill="#FFEC2D"/>
<path d="M6.36131 12.4313C6.23172 12.2425 6.06502 12.2506 5.92224 12.346C5.73185 12.4733 5.00006 13.3409 5.00006 13.3409C5.00006 13.3409 6.08168 12.9968 6.27207 12.8696C6.41486 12.7742 6.48852 12.6217 6.36131 12.4313Z" fill="#FFEC2D"/>
<path d="M7.56871 6.36126C7.7575 6.23167 7.74939 6.06498 7.65398 5.92219C7.52677 5.7318 6.65915 5.00001 6.65915 5.00001C6.65915 5.00001 7.00321 6.08164 7.13042 6.27202C7.22583 6.41481 7.37832 6.48848 7.56871 6.36126Z" fill="#FFEC2D"/>
<path d="M14.2922 9.14625C14.3397 9.37027 14.4968 9.42656 14.6653 9.39306C14.8898 9.34839 15.898 8.82686 15.898 8.82686C15.898 8.82686 14.767 8.73081 14.5424 8.77548C14.374 8.80898 14.2476 8.92168 14.2922 9.14625Z" fill="#FFEC2D"/>
<path d="M10.8538 14.2923C10.6298 14.3397 10.5735 14.4969 10.607 14.6653C10.6517 14.8899 11.1732 15.898 11.1732 15.898C11.1732 15.898 11.2692 14.767 11.2246 14.5424C11.1911 14.374 11.0784 14.2476 10.8538 14.2923Z" fill="#FFEC2D"/>
<path d="M5.70789 10.8539C5.66041 10.6299 5.5033 10.5736 5.33487 10.6071C5.1103 10.6517 4.10218 11.1733 4.10218 11.1733C4.10218 11.1733 5.23314 11.2693 5.45772 11.2246C5.62615 11.1911 5.75256 11.0784 5.70789 10.8539Z" fill="#FFEC2D"/>
<path d="M9.14628 5.70786C9.3703 5.66038 9.42659 5.50327 9.39309 5.33484C9.34842 5.11027 8.82689 4.10215 8.82689 4.10215C8.82689 4.10215 8.73084 5.23311 8.77551 5.45768C8.80901 5.62612 8.92171 5.75253 9.14628 5.70786Z" fill="#FFEC2D"/>
</g>
<defs>
<clipPath id="clip0_108_318">
<rect width="20" height="20" fill="white"/>
</clipPath>
</defs>
</svg>
