<svg width="48" height="48" viewBox="0 0 48 48" fill="none" xmlns="http://www.w3.org/2000/svg">
<path fill-rule="evenodd" clip-rule="evenodd" d="M39.3271 23.1709L38.8835 25.6806H33.4577L32.4981 30.8116H29.1013L31.4641 18.0762H40.2495L39.8069 20.624H34.3802L33.9004 23.1709" fill="#113E74"/>
<path fill-rule="evenodd" clip-rule="evenodd" d="M12.122 26.6385H14.8919L14.0642 23.7605L12.122 26.6385ZM10.7188 29.1207L9.56796 30.8116H6.61826L15.0717 18.0762H15.3594L18.9208 30.8116H15.7914L15.3594 29.1207" fill="#113E74"/>
<path fill-rule="evenodd" clip-rule="evenodd" d="M29.2819 18.0762H21.0711L20.5922 20.616H23.1683L21.1446 30.8116H24.089L26.2233 20.616C27.0705 20.616 27.954 20.616 28.8003 20.616" fill="#113E74"/>
<path d="M41.8394 18.3302L42.0714 18.5055L42.29 18.7047L42.4998 18.9296L42.7017 19.1712L42.892 19.4306L43.0655 19.713L43.2293 20.0025L43.3825 20.3177L43.5214 20.6372L43.6498 20.9789L43.7534 21.3286L43.8516 21.6863L43.9216 22.0563L43.9835 22.4396L44.026 22.8256L44.0455 23.2178V23.6179L44.0331 24.0234L43.9933 24.4306L43.9313 24.8343L43.8516 25.2424L43.7481 25.6558L43.617 26.0586L43.4648 26.4632L43.2824 26.8669L43.0815 27.2581L42.8495 27.653L42.5937 28.0327L42.3104 28.4081L41.9926 28.7764L41.6491 29.1287L41.2764 29.4678L40.3424 30.2362L39.312 30.963L38.2081 31.6526L37.0165 32.3095L35.763 32.9238L34.4519 33.4948L33.0824 34.0295L31.673 34.5102L30.2168 34.9546L28.741 35.3521L27.237 35.6947L25.7179 35.9975L24.1934 36.2454L22.6672 36.4401L21.1561 36.5835L19.6538 36.6712L18.1772 36.7048L16.7351 36.6818L15.3301 36.5977L13.9721 36.4525L12.6699 36.2507L11.4288 35.9816L10.2549 35.6487L9.16073 35.2574L8.15064 34.7909L7.23174 34.2641L6.41995 33.6613L5.70996 32.9894L5.11507 32.2475L4.64676 31.4286L4.30859 30.5363L4.10675 29.5713L4.02796 28.5453L4.05275 27.5565L4.1758 26.603L4.39092 25.6868L4.69191 24.8139L5.07523 23.9703L5.52848 23.1594L6.06053 22.3901L6.64569 21.6553L7.29725 20.9462L7.99838 20.2725L8.74377 19.6271L9.53608 19.0172L10.3612 18.4356L11.2048 17.8823L12.0839 17.3591L12.9798 16.8607L13.8872 16.3942L14.7919 15.9489L15.7126 15.531L16.6147 15.1371L17.5141 14.7741L18.3958 14.4236L19.2554 14.1049L20.0823 13.8003L20.8737 13.5206L21.6332 13.2612L22.3415 13.0222L23.0019 12.8035L23.6083 12.6008L24.1483 12.4167L24.6139 12.2467L23.8526 13.6118L29.8636 10.4L22.7257 10.8427L24.3209 11.5296L23.7313 11.7023L23.109 11.8917L22.4477 12.0944L21.0383 12.5433L19.5192 13.0611L18.7234 13.3409L17.9187 13.6383L17.0901 13.9535L16.2482 14.2828L15.4036 14.6325L14.5502 14.9963L13.6924 15.3788L12.8381 15.7762L11.99 16.1923L11.1411 16.6296L10.3063 17.0794L9.47943 17.5574L8.66144 18.0443L7.87532 18.5551L7.10249 19.0827L6.35798 19.6307L5.64003 20.1999L4.94864 20.7833L4.29619 21.3959L3.67297 22.0227L3.08781 22.6698L2.55488 23.3373L2.06178 24.026L1.61472 24.7396L1.2199 25.469L1.0632 25.7948L0.914479 26.1108L0.774607 26.4216L0.647129 26.7323L0.527618 27.0404L0.423157 27.3458L0.329319 27.6415L0.242563 27.9327L0.172627 28.224L0.115085 28.5161L0.069936 28.8047L0.0327548 29.0827L0.013279 29.3651L0 29.6377L0.00354111 29.9131L0.0203611 30.1901L0.0495749 30.4593L0.0858708 30.7222L0.138987 30.9922L0.214234 31.2498L0.293023 31.5136L0.390402 31.7739L0.503716 32.0297L0.625883 32.2882L0.762214 32.5414L0.914479 32.7919L1.08357 33.0478L1.26947 33.2903L1.46334 33.5462L1.67846 33.7923L1.90952 34.0375L2.15031 34.288L2.8479 34.8865L3.65703 35.4256L4.56 35.909L5.56035 36.3295L6.64569 36.6942L7.81247 37.0014L9.05804 37.2608L10.3638 37.4635L11.7342 37.6078L13.1612 37.7105L14.6237 37.76H16.1411L17.6867 37.714L19.2625 37.6255L20.8542 37.4927L22.4645 37.3103L24.0872 37.0917L25.7108 36.8323L27.3228 36.5357L28.9305 36.2011L30.5178 35.8213L32.0811 35.4176L33.6109 34.9768L35.1034 34.4987L36.5544 33.9968L37.9567 33.4559L39.2996 32.8902L40.5744 32.3006L41.7863 31.6765L42.9203 31.0356L43.9676 30.3628L44.9246 29.6731L45.2043 29.4191L45.4681 29.1508L45.724 28.8835L45.9718 28.6029L46.2073 28.3143L46.4242 28.0212L46.6305 27.7326L46.8288 27.4281L47.0058 27.1262L47.1758 26.8155L47.3281 26.5074L47.4679 26.1932L47.591 25.8771L47.6999 25.5602L47.7893 25.2424L47.8681 24.9317L47.9256 24.6121L47.9699 24.296L47.9903 23.9835L48 23.6719L47.9885 23.3665L47.9584 23.062L47.9088 22.7583L47.838 22.4609L47.7521 22.1714L47.6441 21.8819L47.5166 21.6013L47.3661 21.3286L47.1962 21.063L47.0058 20.8063L46.7881 20.554L46.5526 20.3106L46.4286 20.1937L46.3056 20.0893L46.1781 19.9866L46.0533 19.891L45.9214 19.7998L45.654 19.6307L45.5221 19.559L45.3823 19.4873L45.2459 19.42L45.1061 19.3598L44.9653 19.3014L44.6758 19.1907L44.381 19.0871L44.0783 18.9986L43.7746 18.9092L43.4648 18.8224L43.147 18.7348L42.8247 18.6454L42.5043 18.5489L42.1741 18.4435" fill="#F36627"/>
</svg>
