<svg width="49" height="48" viewBox="0 0 49 48" fill="none" xmlns="http://www.w3.org/2000/svg">
<path d="M16.4484 7.01373L1.86684 31.3164C-1.93044 37.6199 2.6263 45.5942 9.91709 45.5942H39.0803C46.3711 45.5942 50.9278 37.6199 47.1305 31.3164L32.5489 7.01373C28.9035 0.862123 20.0938 0.862123 16.4484 7.01373ZM30.8022 8.07697L45.4597 32.4556C47.5102 35.8731 45.08 40.278 41.0549 40.278H11.7398C7.71467 40.278 5.20846 35.8731 7.33494 32.4556L21.9925 8.07697C23.9671 4.73536 28.8276 4.73536 30.8022 8.07697Z" fill="#DAAB6B"/>
<path d="M25.0303 13.1653L15.3092 29.3418C13.7903 31.848 15.613 35.0377 18.499 35.0377H37.9411C40.827 35.0377 42.6497 31.848 41.1308 29.3418L31.4097 13.1653C29.9668 10.7351 26.4733 10.7351 25.0303 13.1653ZM31.3338 17.0386L37.7132 27.595C38.3208 28.5823 37.5613 29.7975 36.4981 29.7975H23.7392C22.6 29.7975 21.9165 28.5823 22.5241 27.595L28.9035 17.0386C29.4351 16.0513 30.8022 16.0513 31.3338 17.0386Z" fill="#DAAB6B"/>
</svg>
