<svg width="49" height="48" viewBox="0 0 49 48" fill="none" xmlns="http://www.w3.org/2000/svg">
<path d="M48.3504 21.434C48.2364 21.1737 48.0488 20.9524 47.8108 20.7971C47.5727 20.6419 47.2946 20.5595 47.0104 20.56H42.8802C42.6932 20.5566 42.5073 20.5902 42.3333 20.6588C42.1593 20.7275 42.0005 20.8298 41.8662 20.96C39.3301 23.254 36.4319 24.31 33.0258 24.128C27.0856 23.728 22.6294 19.214 22.7014 13.648C22.7374 9.462 26.1415 6.078 30.4177 6.078C32.1198 6.078 33.8578 6.878 34.9459 8.188C35.1259 8.408 35.4179 8.808 35.5979 9.208C35.7061 9.52571 35.7061 9.87029 35.5979 10.188C35.4522 10.5476 35.1808 10.842 34.8342 11.0164C34.4876 11.1907 34.0894 11.2333 33.7138 11.136V11.1C33.2259 10.927 32.7115 10.8403 32.1938 10.844C30.3817 10.844 28.7516 12.01 28.0996 13.72C27.8004 14.555 27.7614 15.4612 27.9878 16.3189C28.2142 17.1765 28.6953 17.9454 29.3677 18.524C29.4397 18.596 29.5117 18.668 29.5837 18.704L29.6937 18.778L29.7297 18.814C29.7822 18.8712 29.8428 18.9204 29.9097 18.96C32.0838 20.16 34.7299 20.27 36.974 19.18C39.5481 17.904 41.3941 15.284 41.8662 12.154C42.3002 9.354 41.4662 6.514 39.5461 4.258C37.34 1.6 33.9319 0.038 30.4897 0H30.3097C22.8454 0 16.7232 6.078 16.6512 13.574C16.6146 15.0222 16.7857 16.4683 17.1592 17.868C16.9044 17.862 16.6505 17.8379 16.3991 17.796C10.3109 17.396 4.87868 19.906 0.856517 24.928C0.662254 25.1497 0.540803 25.4257 0.508606 25.7187C0.47641 26.0116 0.535022 26.3074 0.676509 26.566C0.796541 26.8218 0.985526 27.0392 1.22224 27.1936C1.45896 27.3479 1.73403 27.4333 2.01656 27.44H6.14473C6.54475 27.44 6.90476 27.294 7.15877 27.04C9.69487 24.71 12.629 23.654 15.9991 23.872C21.9394 24.236 26.3955 28.748 26.3235 34.352C26.2875 38.538 22.8834 41.922 18.6072 41.922C16.9052 41.886 15.1671 41.086 14.079 39.812C13.899 39.592 13.607 39.192 13.427 38.756C13.3182 38.45 13.3182 38.116 13.427 37.81C13.5731 37.4508 13.8447 37.1569 14.1912 36.9828C14.5378 36.8088 14.9357 36.7666 15.3111 36.864C15.8171 37.046 16.3251 37.156 16.8312 37.156C18.6432 37.156 20.2733 35.99 20.9253 34.28C21.2244 33.4392 21.2633 32.5279 21.0372 31.6646C20.811 30.8013 20.3302 30.0262 19.6573 29.44C19.5853 29.368 19.5493 29.332 19.4413 29.296L19.3313 29.222C19.3313 29.186 19.3313 29.186 19.2953 29.186C19.2593 29.112 19.1873 29.076 19.1153 29.04C18.0442 28.4323 16.8412 28.0947 15.6103 28.0563C14.3794 28.018 13.1578 28.2801 12.051 28.82C9.47886 30.096 7.63079 32.716 7.15877 35.846C6.72475 38.646 7.55879 41.45 9.47886 43.742C10.6016 45.0516 11.9893 46.1083 13.5504 46.8422C15.1114 47.5762 16.8104 47.9708 18.5352 48H18.7152C26.1795 48 32.3018 41.886 32.3758 34.426C32.4098 32.934 32.1938 31.478 31.8658 30.096C32.1198 30.132 32.3738 30.168 32.6258 30.168C33.0618 30.204 33.4618 30.204 33.8598 30.204C39.4741 30.204 44.4003 27.73 48.1684 23.036C48.347 22.8138 48.4587 22.5454 48.4906 22.2621C48.5224 21.9788 48.4731 21.6923 48.3484 21.436L48.3504 21.434Z" fill="#00B4C4"/>
</svg>
