<svg width="48" height="48" viewBox="0 0 48 48" fill="none" xmlns="http://www.w3.org/2000/svg">
<path fill-rule="evenodd" clip-rule="evenodd" d="M4.23519 23.9999L23.9999 4.23515L29.789 10.0241H29.7885C31.0759 11.4253 31.8635 13.2925 31.8635 15.3377C31.8635 19.6693 28.3313 23.201 23.9999 23.2013C18.3888 23.2015 13.3591 25.7678 10.0242 29.7883V29.7889L4.23519 23.9999ZM37.9758 18.2109L43.7648 23.9999L23.9999 43.7648L18.211 37.9758H18.2117C16.9241 36.5747 16.1364 34.7075 16.1364 32.6622C16.1364 28.3308 19.6685 24.7988 23.9999 24.7986C29.6112 24.7984 34.6411 22.2323 37.9758 18.2116L37.9758 18.2109ZM8.02775 8.02775H15.9724L23.9999 0L32.0276 8.02775H39.9723V15.9722L48 23.9999L39.9723 32.0276V39.9723H32.0276L23.9999 48L15.9724 39.9723H8.02775V32.0276L0 23.9999L8.02775 15.9722V8.02775ZM15.3877 10.0241H10.0242V15.3876L1.41172 23.9999L8.02775 30.616L10.0242 32.6125V37.9758H15.3877L17.3839 39.9724L23.9999 46.5883L30.616 39.9724L32.6123 37.9758H37.9758V32.6125L39.9724 30.6161L46.5883 23.9999L39.9724 17.384L37.9758 15.3876V10.0241H32.6123L30.616 8.02774L23.9999 1.4117L15.3877 10.0241Z" fill="#007A5C"/>
<path fill-rule="evenodd" clip-rule="evenodd" d="M1.41174 24L10.0242 15.3876V10.0242H15.3876L24 1.41174L32.6125 10.0242H37.9758V15.3876L46.5882 24L37.9758 32.6125V37.9758H32.6125L24 46.5882L15.3876 37.9758H10.0242V32.6125L1.41174 24ZM10.0242 29.7883C13.3591 25.7678 18.3888 23.2015 24 23.2014C28.3314 23.2013 31.8635 19.6691 31.8635 15.3378C31.8635 13.2925 31.0759 11.4253 29.7883 10.0242H29.789L24 4.23522L18.211 10.0242L10.0242 18.211L4.23522 24L10.0242 29.789L10.0242 29.7883ZM37.9758 18.2109V18.2116C34.6409 22.2321 29.6113 24.7984 24 24.7986C19.6686 24.7988 16.1366 28.3308 16.1366 32.6623C16.1366 34.7075 16.9241 36.5746 18.2116 37.9758H18.211L24 43.7647L29.789 37.9758L37.9758 29.7889L43.7648 23.9999L37.9758 18.2109Z" fill="#F9B101"/>
</svg>
