<?xml version="1.0" encoding="utf-8"?>
<!-- Generator: Adobe Illustrator 17.0.0, SVG Export Plug-In . SVG Version: 6.00 Build 0)  -->
<!DOCTYPE svg PUBLIC "-//W3C//DTD SVG 1.1//EN" "http://www.w3.org/Graphics/SVG/1.1/DTD/svg11.dtd">
<svg version="1.1" id="Layer_1" xmlns="http://www.w3.org/2000/svg" xmlns:xlink="http://www.w3.org/1999/xlink" x="0px" y="0px"
	 width="48px" height="48px" viewBox="0 0 48 48" enable-background="new 0 0 48 48" xml:space="preserve">
<polygon fill="#009FDF" points="14.539,15.495 3.248,15.495 2.428,17.734 13.719,17.734 "/>
<polygon fill="#009FDF" points="13.309,18.869 2.018,18.869 1.198,21.108 12.489,21.108 13.309,18.869 "/>
<polygon fill="#009FDF" points="12.079,22.212 0.789,22.212 0,24.451 11.29,24.451 12.079,22.212 "/>
<path fill="#0A2973" d="M19.502,32.505l-4.23-13.447h2.967l1.642,5.84c0.473,1.736,0.726,2.652,1.042,4.104
	c0.284-1.389,0.473-2.052,1.01-4.009l1.642-5.934h2.841l-4.293,13.447H19.502z"/>
<polygon fill="#0A2973" points="30.853,32.505 30.853,21.315 26.968,21.315 26.968,19.058 37.763,19.058 36.995,21.315 
	33.552,21.315 33.552,32.505 "/>
<path fill="#0A2973" d="M46.86,26.107c-0.256-0.209-0.744-0.535-1.256-0.721V25.34c0.489-0.209,0.815-0.489,1.047-0.721
	c0.535-0.512,0.861-1.28,0.861-2.187c0-1.698-1.024-2.769-2.582-3.188c-0.535-0.139-1.14-0.186-2.024-0.186H38.6v13.447h4.862
	c0.954,0,1.466-0.046,1.955-0.186C47.023,31.901,48,30.574,48,28.736C48,27.62,47.651,26.759,46.86,26.107z M41.276,21.268h1.419
	c0.512,0,0.768,0.023,1.024,0.093c0.605,0.186,1.024,0.581,1.024,1.489c0,0.768-0.396,1.326-1.024,1.512
	c-0.233,0.07-0.465,0.07-0.931,0.07h-1.512V21.268z M44.603,29.9c-0.372,0.349-0.884,0.396-1.443,0.396h-1.861v-3.536h1.768
	c0.838,0,1.327,0.117,1.722,0.605c0.233,0.302,0.349,0.721,0.349,1.164C45.138,29.109,44.975,29.551,44.603,29.9z"/>
</svg>
